<svg width="77" height="20" viewBox="0 0 77 20" fill="none" xmlns="http://www.w3.org/2000/svg">
<path d="M21.9648 7.02539C22.0907 7.02539 22.2379 7.04687 22.3848 7.04688H22.4688C23.1611 7.04687 23.3081 7.02602 23.9795 7.21484C24.3359 7.31968 24.5875 7.42437 24.7344 7.4873C24.8603 7.55025 25.091 7.69745 25.3848 7.94922C25.5946 8.11705 25.7835 8.26401 26.1191 8.68359C26.287 8.91442 26.6022 9.33373 26.707 9.56445C26.7699 9.71118 26.7906 9.81615 26.8535 9.96289C26.9164 10.1097 26.9795 10.2146 27.0215 10.3613C27.2523 10.9907 27.2734 12.0191 27.2734 12.082C27.2734 12.2708 27.2939 12.4181 27.2939 12.6279C27.2939 12.7953 27.2524 12.9418 27.2314 13.0049C27.1685 13.2147 26.9796 13.5087 26.5391 13.5088H25.8672C25.1961 13.5088 24.7136 13.5508 24.0215 13.5508C23.7697 13.5508 23.6014 13.5503 23.3496 13.5293C23.0981 13.5083 22.993 13.4878 22.8672 13.5088C22.6786 13.5088 22.5528 13.5293 22.3643 13.5293C22.1964 13.5503 22.0907 13.5508 21.9229 13.5508C21.6503 13.5508 21.4616 13.5293 21.21 13.5293C20.8533 13.5293 20.6436 13.6345 20.6436 13.8652C20.6436 13.9281 20.6434 14.012 20.748 14.1377C21.0208 14.5363 21.7346 14.8516 22.0703 14.9355C22.3006 14.9983 22.3846 14.998 22.4893 14.998C22.6571 14.998 22.7838 14.9775 22.9307 14.9775C23.1192 14.9776 23.245 15.0195 23.4336 15.0195H23.4551C23.5808 15.0195 23.6648 14.998 23.8115 14.998C24.147 14.998 24.0843 14.9565 24.3984 14.9355C24.6082 14.9146 24.7556 14.9145 24.9443 14.8936C25.1331 14.8726 25.1961 14.8514 25.3848 14.7676C25.9722 14.5788 26.4132 14.4111 26.623 14.4111C26.707 14.4112 26.833 14.4316 26.833 14.4316C26.9589 14.4526 27.2098 14.495 27.21 14.8301C27.21 14.9769 27.1889 15.1036 27.168 15.2715V16.3203C27.1889 16.4251 27.21 16.5094 27.21 16.6143C27.2098 16.8657 27.0846 16.971 26.833 17.1387C26.2036 17.6002 25.5318 17.7257 24.9023 17.8516C24.6298 17.8935 24.462 17.956 24.1895 17.9561C23.8118 17.9561 23.5383 17.998 23.1396 17.998C22.8462 17.998 22.6573 17.9565 22.3428 17.9355C22.2794 17.9355 21.4824 17.9149 20.958 17.7471C20.6643 17.6422 20.4544 17.537 20.1816 17.4111C19.6782 17.1804 19.552 17.2435 18.7549 16.5303C18.2725 16.1108 18.0422 15.7747 17.8115 15.2715C17.7067 15.0618 17.5596 14.705 17.5176 14.4951C17.4337 14.2853 17.4121 14.117 17.3701 13.8652C17.2862 13.4877 17.2236 13.1515 17.2236 12.7529C17.2027 12.5437 17.2027 12.648 17.2236 12.3545C17.2656 11.914 17.2867 11.5992 17.3496 11.1797C17.3496 11.0957 17.3702 10.9275 17.4121 10.7598C17.4751 10.5079 17.6646 10.0678 17.6855 10.0469C17.7067 10.0044 17.7899 9.7525 17.9365 9.54297C18.0414 9.35422 18.1466 9.22835 18.2725 9.06055C18.6291 8.59905 18.7133 8.45231 19.2168 8.05371C19.7832 7.59218 19.9931 7.52913 20.5596 7.31934C21.2726 7.04671 21.6083 7.0254 21.9648 7.02539ZM33.1377 7.00391C33.5361 7.00392 34.0182 7.06634 34.1025 7.06641C35.1306 7.19229 35.7811 7.46554 36.2217 7.73828C36.2639 7.78035 36.6203 7.99002 36.7881 8.2207C36.872 8.32558 36.9142 8.38831 37.04 8.49316C37.1449 8.59807 37.1451 8.57771 37.208 8.68262C37.5432 9.16483 37.5439 9.87719 37.5439 9.96191V11.1367C37.523 11.3465 37.5225 11.4938 37.5225 11.7246C37.5225 11.9973 37.5645 12.1863 37.5645 12.459C37.5644 12.6268 37.5225 12.8156 37.5225 12.9834C37.5225 13.214 37.5644 13.3818 37.5645 13.6123C37.5645 14.0109 37.5225 14.2635 37.5225 14.6621C37.5225 15.0814 37.5644 15.3541 37.5645 15.7734C37.5645 16.0881 37.5439 16.2986 37.5439 16.6133C37.544 16.8229 37.5645 16.949 37.5645 17.1377C37.5645 17.2008 37.5854 17.3686 37.418 17.5361C37.1872 17.7878 36.7884 17.8091 36.5576 17.8301C36.3059 17.8301 36.1169 17.8086 35.8652 17.8086C35.6975 17.8296 35.5924 17.8301 35.4248 17.8301H35.0889C35.0469 17.851 35.0048 17.8506 34.9629 17.8506C34.816 17.8506 34.6899 17.725 34.627 17.5361C34.606 17.4102 34.5639 17.3472 34.501 17.3262C34.4801 17.3054 34.4588 17.3051 34.417 17.2842C34.3124 17.2844 34.2702 17.3684 34.1025 17.4941C33.9347 17.62 33.7246 17.6831 33.6826 17.7041C33.1586 17.8718 33.0325 17.9346 32.1729 17.9346H31.8994C31.7107 17.9136 31.5217 17.8721 31.333 17.8721C31.1864 17.8511 31.0398 17.8295 30.9141 17.8086C30.6623 17.7666 30.431 17.683 30.2002 17.5781C29.9275 17.4523 29.6551 17.347 29.4453 17.1582C29.2775 17.0114 29.1517 16.8436 29.0049 16.6758C28.858 16.5079 28.7108 16.3607 28.585 16.1719C28.5011 16.0251 28.4584 15.8572 28.3955 15.6895C28.3326 15.5427 28.2704 15.3747 28.2285 15.207C28.1656 14.9343 28.2075 14.6404 28.1865 14.3467C28.1656 14.1999 28.1445 14.053 28.1445 13.9062C28.1446 13.7175 28.1867 13.6124 28.3125 13.2559C28.3963 13.0463 28.438 12.8785 28.6055 12.6689C28.7104 12.5221 28.837 12.4379 28.9629 12.291C29.1097 12.1232 29.1935 11.9759 29.3613 11.8291C29.5713 11.6612 30.1165 11.3676 30.3262 11.3047C30.452 11.2627 30.5362 11.2422 30.6621 11.2002C30.7879 11.1583 30.8927 11.1162 31.0186 11.0742C31.606 10.9483 31.5432 11.0107 31.9209 10.9688C32.1514 10.9478 32.1306 10.9062 32.3613 10.9062C32.4662 10.9063 32.5504 10.9268 32.6553 10.9268C32.8438 10.9267 32.9697 10.8848 33.1582 10.8848C33.3469 10.8848 33.4521 10.9686 33.6406 10.9688H33.8301C33.935 11.0107 33.9352 11.0322 34.082 11.0322C34.2499 11.0321 34.543 10.9269 34.543 10.6963C34.5429 10.4446 34.2283 10.1718 33.9766 10.0879C33.6618 9.9621 33.0952 9.96191 33.0742 9.96191C32.8646 9.96194 32.6965 9.9834 32.4658 9.9834C32.2772 10.0043 32.1511 9.98294 31.9834 10.0039C31.6269 10.0669 31.4171 10.172 31.0605 10.2559C30.8927 10.2978 30.7459 10.277 30.5781 10.3398C30.4522 10.4028 30.3681 10.4444 30.2422 10.4863C30.1373 10.5283 30.0746 10.5499 29.9697 10.5918C29.9487 10.5918 29.7807 10.6548 29.6758 10.6758C29.5921 10.6967 29.5919 10.6963 29.5293 10.6963C29.4874 10.6963 28.9418 10.6754 28.9414 10.1934C28.9414 9.94159 29.0049 9.75224 29.0049 9.47949C29.0049 9.26971 28.9834 9.1224 28.9834 8.93359C29.0043 8.84988 29.0049 8.78691 29.0049 8.70312C29.0049 8.59831 28.9834 8.53506 28.9834 8.45117C28.9836 8.34579 29.0881 7.94766 29.2139 7.84277C29.2978 7.77983 29.8018 7.59129 29.8857 7.57031C30.1163 7.50742 30.2631 7.46522 30.4727 7.40234C30.6405 7.3394 30.7462 7.29732 30.9141 7.23438C31.019 7.21337 31.2077 7.17177 31.459 7.12988C32.0882 7.02501 32.3402 7.04537 32.6338 7.02441C32.7807 7.02441 32.8649 7.00391 33.0117 7.00391H33.1377ZM15.4307 0.00878906C15.6125 -0.0212766 15.6875 0.0251545 15.7686 0.046875C15.9912 0.106614 16.1604 0.204421 16.4033 0.269531C16.606 0.323833 16.7612 0.312886 16.9639 0.367188C17.1262 0.410694 17.6054 0.565633 17.7412 0.707031C17.821 0.805467 17.8634 0.96838 17.8652 0.975586C17.8789 1.00552 17.9201 1.17488 17.9141 1.27832C17.9146 1.35692 17.9213 1.33289 17.9082 1.38184L17.8691 1.52832C17.797 1.79769 17.7645 1.99926 17.6924 2.26855C17.5414 2.83208 17.3297 3.37984 17.1787 3.94336C17.0999 4.23738 17.0605 4.46325 17.002 4.7627C16.9631 4.98864 16.9243 5.13593 16.8652 5.35645C16.793 5.62587 16.6933 5.91416 16.6211 6.18359C16.5024 6.54557 16.4773 6.80162 16.3789 7.16895C16.2602 7.53093 16.1473 7.78989 16.0488 8.15723C15.957 8.50009 15.8995 8.87879 15.8076 9.22168C15.736 9.57014 15.5968 9.92748 15.5049 10.2705C15.3736 10.7605 15.3286 11.0901 15.1973 11.5801C15.1312 11.7459 15.1052 11.844 15.0391 12.0098L14.8809 12.5977C14.8349 12.7692 14.8223 12.8978 14.7764 13.0693C14.7173 13.2895 14.6515 13.4556 14.5859 13.7002C14.5466 13.8471 14.5403 13.9509 14.501 14.0977C14.4091 14.4407 14.296 14.6999 14.2041 15.043C14.1123 15.3858 14.0941 15.6172 14.0088 15.9355C13.9497 16.1561 13.8894 16.2981 13.8369 16.4941C13.7779 16.7145 13.7788 16.8724 13.7197 17.0928C13.6804 17.2396 13.6604 17.2343 13.5938 17.3213C13.4132 17.5091 13.0511 17.7275 12.8691 17.7578C12.7553 17.7796 12.6741 17.7575 12.6533 17.752C12.4912 17.7085 12.3755 17.6514 12.2402 17.5889C12.0241 17.5047 11.8418 17.4561 11.6191 17.3965C11.3152 17.315 11.085 17.2793 10.7607 17.1924L10.7207 17.1816C10.5789 17.1436 10.5246 17.103 10.4287 16.8936C10.3876 16.8038 10.2919 16.5943 10.2842 16.4609C10.2498 16.347 10.2623 16.2979 10.2754 16.249L10.2822 16.2236C10.3151 16.1013 10.3816 16.014 10.4209 15.8672L10.7559 14.6182C10.874 14.1771 11 13.8688 11.1182 13.4277C11.2429 12.9623 11.3548 12.6246 11.4795 12.1592C11.5451 11.9142 11.5977 11.6396 11.6699 11.3701C11.7684 11.0026 11.8739 10.7678 11.9658 10.4248C12.038 10.1554 12.0704 9.95402 12.1426 9.68457C12.2476 9.29263 12.3403 9.02861 12.4453 8.63672C12.5635 8.19568 12.6696 7.88236 12.7812 7.46582C12.86 7.17186 12.8917 6.97029 12.9502 6.6709C13.0087 6.37156 13.0616 6.17561 13.1338 5.90625C13.1797 5.73474 13.2384 5.51371 13.3643 5.20605C13.4502 4.96646 13.5569 4.73215 13.6094 4.53613C13.6553 4.36477 13.6678 4.23635 13.7061 3.93164C13.7453 3.78487 13.7511 3.6813 13.8232 3.41211C13.8889 3.16709 13.9558 3.00088 14.0215 2.75586L14.126 2.36426C14.1988 2.1737 14.259 2.03191 14.3115 1.83594L14.3174 1.81152C14.3633 1.64013 14.3901 1.5419 14.4092 1.38965C14.4414 1.1882 14.4483 1.16344 14.4746 1.06543L14.5928 0.624023C14.7309 0.109792 15.3901 -0.00206635 15.4307 0.00878906ZM44.4463 7.06641C44.6769 7.06641 44.8447 7.08743 45.0752 7.1084C45.18 7.1084 45.2644 7.08695 45.3691 7.08691C45.7257 7.06594 45.9566 7.15041 46.1035 7.19238C46.1247 7.21336 46.3552 7.2555 46.502 7.31836C46.5439 7.33932 46.6911 7.40181 46.6914 7.42285C46.9011 7.52772 47.0266 7.65399 47.1943 7.80078C47.4671 8.01058 47.4674 7.96843 47.6143 8.15723C47.7192 8.28311 47.7823 8.36728 47.8662 8.49316C48.1597 8.89146 48.1809 8.89162 48.3486 9.47852C48.4955 10.024 48.4951 10.0876 48.4951 10.4023C48.4951 10.696 48.4746 10.969 48.4746 11.2627C48.4537 11.6821 48.4951 11.976 48.4951 12.3955C48.4951 12.8779 48.4746 13.2135 48.4746 13.7168C48.4746 14.1574 48.5166 14.4725 48.5166 14.9131C48.5166 15.3955 48.4746 15.752 48.4746 16.2344C48.4746 16.528 48.4951 16.7172 48.4951 17.0107C48.4951 17.2835 48.4535 17.4517 48.3486 17.5566C48.2858 17.6195 48.3065 17.5983 48.2227 17.6611C48.1178 17.7451 48.0127 17.7451 47.9707 17.7451C47.8451 17.7451 47.7403 17.7247 47.5938 17.7246H46.209C45.9156 17.7246 45.5175 17.724 45.4746 17.7031C45.4117 17.6821 45.3906 17.6611 45.3486 17.6191C45.1389 17.4094 45.1592 17.0321 45.1592 16.5078C45.1592 16.1302 45.2227 15.8776 45.2227 15.5C45.2227 15.0807 45.2432 14.808 45.2432 14.3887C45.2222 14.1789 45.2227 14.0316 45.2227 13.8008C45.2227 13.4022 45.3065 12.8566 45.1807 11.9756C45.0968 11.4093 45.0129 11.1784 44.8242 10.8848C44.8242 10.8638 44.7401 10.7167 44.6143 10.6328C44.3647 10.4456 43.8882 10.4444 43.8799 10.4443H43.8379C43.691 10.4443 43.7538 10.4439 43.6279 10.4648C43.523 10.4858 43.1034 10.6539 43.0195 10.7168C42.8938 10.8007 42.8309 10.9474 42.7471 11.0732C42.7261 11.0942 42.5996 11.2628 42.5576 11.3887C42.4948 11.5775 42.4741 11.8504 42.4531 12.0391C42.4112 12.3116 42.4116 12.5003 42.3906 12.752V13.1719C42.3696 13.5072 42.3272 13.7379 42.3271 14.0732C42.3271 14.4719 42.3482 14.7664 42.3691 15.165C42.3691 15.5214 42.3697 15.794 42.3906 16.1504C42.3906 16.4022 42.4111 16.5915 42.4111 16.8643C42.4111 17.1159 42.3899 17.3044 42.1172 17.5352C41.9494 17.661 41.8657 17.6822 41.8027 17.7031C41.7212 17.7235 41.5801 17.7246 41.5723 17.7246C41.2785 17.7246 41.0681 17.7031 40.7744 17.7031C40.5858 17.7032 40.46 17.7451 40.2715 17.7451C40.1456 17.7451 40.0404 17.7246 39.8936 17.7246C39.7677 17.7246 39.6835 17.7241 39.5576 17.7031C39.4947 17.703 39.3896 17.6611 39.3896 17.6611C39.3059 17.6192 39.2426 17.5561 39.2217 17.5352C39.0752 17.3884 39.0756 17.1996 39.0547 16.8643C39.0337 16.5496 39.0967 16.3186 39.0967 16.0039V15.3115C39.0967 14.8292 39.1176 14.4935 39.0967 14.0322C39.0757 13.8014 39.0752 13.6331 39.0752 13.4023V12.6475C39.0752 12.5006 39.0547 12.3954 39.0547 12.2695C39.0547 11.9129 39.0967 11.6819 39.0967 11.3252C39.0967 10.7798 39.0752 10.4019 39.0752 9.85645C39.0752 9.3741 39.1176 9.03845 39.0967 8.53516V8.11523C39.0967 8.11523 39.0335 7.5701 39.4111 7.27637C39.5159 7.19256 39.6623 7.19238 39.6836 7.19238H39.8721C40.0399 7.19238 40.0407 7.17093 40.3135 7.21289C40.5021 7.23386 40.6072 7.25488 40.7959 7.25488C41.0056 7.23391 41.1526 7.21289 41.3623 7.21289H41.7812C41.9911 7.21289 42.2013 7.17153 42.3271 7.36035C42.3691 7.42388 42.4324 7.75834 42.5791 7.7793C42.642 7.77924 42.6633 7.73771 42.7891 7.6748C42.8729 7.61195 42.8726 7.61128 42.9355 7.56934C42.9773 7.52755 43.0195 7.48612 43.082 7.44434C43.1029 7.42349 43.1449 7.42291 43.166 7.40234C43.7115 7.15058 43.9218 7.06641 44.4463 7.06641ZM32.6338 13.3398C32.55 13.3608 32.4871 13.3819 32.4033 13.4238C32.3196 13.4448 32.2565 13.4446 32.1729 13.4863C31.9212 13.5492 31.8577 13.5494 31.7109 13.6123C31.5431 13.7172 31.3127 13.9482 31.3125 14.3047C31.3125 14.5565 31.4175 14.7247 31.4805 14.8086C31.6483 15.0392 31.8163 15.1027 32.2148 15.2285C32.4871 15.2914 32.4875 15.333 32.6553 15.333C32.823 15.3329 32.949 15.27 33.1377 15.249C33.2845 15.2281 33.3893 15.249 33.5361 15.207C33.7246 15.1652 33.934 15.0399 33.9766 15.0186C34.2073 14.8927 34.459 14.7033 34.459 14.2627C34.4588 13.9692 34.2913 13.759 33.7461 13.5283C33.6412 13.4864 33.557 13.4453 33.4521 13.4033C33.3682 13.3823 33.3471 13.3613 33.2422 13.3613C33.1165 13.3614 33.0326 13.3818 32.9277 13.3818C32.8229 13.3818 32.7597 13.3398 32.6758 13.3398H32.6338ZM22.4268 9.66895C22.154 9.68993 21.9022 9.71147 21.6504 9.77441C21.608 9.79542 21.3985 9.83723 21.21 9.96289C21.189 9.96289 20.6436 10.4036 20.6436 10.7393C20.6436 10.7812 20.6433 10.865 20.7061 10.9697C20.8319 11.2005 21.0001 11.1797 21.168 11.2217C21.2309 11.2217 21.3781 11.2637 21.5459 11.2637C21.6088 11.2636 21.7132 11.2432 21.7969 11.2432C21.9227 11.2432 22.0071 11.2636 22.1328 11.2637C22.2587 11.2847 22.3639 11.2637 22.5107 11.2637C22.6366 11.2637 22.7833 11.2851 22.9092 11.2852C23.014 11.2852 23.8314 11.1587 23.916 11.0957C24.0209 11.0328 24.0215 10.9491 24.0215 10.8652C24.0215 10.7397 23.9797 10.635 23.9795 10.5928C23.9166 10.404 23.8324 10.2151 23.4551 9.98438C23.2873 9.87951 23.203 9.83739 23.1191 9.81641C23.0353 9.79545 22.9934 9.77389 22.8887 9.75293C22.6789 9.68999 22.7411 9.66895 22.5312 9.66895H22.4268Z" fill="white"/>
<path d="M8.70121 5.49461V5.53657C8.70121 5.64148 8.70121 5.89324 8.63827 6.01913C8.57533 6.12403 8.47042 6.16599 8.44944 6.16599C8.32356 6.24991 8.23964 6.27089 8.11376 6.27089C7.98787 6.27089 7.94591 6.27089 7.75709 6.22893C7.65219 6.20795 7.44238 6.16599 7.19061 6.16599C6.54022 6.16599 5.91081 6.39677 5.701 6.50168C5.47022 6.62756 5.32335 6.73246 5.21845 6.7954C4.98767 6.96325 4.8408 7.06815 4.65198 7.27795C4.46315 7.48776 4.37923 7.69756 4.23237 7.97031C4.16943 8.07521 3.95962 8.38992 3.8757 8.70463C3.79178 9.01933 3.81276 9.29208 3.79178 9.87953C3.7708 10.0054 3.7708 10.1103 3.7708 10.2572C3.7708 11.0335 4.19041 12.0825 4.27433 12.2503C4.40021 12.5441 4.54708 12.7958 4.631 12.9007C4.71492 13.0476 4.77786 13.1315 4.86178 13.2574C5.05061 13.5092 5.36531 13.8448 5.61708 14.0127C5.76394 14.1176 6.12061 14.2645 6.54022 14.3694C6.5612 14.3694 7.00179 14.4743 7.27454 14.4743C7.33748 14.4743 7.86199 14.4323 7.92493 14.4113C8.05081 14.3694 8.13474 14.3274 8.23964 14.3274C8.53337 14.3274 8.72219 14.5162 8.72219 14.9778C8.72219 15.2086 8.68023 15.3554 8.70121 15.5862C8.74317 15.817 8.74317 15.817 8.74317 15.9639C8.74317 16.3415 8.68023 16.5933 8.68023 16.9709V17.0549C8.68023 17.2437 8.65925 17.4115 8.44944 17.6003C8.15572 17.8521 7.75709 17.8311 7.69415 17.8311C7.46336 17.8311 7.27454 17.8102 7.02277 17.8102C6.49826 17.7892 6.37238 17.7892 5.82688 17.7052C5.42826 17.6423 5.19747 17.6003 5.00865 17.5374C4.88276 17.4954 4.58904 17.3486 4.44217 17.3066C4.27433 17.2227 4.10649 17.1598 3.9806 17.0758C3.85472 16.9919 3.79178 16.929 3.68688 16.866C3.58197 16.7821 3.49805 16.7401 3.39315 16.6562C3.22531 16.5094 3.1204 16.4045 2.95256 16.2576C2.55393 15.9219 2.2602 15.775 1.92452 15.3764C1.77765 15.2086 1.69373 15.0827 1.56785 14.8939C1.46295 14.747 1.37902 14.6421 1.2951 14.4952C1.1902 14.2854 1.10628 14.1386 1.02236 13.9288C0.707649 13.2784 0.623727 13.1735 0.455883 12.5441C0.267059 11.8307 0.288039 11.4531 0.267059 11.1174C0.246078 10.9286 0.225098 10.8027 0.225098 10.5929C0.225098 10.3831 0.267059 10.2362 0.267059 10.0264C0.267059 9.81659 0.246078 9.69071 0.246078 9.4809C0.267059 9.14522 0.33 8.93541 0.371961 8.6207C0.371961 8.53678 0.455883 7.71854 0.623727 7.17305C0.77059 6.71148 0.980395 6.33383 1.0853 6.16599C1.16922 6.01913 1.35804 5.70442 1.46295 5.53657C1.71471 5.24285 1.90354 5.05402 2.17628 4.7603C2.36511 4.57147 2.55393 4.34069 2.8057 4.13088C3.45609 3.58539 4.69394 3.20774 4.69394 3.20774C5.65904 2.91402 6.18355 2.87205 6.62414 2.87205C6.85493 2.87205 7.02277 2.85107 7.25356 2.85107C7.4214 2.85107 7.5263 2.87205 7.69415 2.89304H8.02983C8.0718 2.89304 8.13474 2.89304 8.23964 2.935C8.36552 2.95598 8.51239 3.01892 8.59631 3.1448C8.63827 3.22872 8.70121 3.50147 8.70121 3.75323C8.70121 4.13088 8.63827 4.38265 8.65925 4.7603C8.68023 5.03304 8.70121 5.22187 8.70121 5.49461Z" fill="white"/>
<path d="M8.0708 6.50098C8.0805 8.42188 9.59238 9.98877 11.4917 10.085L11.6772 10.0889C9.69211 10.0889 8.08116 11.6931 8.0708 13.6758C8.06044 11.6931 6.45038 10.089 4.46533 10.0889H4.46436V10.0879L4.46533 10.0889C6.45061 10.0888 8.06082 8.48393 8.0708 6.50098Z" fill="white"/>
<path d="M72.0656 10.4443H72.0237C71.8768 10.4443 71.9397 10.4443 71.8139 10.4652C71.709 10.4862 71.2894 10.6541 71.2054 10.717C71.0795 10.8009 71.0166 10.9478 70.9327 11.0737C70.9117 11.0947 70.7858 11.2625 70.7439 11.3884C70.6809 11.5772 70.6599 11.85 70.639 12.0388C70.597 12.3115 70.597 12.5003 70.576 12.7521V13.1717C70.555 13.5074 70.5131 13.7382 70.5131 14.0739C70.5131 14.4725 70.5341 14.7662 70.555 15.1649C70.555 15.5215 70.555 15.7943 70.576 16.151C70.576 16.4027 70.597 16.5915 70.597 16.8643C70.597 17.1161 70.576 17.3049 70.3033 17.5357C70.1354 17.6615 70.0515 17.6825 69.9886 17.7035C69.9046 17.7245 69.7578 17.7245 69.7578 17.7245C69.4641 17.7245 69.2542 17.7035 68.9605 17.7035C68.7717 17.7035 68.6458 17.7455 68.457 17.7455C68.3311 17.7455 68.2262 17.7245 68.0793 17.7245C67.9535 17.7245 67.8695 17.7245 67.7437 17.7035C67.6807 17.7035 67.5758 17.6615 67.5758 17.6615C67.4919 17.6196 67.4289 17.5566 67.408 17.5357C67.2611 17.3888 67.2611 17.2 67.2401 16.8643C67.2191 16.5496 67.2821 16.3188 67.2821 16.0041V15.3117C67.2821 14.8292 67.3031 14.4935 67.2821 14.0319C67.2611 13.8011 67.2611 13.6333 67.2611 13.4025V12.6472C67.2611 12.5003 67.2401 12.3954 67.2401 12.2696C67.2401 11.9129 67.2821 11.6821 67.2821 11.3254C67.2821 10.7799 67.2611 10.4023 67.2611 9.85681C67.2611 9.37426 67.3031 9.03857 67.2821 8.53504V8.11543C67.2821 8.11543 67.2191 7.56994 67.5968 7.27621C67.7017 7.19229 67.8486 7.19229 67.8695 7.19229H68.0584C68.2262 7.19229 68.2262 7.17131 68.499 7.21327C68.6878 7.23425 68.7927 7.25523 68.9815 7.25523C69.1913 7.23425 69.3382 7.21327 69.548 7.21327H69.9676C70.1774 7.21327 70.3872 7.17131 70.5131 7.36013C70.555 7.42307 70.618 7.75876 70.7648 7.77974C70.8278 7.77974 70.8488 7.73778 70.9746 7.67484C71.0586 7.6119 71.0586 7.6119 71.1215 7.56994C71.1635 7.52798 71.2054 7.48601 71.2684 7.44405C71.2894 7.42307 71.3313 7.42307 71.3523 7.40209C71.8978 7.15033 72.1076 7.06641 72.6321 7.06641C72.8629 7.06641 73.0307 7.08739 73.2615 7.10837C73.3664 7.10837 73.4503 7.08739 73.5552 7.08739C73.9119 7.06641 74.1427 7.15033 74.2896 7.19229C74.3105 7.21327 74.5413 7.25523 74.6882 7.31817C74.7302 7.33915 74.877 7.40209 74.877 7.42307C75.0868 7.52798 75.2127 7.65386 75.3805 7.80072C75.6533 8.01053 75.6533 7.96857 75.8002 8.15739C75.9051 8.28327 75.968 8.3672 76.0519 8.49308C76.3456 8.89171 76.3666 8.89171 76.5345 9.47916C76.6813 10.0247 76.6813 10.0876 76.6813 10.4023C76.6813 10.696 76.6604 10.9688 76.6604 11.2625C76.6394 11.6821 76.6813 11.9758 76.6813 12.3954C76.6813 12.878 76.6604 13.2137 76.6604 13.7172C76.6604 14.1578 76.7023 14.4725 76.7023 14.9131C76.7023 15.3957 76.6604 15.7523 76.6604 16.2349C76.6604 16.5286 76.6813 16.7174 76.6813 17.0112C76.6813 17.2839 76.6394 17.4517 76.5345 17.5566C76.4715 17.6196 76.4925 17.5986 76.4086 17.6615C76.3037 17.7455 76.1988 17.7455 76.1568 17.7455C76.0309 17.7455 75.926 17.7245 75.7792 17.7245H74.3945C74.1007 17.7245 73.7021 17.7245 73.6601 17.7035C73.5972 17.6825 73.5762 17.6615 73.5343 17.6196C73.3245 17.4098 73.3454 17.0321 73.3454 16.5076C73.3454 16.13 73.4084 15.8782 73.4084 15.5006C73.4084 15.0809 73.4294 14.8082 73.4294 14.3886C73.4084 14.1788 73.4084 14.0319 73.4084 13.8011C73.4084 13.4025 73.4923 12.857 73.3664 11.9758C73.2825 11.4094 73.1986 11.1786 73.0098 10.8849C73.0098 10.8639 72.9258 10.717 72.7999 10.6331C72.5482 10.4443 72.0656 10.4443 72.0656 10.4443Z" fill="white"/>
<path d="M60.7167 3.72956V3.57973C60.7167 3.52979 60.7167 3.55476 60.6961 3.47985C60.6754 3.37996 60.5928 3.23013 60.5721 3.20516C60.5721 3.20516 60.4895 3.05533 60.3863 2.98042C60.221 2.88053 59.7253 2.85556 59.5601 2.85556C59.3536 2.85556 59.209 2.9055 59.0024 2.9055C58.7546 2.9055 58.5687 2.85556 58.3415 2.85556C58.2589 2.85556 58.1763 2.83059 58.0111 2.9055C57.9698 2.9055 57.3708 3.18019 57.3708 3.70459V4.15408V4.15408C57.3708 4.25397 57.3708 4.27894 57.3914 4.47871C57.4121 4.62854 57.4121 4.72843 57.4121 4.90323C57.4121 5.35272 57.3665 6.51266 57.3665 6.96215V8.23571C57.3665 8.38553 57.3252 8.48542 57.3252 8.61028V8.63525C57.3252 8.6852 57.3252 8.73513 57.3872 8.83502C57.4285 8.95988 57.573 9.13468 57.635 9.2096C57.7796 9.3844 57.8415 9.40937 57.9861 9.40937H58.0274C58.3579 9.40937 58.5851 9.3844 58.8949 9.3844H58.8949C59.1221 9.3844 59.308 9.3844 59.5352 9.40937C59.6797 9.43434 59.8037 9.45931 59.9689 9.45931C59.9895 9.45931 60.0722 9.45931 60.1754 9.40937C60.3407 9.33445 60.6298 9.0348 60.7537 8.81005C60.7951 8.71017 60.8157 8.71017 60.8157 8.56034C60.8157 8.33559 60.7744 8.18576 60.7744 7.96102C60.7744 7.76124 60.7951 7.61141 60.7951 7.38667C60.7951 6.51893 60.7374 4.82832 60.7374 4.47871C60.7374 4.20403 60.7167 4.00425 60.7167 3.72956Z" fill="white"/>
<path d="M55.7171 5.03142C55.9904 5.03143 56.1707 4.97781 56.4113 5.17798C56.5478 5.36791 56.5138 5.4057 56.5365 5.47689C56.5586 5.56939 56.5594 5.72933 56.5594 5.73808C56.5594 6.07074 56.5365 6.30878 56.5365 6.64135C56.5365 6.85523 56.5823 6.99852 56.5824 7.21234C56.5824 7.35483 56.5594 7.47419 56.5594 7.6404C56.5594 7.78277 56.5592 7.87819 56.5365 8.02057C56.5364 8.08958 56.5084 8.26151 56.5072 8.2687C56.4617 8.36374 56.3465 8.43352 56.3236 8.45733C56.2934 8.48886 56.2615 8.51013 56.229 8.52771C56.2251 8.53151 56.2211 8.53533 56.2172 8.53932C56.0738 8.68475 56.0589 8.7289 55.8868 8.97608C55.7722 9.15039 55.7006 9.23785 55.6003 9.39761C55.5574 9.49901 55.5001 9.687 55.4855 9.68855C55.4568 9.79031 55.4133 9.86323 55.3846 9.96497C55.356 10.0813 55.3131 10.4882 55.313 10.6194C55.313 10.7211 55.3422 10.8086 55.3422 10.9248C55.3422 11.0993 55.3133 11.2306 55.3276 11.4196C55.3276 11.4923 55.3278 11.5798 55.3707 11.7396C55.3852 11.8563 55.6002 12.5247 55.6434 12.6414C55.8155 13.0775 56.0022 13.2374 56.1887 13.4555C56.3178 13.6009 56.3747 13.7178 56.5038 13.8632C56.6616 14.0232 56.9487 14.183 57.0922 14.2557C57.8239 14.6775 57.9245 14.6343 58.3692 14.6925C58.5986 14.7361 58.7421 14.7795 58.9716 14.7795C59.1007 14.7795 59.2014 14.7651 59.3305 14.7505C59.4595 14.7505 59.5603 14.7505 59.6894 14.736C59.8185 14.736 60.0047 14.7208 60.3056 14.6192C60.3773 14.6047 60.435 14.5902 60.5066 14.5612C60.607 14.5175 60.6793 14.4742 60.7654 14.4306C60.8514 14.387 60.9228 14.3718 61.0088 14.3428C61.011 14.342 61.0959 14.3133 61.1382 14.2847C61.2242 14.2411 61.2963 14.1833 61.3823 14.1106C61.4116 14.0957 61.5687 14.0082 61.6974 13.8922C61.8122 13.7904 61.8845 13.6736 62.0709 13.4409C62.1712 13.3103 62.243 13.2227 62.329 13.092C62.5584 12.7576 62.5874 12.5684 62.6448 12.423C62.8599 11.8706 62.8598 12.0301 62.9028 11.2593C62.9171 11.0995 62.9316 10.9831 62.9459 10.8233C62.9602 10.2998 62.7738 9.81962 62.7164 9.6305C62.5443 9.16517 62.5008 9.04851 62.2712 8.78672C62.2202 8.72977 62.178 8.67689 62.137 8.62638C62.0001 8.5293 61.8909 8.40083 61.8247 8.33182C61.7951 8.2906 61.6939 8.22516 61.6606 8.08877C61.6272 7.95237 61.591 7.71175 61.591 7.54535L61.6105 6.89891L61.6494 6.30402C61.6494 6.07965 61.5881 5.57226 61.6105 5.5226C61.6333 5.45129 61.607 5.40867 61.7412 5.25053C61.9137 5.0474 62.2569 5.04012 62.8263 5.04013C62.8827 5.05309 62.9323 5.07772 62.9779 5.10833C63.0718 5.13654 63.168 5.17462 63.2575 5.21643C63.3727 5.29423 63.9354 5.6548 64.1423 5.9006C64.3747 6.22816 64.5301 6.44699 64.7884 6.74728C65.2016 7.23859 65.2791 7.45774 65.589 8.33109C65.6925 8.68632 66.0286 9.588 66.0029 10.5708C65.977 10.8709 65.9508 11.0898 65.925 11.3899C65.8475 12.8369 65.8478 12.5376 65.4603 13.5752C65.3571 13.8482 65.3045 14.2033 64.8914 14.831C64.7364 15.0766 64.6075 15.2413 64.4267 15.4869C64.091 15.9236 63.9614 16.1425 63.7548 16.3336C63.5224 16.5519 63.2378 16.7154 63.1859 16.7428C63.031 16.8792 62.9019 16.9888 62.747 17.0707C62.6703 17.1247 62.5175 17.179 62.514 17.1803C62.3591 17.2348 62.23 17.2624 62.0751 17.3443C61.9202 17.4261 61.7905 17.5076 61.6098 17.5895C61.4807 17.6441 61.3772 17.6717 61.2481 17.699C60.7055 17.8902 60.3692 17.9174 60.1366 17.9174C59.9043 17.9447 59.7235 17.945 59.4911 17.945C59.2587 17.9723 59.0775 17.9994 58.845 17.9994C58.4315 17.9994 58.1727 17.9174 57.7592 17.8354C56.9585 17.7263 56.7772 17.8081 55.4598 17.0163C55.2014 16.8798 54.6847 16.5788 54.4004 16.2785C54.168 16.0055 54.0639 15.7867 53.8315 15.5138C53.4957 15.1044 53.1593 14.8032 52.8494 13.9844C52.7714 13.7644 52.3855 12.5118 52.359 12.2917C52.2816 11.9917 52.2811 11.8267 52.2811 11.6903C52.2554 11.3357 52.3068 11.0896 52.3068 10.7623C52.3068 10.5441 52.2554 10.3794 52.2554 10.1884C52.2554 9.94246 52.3331 9.17824 52.3847 8.9594C52.4364 8.76851 52.5139 8.63154 52.5656 8.44065C52.5916 8.43947 52.6948 8.08526 52.7722 7.89433C52.9529 7.5941 53.0824 7.42956 53.289 7.10206C53.5988 6.63816 53.6255 6.55585 53.8836 6.28295C54.0644 6.09205 54.2197 6.00956 54.4004 5.81861C54.5204 5.69182 54.7494 5.48776 55.0063 5.28971C55.1632 5.11878 55.4252 5.03143 55.7171 5.03142Z" fill="white"/>
</svg>
