<svg width="81" height="20" viewBox="0 0 81 20" fill="none" xmlns="http://www.w3.org/2000/svg">
<path d="M80.3622 17.9593H79.4154C79.1067 17.9593 78.9009 17.9387 78.6128 17.9593C78.4687 17.9593 78.3452 17.9799 78.2011 17.9799C78.1188 17.9799 78.1394 17.9799 78.0571 17.9593C77.8924 17.8976 77.6043 17.6917 77.4808 17.5477C77.3573 17.4036 77.275 17.2184 77.275 17.1772C77.2544 17.136 77.2338 17.1155 77.2132 17.0743C77.1515 16.992 77.1103 16.9302 77.0486 16.8479C76.9868 16.7244 76.9457 16.6215 76.8428 16.3745C76.8016 16.3334 76.8016 16.2922 76.781 16.2305C76.7193 16.0864 76.6781 15.9835 76.6164 15.86C76.534 15.6542 76.4105 15.4689 76.1636 15.0985C75.9166 14.728 75.7725 14.4605 75.5461 14.4399C75.505 14.4399 75.3609 14.4605 75.2374 14.5634C74.9904 14.7692 74.9904 15.1396 74.9904 15.366C74.9698 15.5101 74.9698 15.6336 74.9698 15.7777V16.0452C74.9493 16.1687 74.9287 16.2716 74.9287 16.4157C74.9287 16.7038 74.9698 16.9097 74.9698 17.1978C74.9698 17.2801 74.9698 17.3419 74.9287 17.4242C74.8875 17.5683 74.7023 17.8358 74.5582 17.8976C74.4759 17.9593 74.373 17.9387 74.3524 17.9387C74.2083 17.9387 74.1054 17.9593 73.9614 17.9593H73.8996C73.7761 17.9593 73.6732 17.9387 73.5497 17.9593C73.4468 17.9593 73.3851 17.9799 73.2822 17.9799C73.1175 17.9799 73.0146 17.9593 72.8705 17.9593C72.6236 17.9593 72.4589 18.0005 72.2119 18.0005C72.0679 18.0005 72.0061 17.9387 71.9444 17.877C71.6356 17.5683 71.6974 17.6712 71.6768 17.2184V16.8685C71.6768 16.745 71.6974 16.6627 71.6974 16.5392C71.6974 16.4363 71.6768 16.354 71.6768 16.251C71.6768 16.1276 71.6974 16.0041 71.6974 15.86V15.222C71.6974 15.0367 71.6768 14.9132 71.6768 14.728C71.6768 14.3781 71.6974 14.1312 71.6768 13.8018C71.6768 13.5343 71.6562 13.3285 71.6562 13.0609C71.6768 12.6904 71.718 12.3406 71.718 11.9701C71.718 11.4556 71.6356 11.1057 71.6356 10.5911C71.6356 9.91195 71.6768 9.43858 71.6768 8.75939C71.6768 8.18311 71.6562 7.79206 71.6562 7.21578V7.09229C71.6562 6.7424 71.6356 6.49542 71.6356 6.16612C71.6356 5.98089 71.6768 5.83682 71.6768 5.65158C71.6768 5.46635 71.6562 5.32228 71.6562 5.13705C71.6562 4.93123 71.6356 4.78716 71.6356 4.58135C71.6356 4.47844 71.6562 4.41669 71.6562 4.31379C71.6562 4.06681 71.5739 3.92274 71.718 3.69634C71.7386 3.6346 71.7591 3.61402 71.8415 3.53169C72.0061 3.42878 72.1502 3.42878 72.1913 3.42878C72.3766 3.42878 72.5001 3.44937 72.6853 3.44937H73.3233C73.488 3.44937 73.5909 3.44937 73.735 3.42878C73.8584 3.42878 73.9614 3.4082 74.1054 3.4082C74.4759 3.4082 74.9081 3.6346 74.9081 4.00507C74.9081 4.12855 74.8875 4.21088 74.8875 4.33437C74.8875 4.54018 74.9287 4.89007 74.9287 4.91065C74.9287 5.01356 74.9493 5.09588 74.9493 5.19879C74.9493 5.23995 74.9287 5.34286 74.9287 5.46635C74.9081 5.58984 74.8875 5.61042 74.8875 5.79565C74.8875 6.16612 74.9287 6.4131 74.9287 6.78356C74.9287 7.21578 74.9081 7.50392 74.9081 7.93613V8.71822C74.9081 8.98578 74.9081 9.10927 74.9287 9.23276C74.9493 9.33567 75.0522 10.5294 75.4226 10.5294C75.4844 10.5294 75.5667 10.4882 75.6285 10.4676C75.8754 10.3647 75.8754 10.303 76.0812 9.95311C76.1636 9.82962 76.2253 9.7473 76.2871 9.62381C76.3282 9.58265 76.3488 9.54148 76.3694 9.50032C76.4311 9.33567 76.4517 9.23276 76.4929 9.06811C76.5958 8.82113 76.6164 8.77997 76.6369 8.6359C76.6781 8.51241 76.6575 8.4095 76.6987 8.26543C76.6987 8.20369 76.7399 8.14194 76.7399 8.0802C76.7604 7.99787 76.781 7.93613 76.781 7.89496L76.8839 7.79206C77.0486 7.64799 77.275 7.66857 77.6454 7.66857C77.8513 7.66857 77.8924 7.66857 78.0159 7.68915C78.0982 7.70973 78.1188 7.73031 78.2423 7.73031C78.4481 7.73031 78.5716 7.66857 78.7774 7.66857C78.8803 7.66857 78.9832 7.68915 79.0861 7.68915C79.2096 7.68915 79.3125 7.66857 79.4154 7.66857C79.5595 7.66857 79.6007 7.68915 79.683 7.73031C79.8065 7.79206 79.9917 8.03904 79.9917 8.34776C79.9917 8.4095 79.9917 8.51241 79.9506 8.67706C79.8888 9.08869 79.8477 9.04753 79.7242 9.43858C79.7036 9.54148 79.6418 9.80904 79.6007 9.89137C79.5184 10.0766 79.436 10.1795 79.3743 10.3647C79.189 10.797 79.3125 10.694 79.0656 11.1263C78.8186 11.5379 78.3246 12.1759 78.3246 12.5875C78.3246 12.8757 78.5716 13.1432 78.6128 13.2256C78.6539 13.2667 78.6745 13.3079 78.6951 13.3491C78.798 13.5137 78.8597 13.6372 78.9627 13.8018C79.045 13.9459 79.1067 14.0282 79.1685 14.1723C79.2714 14.337 79.3331 14.4605 79.4154 14.6251C79.4978 14.7692 79.5801 14.8515 79.6624 14.9956C79.7448 15.0985 79.7653 15.1808 79.8271 15.2837C79.8888 15.366 79.93 15.4278 79.9917 15.5307C80.0741 15.6542 80.0946 15.7571 80.177 15.86C80.2387 16.0041 80.321 16.0658 80.4034 16.2099C80.4857 16.354 80.5268 16.4569 80.6092 16.6009C80.7121 16.745 80.7944 16.8067 80.8561 16.9508C80.9591 17.136 81.0002 17.2595 81.0002 17.3419C81.0002 17.383 81.0002 17.4036 80.9796 17.4859C80.9591 17.5477 80.9796 17.6712 80.8356 17.8564C80.7532 17.9593 80.6915 17.9799 80.6503 17.9799C80.5268 17.9799 80.4651 17.9593 80.3622 17.9593Z" fill="white"/>
<path d="M54.4417 3.4839H54.5446C54.9151 3.4839 55.1826 3.44274 55.5531 3.44274C55.7177 3.44274 55.8618 3.46332 56.047 3.46332C56.1911 3.46332 56.3558 3.44274 56.5204 3.44274H56.9732C57.1996 3.44274 57.3643 3.42216 57.5701 3.44274C57.7347 3.44274 57.8582 3.4839 58.0229 3.46332C58.1463 3.46332 58.2698 3.44274 58.4139 3.44274C58.702 3.44274 58.9284 3.52507 59.2166 3.52507C59.4636 3.52507 59.6076 3.46332 59.834 3.46332C60.0193 3.46332 60.3074 3.56623 60.328 3.58681C60.4926 3.68972 60.5544 3.9367 60.5544 4.22484V4.61589C60.5544 4.92461 60.575 5.13042 60.575 5.43914V5.72728C60.575 5.85077 60.5955 5.95368 60.5955 6.07717C60.5955 6.13892 60.5955 6.30357 60.4103 6.4888C60.1839 6.75636 59.8752 6.77694 59.6076 6.77694H59.2783C58.558 6.77694 58.1052 6.75636 57.7965 7.00334C57.7141 7.06508 57.6936 7.10624 57.5906 7.22973C57.4466 7.41497 57.4466 7.39439 57.426 7.51787C57.3848 7.68253 57.426 7.68253 57.3848 7.90892C57.3643 8.11474 57.3437 8.23822 57.3231 8.44404V8.97916C57.3025 9.18497 57.3025 9.30846 57.3025 9.51428C57.3025 9.76125 57.3231 9.94649 57.3231 10.1935C57.3231 10.4199 57.3025 10.5845 57.3025 10.7903C57.3025 11.1814 57.3231 11.4489 57.3437 11.84C57.3437 12.0252 57.3643 12.1487 57.3643 12.3134C57.3643 12.5192 57.3437 12.6427 57.3643 12.8485C57.3848 12.9925 57.3848 13.0955 57.3848 13.2601C57.3848 13.6717 57.3231 13.9599 57.3231 14.3715C57.3437 14.6596 57.3848 14.8655 57.3848 15.1536C57.3848 15.38 57.3643 15.5446 57.3848 15.7505V16.018C57.3848 16.2238 57.3437 16.3885 57.3437 16.6149C57.3437 16.8413 57.3848 17.0265 57.3848 17.2735C57.3848 17.4176 57.3643 17.4381 57.3231 17.5205C57.2613 17.6645 57.0761 17.8292 56.8086 17.8909C56.6233 17.9321 56.4381 17.9321 56.3969 17.9321H55.8412C55.6354 17.9321 55.4913 17.9527 55.2855 17.9321C55.1003 17.9321 54.9562 17.8909 54.771 17.8909H54.7504C54.6063 17.9115 54.4828 17.9321 54.3594 17.9321C53.9683 17.9321 53.886 17.5205 53.8654 17.4587C53.8448 17.3558 53.8037 17.2941 53.8037 17.1912C53.8037 17.0883 53.8242 17.0265 53.8242 16.9442C53.8242 16.7795 53.8242 16.6766 53.8448 16.512C53.8654 16.2856 53.8654 16.1209 53.8654 15.9151V13.5277C53.8448 13.3218 53.8242 13.1572 53.8242 12.9514C53.8242 12.6427 53.886 12.4368 53.886 12.1281C53.9066 11.8606 53.8654 11.6959 53.8654 11.4284C53.886 11.2431 53.9066 11.1196 53.9271 10.9344C53.9271 10.6874 53.886 10.3787 53.8654 10.317V9.92591C53.8654 9.51428 53.886 9.22614 53.886 8.79392C53.886 8.62927 53.886 8.50578 53.8654 8.34113C53.8654 8.21764 53.8448 8.11474 53.8448 7.99125C53.8448 7.88834 53.8654 7.8266 53.8654 7.74427C53.8654 7.6002 53.8242 7.41497 53.7625 7.2709C53.5361 6.7152 52.8775 6.67403 51.9925 6.67403C51.7867 6.67403 51.622 6.69461 51.5397 6.69461C51.4368 6.7152 51.3545 6.73578 51.231 6.73578C50.9634 6.73578 50.7576 6.55054 50.6547 6.46822C50.5518 6.36531 50.4695 6.24182 50.4489 6.20066C50.4489 6.1595 50.4077 6.03601 50.4077 5.91252C50.4077 5.58322 50.4489 5.33624 50.4489 4.98635C50.4489 4.84228 50.4283 4.73937 50.4283 4.5953V4.14251C50.4283 4.06019 50.4283 3.99844 50.4489 3.95728C50.4489 3.87495 50.4489 3.83379 50.49 3.77205C50.5724 3.64856 50.6547 3.60739 50.6959 3.56623C50.8605 3.4839 50.9634 3.44274 51.2721 3.44274C51.4985 3.44274 51.6426 3.46332 51.869 3.4839H52.26C52.7128 3.4839 53.0216 3.46332 53.4538 3.46332C53.8242 3.46332 54.0712 3.4839 54.4417 3.4839Z" fill="white"/>
<path d="M21.7466 7.02783C21.8725 7.02783 22.0196 7.04932 22.1665 7.04932H22.2505C22.9428 7.04931 23.0898 7.02843 23.7612 7.21729C24.1179 7.3222 24.3702 7.4268 24.5171 7.48975C24.6431 7.55279 24.8739 7.70004 25.1675 7.95166C25.3772 8.11946 25.5662 8.26649 25.9019 8.68604C26.0697 8.91685 26.3848 9.33606 26.4897 9.56689C26.5527 9.7138 26.5733 9.81941 26.6362 9.96631C26.6992 10.1131 26.7623 10.2179 26.8042 10.3647C27.0349 10.9939 27.0561 12.0214 27.0562 12.0854C27.0562 12.2743 27.0767 12.4215 27.0767 12.6313C27.0766 12.7992 27.0351 12.9463 27.0142 13.0093C26.9511 13.2191 26.7621 13.5121 26.3218 13.5122H25.6499C24.9784 13.5122 24.4957 13.5542 23.8032 13.5542C23.5514 13.5542 23.3832 13.5547 23.1313 13.5337C22.8797 13.5127 22.7748 13.4912 22.6489 13.5122C22.4601 13.5122 22.3339 13.5337 22.145 13.5337C21.9773 13.5546 21.8724 13.5542 21.7046 13.5542C21.4318 13.5542 21.2425 13.5337 20.9907 13.5337C20.6342 13.5338 20.4243 13.6389 20.4243 13.8696C20.4243 13.9326 20.425 14.0163 20.5298 14.1421C20.8026 14.5406 21.5152 14.8559 21.8511 14.9399C22.0817 15.0028 22.1662 15.0024 22.271 15.0024C22.4389 15.0024 22.5655 14.9819 22.7124 14.9819C22.9009 14.982 23.0268 15.0239 23.2153 15.0239H23.2368C23.3626 15.0239 23.4465 15.0025 23.5933 15.0024C23.929 15.0024 23.8664 14.9609 24.1812 14.9399C24.3909 14.919 24.5382 14.9189 24.7271 14.8979C24.9156 14.877 24.9787 14.8559 25.1675 14.772C25.755 14.5831 26.1959 14.4146 26.4058 14.4146C26.4897 14.4146 26.6157 14.436 26.6157 14.436C26.7417 14.457 26.9925 14.4993 26.9927 14.8345C26.9927 14.9814 26.9717 15.108 26.9507 15.2759V16.3247C26.9717 16.4296 26.9927 16.5137 26.9927 16.6187C26.9926 16.8703 26.8673 16.9753 26.6157 17.1431C25.9863 17.6047 25.3145 17.731 24.6851 17.8569C24.4123 17.8989 24.244 17.9614 23.9712 17.9614C23.5934 17.9614 23.3201 18.0034 22.9214 18.0034C22.6279 18.0034 22.439 17.9619 22.1245 17.9409C22.0616 17.9409 21.2644 17.9193 20.7397 17.7515C20.4459 17.6465 20.2352 17.5414 19.9624 17.4155C19.4592 17.1849 19.3328 17.248 18.5356 16.5347C18.0531 16.1151 17.8221 15.7793 17.5913 15.2759C17.4864 15.066 17.3393 14.7084 17.2974 14.4985C17.2136 14.289 17.1928 14.1211 17.1509 13.8696C17.0669 13.4919 17.0034 13.156 17.0034 12.7573C16.9824 12.5475 16.9824 12.6517 17.0034 12.3579C17.0454 11.9174 17.0665 11.6027 17.1294 11.1831C17.1294 11.0991 17.1509 10.931 17.1929 10.7632C17.2557 10.5123 17.4432 10.0744 17.4653 10.0503C17.4863 10.0083 17.5704 9.75623 17.7173 9.54639C17.8222 9.35758 17.9274 9.23177 18.0532 9.06396C18.41 8.60227 18.4939 8.45488 18.9976 8.05615C19.564 7.59461 19.7739 7.53157 20.3403 7.32178C21.0538 7.04896 21.3898 7.02783 21.7466 7.02783ZM32.9204 7.00635C33.3191 7.00635 33.8023 7.06885 33.8862 7.06885C34.9144 7.19475 35.5647 7.46795 36.0054 7.74072C36.0473 7.78269 36.4049 7.9923 36.5728 8.22314C36.6566 8.32798 36.6989 8.39073 36.8247 8.49561C36.9296 8.60047 36.9288 8.58019 36.9917 8.68506C37.3275 9.16774 37.3276 9.88139 37.3276 9.96533V11.1401C37.3067 11.35 37.3071 11.4972 37.3071 11.728C37.3071 12.0007 37.3491 12.1897 37.3491 12.4624C37.3491 12.6302 37.3072 12.819 37.3071 12.9868C37.3071 13.2177 37.3491 13.3859 37.3491 13.6167C37.3491 14.0152 37.3072 14.267 37.3071 14.6655C37.3071 15.0852 37.3491 15.3583 37.3491 15.7778C37.3491 16.0926 37.3276 16.3029 37.3276 16.6177C37.3276 16.8274 37.3491 16.9533 37.3491 17.1421C37.3491 17.205 37.3695 17.3727 37.2017 17.5405C36.9708 17.7924 36.5722 17.8135 36.3413 17.8345C36.0896 17.8345 35.9007 17.814 35.6489 17.814C35.4812 17.8349 35.3762 17.8345 35.2085 17.8345H34.8726C34.8306 17.8555 34.7886 17.856 34.7466 17.856C34.5997 17.8559 34.4736 17.7294 34.4106 17.5405C34.3896 17.4149 34.3476 17.3525 34.2847 17.3315C34.2637 17.3106 34.2427 17.3105 34.2007 17.2896C34.096 17.2897 34.0538 17.3728 33.8862 17.4985C33.7183 17.6245 33.5083 17.6875 33.4663 17.7085C32.9417 17.8764 32.8159 17.9399 31.9556 17.9399H31.6831C31.4942 17.919 31.3046 17.8765 31.1157 17.8765C30.9691 17.8555 30.8225 17.8349 30.6968 17.814C30.4449 17.772 30.2138 17.6874 29.9829 17.5825C29.7101 17.4566 29.4369 17.3524 29.2271 17.1636C29.0592 17.0167 28.9335 16.8481 28.7866 16.6802C28.6398 16.5124 28.4925 16.366 28.3667 16.1772C28.2828 16.0303 28.2412 15.8617 28.1782 15.6938C28.1153 15.547 28.0522 15.3792 28.0103 15.2114C27.9473 14.9386 27.9892 14.6449 27.9683 14.3511C27.9473 14.2043 27.9263 14.0574 27.9263 13.9106C27.9263 13.7218 27.9684 13.6167 28.0942 13.2603C28.1782 13.0504 28.2203 12.8822 28.3882 12.6724C28.4931 12.5255 28.6187 12.4413 28.7446 12.2944C28.8915 12.1266 28.9752 11.9794 29.1431 11.8325C29.3529 11.6646 29.899 11.3711 30.1089 11.3081C30.2347 11.2662 30.319 11.2456 30.4448 11.2036C30.5706 11.1617 30.6755 11.1196 30.8013 11.0776C31.3889 10.9517 31.3259 11.0141 31.7036 10.9722C31.9343 10.9512 31.9135 10.9097 32.144 10.9097C32.2489 10.9097 32.3331 10.9302 32.438 10.9302C32.6269 10.9302 32.753 10.8882 32.9419 10.8882C33.1307 10.8882 33.2356 10.9721 33.4243 10.9722H33.6138C33.7183 11.014 33.7184 11.0356 33.8647 11.0356C34.0326 11.0356 34.3265 10.9304 34.3267 10.6997C34.3267 10.4479 34.0121 10.1753 33.7603 10.0913C33.4455 9.96542 32.8792 9.96533 32.8579 9.96533C32.6481 9.96533 32.4802 9.98583 32.2495 9.98584C32.0608 10.0068 31.9348 9.98642 31.7671 10.0073C31.4103 10.0703 31.2 10.1753 30.8433 10.2593C30.6755 10.3012 30.5285 10.2795 30.3608 10.3423C30.2349 10.4052 30.1508 10.4478 30.0249 10.4897C29.9201 10.5316 29.8571 10.5524 29.7524 10.5942C29.7315 10.5942 29.5634 10.6572 29.4585 10.6782C29.3746 10.6992 29.374 10.6997 29.311 10.6997C29.2673 10.6996 28.7241 10.6776 28.7241 10.1958C28.7241 9.94399 28.7866 9.75474 28.7866 9.48193C28.7866 9.2724 28.7661 9.12561 28.7661 8.93701C28.7871 8.85307 28.7866 8.78951 28.7866 8.70557C28.7866 8.6008 28.7661 8.53748 28.7661 8.45361C28.7664 8.34808 28.8708 7.95001 28.9966 7.84521C29.081 7.78214 29.5846 7.59373 29.6685 7.57275C29.899 7.50988 30.0458 7.46767 30.2554 7.40479C30.4233 7.34183 30.5289 7.29977 30.6968 7.23682C30.8017 7.21581 30.9904 7.17422 31.2417 7.13232C31.8713 7.02739 32.1237 7.04784 32.4175 7.02686C32.5642 7.02683 32.6486 7.00635 32.7954 7.00635H32.9204ZM15.2095 0.00927734C15.3913 -0.0207961 15.4663 0.0256371 15.5474 0.0473633C15.7703 0.107114 15.9399 0.204853 16.1831 0.27002C16.3857 0.324251 16.541 0.313385 16.7437 0.367676C16.9062 0.411267 17.3852 0.566143 17.521 0.70752C17.6026 0.808209 17.645 0.977051 17.645 0.977051C17.6589 1.00826 17.6998 1.17588 17.6938 1.27881C17.6944 1.35776 17.7011 1.33331 17.688 1.38232L17.6489 1.52979C17.5768 1.79918 17.5444 2.00058 17.4722 2.27002C17.3211 2.83371 17.1086 3.38113 16.9575 3.94482C16.8788 4.23878 16.8402 4.4648 16.7817 4.76416C16.7429 4.99015 16.7031 5.13737 16.644 5.35791C16.5718 5.6275 16.4731 5.91644 16.4009 6.18604C16.2822 6.54807 16.2571 6.80398 16.1587 7.17139C16.0399 7.53358 15.9271 7.79302 15.8286 8.16064C15.7367 8.50368 15.6783 8.88208 15.5864 9.2251C15.5148 9.57348 15.3756 9.92999 15.2837 10.2729C15.1524 10.7631 15.1074 11.0933 14.9761 11.5835C14.91 11.7493 14.884 11.8474 14.8179 12.0132L14.6597 12.6021C14.6138 12.7734 14.6011 12.9013 14.5552 13.0728C14.4961 13.2933 14.4304 13.4596 14.3647 13.7046C14.3254 13.8516 14.3192 13.9551 14.2798 14.1021C14.1878 14.4452 14.0748 14.7042 13.9829 15.0474C13.8911 15.3902 13.8728 15.6216 13.7876 15.9399C13.7285 16.1605 13.6683 16.3025 13.6157 16.4985C13.5567 16.719 13.5575 16.8768 13.4985 17.0972C13.4591 17.2442 13.4394 17.2395 13.3726 17.3267C13.1918 17.5146 12.8288 17.7321 12.647 17.7622C12.5326 17.784 12.4514 17.7628 12.4312 17.7573C12.2692 17.7139 12.1542 17.6567 12.019 17.5942C11.8026 17.51 11.62 17.4606 11.397 17.4009C11.093 17.3194 10.8629 17.2847 10.5386 17.1978L10.4985 17.187C10.3566 17.149 10.3025 17.1075 10.2065 16.8979C10.1653 16.8079 10.0697 16.5986 10.062 16.4653C10.0276 16.3513 10.0401 16.3023 10.0532 16.2534L10.0601 16.229C10.0929 16.1065 10.1593 16.0186 10.1987 15.8716L10.5337 14.6216C10.6519 14.1807 10.7778 13.8731 10.896 13.4321C11.0208 12.9665 11.1335 12.6283 11.2583 12.1626C11.3239 11.9177 11.3756 11.6429 11.4478 11.3735C11.5463 11.0059 11.6527 10.7713 11.7446 10.4282C11.8168 10.1588 11.8492 9.95739 11.9214 9.68799C12.0265 9.29585 12.119 9.0313 12.2241 8.63916C12.3423 8.19809 12.4475 7.88482 12.5591 7.46826C12.6379 7.17424 12.6705 6.97273 12.729 6.67334C12.7875 6.37381 12.8404 6.17731 12.9126 5.90771C12.9586 5.73619 13.0172 5.51513 13.1431 5.20752C13.229 4.96799 13.3357 4.73357 13.3882 4.5376C13.434 4.36628 13.4466 4.23779 13.4849 3.93311C13.5241 3.78633 13.5299 3.68274 13.6021 3.41357C13.6677 3.16852 13.7346 3.00236 13.8003 2.75732L13.9048 2.36475C13.9776 2.17418 14.0378 2.03245 14.0903 1.83643L14.0962 1.81201C14.1422 1.64049 14.1689 1.54259 14.188 1.39014C14.2203 1.18864 14.2271 1.16395 14.2534 1.06592L14.3716 0.624512C14.5094 0.111546 15.1658 -0.000913913 15.2095 0.00927734ZM44.2329 7.06982C44.4635 7.06984 44.6312 7.09085 44.8618 7.11182C44.9667 7.11182 45.0509 7.09037 45.1558 7.09033C45.5121 7.06937 45.7432 7.15281 45.8901 7.19482C45.9111 7.21581 46.1427 7.25784 46.2896 7.3208C46.3316 7.34182 46.478 7.4053 46.478 7.42627C46.6879 7.5312 46.814 7.6573 46.9819 7.8042C47.2545 8.01385 47.255 7.97183 47.4019 8.16064C47.5067 8.28646 47.5699 8.37072 47.6538 8.49658C47.9474 8.89498 47.9684 8.89547 48.1362 9.48291C48.283 10.0281 48.2827 10.0913 48.2827 10.4058C48.2827 10.6994 48.2622 10.9725 48.2622 11.2661C48.2412 11.6858 48.2827 11.9802 48.2827 12.3999C48.2827 12.8825 48.2622 13.2185 48.2622 13.7222C48.2622 14.1627 48.3042 14.4778 48.3042 14.9185C48.3042 15.4008 48.2622 15.7574 48.2622 16.2397C48.2622 16.5335 48.2827 16.7233 48.2827 17.0171C48.2827 17.2894 48.2409 17.4571 48.1362 17.562C48.0733 17.625 48.0942 17.6045 48.0103 17.6675C47.9054 17.7514 47.8003 17.7515 47.7583 17.7515C47.6324 17.7515 47.5273 17.73 47.3804 17.73H45.9956C45.7025 17.73 45.3049 17.7303 45.2612 17.7095C45.1984 17.6885 45.1771 17.6673 45.1353 17.6255C44.9254 17.4156 44.9458 17.0378 44.9458 16.5132C44.9458 16.1354 45.0093 15.8831 45.0093 15.5054C45.0093 15.0858 45.0298 14.8127 45.0298 14.3931C45.0089 14.1835 45.0093 14.0367 45.0093 13.8062C45.0093 13.4074 45.0932 12.8614 44.9673 11.98C44.8834 11.4137 44.7995 11.1827 44.6108 10.8892C44.6108 10.8682 44.5266 10.7212 44.4009 10.6372C44.149 10.4483 43.6655 10.4478 43.6655 10.4478H43.6245C43.4777 10.4478 43.54 10.4483 43.4146 10.4692C43.3096 10.4902 42.8891 10.6582 42.8052 10.7212C42.6795 10.8052 42.6166 10.9519 42.5327 11.0776C42.5117 11.0986 42.3864 11.2662 42.3442 11.3921C42.2813 11.581 42.2598 11.8546 42.2388 12.0435C42.1969 12.316 42.1972 12.5048 42.1763 12.7563V13.1763C42.1553 13.512 42.1128 13.7429 42.1128 14.0786C42.1128 14.4773 42.1338 14.7717 42.1548 15.1704C42.1548 15.5269 42.1553 15.8001 42.1763 16.1567C42.1763 16.4083 42.1968 16.5971 42.1968 16.8696C42.1968 17.1215 42.1756 17.3107 41.9028 17.5415C41.7351 17.6672 41.6513 17.6885 41.5884 17.7095C41.5068 17.7298 41.3659 17.73 41.3579 17.73C41.0641 17.73 40.8539 17.7095 40.5601 17.7095C40.3712 17.7095 40.245 17.7515 40.0562 17.7515C39.9304 17.7514 39.825 17.73 39.6782 17.73C39.5527 17.73 39.4688 17.7304 39.3433 17.7095C39.2823 17.7095 39.1815 17.67 39.1753 17.6675C39.0916 17.6256 39.0285 17.5627 39.0073 17.5415C38.8604 17.3946 38.8603 17.2054 38.8394 16.8696C38.8184 16.5549 38.8813 16.324 38.8813 16.0093V15.3169C38.8813 14.8342 38.9023 14.4983 38.8813 14.0366C38.8604 13.8058 38.8599 13.6376 38.8599 13.4067V12.6519C38.8599 12.505 38.8394 12.3998 38.8394 12.2739C38.8394 11.9172 38.8813 11.6863 38.8813 11.3296C38.8813 10.7841 38.8599 10.4063 38.8599 9.86084C38.8599 9.37822 38.9023 9.04213 38.8813 8.53857V8.11865C38.8812 8.11739 38.8185 7.57227 39.1958 7.27881C39.3007 7.19493 39.4483 7.19482 39.4692 7.19482H39.6577C39.8255 7.19482 39.8256 7.17439 40.0981 7.21631C40.287 7.23729 40.3927 7.2583 40.5815 7.2583C40.7912 7.23733 40.9382 7.21631 41.1479 7.21631H41.5679C41.7774 7.21625 41.9869 7.1745 42.1128 7.36279C42.1548 7.42573 42.218 7.76151 42.3647 7.78271C42.4277 7.78271 42.4489 7.74114 42.5747 7.67822C42.6586 7.61533 42.6584 7.6146 42.7212 7.57275C42.7632 7.53078 42.8057 7.48875 42.8687 7.44678C42.8897 7.42601 42.9317 7.4257 42.9526 7.40479C43.4981 7.15305 43.7083 7.06982 44.2329 7.06982ZM32.4175 13.3433C32.3335 13.3642 32.27 13.3853 32.186 13.4272C32.1022 13.4482 32.0394 13.4488 31.9556 13.4907C31.7037 13.5537 31.6406 13.5537 31.4937 13.6167C31.3258 13.7217 31.0952 13.9524 31.0952 14.3091C31.0952 14.5609 31.2002 14.729 31.2632 14.813C31.431 15.0436 31.599 15.107 31.9976 15.2329C32.2701 15.2958 32.2703 15.3374 32.438 15.3374C32.6057 15.3374 32.7318 15.2745 32.9204 15.2534C33.0673 15.2324 33.1729 15.2534 33.3198 15.2114C33.5084 15.1695 33.7179 15.0442 33.7603 15.0229C33.9911 14.897 34.2427 14.7078 34.2427 14.2671C34.2427 13.9734 34.0751 13.7635 33.5298 13.5327C33.4249 13.4908 33.3407 13.4487 33.2358 13.4067C33.1519 13.3858 33.1307 13.3648 33.0259 13.3647C32.9001 13.3647 32.8162 13.3852 32.7114 13.3853C32.6066 13.3853 32.5433 13.3434 32.4595 13.3433H32.4175ZM22.2085 9.67236C21.9358 9.69334 21.6838 9.71397 21.4321 9.77686C21.3902 9.79784 21.1796 9.84039 20.9907 9.96631C20.9637 9.97152 20.4243 10.4089 20.4243 10.7427C20.4243 10.7847 20.4249 10.8684 20.4878 10.9731C20.6136 11.2038 20.781 11.1833 20.9487 11.2251C21.0117 11.2251 21.1589 11.2671 21.3267 11.2671C21.3896 11.2671 21.4947 11.2466 21.5786 11.2466C21.7045 11.2466 21.7886 11.2671 21.9146 11.2671C22.0404 11.2881 22.1456 11.2671 22.2925 11.2671C22.4183 11.2671 22.5651 11.2886 22.6909 11.2886C22.7958 11.2886 23.6148 11.1621 23.6987 11.0991C23.8032 11.0363 23.8032 10.9524 23.8032 10.8687C23.8032 10.7427 23.7612 10.6372 23.7612 10.5952C23.6983 10.4065 23.6143 10.2175 23.2368 9.98682C23.0689 9.88189 22.9848 9.83983 22.9009 9.81885C22.8171 9.79789 22.775 9.7773 22.6704 9.75635C22.4606 9.69339 22.5228 9.67236 22.313 9.67236H22.2085Z" fill="white"/>
<path d="M8.47832 5.49774V5.53972C8.47832 5.64465 8.47832 5.89648 8.41536 6.02239C8.3524 6.12732 8.24747 6.16929 8.22649 6.16929C8.10057 6.25324 8.01663 6.27422 7.89071 6.27422C7.7648 6.27422 7.72282 6.27422 7.53395 6.23225C7.42902 6.21127 7.21916 6.16929 6.96733 6.16929C6.31677 6.16929 5.68719 6.40014 5.47733 6.50507C5.24648 6.63098 5.09958 6.73591 4.99465 6.79887C4.76381 6.96676 4.61691 7.07169 4.42803 7.28155C4.23916 7.49141 4.15522 7.70127 4.00831 7.97408C3.94536 8.07901 3.7355 8.3938 3.65155 8.70859C3.56761 9.02338 3.58859 9.2962 3.56761 9.8838C3.54662 10.0097 3.54662 10.1147 3.54662 10.2616C3.54662 11.038 3.96634 12.0873 4.05029 12.2552C4.1762 12.549 4.3231 12.8008 4.40705 12.9058C4.49099 13.0527 4.55395 13.1366 4.63789 13.2625C4.82677 13.5144 5.14155 13.8501 5.39339 14.018C5.54029 14.123 5.89705 14.2699 6.31677 14.3748C6.33775 14.3748 6.77846 14.4797 7.05127 14.4797C7.11423 14.4797 7.63888 14.4378 7.70184 14.4168C7.82775 14.3748 7.9117 14.3328 8.01663 14.3328C8.31043 14.3328 8.4993 14.5217 8.4993 14.9834C8.4993 15.2142 8.45733 15.3611 8.47832 15.592C8.52029 15.8228 8.52029 15.8228 8.52029 15.9697C8.52029 16.3475 8.45733 16.5993 8.45733 16.9771V17.061C8.45733 17.2499 8.43635 17.4178 8.22649 17.6066C7.93268 17.8585 7.53395 17.8375 7.47099 17.8375C7.24015 17.8375 7.05127 17.8165 6.79944 17.8165C6.27479 17.7955 6.14888 17.7955 5.60325 17.7116C5.20451 17.6486 4.97367 17.6066 4.78479 17.5437C4.65888 17.5017 4.36507 17.3548 4.21817 17.3128C4.05029 17.2289 3.8824 17.1659 3.75648 17.082C3.63057 16.998 3.56761 16.9351 3.46268 16.8721C3.35775 16.7882 3.27381 16.7462 3.16888 16.6623C3.00099 16.5154 2.89606 16.4104 2.72817 16.2635C2.32944 15.9278 2.03564 15.7809 1.69986 15.3821C1.55296 15.2142 1.46902 15.0883 1.3431 14.8994C1.23817 14.7525 1.15423 14.6476 1.07028 14.5007C0.965353 14.2909 0.881409 14.1439 0.797466 13.9341C0.482677 13.2835 0.398733 13.1786 0.230845 12.549C0.0419719 11.8355 0.0629578 11.4578 0.0419719 11.122C0.0209859 10.9331 0 10.8072 0 10.5973C0 10.3875 0.0419719 10.2406 0.0419719 10.0307C0.0419719 9.82085 0.0209859 9.69493 0.0209859 9.48507C0.0419719 9.1493 0.10493 8.93944 0.146902 8.62465C0.146902 8.5407 0.230845 7.72225 0.398733 7.17662C0.545634 6.71493 0.755494 6.33718 0.860423 6.16929C0.944367 6.02239 1.13324 5.7076 1.23817 5.53972C1.49 5.24591 1.67887 5.05704 1.95169 4.76324C2.14057 4.57436 2.32944 4.34352 2.58127 4.13366C3.23183 3.58802 4.47 3.21028 4.47 3.21028C5.43536 2.91647 5.96001 2.8745 6.40071 2.8745C6.63156 2.8745 6.79944 2.85352 7.03029 2.85352C7.19818 2.85352 7.30311 2.8745 7.47099 2.89549H7.80677C7.84874 2.89549 7.9117 2.89549 8.01663 2.93746C8.14254 2.95845 8.28944 3.0214 8.37339 3.14732C8.41536 3.23126 8.47832 3.50408 8.47832 3.75591C8.47832 4.13366 8.41536 4.38549 8.43635 4.76324C8.45733 5.03605 8.47832 5.22493 8.47832 5.49774Z" fill="white"/>
<path d="M65.8804 5.07373C66.2163 5.07373 66.5532 5.15267 66.8892 5.25146C67.4817 5.38977 67.5412 5.50919 67.9165 5.68701C68.114 5.78577 68.2327 5.80563 68.4302 5.94385C68.6278 6.0822 69.024 6.43784 69.1821 6.61572C69.3599 6.8527 69.4788 7.01076 69.6763 7.22803C69.9924 7.58366 70.0515 7.74221 70.2886 8.37451C70.3676 8.63144 70.6247 9.28411 70.605 9.99561C70.5852 10.2128 70.5652 10.3712 70.5454 10.5884C70.4861 11.6355 70.4863 11.4187 70.1899 12.1694C70.1807 12.1925 70.1722 12.2168 70.1636 12.2417L70.1606 12.2954C70.1575 12.3519 70.144 12.4069 70.1187 12.4575L70.0942 12.5044L70.0708 12.5522C70.0571 12.5796 70.0444 12.6074 70.0337 12.6353L69.9966 12.7329C69.9848 12.7634 69.973 12.7947 69.9624 12.8257L69.9292 12.9243C69.9184 12.9561 69.9071 12.9886 69.897 13.021L69.8813 13.0718L69.8657 13.1216C69.8505 13.1705 69.8277 13.2164 69.7983 13.2583L69.7681 13.3022L69.7378 13.3452C69.7263 13.3617 69.717 13.3802 69.7104 13.3999L69.6763 13.5005C69.6597 13.5503 69.6357 13.5974 69.604 13.6392L69.5728 13.6812L69.5405 13.7231C69.5164 13.755 69.4903 13.7855 69.4634 13.8149L69.3921 13.8931C69.3773 13.9092 69.3653 13.9272 69.355 13.9468L69.3042 14.0405C69.2816 14.0835 69.254 14.123 69.2212 14.1587L69.186 14.1978L69.1499 14.2368C69.1299 14.2585 69.111 14.2814 69.0933 14.3052L69.0298 14.3901C69.0021 14.4272 68.9701 14.4614 68.9351 14.4917L68.896 14.5259L68.856 14.561C68.8349 14.5793 68.8145 14.5988 68.7964 14.6196L68.728 14.6987C68.7022 14.7286 68.6743 14.7572 68.646 14.7847L68.5708 14.8579C68.5429 14.885 68.514 14.9112 68.4839 14.936L68.4429 14.9702L68.4019 15.0034C68.3789 15.0223 68.3571 15.0429 68.3364 15.064L68.2632 15.1382C68.2425 15.1591 68.2221 15.1814 68.2036 15.2046L68.1704 15.2466L68.1382 15.2876C68.1081 15.3254 68.0733 15.3592 68.0347 15.3882L67.9917 15.4204L67.9487 15.4517C67.932 15.4642 67.9175 15.4791 67.9048 15.4956L67.8716 15.5376L67.8403 15.5806C67.8125 15.6168 67.7801 15.6494 67.7456 15.6792L67.6665 15.7476C67.6368 15.7732 67.6056 15.7985 67.5737 15.8218L67.4878 15.8843C67.4719 15.8959 67.4584 15.9095 67.4468 15.9253L67.4146 15.9683L67.3833 16.0112C67.356 16.0481 67.3247 16.0815 67.2905 16.1118L67.2515 16.147L67.2124 16.1812C67.1882 16.2025 67.1641 16.225 67.1411 16.2476L67.0659 16.3218C67.046 16.3414 67.0276 16.3629 67.0103 16.3853L66.9448 16.4683C66.9133 16.5088 66.8759 16.5438 66.8335 16.5728L66.7896 16.603L66.7446 16.6333C66.7337 16.6408 66.7247 16.6505 66.7173 16.6626L66.689 16.7085L66.6616 16.7544C66.6343 16.7992 66.5994 16.839 66.5591 16.8726L66.479 16.9399C66.4514 16.9629 66.423 16.9858 66.395 17.0083L66.354 17.0415L66.313 17.0737C66.2972 17.0865 66.2829 17.1024 66.271 17.1196L66.2407 17.1626L66.2104 17.2065C66.182 17.2476 66.1477 17.2845 66.1089 17.3159L66.0269 17.3823C66.008 17.3976 65.9913 17.4152 65.9761 17.4341L65.9097 17.5161C65.8765 17.5572 65.8364 17.5918 65.7915 17.6196L65.6997 17.6763C65.6808 17.6881 65.665 17.7022 65.6509 17.7173L65.6138 17.7554L65.5786 17.7944C65.553 17.8219 65.5267 17.8483 65.5005 17.8735L65.4282 17.9438C65.3974 17.9735 65.348 18.005 65.2827 18.0044C65.2188 18.0037 65.1706 17.9723 65.1411 17.9448L65.103 17.9087L65.064 17.8726C65.0319 17.8426 65.0025 17.8101 64.9761 17.7749L64.9438 17.7319L64.9116 17.6899C64.8989 17.673 64.8844 17.6579 64.8677 17.645L64.7837 17.5806C64.7496 17.5545 64.7176 17.5254 64.688 17.4946L64.6147 17.4194C64.614 17.4186 64.6135 17.4174 64.6128 17.4165C64.6128 17.4165 64.4974 17.2935 64.4966 17.2095C64.4962 17.1156 64.6131 17.0152 64.6519 16.8872C64.6924 16.7531 64.7028 16.7871 64.7476 16.6548C64.8352 16.3952 64.8719 16.2449 64.9517 15.9829C65.0129 15.7816 65.0735 15.5772 65.0737 15.5142C65.0744 15.4828 65.059 15.4771 65.0435 15.4771C64.8017 15.477 64.3547 15.41 64.3462 15.4087C64.1082 15.3889 63.5387 15.3231 63.2671 15.2222L62.6772 14.9487L62.147 14.6323C61.769 14.4393 61.8142 14.4521 61.5298 14.2505C61.5151 14.2326 61.4916 14.2079 61.4741 14.1919L61.4282 14.1587L61.3872 14.1196C61.3507 14.0862 61.3204 14.0553 61.2944 14.0132L61.2397 13.9233C61.2247 13.8989 61.2078 13.8754 61.1899 13.853L61.1577 13.812L61.1245 13.771C61.0939 13.7327 61.0686 13.6902 61.0493 13.645L61.0278 13.5962L61.0073 13.5474C60.9973 13.5238 60.9852 13.5009 60.9712 13.48L60.9419 13.437L60.9126 13.3931C60.8885 13.3572 60.868 13.3191 60.8501 13.2798L60.8276 13.2319L60.8062 13.1841C60.7936 13.1567 60.7793 13.1294 60.7642 13.103L60.7378 13.0571L60.7124 13.0122C60.6871 12.9681 60.6687 12.9203 60.6577 12.8706L60.6353 12.7671C60.6312 12.7489 60.6236 12.7319 60.6138 12.7153L60.5864 12.6685L60.5591 12.6226C60.5314 12.576 60.5127 12.5256 60.5034 12.4722L60.4946 12.4194L60.4849 12.3677C60.4797 12.3377 60.4733 12.3078 60.4653 12.2788L60.438 12.1772C60.4291 12.1448 60.4194 12.112 60.4097 12.0796L60.394 12.0298L60.3794 11.979C60.3756 11.9665 60.3725 11.9536 60.3696 11.9409C60.2761 11.6475 60.1795 11.3288 60.1685 11.2407C60.1093 11.0237 60.1099 10.9049 60.1099 10.8062C60.0901 10.5494 60.1293 10.3712 60.1294 10.1343C60.1294 9.97616 60.0894 9.85662 60.0894 9.71826C60.0894 9.54008 60.1495 8.98797 60.189 8.82959C60.2285 8.69128 60.2871 8.5919 60.3267 8.45361C60.3464 8.45361 60.4256 8.19646 60.4849 8.05811C60.6232 7.84078 60.7223 7.72193 60.8804 7.48486C61.1173 7.14913 61.1379 7.08968 61.3354 6.89209C61.4736 6.75398 61.5918 6.69432 61.73 6.55615C61.8288 6.45733 61.9877 6.25966 62.2446 6.06201C62.4618 5.90414 62.6396 5.84468 62.8765 5.70654C63.0344 5.62757 63.1532 5.54821 63.311 5.46924C63.5482 5.35066 64.1616 5.11382 64.8335 5.11377H65.2876C65.5048 5.09402 65.6633 5.07377 65.8804 5.07373ZM65.3481 8.3999C64.2876 8.3999 63.4272 9.2593 63.4272 10.3198C63.4273 11.3803 64.2876 12.2397 65.3481 12.2397C66.4085 12.2395 67.268 11.3802 67.2681 10.3198C67.2681 9.25943 66.4085 8.40012 65.3481 8.3999Z" fill="white"/>
<path d="M7.52197 6.4834C7.52218 8.46898 9.1276 10.0797 11.1108 10.0898C9.12762 10.1 7.52319 11.7107 7.52295 13.6963V13.6973H7.52197V13.6963C7.52173 11.7107 5.91729 10.1 3.93408 10.0898C5.8555 10.08 7.42115 8.56783 7.51709 6.66797L7.52197 6.4834Z" fill="white"/>
</svg>
