<svg width="25" height="24" viewBox="0 0 25 24" fill="none" xmlns="http://www.w3.org/2000/svg">
<path d="M17.8921 11.42C17.9199 14.2551 20.5153 15.1986 20.5441 15.2106C20.5221 15.2772 20.1293 16.5552 19.1767 17.8753C18.3531 19.0165 17.4984 20.1536 16.1519 20.1772C14.8288 20.2003 14.4034 19.4333 12.8908 19.4333C11.3786 19.4333 10.9059 20.1536 9.65352 20.2003C8.35383 20.2469 7.36413 18.9662 6.53372 17.8291C4.8369 15.5031 3.54017 11.2564 5.28135 8.38985C6.14633 6.9663 7.69211 6.06485 9.36992 6.04173C10.6462 6.01865 11.8508 6.85584 12.631 6.85584C13.4107 6.85584 14.8746 5.84905 16.4136 5.99691C17.0578 6.02233 18.8662 6.24365 20.0275 7.85528C19.9339 7.91027 17.8697 9.04967 17.8921 11.42ZM15.4056 4.45808C16.0956 3.66615 16.56 2.56371 16.4333 1.4668C15.4387 1.5047 14.236 2.09521 13.5226 2.8867C12.8833 3.5876 12.3233 4.70944 12.4744 5.78465C13.583 5.86597 14.7155 5.25051 15.4056 4.45808Z" fill="white"/>
</svg>
