<svg width="652" height="490" viewBox="0 0 652 490" fill="none" xmlns="http://www.w3.org/2000/svg">
<g clip-path="url(#clip0_691_2522)">
<rect width="652" height="490" fill="white"/>
<rect width="652" height="490" fill="#43CA4A" fill-opacity="0.5"/>
<g filter="url(#filter0_d_691_2522)">
<path d="M103 109C103 75.8629 129.863 49 163 49H489C522.137 49 549 75.8629 549 109V490H103V109Z" fill="url(#paint0_linear_691_2522)"/>
<path d="M163 58H489C517.167 58 540 80.8335 540 109V481H112V109C112 80.8335 134.833 58 163 58Z" stroke="#00B809" stroke-opacity="0.1" stroke-width="18"/>
</g>
<path d="M160.264 160.101C162.994 160.077 165.162 161.636 165.748 163.921H169.311V159.187H172.287V170.647H169.311V166.312H165.771C165.209 168.655 163.018 170.249 160.264 170.249C156.982 170.249 154.568 168.116 154.592 165.14C154.568 162.21 156.982 160.077 160.264 160.101ZM160.264 162.585C158.6 162.562 157.404 163.546 157.428 165.14C157.404 166.733 158.6 167.741 160.264 167.741C161.881 167.741 163.053 166.733 163.053 165.14C163.053 163.546 161.881 162.562 160.264 162.585ZM161.014 171.585V173.647H169.311V171.585H172.287V180.28H158.061V171.585H161.014ZM161.014 177.866H169.311V175.944H161.014V177.866ZM194.073 171.116V173.507H185.729V180.491H182.776V173.507H174.549V171.116H194.073ZM191.729 160.218V168.819H176.846V160.218H191.729ZM179.799 162.585V166.476H188.752V162.585H179.799ZM206.788 160.733V162.069C206.788 163.546 206.788 165.679 206.296 168.327L203.366 168.046C203.741 165.995 203.835 164.448 203.858 163.171H195.819V160.733H206.788ZM201.491 165.655V169.733C203.612 169.651 205.792 169.487 207.796 169.194L207.96 171.351C203.53 172.171 198.515 172.241 194.811 172.265L194.554 169.874C195.749 169.874 197.097 169.874 198.515 169.827V165.655H201.491ZM212.015 159.187V165.679H214.593V168.187H212.015V175.147H208.944V159.187H212.015ZM212.671 177.749V180.14H197.694V173.718H200.694V177.749H212.671ZM232.98 159.187V180.562H230.003V159.187H232.98ZM226.371 160.968V169.194H219.339V173.108C222.585 173.097 225.351 172.909 228.48 172.405L228.738 174.819C225.222 175.429 222.058 175.569 218.167 175.569H216.246V166.827H223.324V163.382H216.222V160.968H226.371Z" fill="#515E67"/>
<g clip-path="url(#clip1_691_2522)">
<path d="M170.875 243.5H180.5V245.562H170.875V243.5ZM170.875 240.062H180.5V242.125H170.875V240.062ZM170.875 246.938H180.5V249H170.875V246.938ZM181.875 232.5H159.125C157.612 232.5 156.375 233.737 156.375 235.25V253.125C156.375 254.638 157.612 255.875 159.125 255.875H181.875C183.388 255.875 184.625 254.638 184.625 253.125V235.25C184.625 233.737 183.388 232.5 181.875 232.5ZM181.875 253.125H169.5V235.25H181.875V253.125Z" fill="#00B809"/>
</g>
<path d="M212.777 242.841V244.833H206.039V247.919H203.52V244.833H196.508V242.841H212.777ZM210.98 249.638V251.65H198.441V246.337H200.961V249.638H210.98ZM204.633 234.521C208.48 234.541 211.039 235.966 211.059 238.212C211.039 240.478 208.48 241.884 204.633 241.884C200.766 241.884 198.188 240.478 198.188 238.212C198.188 235.966 200.766 234.541 204.633 234.521ZM204.633 236.494C202.328 236.494 200.863 237.08 200.883 238.212C200.863 239.306 202.328 239.892 204.633 239.892C206.918 239.892 208.383 239.306 208.383 238.212C208.383 237.08 206.918 236.494 204.633 236.494ZM228.686 234.189V245.341H226.323V240.615H224.897V244.755H222.573V234.521H224.897V238.583H226.323V234.189H228.686ZM222.045 236.025V237.958H213.315V236.025H216.459V234.345H218.94V236.025H222.045ZM217.709 238.544C219.975 238.544 221.577 239.794 221.596 241.65C221.577 243.486 219.975 244.736 217.709 244.736C215.483 244.736 213.862 243.486 213.862 241.65C213.862 239.794 215.483 238.544 217.709 238.544ZM217.709 240.341C216.733 240.341 216.088 240.83 216.088 241.65C216.088 242.47 216.733 242.978 217.709 242.958C218.686 242.978 219.33 242.47 219.35 241.65C219.33 240.83 218.686 240.341 217.709 240.341ZM222.612 245.498C226.459 245.498 228.764 246.669 228.784 248.74C228.764 250.791 226.459 251.962 222.612 251.962C218.784 251.962 216.459 250.791 216.459 248.74C216.459 246.669 218.784 245.498 222.612 245.498ZM222.612 247.373C220.209 247.373 218.94 247.802 218.959 248.74C218.94 249.638 220.209 250.087 222.612 250.087C225.034 250.087 226.264 249.638 226.264 248.74C226.264 247.802 225.034 247.373 222.612 247.373ZM235.356 234.716C238.052 234.716 240.102 236.396 240.102 238.779C240.102 241.123 238.052 242.822 235.356 242.822C232.602 242.822 230.571 241.123 230.571 238.779C230.571 236.396 232.602 234.716 235.356 234.716ZM235.356 236.748C233.989 236.748 232.973 237.49 232.993 238.779C232.973 240.048 233.989 240.81 235.356 240.81C236.704 240.81 237.7 240.048 237.7 238.779C237.7 237.49 236.704 236.748 235.356 236.748ZM245.18 234.189V243.095H242.68V234.189H245.18ZM245.18 243.837V248.662H235.727V249.814H245.669V251.767H233.286V246.845H242.7V245.751H233.247V243.837H245.18ZM254.077 239.033C254.077 241.904 255.542 244.97 258.53 246.22L257.183 248.173C255.083 247.285 253.638 245.517 252.847 243.349C252.036 245.703 250.562 247.656 248.472 248.623L247.046 246.65C249.995 245.341 251.519 242.041 251.519 239.033V237.939H247.749V235.908H257.788V237.939H254.077V239.033ZM262.066 234.189V251.962H259.546V234.189H262.066Z" fill="#515E67"/>
<g clip-path="url(#clip2_691_2522)">
<path d="M348.78 232.858L357.236 253.469C357.703 254.61 356.535 255.752 355.407 255.243L348.065 251.998C347.707 251.847 347.308 251.847 346.951 251.998L339.608 255.243C338.481 255.738 337.312 254.61 337.78 253.469L346.236 232.858C346.69 231.717 348.312 231.717 348.78 232.858Z" fill="#00B809"/>
</g>
<path d="M389.777 243.176V245.168H383.039V248.254H380.52V245.168H373.508V243.176H389.777ZM387.98 249.973V251.984H375.441V246.672H377.961V249.973H387.98ZM381.633 234.855C385.48 234.875 388.039 236.301 388.059 238.547C388.039 240.812 385.48 242.219 381.633 242.219C377.766 242.219 375.188 240.812 375.188 238.547C375.188 236.301 377.766 234.875 381.633 234.855ZM381.633 236.828C379.328 236.828 377.863 237.414 377.883 238.547C377.863 239.641 379.328 240.227 381.633 240.227C383.918 240.227 385.383 239.641 385.383 238.547C385.383 237.414 383.918 236.828 381.633 236.828ZM405.686 234.523V245.676H403.323V240.949H401.897V245.09H399.573V234.855H401.897V238.918H403.323V234.523H405.686ZM399.045 236.359V238.293H390.315V236.359H393.459V234.68H395.94V236.359H399.045ZM394.709 238.879C396.975 238.879 398.577 240.129 398.596 241.984C398.577 243.82 396.975 245.07 394.709 245.07C392.483 245.07 390.862 243.82 390.862 241.984C390.862 240.129 392.483 238.879 394.709 238.879ZM394.709 240.676C393.733 240.676 393.088 241.164 393.088 241.984C393.088 242.805 393.733 243.312 394.709 243.293C395.686 243.312 396.33 242.805 396.35 241.984C396.33 241.164 395.686 240.676 394.709 240.676ZM399.612 245.832C403.459 245.832 405.764 247.004 405.784 249.074C405.764 251.125 403.459 252.297 399.612 252.297C395.784 252.297 393.459 251.125 393.459 249.074C393.459 247.004 395.784 245.832 399.612 245.832ZM399.612 247.707C397.209 247.707 395.94 248.137 395.959 249.074C395.94 249.973 397.209 250.422 399.612 250.422C402.034 250.422 403.264 249.973 403.264 249.074C403.264 248.137 402.034 247.707 399.612 247.707ZM422.708 234.523V252.297H420.364V234.523H422.708ZM418.997 234.914V251.516H416.634V245.656H414.114V243.645H416.634V241.223H414.446C413.616 244.152 411.819 246.633 408.489 248.605L407.024 246.848C410.628 244.719 412.21 242.131 412.552 238.645H408.059V236.633H415.032C415.032 237.521 414.973 238.381 414.876 239.211H416.634V234.914H418.997ZM435.335 235.832V237.648H424.788V235.832H428.812V234.406H431.292V235.832H435.335ZM430.062 238.059C432.698 238.059 434.495 239.094 434.515 240.754C434.495 242.111 433.245 243.039 431.292 243.312V244.152C432.718 244.094 434.144 243.986 435.491 243.82L435.667 245.48C431.878 246.145 427.718 246.203 424.593 246.203L424.261 244.309C425.638 244.309 427.191 244.299 428.812 244.25V243.312C426.829 243.039 425.589 242.111 425.609 240.754C425.589 239.094 427.366 238.059 430.062 238.059ZM430.062 239.719C428.792 239.719 428.011 240.051 428.011 240.754C428.011 241.398 428.792 241.73 430.062 241.73C431.273 241.73 432.112 241.398 432.112 240.754C432.112 240.051 431.273 239.719 430.062 239.719ZM439.124 234.562V246.555H436.585V234.562H439.124ZM439.124 247.258V252.297H436.585V249.172H426.761V247.258H439.124Z" fill="#515E67"/>
<g clip-path="url(#clip3_691_2522)">
<path d="M159.5 315C159.5 316.21 160.036 317.296 160.875 318.052V320.5C160.875 321.256 161.494 321.875 162.25 321.875H163.625C164.381 321.875 165 321.256 165 320.5V319.125H176V320.5C176 321.256 176.619 321.875 177.375 321.875H178.75C179.506 321.875 180.125 321.256 180.125 320.5V318.052C180.964 317.296 181.5 316.21 181.5 315V301.25C181.5 296.438 176.577 295.75 170.5 295.75C164.422 295.75 159.5 296.438 159.5 301.25V315ZM164.312 316.375C163.171 316.375 162.25 315.454 162.25 314.312C162.25 313.171 163.171 312.25 164.312 312.25C165.454 312.25 166.375 313.171 166.375 314.312C166.375 315.454 165.454 316.375 164.312 316.375ZM176.688 316.375C175.546 316.375 174.625 315.454 174.625 314.312C174.625 313.171 175.546 312.25 176.688 312.25C177.829 312.25 178.75 313.171 178.75 314.312C178.75 315.454 177.829 316.375 176.688 316.375ZM178.75 308.125H162.25V301.25H178.75V308.125Z" fill="#00B809"/>
</g>
<path d="M202.953 305.755C202.953 308.275 204.262 311.146 207.094 312.474L205.707 314.349C203.812 313.5 202.494 311.82 201.742 309.837C200.98 311.976 199.574 313.783 197.562 314.662L196.195 312.728C199.086 311.458 200.473 308.431 200.492 305.755V305.072H196.82V303.08H200.473V300.58H202.973V303.08H206.586V305.072H202.953V305.755ZM210.551 300.189V307.083H213.168V309.173H210.551V317.962H208.051V300.189H210.551ZM229.916 302.572V304.642H227.514V306.341H229.916V308.392H227.514V310.931H225.014V300.208H227.514V302.572H229.916ZM222.202 301.263V306.556H216.538V308.119C219.477 308.099 221.469 307.982 223.725 307.591L223.998 309.583C221.44 310.052 219.155 310.15 215.561 310.15H214.057V304.681H219.78V303.216H214.038V301.263H222.202ZM221.655 311.205C225.346 311.205 227.69 312.494 227.69 314.623C227.69 316.732 225.346 317.943 221.655 317.943C217.885 317.943 215.561 316.732 215.561 314.623C215.561 312.494 217.885 311.205 221.655 311.205ZM221.655 313.138C219.291 313.138 218.002 313.626 218.022 314.623C218.002 315.58 219.291 316.087 221.655 316.087C223.998 316.087 225.229 315.58 225.229 314.623C225.229 313.626 223.998 313.138 221.655 313.138ZM240.259 301.478V302.591C240.259 303.822 240.259 305.599 239.848 307.806L237.407 307.572C237.72 305.863 237.798 304.574 237.817 303.509H231.118V301.478H240.259ZM235.845 305.58V308.978C237.612 308.91 239.429 308.773 241.098 308.529L241.235 310.326C237.544 311.009 233.364 311.068 230.278 311.087L230.063 309.095C231.059 309.095 232.182 309.095 233.364 309.056V305.58H235.845ZM244.614 300.189V305.599H246.763V307.689H244.614V313.49H242.055V300.189H244.614ZM245.161 315.658V317.65H232.68V312.298H235.18V315.658H245.161ZM262.085 300.189V318.001H259.605V300.189H262.085ZM256.577 301.673V308.529H250.718V311.791C253.423 311.781 255.728 311.625 258.335 311.205L258.55 313.216C255.62 313.724 252.984 313.841 249.741 313.841H248.14V306.556H254.038V303.685H248.12V301.673H256.577Z" fill="#515E67"/>
<g clip-path="url(#clip4_691_2522)">
<circle cx="347.5" cy="300.862" r="3.81029" stroke="#00B809" stroke-width="4.125"/>
<path d="M360.962 317.318C361.622 320.713 359.022 323.868 355.563 323.868H339.434C335.975 323.868 333.375 320.713 334.035 317.318L336.022 307.095C336.524 304.511 338.788 302.644 341.421 302.644H353.576C356.209 302.644 358.473 304.511 358.975 307.095L360.962 317.318Z" fill="#00B809"/>
<path d="M351.388 317.879C350.781 317.879 350.264 317.834 349.839 317.743C349.414 317.659 349.092 317.5 348.872 317.264C348.659 317.029 348.553 316.687 348.553 316.24C348.553 316.042 348.579 315.868 348.632 315.716C348.686 315.564 348.773 315.42 348.894 315.283C348.936 315.233 348.982 315.184 349.032 315.134C349.188 314.979 349.193 314.707 349.099 314.509C349.031 314.357 348.997 314.194 348.997 314.019C348.997 313.958 349.023 313.879 349.077 313.78C349.137 313.674 349.209 313.568 349.293 313.461C349.406 313.307 349.362 313.079 349.213 312.958C349.175 312.927 349.137 312.893 349.099 312.858C348.963 312.721 348.849 312.539 348.758 312.311C348.667 312.084 348.621 311.795 348.621 311.446C348.621 310.952 348.712 310.562 348.894 310.273C349.084 309.977 349.361 309.765 349.726 309.635C350.097 309.506 350.557 309.442 351.103 309.442C351.293 309.442 351.502 309.457 351.73 309.487C351.871 309.501 351.994 309.518 352.1 309.537C352.225 309.559 352.352 309.577 352.479 309.574L353.617 309.547C353.931 309.539 354.189 309.791 354.189 310.105V310.416C354.189 310.557 354.074 310.67 353.933 310.668L353.755 310.665C353.612 310.663 353.515 310.843 353.563 310.979C353.608 311.108 353.631 311.264 353.631 311.446C353.631 311.977 353.54 312.387 353.358 312.676C353.176 312.964 352.902 313.165 352.538 313.279C352.174 313.385 351.707 313.439 351.137 313.439C351.077 313.439 350.997 313.435 350.898 313.427C350.891 313.426 350.884 313.425 350.876 313.424C350.742 313.403 350.614 313.482 350.568 313.609C350.538 313.685 350.523 313.742 350.523 313.78C350.523 313.848 350.542 313.902 350.58 313.94C350.617 313.977 350.686 314.008 350.784 314.031C350.883 314.053 351.024 314.069 351.206 314.076C351.396 314.084 351.646 314.088 351.957 314.088C352.496 314.088 352.925 314.141 353.244 314.247C353.563 314.346 353.79 314.524 353.927 314.782C354.064 315.033 354.132 315.386 354.132 315.841C354.132 316.524 353.889 317.033 353.403 317.367C352.918 317.708 352.246 317.879 351.388 317.879ZM351.285 316.615C351.726 316.615 352.041 316.57 352.231 316.479C352.42 316.388 352.515 316.236 352.515 316.023C352.515 315.864 352.481 315.742 352.413 315.659C352.344 315.583 352.231 315.534 352.071 315.511C351.919 315.488 351.711 315.477 351.445 315.477C351.369 315.477 351.278 315.473 351.172 315.465C351.065 315.465 350.963 315.461 350.864 315.454C350.765 315.454 350.674 315.45 350.591 315.443C350.474 315.443 350.351 315.464 350.264 315.542C350.237 315.566 350.213 315.59 350.192 315.613C350.139 315.674 350.101 315.735 350.079 315.795C350.056 315.864 350.044 315.944 350.044 316.035C350.044 316.179 350.082 316.293 350.158 316.376C350.242 316.46 350.375 316.52 350.557 316.558C350.739 316.596 350.982 316.615 351.285 316.615ZM351.115 312.243C351.418 312.243 351.635 312.182 351.764 312.061C351.9 311.932 351.969 311.723 351.969 311.435C351.969 311.146 351.9 310.941 351.764 310.82C351.635 310.691 351.418 310.626 351.115 310.626C350.819 310.626 350.606 310.691 350.477 310.82C350.348 310.941 350.283 311.146 350.283 311.435C350.283 311.723 350.348 311.932 350.477 312.061C350.606 312.182 350.819 312.243 351.115 312.243Z" fill="white"/>
<path d="M342.526 315.64C342.03 315.64 341.627 315.237 341.627 314.741V308.797C341.627 308.3 342.03 307.897 342.526 307.897C343.023 307.897 343.426 308.3 343.426 308.797V310.515C343.426 310.809 343.668 311.045 343.962 311.037C344.163 311.032 344.344 310.912 344.426 310.728L345.468 308.399C345.604 308.094 345.907 307.897 346.241 307.897C346.855 307.897 347.265 308.53 347.014 309.09L346.081 311.174C345.928 311.516 345.93 311.907 346.088 312.246L347.096 314.419C347.36 314.989 346.944 315.64 346.316 315.64C345.989 315.64 345.691 315.455 345.546 315.163L344.457 312.968C344.363 312.778 344.167 312.66 343.956 312.666C343.661 312.674 343.426 312.915 343.426 313.21V314.741C343.426 315.237 343.023 315.64 342.526 315.64Z" fill="white"/>
</g>
<path d="M388.938 300.523V318.297H386.594V300.523H388.938ZM385.227 300.914V317.516H382.863V311.656H380.344V309.645H382.863V307.223H380.676C379.846 310.152 378.049 312.633 374.719 314.605L373.254 312.848C376.857 310.719 378.439 308.131 378.781 304.645H374.289V302.633H381.262C381.262 303.521 381.203 304.381 381.105 305.211H382.863V300.914H385.227ZM404.748 301.52V303.023C404.748 304.527 404.748 306.217 404.358 308.395H406.682V310.387H390.413V308.395H401.819C402.219 306.402 402.268 304.918 402.268 303.512H392.405V301.52H404.748ZM405.256 315.973V317.965H392.483V311.949H394.944V315.973H405.256ZM417.259 301.812V302.926C417.259 304.156 417.259 305.934 416.848 308.141L414.407 307.906C414.72 306.197 414.798 304.908 414.817 303.844H408.118V301.812H417.259ZM412.845 305.914V309.312C414.612 309.244 416.429 309.107 418.098 308.863L418.235 310.66C414.544 311.344 410.364 311.402 407.278 311.422L407.063 309.43C408.059 309.43 409.182 309.43 410.364 309.391V305.914H412.845ZM421.614 300.523V305.934H423.763V308.023H421.614V313.824H419.055V300.523H421.614ZM422.161 315.992V317.984H409.68V312.633H412.18V315.992H422.161ZM439.085 300.523V318.336H436.605V300.523H439.085ZM433.577 302.008V308.863H427.718V312.125C430.423 312.115 432.728 311.959 435.335 311.539L435.55 313.551C432.62 314.059 429.984 314.176 426.741 314.176H425.14V306.891H431.038V304.02H425.12V302.008H433.577Z" fill="#515E67"/>
<g clip-path="url(#clip5_691_2522)">
<path d="M180.125 362.125H160.875C159.362 362.125 158.139 363.362 158.139 364.875L158.125 384.125C158.125 385.638 159.362 386.875 160.875 386.875H180.125C181.638 386.875 182.875 385.638 182.875 384.125V364.875C182.875 363.362 181.638 362.125 180.125 362.125ZM177.375 377.25H173.25V381.375C173.25 382.131 172.631 382.75 171.875 382.75H169.125C168.369 382.75 167.75 382.131 167.75 381.375V377.25H163.625C162.869 377.25 162.25 376.631 162.25 375.875V373.125C162.25 372.369 162.869 371.75 163.625 371.75H167.75V367.625C167.75 366.869 168.369 366.25 169.125 366.25H171.875C172.631 366.25 173.25 366.869 173.25 367.625V371.75H177.375C178.131 371.75 178.75 372.369 178.75 373.125V375.875C178.75 376.631 178.131 377.25 177.375 377.25Z" fill="#00B809"/>
</g>
<path d="M210.629 365.523V370.621H213.031V372.691H210.629V378.473H208.129V365.523H210.629ZM211.273 380.992V382.984H199.105V377.105H201.586V380.992H211.273ZM201.527 366.676C204.242 366.676 206.371 368.551 206.371 371.188C206.371 373.785 204.242 375.699 201.527 375.699C198.793 375.699 196.645 373.785 196.645 371.188C196.645 368.551 198.793 366.676 201.527 366.676ZM201.527 368.844C200.18 368.824 199.086 369.703 199.105 371.188C199.086 372.633 200.18 373.531 201.527 373.531C202.895 373.531 203.93 372.633 203.949 371.188C203.93 369.703 202.895 368.824 201.527 368.844ZM228.393 365.543V378.512H225.913V372.145H223.002V370.133H225.913V365.543H228.393ZM228.823 380.992V382.984H216.596V377.379H219.096V380.992H228.823ZM220.131 369.02C220.131 371.07 221.381 373.277 224.213 374.195L222.983 376.168C221.01 375.533 219.663 374.234 218.881 372.613C218.1 374.41 216.684 375.836 214.584 376.539L213.315 374.508C216.245 373.59 217.573 371.266 217.592 369V368.727H214.018V366.734H223.666V368.727H220.131V369.02ZM246.567 379.195V381.227H230.298V379.195H237.153V375.914H232.016V366.656H234.516V369.41H242.27V366.656H244.751V375.914H239.634V379.195H246.567ZM234.516 373.922H242.27V371.402H234.516V373.922ZM262.163 365.543V378.531H259.683V372.73H256.499V370.68H259.683V365.543H262.163ZM256.655 366.852C256.655 371.617 253.628 375.133 248.433 376.754L247.417 374.781C251.099 373.629 253.472 371.51 253.941 368.883H248.335V366.852H256.655ZM262.612 380.992V382.984H250.445V377.223H252.984V380.992H262.612Z" fill="#515E67"/>
<g clip-path="url(#clip6_691_2522)">
<path d="M357.125 362.125H337.875C336.362 362.125 335.125 363.362 335.125 364.875V384.125C335.125 385.638 336.362 386.875 337.875 386.875H357.125C358.638 386.875 359.875 385.638 359.875 384.125V364.875C359.875 363.362 358.638 362.125 357.125 362.125ZM342 381.375C341.244 381.375 340.625 380.756 340.625 380V373.125C340.625 372.369 341.244 371.75 342 371.75C342.756 371.75 343.375 372.369 343.375 373.125V380C343.375 380.756 342.756 381.375 342 381.375ZM347.5 381.375C346.744 381.375 346.125 380.756 346.125 380V369C346.125 368.244 346.744 367.625 347.5 367.625C348.256 367.625 348.875 368.244 348.875 369V380C348.875 380.756 348.256 381.375 347.5 381.375ZM353 381.375C352.244 381.375 351.625 380.756 351.625 380V377.25C351.625 376.494 352.244 375.875 353 375.875C353.756 375.875 354.375 376.494 354.375 377.25V380C354.375 380.756 353.756 381.375 353 381.375Z" fill="#00B809"/>
</g>
<path d="M383.645 372.281C383.41 370.719 382.199 369.762 380.559 369.762C378.352 369.762 376.906 371.461 376.906 374.43C376.906 377.477 378.371 379.098 380.539 379.098C382.16 379.098 383.352 378.199 383.645 376.676L386.613 376.695C386.281 379.312 384.094 381.695 380.5 381.695C376.711 381.695 373.918 379.039 373.918 374.43C373.918 369.82 376.77 367.164 380.5 367.164C383.762 367.164 386.223 369.039 386.613 372.281H383.645ZM390.373 381.5H387.209L392.112 367.359H395.881L400.764 381.5H397.62L396.565 378.238H391.448L390.373 381.5ZM392.19 375.953H395.823L394.045 370.543H393.948L392.19 375.953ZM399.68 369.781V367.359H411.263V369.781H406.927V381.5H404.016V369.781H399.68ZM412.679 381.5V367.359H422.171V369.781H415.609V373.219H421.683V375.641H415.609V379.078H422.191V381.5H412.679Z" fill="#515E67"/>
<rect x="276.32" y="90.0044" width="99.3594" height="26.5999" rx="13.2999" fill="#00B809" fill-opacity="0.1"/>
<rect x="53.4316" y="362.5" width="545.137" height="127.5" fill="url(#paint1_linear_691_2522)"/>
</g>
<defs>
<filter id="filter0_d_691_2522" x="77" y="23" width="506" height="501" filterUnits="userSpaceOnUse" color-interpolation-filters="sRGB">
<feFlood flood-opacity="0" result="BackgroundImageFix"/>
<feColorMatrix in="SourceAlpha" type="matrix" values="0 0 0 0 0 0 0 0 0 0 0 0 0 0 0 0 0 0 127 0" result="hardAlpha"/>
<feOffset dx="4" dy="4"/>
<feGaussianBlur stdDeviation="15"/>
<feComposite in2="hardAlpha" operator="out"/>
<feColorMatrix type="matrix" values="0 0 0 0 0 0 0 0 0 0 0 0 0 0 0 0 0 0 0.1 0"/>
<feBlend mode="normal" in2="BackgroundImageFix" result="effect1_dropShadow_691_2522"/>
<feBlend mode="normal" in="SourceGraphic" in2="effect1_dropShadow_691_2522" result="shape"/>
</filter>
<linearGradient id="paint0_linear_691_2522" x1="326" y1="49" x2="326" y2="490" gradientUnits="userSpaceOnUse">
<stop stop-color="white"/>
<stop offset="1" stop-color="white"/>
</linearGradient>
<linearGradient id="paint1_linear_691_2522" x1="326" y1="362.5" x2="326" y2="490" gradientUnits="userSpaceOnUse">
<stop stop-color="#A1E4A4" stop-opacity="0"/>
<stop offset="1" stop-color="#A1E4A4"/>
</linearGradient>
<clipPath id="clip0_691_2522">
<rect width="652" height="490" fill="white"/>
</clipPath>
<clipPath id="clip1_691_2522">
<rect width="33" height="33" fill="white" transform="translate(154 227)"/>
</clipPath>
<clipPath id="clip2_691_2522">
<rect width="33" height="33" fill="white" transform="translate(331 227)"/>
</clipPath>
<clipPath id="clip3_691_2522">
<rect width="33" height="33" fill="white" transform="translate(154 293)"/>
</clipPath>
<clipPath id="clip4_691_2522">
<rect width="33" height="33" fill="white" transform="translate(331 293)"/>
</clipPath>
<clipPath id="clip5_691_2522">
<rect width="33" height="33" fill="white" transform="translate(154 358)"/>
</clipPath>
<clipPath id="clip6_691_2522">
<rect width="33" height="33" fill="white" transform="translate(331 358)"/>
</clipPath>
</defs>
</svg>
