<svg width="652" height="490" viewBox="0 0 652 490" fill="none" xmlns="http://www.w3.org/2000/svg">
<g clip-path="url(#clip0_691_2450)">
<rect width="652" height="490" fill="#A5ADBE"/>
<rect width="652" height="490" fill="black" fill-opacity="0.2"/>
<g filter="url(#filter0_d_691_2450)">
<rect x="103" y="97" width="446" height="296" rx="20" fill="white" shape-rendering="crispEdges"/>
<path d="M141.562 120.828V142.156H138.586V120.828H141.562ZM123.727 136.133C125.355 136.121 127.219 136.121 129.164 136.062V134.258C126.82 133.848 125.297 132.395 125.32 130.391C125.297 128 127.477 126.383 130.617 126.383C133.781 126.383 135.984 128 135.984 130.391C135.984 132.383 134.461 133.836 132.117 134.258V135.969C133.898 135.887 135.703 135.746 137.414 135.523L137.625 137.727C132.961 138.523 127.922 138.57 124.125 138.57L123.727 136.133ZM137.109 123.195V125.539H124.148V123.195H129.164V120.922H132.141V123.195H137.109ZM130.617 128.656C129.164 128.656 128.133 129.289 128.156 130.391C128.133 131.516 129.164 132.125 130.617 132.125C132.117 132.125 133.125 131.516 133.125 130.391C133.125 129.289 132.117 128.656 130.617 128.656ZM150.809 122.258C154.184 122.234 156.715 124.438 156.715 127.484C156.715 130.555 154.184 132.734 150.809 132.734C147.434 132.734 144.879 130.555 144.879 127.484C144.879 124.438 147.434 122.234 150.809 122.258ZM150.809 124.836C149.122 124.836 147.833 125.82 147.856 127.484C147.833 129.172 149.122 130.133 150.809 130.133C152.497 130.133 153.786 129.172 153.809 127.484C153.786 125.82 152.52 124.836 150.809 124.836ZM161.825 120.828V142.203H158.848V120.828H161.825ZM143.989 135.406C147.786 135.43 153.059 135.359 157.629 134.727L157.864 136.883C153.129 137.797 148.067 137.844 144.34 137.844L143.989 135.406ZM188.99 120.828V142.156H186.107V131.492H184.115V141.125H181.302V121.18H184.115V129.078H186.107V120.828H188.99ZM174.458 123.195V134.328C176.169 134.293 178.044 134.141 180.107 133.742L180.412 136.32C177.552 136.812 175.115 136.953 172.912 136.953H171.458V123.195H174.458ZM210.307 130.93V133.32H190.853V130.93H195.236V128.375C193.678 127.684 192.799 126.629 192.799 125.258C192.799 122.68 195.822 121.133 200.58 121.133C205.291 121.133 208.314 122.68 208.338 125.258C208.326 126.641 207.412 127.719 205.83 128.398V130.93H210.307ZM200.557 134.445C205.174 134.445 207.963 135.805 207.986 138.266C207.963 140.773 205.174 142.133 200.557 142.133C195.869 142.133 193.08 140.773 193.08 138.266C193.08 135.805 195.869 134.445 200.557 134.445ZM200.557 136.695C197.603 136.695 196.103 137.211 196.127 138.266C196.103 139.367 197.603 139.906 200.557 139.906C203.439 139.906 204.963 139.367 204.986 138.266C204.963 137.211 203.439 136.695 200.557 136.695ZM200.58 123.43C197.557 123.43 195.893 124.062 195.916 125.258C195.893 126.43 197.557 127.016 200.58 127.016C203.557 127.016 205.244 126.43 205.244 125.258C205.244 124.062 203.557 123.43 200.58 123.43ZM198.26 130.93H202.853V129.148C202.15 129.23 201.389 129.266 200.58 129.266C199.748 129.266 198.975 129.23 198.26 129.125V130.93Z" fill="#515E67"/>
<path d="M133 164.5H519C524.247 164.5 528.5 168.753 528.5 174V302.5H123.5V174C123.5 168.753 127.753 164.5 133 164.5Z" stroke="#E6E6E6"/>
<path d="M150.305 196.764C150.305 199.729 152.109 202.865 154.988 204.24L153.828 205.787C151.733 204.799 150.154 202.79 149.338 200.438C148.489 202.983 146.813 205.11 144.611 206.131L143.473 204.562C146.395 203.23 148.307 199.943 148.307 196.764V195.496H144.053V193.863H148.285V190.963H150.348V193.863H154.537V195.496H150.305V196.764ZM158.705 190.576V198.332H161.799V200.051H158.705V209.826H156.664V190.576H158.705ZM179.342 193.455V195.152H176.528V197.516H179.342V199.213H176.528V202.221H174.487V190.598H176.528V193.455H179.342ZM170.942 191.758V197.15H164.239V199.492C167.579 199.481 169.943 199.363 172.746 198.891L172.961 200.545C169.975 201.082 167.44 201.189 163.744 201.168H162.198V195.582H168.944V193.412H162.176V191.758H170.942ZM170.297 202.693C174.25 202.693 176.7 204.025 176.7 206.26C176.7 208.494 174.25 209.783 170.297 209.783C166.28 209.783 163.83 208.494 163.83 206.26C163.83 204.025 166.28 202.693 170.297 202.693ZM170.297 204.305C167.483 204.305 165.828 205.014 165.828 206.26C165.828 207.506 167.483 208.236 170.297 208.215C173.09 208.236 174.701 207.506 174.701 206.26C174.701 205.014 173.09 204.305 170.297 204.305ZM185.735 193.648C185.735 196.184 187.497 198.525 190.376 199.471L189.28 201.082C187.174 200.341 185.595 198.837 184.768 196.936C183.92 199.095 182.287 200.781 180.042 201.619L178.946 199.986C181.954 198.912 183.694 196.355 183.715 193.477V191.586H185.735V193.648ZM194.221 190.576V195.41H197.014V197.129H194.221V202.199H192.18V190.576H194.221ZM188.012 202.65C191.965 202.65 194.393 203.961 194.393 206.217C194.393 208.494 191.965 209.805 188.012 209.783C184.016 209.805 181.546 208.494 181.546 206.217C181.546 203.961 184.016 202.65 188.012 202.65ZM188.012 204.262C185.219 204.262 183.565 204.992 183.587 206.217C183.565 207.484 185.219 208.172 188.012 208.193C190.784 208.172 192.395 207.484 192.395 206.217C192.395 204.992 190.784 204.262 188.012 204.262ZM205.233 192.725V194.357H199.476V197.795H204.911V199.406H199.476V203.467C202.075 203.456 203.794 203.349 205.835 203.016L206.007 204.691C203.751 205.1 201.882 205.186 198.81 205.186H197.52V192.725H205.233ZM213.354 190.576V209.826H211.399V199.879H209.079V208.881H207.124V190.941H209.079V198.225H211.399V190.576H213.354ZM235.55 190.576V201.791H233.509V196.957H229.9V195.26H233.509V190.576H235.55ZM235.55 202.693V209.59H222.853V202.693H235.55ZM224.873 204.305V207.936H233.552V204.305H224.873ZM226.398 193.863C226.398 196.27 228.138 198.654 231.039 199.664L229.986 201.275C227.827 200.513 226.226 198.966 225.388 197.064C224.55 199.181 222.864 200.878 220.576 201.684L219.523 200.072C222.488 199.062 224.314 196.506 224.314 193.863V193.412H220.146V191.736H230.523V193.412H226.398V193.863ZM247.143 191.779C247.143 196.678 243.791 200.158 238.205 201.727L237.367 200.137C241.804 198.891 244.564 196.484 244.973 193.455H238.377V191.779H247.143ZM253.244 190.598V201.49H251.203V197.107H247.228V195.41H251.203V190.598H253.244ZM253.244 202.285V209.568H240.654V202.285H253.244ZM242.652 203.918V207.936H251.225V203.918H242.652ZM270.069 191.801V199.707H260.917V191.801H270.069ZM262.915 193.434V198.117H268.049V193.434H262.915ZM275.848 190.576V201.576H273.829V190.576H275.848ZM276.299 202.822V204.369H270.67C270.81 206.045 273.485 207.796 276.987 208.193L276.299 209.762C273.281 209.407 270.799 208.107 269.639 206.41C268.458 208.129 265.922 209.386 262.893 209.762L262.184 208.193C265.686 207.86 268.425 206.088 268.565 204.369H262.958V202.822H268.608V201.018H270.628V202.822H276.299ZM297.743 190.555V196.312H300.536V198.031H297.743V204.713H295.702V190.555H297.743ZM298.56 207.764V209.418H285.54V203.23H287.581V207.764H298.56ZM288.032 191.887C290.933 191.887 293.146 193.863 293.167 196.678C293.146 199.471 290.933 201.469 288.032 201.469C285.132 201.469 282.898 199.471 282.919 196.678C282.898 193.863 285.132 191.887 288.032 191.887ZM288.032 193.67C286.271 193.67 284.896 194.895 284.917 196.678C284.896 198.461 286.271 199.686 288.032 199.686C289.816 199.686 291.169 198.461 291.169 196.678C291.169 194.895 289.816 193.67 288.032 193.67ZM316.361 190.598V204.691H314.32V197.451H310.646V195.797H314.32V190.598H316.361ZM316.876 207.764V209.418H303.857V203.424H305.898V207.764H316.876ZM307.209 194.486C307.209 196.893 308.949 199.299 311.849 200.266L310.796 201.898C308.637 201.136 307.037 199.589 306.199 197.688C305.361 199.804 303.674 201.512 301.386 202.328L300.334 200.674C303.298 199.664 305.125 197.129 305.125 194.486V193.734H300.957V192.059H311.334V193.734H307.209V194.486ZM335.601 200.223V201.877H327.974V205.615H325.912V201.877H317.984V200.223H335.601ZM333.646 207.742V209.418H320.197V203.768H322.238V207.742H333.646ZM326.771 191.027C330.918 191.027 333.603 192.531 333.603 194.938C333.603 197.344 330.918 198.826 326.771 198.826C322.646 198.826 319.918 197.344 319.918 194.938C319.918 192.531 322.646 191.027 326.771 191.027ZM326.771 192.66C323.957 192.66 322.088 193.52 322.109 194.938C322.088 196.334 323.957 197.172 326.771 197.172C329.607 197.172 331.455 196.334 331.455 194.938C331.455 193.52 329.607 192.66 326.771 192.66ZM352.113 190.576V202.715H350.18V197.344H347.945V202.049H346.033V190.941H347.945V195.668H350.18V190.576H352.113ZM345.324 192.768V194.379H335.592V192.768H339.481V190.727H341.5V192.768H345.324ZM340.469 195.281C342.918 195.281 344.637 196.592 344.637 198.59C344.637 200.588 342.918 201.898 340.469 201.898C338.063 201.898 336.344 200.588 336.344 198.59C336.344 196.592 338.063 195.281 340.469 195.281ZM340.469 196.785C339.115 196.785 338.17 197.494 338.17 198.59C338.17 199.686 339.115 200.416 340.469 200.416C341.865 200.416 342.789 199.686 342.789 198.59C342.789 197.494 341.865 196.785 340.469 196.785ZM345.668 202.994C349.75 202.994 352.199 204.219 352.221 206.41C352.199 208.559 349.75 209.805 345.668 209.783C341.586 209.805 339.137 208.559 339.158 206.41C339.137 204.219 341.586 202.994 345.668 202.994ZM345.668 204.562C342.811 204.562 341.156 205.207 341.178 206.41C341.156 207.57 342.811 208.236 345.668 208.215C348.547 208.236 350.158 207.57 350.18 206.41C350.158 205.207 348.547 204.562 345.668 204.562ZM150.648 225.445V239.088H153.871V241H144.891V239.088H148.285V227.809L144.891 230.107V227.787L148.371 225.445H150.648ZM159.662 233.652C159.641 237.691 158.545 241.064 156.633 243.943H154.678C156.096 241.816 157.45 237.477 157.45 233.652C157.45 229.807 156.096 225.488 154.678 223.34H156.633C158.545 226.219 159.641 229.592 159.662 233.652ZM171.825 227.035C171.825 229.484 173.522 231.826 176.466 232.814L175.435 234.404C173.254 233.652 171.653 232.148 170.815 230.258C169.977 232.342 168.312 233.975 166.046 234.77L164.95 233.18C167.958 232.148 169.763 229.678 169.784 227.014V226.498H165.552V224.844H175.972V226.498H171.825V227.035ZM180.226 223.576V228.518H183.019V230.236H180.226V235.178H178.185V223.576H180.226ZM180.226 236.123V242.826H178.185V237.777H167.507V236.123H180.226ZM188.122 224.457C190.658 224.436 192.613 225.907 193.042 228.066H196.802V223.576H198.843V233.91H196.802V229.742H193.064C192.645 231.955 190.679 233.438 188.122 233.438C185.179 233.438 183.074 231.59 183.074 228.926C183.074 226.305 185.179 224.436 188.122 224.457ZM188.122 226.154C186.296 226.154 185.029 227.271 185.029 228.926C185.029 230.58 186.296 231.719 188.122 231.719C189.906 231.719 191.173 230.58 191.173 228.926C191.173 227.271 189.906 226.154 188.122 226.154ZM188.316 234.834V237.068H196.802V234.834H198.843V242.59H186.296V234.834H188.316ZM188.316 240.914H196.802V238.68H188.316V240.914ZM221.555 223.598V237.691H219.514V230.451H215.84V228.797H219.514V223.598H221.555ZM222.07 240.764V242.418H209.051V236.424H211.092V240.764H222.07ZM212.402 227.486C212.402 229.893 214.142 232.299 217.043 233.266L215.99 234.898C213.831 234.136 212.23 232.589 211.392 230.688C210.555 232.804 208.868 234.512 206.58 235.328L205.527 233.674C208.492 232.664 210.318 230.129 210.318 227.486V226.734H206.15V225.059H216.527V226.734H212.402V227.486ZM234.813 229.764C234.813 232.729 236.618 235.865 239.497 237.24L238.336 238.787C236.242 237.799 234.663 235.79 233.846 233.438C232.998 235.983 231.322 238.11 229.12 239.131L227.981 237.562C230.903 236.23 232.815 232.943 232.815 229.764V228.496H228.561V226.863H232.794V223.963H234.856V226.863H239.045V228.496H234.813V229.764ZM243.213 223.576V231.332H246.307V233.051H243.213V242.826H241.172V223.576H243.213ZM263.85 226.455V228.152H261.036V230.516H263.85V232.213H261.036V235.221H258.995V223.598H261.036V226.455H263.85ZM255.45 224.758V230.15H248.747V232.492C252.088 232.481 254.451 232.363 257.255 231.891L257.47 233.545C254.483 234.082 251.948 234.189 248.253 234.168H246.706V228.582H253.452V226.412H246.684V224.758H255.45ZM254.806 235.693C258.759 235.693 261.208 237.025 261.208 239.26C261.208 241.494 258.759 242.783 254.806 242.783C250.788 242.783 248.339 241.494 248.339 239.26C248.339 237.025 250.788 235.693 254.806 235.693ZM254.806 237.305C251.991 237.305 250.337 238.014 250.337 239.26C250.337 240.506 251.991 241.236 254.806 241.215C257.599 241.236 259.21 240.506 259.21 239.26C259.21 238.014 257.599 237.305 254.806 237.305ZM270.243 226.648C270.243 229.184 272.005 231.525 274.884 232.471L273.788 234.082C271.683 233.341 270.104 231.837 269.277 229.936C268.428 232.095 266.795 233.781 264.55 234.619L263.454 232.986C266.462 231.912 268.202 229.355 268.224 226.477V224.586H270.243V226.648ZM278.73 223.576V228.41H281.523V230.129H278.73V235.199H276.689V223.576H278.73ZM272.521 235.65C276.474 235.65 278.902 236.961 278.902 239.217C278.902 241.494 276.474 242.805 272.521 242.783C268.525 242.805 266.054 241.494 266.054 239.217C266.054 236.961 268.525 235.65 272.521 235.65ZM272.521 237.262C269.728 237.262 268.073 237.992 268.095 239.217C268.073 240.484 269.728 241.172 272.521 241.193C275.292 241.172 276.904 240.484 276.904 239.217C276.904 237.992 275.292 237.262 272.521 237.262ZM289.742 225.725V227.357H283.984V230.795H289.419V232.406H283.984V236.467C286.584 236.456 288.302 236.349 290.343 236.016L290.515 237.691C288.259 238.1 286.39 238.186 283.318 238.186H282.029V225.725H289.742ZM297.863 223.576V242.826H295.908V232.879H293.587V241.881H291.632V223.941H293.587V231.225H295.908V223.576H297.863ZM320.059 223.576V234.791H318.018V229.957H314.408V228.26H318.018V223.576H320.059ZM320.059 235.693V242.59H307.361V235.693H320.059ZM309.381 237.305V240.936H318.061V237.305H309.381ZM310.906 226.863C310.906 229.27 312.647 231.654 315.547 232.664L314.494 234.275C312.335 233.513 310.735 231.966 309.897 230.064C309.059 232.181 307.372 233.878 305.084 234.684L304.031 233.072C306.996 232.062 308.822 229.506 308.822 226.863V226.412H304.654V224.736H315.031V226.412H310.906V226.863ZM331.651 224.779C331.651 229.678 328.299 233.158 322.713 234.727L321.875 233.137C326.312 231.891 329.073 229.484 329.481 226.455H322.885V224.779H331.651ZM337.752 223.598V234.49H335.711V230.107H331.737V228.41H335.711V223.598H337.752ZM337.752 235.285V242.568H325.163V235.285H337.752ZM327.161 236.918V240.936H335.733V236.918H327.161ZM144.547 274L144.525 272.303L149.574 266.846C151.164 265.105 152.002 264.117 152.023 262.721C152.002 261.152 150.842 260.207 149.338 260.207C147.77 260.207 146.738 261.26 146.738 262.957H144.547C144.525 260.121 146.588 258.23 149.402 258.23C152.217 258.23 154.193 260.121 154.215 262.656C154.193 264.375 153.441 265.75 150.713 268.65L147.727 271.852V271.98H154.451V274H144.547ZM159.662 266.652C159.641 270.691 158.545 274.064 156.633 276.943H154.678C156.096 274.816 157.45 270.477 157.45 266.652C157.45 262.807 156.096 258.488 154.678 256.34H156.633C158.545 259.219 159.641 262.592 159.662 266.652ZM175.821 258.639V259.82C175.821 261.432 175.821 263.924 175.263 267.361L173.243 267.211C173.727 264.128 173.78 261.904 173.802 260.293H165.981V258.639H175.821ZM170.88 264.139V269.896C172.932 269.832 175.016 269.692 176.938 269.445L177.046 270.971C173.028 271.615 168.56 271.701 165.144 271.68L164.907 270.025C166.11 270.015 167.453 270.004 168.86 269.961V264.139H170.88ZM180.097 256.576V264.525H183.04V266.266H180.097V275.826H178.034V256.576H180.097ZM200.39 266.137V267.812H182.794V266.137H190.55V263.322H192.57V266.137H200.39ZM192.591 257.693C192.591 260.143 195.599 262.291 199.316 262.764L198.521 264.375C195.459 263.892 192.763 262.398 191.56 260.271C190.324 262.398 187.628 263.892 184.556 264.375L183.804 262.764C187.499 262.291 190.507 260.121 190.529 257.693V256.877H192.591V257.693ZM198.199 269.51V275.826H196.136V271.121H184.749V269.51H198.199ZM204.183 272.518L202.464 278.447H200.638L201.777 272.518H204.183ZM226.487 256.598V270.691H224.446V256.598H226.487ZM227.067 273.764V275.418H213.897V269.359H215.959V273.764H227.067ZM217.528 259.562C217.506 262.377 219.311 264.955 222.276 265.986L221.223 267.619C218.999 266.792 217.356 265.159 216.496 263.064C215.648 265.299 213.983 267.093 211.727 267.963L210.631 266.352C213.66 265.234 215.444 262.463 215.444 259.562V257.65H217.528V259.562ZM244.889 259.283V260.938H229.055V259.283H235.973V256.855H237.993V259.283H244.889ZM245.835 272.002V273.656H228.217V272.002H235.973V269.445C232.6 269.241 230.559 267.909 230.559 265.771C230.559 263.451 233.008 262.098 236.983 262.098C240.915 262.098 243.385 263.451 243.385 265.771C243.385 267.909 241.334 269.241 237.993 269.445V272.002H245.835ZM236.983 263.709C234.233 263.709 232.622 264.439 232.643 265.771C232.622 267.104 234.233 267.834 236.983 267.855C239.69 267.834 241.301 267.104 241.301 265.771C241.301 264.439 239.69 263.709 236.983 263.709ZM252.227 257.457C255.128 257.457 257.233 259.068 257.233 261.453C257.233 263.816 255.128 265.449 252.227 265.428C249.327 265.449 247.265 263.816 247.265 261.453C247.265 259.068 249.327 257.457 252.227 257.457ZM252.227 259.111C250.487 259.111 249.22 260.035 249.241 261.453C249.22 262.85 250.487 263.773 252.227 263.752C254.011 263.773 255.278 262.85 255.278 261.453C255.278 260.035 254.011 259.111 252.227 259.111ZM261.917 256.598V275.826H259.897V256.598H261.917ZM245.89 266.932C249.434 266.932 254.354 266.846 258.565 266.223L258.716 267.748C256.965 268.081 255.139 268.285 253.366 268.414V275.225H251.325V268.521C249.456 268.607 247.694 268.618 246.169 268.629L245.89 266.932ZM278.73 256.598V262.27H281.523V263.988H278.73V270.734H276.689V256.598H278.73ZM279.546 273.764V275.418H266.527V269.338H268.568V273.764H279.546ZM266.355 257.973V261.045H271.404V257.973H273.423V267.555H264.357V257.973H266.355ZM266.355 265.922H271.404V262.656H266.355V265.922ZM296.478 257.801V265.707H287.326V257.801H296.478ZM289.324 259.434V264.117H294.459V259.434H289.324ZM302.258 256.576V267.576H300.238V256.576H302.258ZM302.709 268.822V270.369H297.08C297.22 272.045 299.894 273.796 303.396 274.193L302.709 275.762C299.69 275.407 297.209 274.107 296.049 272.41C294.867 274.129 292.332 275.386 289.303 275.762L288.594 274.193C292.096 273.86 294.835 272.088 294.974 270.369H289.367V268.822H295.017V267.018H297.037V268.822H302.709ZM313.282 267.555V269.961H322.37V267.555H324.368V275.59H311.262V267.555H313.282ZM313.282 273.914H322.37V271.551H313.282V273.914ZM324.411 257.414V258.875C324.411 260.347 324.411 262.001 323.916 264.332H326.645V265.986H309.028V264.332H321.918C322.37 262.119 322.391 260.497 322.391 259.09H311.241V257.414H324.411ZM336.927 257.844C336.927 258.574 336.851 259.262 336.712 259.928H340.729V256.598H342.77V268.049H340.729V265.643H335.874V263.988H340.729V261.561H336.196C334.896 264.579 331.942 266.738 327.774 267.855L327.001 266.244C331.577 265.009 334.359 262.56 334.735 259.498H328.011V257.844H336.927ZM342.77 268.887V275.783H340.729V270.498H329.729V268.887H342.77ZM359.54 256.598V262.785H362.333V264.482H359.54V270.992H357.499V256.598H359.54ZM355.909 258.832V260.486H344.437V258.832H349.163V256.576H351.204V258.832H355.909ZM350.173 261.41C352.944 261.41 354.835 262.85 354.835 265.041C354.835 267.232 352.944 268.65 350.173 268.65C347.38 268.65 345.489 267.232 345.489 265.041C345.489 262.85 347.38 261.41 350.173 261.41ZM350.173 262.979C348.54 262.979 347.444 263.773 347.466 265.041C347.444 266.287 348.54 267.061 350.173 267.061C351.806 267.061 352.901 266.287 352.923 265.041C352.901 263.773 351.806 262.979 350.173 262.979ZM360.357 273.764V275.418H347.337V269.854H349.378V273.764H360.357ZM373.722 262.764C373.722 265.729 375.527 268.865 378.406 270.24L377.246 271.787C375.151 270.799 373.572 268.79 372.756 266.438C371.907 268.983 370.231 271.11 368.029 272.131L366.89 270.562C369.812 269.23 371.724 265.943 371.724 262.764V261.496H367.47V259.863H371.703V256.963H373.765V259.863H377.955V261.496H373.722V262.764ZM382.123 256.576V264.332H385.217V266.051H382.123V275.826H380.082V256.576H382.123ZM391.609 260.1C391.609 262.699 393.35 265.234 396.25 266.244L395.133 267.834C393.027 267.028 391.459 265.438 390.643 263.43C389.805 265.664 388.161 267.426 385.895 268.285L384.799 266.674C387.785 265.6 389.568 262.936 389.59 260.035V257.758H391.609V260.1ZM400.869 256.598V270.949H398.828V262.656H394.768V260.98H398.828V256.598H400.869ZM401.299 273.764V275.418H388.301V269.338H390.363V273.764H401.299ZM418.563 256.598V270.82H416.522V265.814H412.311V267.619H403.438V257.865H405.479V261.131H410.291V257.865H412.311V260.014H416.522V256.598H418.563ZM418.993 273.764V275.418H405.995V269.424H408.057V273.764H418.993ZM405.479 265.965H410.291V262.699H405.479V265.965ZM412.311 264.16H416.522V261.689H412.311V264.16ZM436.257 256.598V267.984H434.216V265.643H429.36V263.967H434.216V261.625H429.553C428.318 264.719 425.428 266.899 421.26 268.092L420.444 266.502C424.999 265.191 427.663 262.753 428.028 259.648H421.432V257.973H430.241C430.241 258.682 430.166 259.369 430.048 260.014H434.216V256.598H436.257ZM429.919 268.199C433.807 268.199 436.364 269.617 436.385 271.959C436.364 274.301 433.807 275.74 429.919 275.74C425.966 275.74 423.43 274.301 423.43 271.959C423.43 269.617 425.966 268.199 429.919 268.199ZM429.919 269.811C427.169 269.811 425.45 270.584 425.45 271.959C425.45 273.312 427.169 274.107 429.919 274.107C432.626 274.107 434.323 273.312 434.344 271.959C434.323 270.584 432.626 269.811 429.919 269.811ZM458.302 257.543V259.004C458.302 260.519 458.302 262.237 457.808 264.568H460.536V266.244H442.919V264.568H455.745C456.261 262.323 456.283 260.68 456.283 259.219H445.132V257.543H458.302ZM458.324 268.693V275.59H445.068V268.693H458.324ZM447.066 270.305V273.936H456.304V270.305H447.066ZM467.703 262.248C467.703 265.471 469.808 268.801 472.773 270.068L471.656 271.658C469.389 270.659 467.585 268.543 466.693 265.965C465.801 268.715 463.986 271.057 461.752 272.152L460.57 270.541C463.47 269.188 465.619 265.557 465.64 262.248V260.207H461.236V258.51H472.086V260.207H467.703V262.248ZM476.554 256.576V275.826H474.513V256.576H476.554Z" fill="#5E657B" fill-opacity="0.6"/>
<path d="M123 303H529V363C529 368.523 524.523 373 519 373H133C127.477 373 123 368.523 123 363V303Z" fill="#00B809"/>
<path d="M149 336.889L156.147 344.668L168.398 331.332" stroke="white" stroke-width="5" stroke-linecap="round" stroke-linejoin="round"/>
<path d="M206.35 327.852V333.945H209.069V336.406H206.35V342.336H203.35V327.852H206.35ZM189.053 339.594C190.612 339.594 192.393 339.594 194.233 339.547V338.352C191.913 338.023 190.46 336.898 190.483 335.258C190.46 333.289 192.545 332.07 195.71 332.07C198.85 332.07 200.913 333.289 200.936 335.258C200.913 336.898 199.495 338.012 197.21 338.328V339.43C198.967 339.359 200.713 339.219 202.366 339.008L202.577 341.07C198.077 341.867 193.131 341.914 189.358 341.914L189.053 339.594ZM206.35 343.203V349.156H203.35V345.5H191.772V343.203H206.35ZM201.827 329.398V331.578H189.616V329.398H194.233V327.664H197.21V329.398H201.827ZM195.71 334.062C194.186 334.062 193.319 334.438 193.342 335.258C193.319 336.031 194.186 336.477 195.71 336.477C197.21 336.477 198.053 336.031 198.077 335.258C198.053 334.438 197.21 334.062 195.71 334.062ZM227.409 327.852V343.18H224.409V327.852H227.409ZM227.972 346.391V348.781H213.112V341.633H216.136V346.391H227.972ZM215.714 329.211C218.995 329.211 221.55 331.461 221.55 334.578C221.55 337.766 218.995 339.992 215.714 339.992C212.433 339.992 209.878 337.766 209.878 334.578C209.878 331.461 212.433 329.211 215.714 329.211ZM215.714 331.812C214.05 331.789 212.784 332.844 212.808 334.578C212.784 336.359 214.05 337.391 215.714 337.391C217.331 337.391 218.597 336.359 218.597 334.578C218.597 332.844 217.331 331.789 215.714 331.812ZM248.14 327.852V340.977H245.304V335.727H243.64V340.742H240.851V328.133H243.64V333.312H245.304V327.852H248.14ZM240.171 329.867V332.234H229.695V329.867H233.468V327.945H236.445V329.867H240.171ZM234.968 332.914C237.687 332.914 239.609 334.414 239.632 336.641C239.609 338.82 237.687 340.367 234.968 340.367C232.296 340.367 230.351 338.82 230.351 336.641C230.351 334.414 232.296 332.914 234.968 332.914ZM234.968 335.047C233.796 335.047 233.023 335.586 233.023 336.641C233.023 337.648 233.796 338.211 234.968 338.211C236.14 338.211 236.914 337.648 236.937 336.641C236.914 335.586 236.14 335.047 234.968 335.047ZM237.992 342.078C237.968 343.637 238.66 345.242 240.359 346.297C242.046 345.184 242.796 343.496 242.82 342.078V341.633H245.796V342.078C245.773 344.07 246.968 345.945 249.804 346.672L248.421 348.898C246.359 348.277 245 347.035 244.273 345.453C243.57 347.023 242.339 348.406 240.406 349.109C238.414 348.418 237.16 347.117 236.492 345.547C235.707 347.047 234.371 348.266 232.414 348.898L231.007 346.672C233.773 345.875 235.015 343.953 235.015 342.078V341.633H237.992V342.078ZM255.301 340.625V342.43H264.09V340.625H267.066V348.922H252.348V340.625H255.301ZM255.301 346.578H264.09V344.703H255.301V346.578ZM269.527 337.133V339.547H250.074V337.133H269.527ZM261.348 328.766C261.348 330.898 263.809 333.312 268.566 333.852L267.512 336.195C263.832 335.727 261.172 334.203 259.801 332.141C258.43 334.203 255.758 335.727 252.113 336.195L251.035 333.852C255.793 333.289 258.254 330.945 258.277 328.766V328.039H261.348V328.766ZM288.266 327.828V349.156H285.29V327.828H288.266ZM274.438 329.867V341.328C277.321 341.293 280.415 341.023 283.555 340.414L283.93 342.875C280.18 343.648 276.665 343.906 273.36 343.883H271.485V329.867H274.438ZM307.427 327.828V335.75H310.567V338.188H307.427V349.203H304.427V327.828H307.427ZM301.45 329.797V332.211H294.419V341.562C297.513 341.527 300.067 341.387 302.903 340.883L303.231 343.391C299.927 343.953 297.02 344.047 293.247 344.023H291.442V329.797H301.45ZM313.697 347.211C312.595 347.211 311.705 346.32 311.728 345.242C311.705 344.164 312.595 343.297 313.697 343.297C314.728 343.297 315.642 344.164 315.642 345.242C315.642 346.32 314.728 347.211 313.697 347.211Z" fill="white"/>
</g>
</g>
<defs>
<filter id="filter0_d_691_2450" x="77" y="71" width="506" height="356" filterUnits="userSpaceOnUse" color-interpolation-filters="sRGB">
<feFlood flood-opacity="0" result="BackgroundImageFix"/>
<feColorMatrix in="SourceAlpha" type="matrix" values="0 0 0 0 0 0 0 0 0 0 0 0 0 0 0 0 0 0 127 0" result="hardAlpha"/>
<feOffset dx="4" dy="4"/>
<feGaussianBlur stdDeviation="15"/>
<feComposite in2="hardAlpha" operator="out"/>
<feColorMatrix type="matrix" values="0 0 0 0 0 0 0 0 0 0 0 0 0 0 0 0 0 0 0.3 0"/>
<feBlend mode="normal" in2="BackgroundImageFix" result="effect1_dropShadow_691_2450"/>
<feBlend mode="normal" in="SourceGraphic" in2="effect1_dropShadow_691_2450" result="shape"/>
</filter>
<clipPath id="clip0_691_2450">
<rect width="652" height="490" fill="white"/>
</clipPath>
</defs>
</svg>
