<svg width="652" height="867" viewBox="0 0 652 867" fill="none" xmlns="http://www.w3.org/2000/svg">
<g clip-path="url(#clip0_691_2684)">
<rect width="652" height="867" fill="white"/>
<rect x="0.204102" y="-0.0966797" width="652" height="867" transform="rotate(0.0170542 0.204102 -0.0966797)" fill="#A5ADBE" fill-opacity="0.5"/>
<path d="M229.465 90.1113V70.3145H242.754V73.7051H233.566V78.5176H242.07V81.9082H233.566V86.7207H242.781V90.1113H229.465ZM255.859 75.9746C255.695 74.416 254.437 73.4863 252.441 73.4863C250.363 73.4863 249.215 74.4434 249.187 75.7559C249.16 77.1777 250.664 77.834 252.359 78.2168L254.137 78.6543C257.527 79.4199 260.07 81.1426 260.07 84.4512C260.07 88.0879 257.226 90.3848 252.414 90.3848C247.629 90.3848 244.566 88.1699 244.457 83.9316H248.449C248.586 85.9277 250.172 86.9395 252.359 86.9395C254.519 86.9395 255.914 85.9277 255.914 84.4512C255.914 83.1113 254.683 82.4824 252.523 81.9355L250.363 81.416C247.027 80.5957 244.976 78.9277 244.976 76.0293C244.976 72.4199 248.148 70.041 252.469 70.041C256.844 70.041 259.742 72.4746 259.797 75.9746H255.859ZM275.062 76.6855C274.515 74.8262 273.011 73.6777 270.851 73.6777C267.789 73.6777 265.711 76.0293 265.711 80.1855C265.711 84.3691 267.734 86.748 270.879 86.748C273.709 86.748 275.39 85.1484 275.445 82.6465H271.152V79.5566H279.41V82.0176C279.41 87.2129 275.855 90.3848 270.851 90.3848C265.3 90.3848 261.527 86.502 261.527 80.2402C261.527 73.8145 265.547 70.041 270.769 70.041C275.226 70.041 278.672 72.7754 279.218 76.6855H275.062ZM295.777 90.1113H288.804V70.3145H295.859C301.82 70.3145 305.456 74.0332 305.456 80.1855C305.456 86.3926 301.82 90.1113 295.777 90.1113ZM292.906 86.584H295.613C299.386 86.584 301.355 84.6152 301.355 80.1855C301.355 75.7832 299.386 73.8418 295.64 73.8418H292.906V86.584ZM306.804 85.9551C306.804 82.6465 309.484 81.5527 312.327 81.3887C313.394 81.3203 315.39 81.2246 316.019 81.1973V79.9941C315.991 78.7637 315.144 78.0254 313.64 78.0254C312.273 78.0254 311.398 78.6543 311.179 79.666H307.323C307.569 77.0957 309.812 75.0723 313.749 75.0723C316.976 75.0723 320.038 76.5215 320.038 80.1035V90.1113H316.21V88.0605H316.101C315.362 89.4277 313.968 90.3848 311.753 90.3848C308.909 90.3848 306.804 88.9082 306.804 85.9551ZM310.687 85.8457C310.687 86.9941 311.616 87.5957 312.902 87.5957C314.734 87.5957 316.046 86.3652 316.019 84.8066V83.7129C315.403 83.7402 313.681 83.8359 312.984 83.9043C311.589 84.041 310.687 84.6973 310.687 85.8457ZM330.765 79.666C330.601 78.627 329.671 77.9434 328.331 77.9434C327.019 77.9434 326.007 78.5723 326.034 79.4746C326.007 80.1309 326.554 80.6504 327.948 80.9512L330.601 81.498C333.472 82.0996 334.866 83.3848 334.894 85.5176C334.866 88.4434 332.241 90.4121 328.304 90.4121C324.284 90.4121 321.933 88.6074 321.604 85.709H325.679C325.87 86.8848 326.827 87.4863 328.304 87.4863C329.78 87.4863 330.765 86.8848 330.765 85.9277C330.765 85.1621 330.136 84.6973 328.741 84.3965L326.28 83.9043C323.464 83.3574 321.987 81.8809 322.015 79.6934C321.987 76.8496 324.448 75.0723 328.276 75.0723C332.022 75.0723 334.347 76.8496 334.565 79.666H330.765ZM340.589 81.5254V90.1113H336.542V70.3145H340.479V77.8613H340.643C341.327 76.1387 342.831 75.0723 345.073 75.0723C348.163 75.0723 350.214 77.1504 350.214 80.6504V90.1113H346.167V81.3613C346.167 79.5293 345.182 78.4355 343.487 78.4355C341.792 78.4355 340.589 79.5566 340.589 81.5254ZM352.573 90.1113V70.3145H356.62V77.752H356.729C357.303 76.5488 358.479 75.0723 360.967 75.0723C364.249 75.0723 367.01 77.6152 367.01 82.7012C367.01 87.6504 364.358 90.3574 360.967 90.3574C358.534 90.3574 357.303 88.9629 356.729 87.7324H356.565V90.1113H352.573ZM356.538 82.6738C356.538 85.3535 357.686 87.1309 359.682 87.1309C361.76 87.1309 362.854 85.2988 362.854 82.6738C362.854 80.0762 361.76 78.2988 359.682 78.2988C357.659 78.2988 356.538 79.9941 356.538 82.6738ZM375.44 90.4121C370.956 90.4121 368.167 87.3223 368.167 82.7285C368.167 78.1348 370.956 75.0723 375.44 75.0723C379.924 75.0723 382.741 78.1348 382.741 82.7285C382.741 87.3223 379.924 90.4121 375.44 90.4121ZM375.467 87.2676C377.545 87.2676 378.612 85.3262 378.612 82.7285C378.612 80.1035 377.545 78.1621 375.467 78.1621C373.362 78.1621 372.268 80.1035 372.268 82.7285C372.268 85.3262 373.362 87.2676 375.467 87.2676ZM383.733 85.9551C383.733 82.6465 386.412 81.5527 389.256 81.3887C390.323 81.3203 392.319 81.2246 392.948 81.1973V79.9941C392.92 78.7637 392.073 78.0254 390.569 78.0254C389.202 78.0254 388.327 78.6543 388.108 79.666H384.252C384.498 77.0957 386.741 75.0723 390.678 75.0723C393.905 75.0723 396.967 76.5215 396.967 80.1035V90.1113H393.139V88.0605H393.03C392.291 89.4277 390.897 90.3848 388.682 90.3848C385.838 90.3848 383.733 88.9082 383.733 85.9551ZM387.616 85.8457C387.616 86.9941 388.545 87.5957 389.83 87.5957C391.662 87.5957 392.975 86.3652 392.948 84.8066V83.7129C392.332 83.7402 390.61 83.8359 389.912 83.9043C388.518 84.041 387.616 84.6973 387.616 85.8457ZM399.217 90.1113V75.2637H403.127V77.834H403.291C403.838 76.002 405.205 75.0449 406.873 75.0449C407.283 75.0449 407.803 75.0996 408.158 75.1816V78.791C407.776 78.6816 407.01 78.5723 406.436 78.5723C404.604 78.5723 403.264 79.8574 403.264 81.6621V90.1113H399.217ZM414.291 90.3574C410.9 90.3574 408.248 87.6504 408.248 82.7012C408.248 77.6152 411.01 75.0723 414.291 75.0723C416.779 75.0723 417.955 76.5488 418.502 77.752H418.639V70.3145H422.686V90.1113H418.693V87.7324H418.502C417.928 88.9629 416.697 90.3574 414.291 90.3574ZM415.549 87.1309C417.572 87.1309 418.721 85.3535 418.721 82.6738C418.721 79.9941 417.572 78.2988 415.549 78.2988C413.498 78.2988 412.404 80.0762 412.404 82.6738C412.404 85.2988 413.498 87.1309 415.549 87.1309Z" fill="#515E67"/>
<g filter="url(#filter0_d_691_2684)">
<rect x="67.0752" y="161" width="217.551" height="151.301" rx="12.9898" fill="white" shape-rendering="crispEdges"/>
<path d="M96.0391 200.899H255.164" stroke="#A5ADBE" stroke-opacity="0.1" stroke-width="1.29898" stroke-linecap="round" stroke-linejoin="round"/>
<path d="M96.0391 222.332H255.164" stroke="#A5ADBE" stroke-opacity="0.1" stroke-width="1.29898" stroke-linecap="round" stroke-linejoin="round"/>
<path d="M96.0391 243.766H255.164" stroke="#A5ADBE" stroke-opacity="0.1" stroke-width="1.29898" stroke-linecap="round" stroke-linejoin="round"/>
<path d="M96.0391 265.199H255.164" stroke="#A5ADBE" stroke-opacity="0.1" stroke-width="1.29898" stroke-linecap="round" stroke-linejoin="round"/>
<path d="M183.554 231.52C183.554 228.651 185.88 226.324 188.75 226.324H206.02C208.889 226.324 211.215 228.651 211.215 231.52V286.756H183.554V231.52Z" fill="#A5ADBE"/>
<path d="M227.452 206.337C227.452 203.467 229.778 201.141 232.648 201.141H249.918C252.788 201.141 255.114 203.467 255.114 206.337V286.755H227.452V206.337Z" fill="#00B809"/>
<path d="M95.7559 249.204C95.7559 246.334 98.0821 244.008 100.952 244.008H118.222C121.091 244.008 123.418 246.334 123.418 249.204V286.756H95.7559V249.204Z" fill="#78849D"/>
<path d="M139.655 238.348C139.655 235.479 141.982 233.152 144.851 233.152H162.121C164.991 233.152 167.317 235.479 167.317 238.348V286.755H139.655V238.348Z" fill="#D7DCE7"/>
<path d="M124.733 188.101V176.707H132.382V178.658H127.094V181.428H131.988V183.379H127.094V186.149H132.397V188.101H124.733ZM136.021 183.159V188.101H133.692V179.555H135.911V181.05H136.006C136.399 180.059 137.312 179.445 138.571 179.445C140.349 179.445 141.529 180.657 141.514 182.656V188.101H139.2V183.065C139.2 182.01 138.618 181.381 137.658 181.381C136.682 181.381 136.021 182.026 136.021 183.159ZM150.457 179.555L147.451 188.101H144.839L141.849 179.555H144.304L146.098 185.693H146.192L147.986 179.555H150.457ZM151.106 188.101V179.555H153.436V188.101H151.106ZM152.271 178.438C151.563 178.438 150.996 177.903 150.996 177.258C150.996 176.597 151.563 176.062 152.271 176.062C152.963 176.062 153.53 176.597 153.53 177.258C153.53 177.903 152.963 178.438 152.271 178.438ZM154.762 188.101V179.555H157.012V181.035H157.107C157.421 179.98 158.208 179.429 159.168 179.429C159.404 179.429 159.703 179.461 159.908 179.508V181.585C159.688 181.522 159.247 181.459 158.917 181.459C157.862 181.459 157.091 182.199 157.091 183.238V188.101H154.762ZM164.13 188.274C161.549 188.274 159.944 186.495 159.944 183.852C159.944 181.208 161.549 179.445 164.13 179.445C166.711 179.445 168.332 181.208 168.332 183.852C168.332 186.495 166.711 188.274 164.13 188.274ZM164.146 186.464C165.342 186.464 165.955 185.347 165.955 183.852C165.955 182.341 165.342 181.223 164.146 181.223C162.934 181.223 162.304 182.341 162.304 183.852C162.304 185.347 162.934 186.464 164.146 186.464ZM171.641 183.159V188.101H169.312V179.555H171.531V181.05H171.625C172.019 180.059 172.931 179.445 174.19 179.445C175.969 179.445 177.149 180.657 177.133 182.656V188.101H174.82V183.065C174.82 182.01 174.238 181.381 173.278 181.381C172.302 181.381 171.641 182.026 171.641 183.159ZM178.46 188.101V179.555H180.679V181.05H180.773C181.135 180.059 182 179.445 183.149 179.445C184.33 179.445 185.195 180.059 185.478 181.05H185.557C185.919 180.075 186.879 179.445 188.138 179.445C189.727 179.445 190.829 180.5 190.829 182.357V188.101H188.5V182.813C188.5 181.837 187.933 181.365 187.162 181.365C186.281 181.365 185.777 181.979 185.777 182.876V188.101H183.511V182.75C183.511 181.9 182.976 181.365 182.189 181.365C181.402 181.365 180.789 181.995 180.789 182.97V188.101H178.46ZM196.011 188.274C193.399 188.274 191.793 186.574 191.793 183.867C191.793 181.223 193.414 179.445 195.917 179.445C198.167 179.445 199.929 180.861 199.929 183.773V184.434H194.091C194.091 185.724 194.862 186.527 196.058 186.527C196.845 186.527 197.412 186.181 197.648 185.661H199.867C199.536 187.235 198.12 188.274 196.011 188.274ZM194.091 182.97H197.726C197.726 181.932 197.002 181.192 195.964 181.192C194.894 181.192 194.13 181.987 194.091 182.97ZM203.239 183.159V188.101H200.91V179.555H203.129V181.05H203.223C203.616 180.059 204.529 179.445 205.788 179.445C207.566 179.445 208.747 180.657 208.731 182.656V188.101H206.418V183.065C206.418 182.01 205.835 181.381 204.875 181.381C203.9 181.381 203.239 182.026 203.239 183.159ZM214.558 179.555V181.302H212.953V185.472C212.953 186.149 213.283 186.322 213.756 186.338C213.992 186.338 214.401 186.322 214.684 186.291V188.132C214.432 188.179 214.023 188.211 213.441 188.211C211.757 188.211 210.608 187.455 210.624 185.803V181.302H209.444V179.555H210.624V177.509H212.953V179.555H214.558ZM215.129 185.709C215.129 183.804 216.671 183.175 218.308 183.08C218.922 183.041 220.071 182.986 220.433 182.97V182.278C220.417 181.57 219.929 181.145 219.063 181.145C218.277 181.145 217.773 181.507 217.647 182.089H215.428C215.57 180.61 216.86 179.445 219.126 179.445C220.983 179.445 222.746 180.279 222.746 182.341V188.101H220.543V186.92H220.48C220.055 187.707 219.252 188.258 217.978 188.258C216.341 188.258 215.129 187.408 215.129 185.709ZM217.364 185.646C217.364 186.307 217.899 186.653 218.638 186.653C219.693 186.653 220.448 185.945 220.433 185.048V184.418C220.078 184.434 219.087 184.489 218.686 184.528C217.883 184.607 217.364 184.985 217.364 185.646ZM226.37 185.284C226.37 185.945 226.653 186.275 227.409 186.275C227.519 186.275 227.597 186.275 227.723 186.259V188.085C227.55 188.101 227.409 188.101 227.251 188.101C225.253 188.101 224.041 187.298 224.041 185.331V176.707H226.37V185.284Z" fill="#515E67" fill-opacity="0.6"/>
<path d="M96.0752 286H255.075" stroke="#D2D6DF" stroke-width="2" stroke-linecap="round" stroke-linejoin="round"/>
</g>
<g filter="url(#filter1_d_691_2684)">
<rect x="215.075" y="355.699" width="217.551" height="151.301" rx="12.9898" fill="white" shape-rendering="crispEdges"/>
<path d="M244.04 395.599H403.165" stroke="#A5ADBE" stroke-opacity="0.1" stroke-width="1.29898" stroke-linecap="round" stroke-linejoin="round"/>
<path d="M244.04 417.031H403.165" stroke="#A5ADBE" stroke-opacity="0.1" stroke-width="1.29898" stroke-linecap="round" stroke-linejoin="round"/>
<path d="M244.04 438.465H403.165" stroke="#A5ADBE" stroke-opacity="0.1" stroke-width="1.29898" stroke-linecap="round" stroke-linejoin="round"/>
<path d="M244.04 459.898H403.165" stroke="#A5ADBE" stroke-opacity="0.1" stroke-width="1.29898" stroke-linecap="round" stroke-linejoin="round"/>
<path d="M331.555 426.219C331.555 423.35 333.881 421.023 336.751 421.023H354.02C356.89 421.023 359.216 423.35 359.216 426.219V481.455H331.555V426.219Z" fill="#A5ADBE"/>
<path d="M375.453 401.036C375.453 398.166 377.779 395.84 380.649 395.84H397.919C400.789 395.84 403.115 398.166 403.115 401.036V481.454H375.453V401.036Z" fill="#00B809"/>
<path d="M243.757 443.903C243.757 441.033 246.083 438.707 248.953 438.707H266.223C269.092 438.707 271.419 441.033 271.419 443.903V481.455H243.757V443.903Z" fill="#78849D"/>
<path d="M287.655 433.047C287.655 430.178 289.982 427.852 292.851 427.852H310.121C312.991 427.852 315.317 430.178 315.317 433.047V481.455H287.655V433.047Z" fill="#D7DCE7"/>
<path d="M288.28 375.073C287.965 374.003 287.099 373.342 285.856 373.342C284.094 373.342 282.898 374.695 282.898 377.087C282.898 379.495 284.062 380.864 285.872 380.864C287.501 380.864 288.469 379.944 288.5 378.504H286.029V376.725H290.782V378.142C290.782 381.132 288.736 382.957 285.856 382.957C282.662 382.957 280.49 380.722 280.49 377.119C280.49 373.42 282.803 371.249 285.809 371.249C288.374 371.249 290.357 372.822 290.672 375.073H288.28ZM295.822 382.973C293.241 382.973 291.636 381.195 291.636 378.551C291.636 375.907 293.241 374.144 295.822 374.144C298.403 374.144 300.024 375.907 300.024 378.551C300.024 381.195 298.403 382.973 295.822 382.973ZM295.838 381.163C297.034 381.163 297.648 380.046 297.648 378.551C297.648 377.04 297.034 375.923 295.838 375.923C294.626 375.923 293.997 377.04 293.997 378.551C293.997 380.046 294.626 381.163 295.838 381.163ZM308.653 374.255L305.647 382.8H303.034L300.044 374.255H302.499L304.293 380.392H304.388L306.182 374.255H308.653ZM312.89 382.973C310.278 382.973 308.673 381.273 308.673 378.567C308.673 375.923 310.294 374.144 312.796 374.144C315.046 374.144 316.809 375.561 316.809 378.472V379.133H310.97C310.97 380.423 311.741 381.226 312.937 381.226C313.724 381.226 314.291 380.88 314.527 380.361H316.746C316.415 381.934 314.999 382.973 312.89 382.973ZM310.97 377.669H314.606C314.606 376.631 313.882 375.891 312.843 375.891C311.773 375.891 311.01 376.686 310.97 377.669ZM317.789 382.8V374.255H320.039V375.734H320.134C320.448 374.679 321.235 374.129 322.195 374.129C322.431 374.129 322.73 374.16 322.935 374.207V376.285C322.715 376.222 322.274 376.159 321.943 376.159C320.889 376.159 320.118 376.898 320.118 377.937V382.8H317.789ZM325.914 377.858V382.8H323.585V374.255H325.804V375.75H325.898C326.291 374.758 327.204 374.144 328.463 374.144C330.241 374.144 331.422 375.356 331.406 377.355V382.8H329.093V377.764C329.093 376.71 328.51 376.08 327.55 376.08C326.575 376.08 325.914 376.725 325.914 377.858ZM332.323 380.408C332.323 378.504 333.865 377.874 335.502 377.78C336.116 377.74 337.265 377.685 337.627 377.669V376.977C337.611 376.269 337.123 375.844 336.257 375.844C335.471 375.844 334.967 376.206 334.841 376.788H332.622C332.764 375.309 334.054 374.144 336.32 374.144C338.177 374.144 339.94 374.978 339.94 377.04V382.8H337.737V381.62H337.674C337.249 382.406 336.446 382.957 335.172 382.957C333.535 382.957 332.323 382.107 332.323 380.408ZM334.558 380.345C334.558 381.006 335.093 381.352 335.833 381.352C336.887 381.352 337.642 380.644 337.627 379.747V379.117C337.272 379.133 336.281 379.188 335.88 379.227C335.077 379.306 334.558 379.684 334.558 380.345ZM343.564 377.858V382.8H341.235V374.255H343.454V375.75H343.548C343.942 374.758 344.854 374.144 346.113 374.144C347.892 374.144 349.072 375.356 349.056 377.355V382.8H346.743V377.764C346.743 376.71 346.161 376.08 345.201 376.08C344.225 376.08 343.564 376.725 343.564 377.858ZM354.222 382.973C351.61 382.973 350.036 381.163 350.036 378.551C350.036 375.938 351.626 374.144 354.222 374.144C356.426 374.144 357.921 375.435 358.015 377.386H355.828C355.686 376.536 355.135 375.954 354.254 375.954C353.136 375.954 352.397 376.898 352.397 378.519C352.397 380.172 353.121 381.116 354.254 381.116C355.072 381.116 355.686 380.612 355.828 379.7H358.015C357.905 381.635 356.488 382.973 354.222 382.973ZM362.851 382.973C360.238 382.973 358.633 381.273 358.633 378.567C358.633 375.923 360.254 374.144 362.756 374.144C365.007 374.144 366.769 375.561 366.769 378.472V379.133H360.931C360.931 380.423 361.702 381.226 362.898 381.226C363.685 381.226 364.251 380.88 364.487 380.361H366.706C366.376 381.934 364.96 382.973 362.851 382.973ZM360.931 377.669H364.566C364.566 376.631 363.842 375.891 362.804 375.891C361.733 375.891 360.97 376.686 360.931 377.669Z" fill="#515E67" fill-opacity="0.6"/>
<path d="M244.075 481H403.075" stroke="#D2D6DF" stroke-width="2" stroke-linecap="round" stroke-linejoin="round"/>
</g>
<g filter="url(#filter2_d_691_2684)">
<rect x="391.036" y="234.412" width="217.551" height="151.301" rx="12.9898" fill="white" shape-rendering="crispEdges"/>
<path d="M420.001 274.312H579.126" stroke="#A5ADBE" stroke-opacity="0.1" stroke-width="1.29898" stroke-linecap="round" stroke-linejoin="round"/>
<path d="M420.001 295.746H579.126" stroke="#A5ADBE" stroke-opacity="0.1" stroke-width="1.29898" stroke-linecap="round" stroke-linejoin="round"/>
<path d="M420.001 317.179H579.126" stroke="#A5ADBE" stroke-opacity="0.1" stroke-width="1.29898" stroke-linecap="round" stroke-linejoin="round"/>
<path d="M420.001 338.611H579.126" stroke="#A5ADBE" stroke-opacity="0.1" stroke-width="1.29898" stroke-linecap="round" stroke-linejoin="round"/>
<path d="M507.515 304.932C507.515 302.063 509.841 299.736 512.711 299.736H529.98C532.85 299.736 535.176 302.063 535.176 304.932V360.168H507.515V304.932Z" fill="#A5ADBE"/>
<path d="M551.414 279.749C551.414 276.879 553.74 274.553 556.61 274.553H573.88C576.749 274.553 579.076 276.879 579.076 279.749V360.167H551.414V279.749Z" fill="#00B809"/>
<path d="M419.718 322.616C419.718 319.746 422.044 317.42 424.914 317.42H442.184C445.053 317.42 447.379 319.746 447.379 322.616V360.168H419.718V322.616Z" fill="#78849D"/>
<path d="M463.616 311.76C463.616 308.891 465.942 306.564 468.812 306.564H486.082C488.952 306.564 491.278 308.891 491.278 311.76V360.168H463.616V311.76Z" fill="#D7DCE7"/>
<path d="M484.379 253.378C484.285 252.481 483.561 251.945 482.412 251.945C481.216 251.945 480.555 252.496 480.54 253.252C480.524 254.07 481.389 254.448 482.365 254.668L483.388 254.92C485.339 255.36 486.803 256.352 486.803 258.256C486.803 260.349 485.166 261.671 482.397 261.671C479.643 261.671 477.88 260.396 477.817 257.957H480.115C480.193 259.106 481.106 259.688 482.365 259.688C483.608 259.688 484.411 259.106 484.411 258.256C484.411 257.485 483.703 257.123 482.46 256.808L481.216 256.509C479.296 256.037 478.116 255.077 478.116 253.409C478.116 251.332 479.942 249.963 482.428 249.963C484.946 249.963 486.614 251.363 486.646 253.378H484.379ZM491.654 261.687C489.074 261.687 487.468 259.908 487.468 257.265C487.468 254.621 489.074 252.858 491.654 252.858C494.235 252.858 495.856 254.621 495.856 257.265C495.856 259.908 494.235 261.687 491.654 261.687ZM491.67 259.877C492.866 259.877 493.48 258.76 493.48 257.265C493.48 255.754 492.866 254.637 491.67 254.637C490.458 254.637 489.829 255.754 489.829 257.265C489.829 258.76 490.458 259.877 491.67 259.877ZM500.676 261.687C498.064 261.687 496.49 259.877 496.49 257.265C496.49 254.652 498.08 252.858 500.676 252.858C502.879 252.858 504.374 254.149 504.469 256.1H502.281C502.14 255.25 501.589 254.668 500.708 254.668C499.59 254.668 498.851 255.612 498.851 257.233C498.851 258.886 499.575 259.83 500.708 259.83C501.526 259.83 502.14 259.326 502.281 258.413H504.469C504.359 260.349 502.942 261.687 500.676 261.687ZM505.433 261.514V252.968H507.762V261.514H505.433ZM506.598 251.851C505.89 251.851 505.323 251.316 505.323 250.671C505.323 250.01 505.89 249.475 506.598 249.475C507.29 249.475 507.857 250.01 507.857 250.671C507.857 251.316 507.29 251.851 506.598 251.851ZM508.68 259.122C508.68 257.217 510.222 256.588 511.858 256.494C512.472 256.454 513.621 256.399 513.983 256.383V255.691C513.967 254.983 513.479 254.558 512.614 254.558C511.827 254.558 511.323 254.92 511.197 255.502H508.979C509.12 254.023 510.411 252.858 512.677 252.858C514.534 252.858 516.296 253.692 516.296 255.754V261.514H514.093V260.333H514.03C513.605 261.12 512.803 261.671 511.528 261.671C509.891 261.671 508.68 260.821 508.68 259.122ZM510.914 259.059C510.914 259.72 511.449 260.066 512.189 260.066C513.243 260.066 513.999 259.358 513.983 258.461V257.831C513.629 257.847 512.637 257.902 512.236 257.941C511.434 258.02 510.914 258.398 510.914 259.059ZM519.92 258.697C519.92 259.358 520.204 259.688 520.959 259.688C521.069 259.688 521.148 259.688 521.274 259.672V261.498C521.101 261.514 520.959 261.514 520.802 261.514C518.803 261.514 517.591 260.711 517.591 258.744V250.12H519.92V258.697Z" fill="#515E67" fill-opacity="0.6"/>
<path d="M420.075 360H579.075" stroke="#D2D6DF" stroke-width="2" stroke-linecap="round" stroke-linejoin="round"/>
</g>
<g filter="url(#filter3_d_691_2684)">
<rect x="103.075" y="562" width="446" height="248" rx="20" fill="white" shape-rendering="crispEdges"/>
<path d="M148.041 602.37H503.999" stroke="#A5ADBE" stroke-opacity="0.1" stroke-width="2" stroke-linecap="round" stroke-linejoin="round"/>
<path d="M148.041 635.37H503.999" stroke="#A5ADBE" stroke-opacity="0.1" stroke-width="2" stroke-linecap="round" stroke-linejoin="round"/>
<path d="M148.041 668.37H503.999" stroke="#A5ADBE" stroke-opacity="0.1" stroke-width="2" stroke-linecap="round" stroke-linejoin="round"/>
<path d="M148.041 701.37H503.999" stroke="#A5ADBE" stroke-opacity="0.1" stroke-width="2" stroke-linecap="round" stroke-linejoin="round"/>
<path d="M188.34 758.447V772.713H185.612V765.709H182.41V763.496H185.612V758.447H188.34ZM188.813 775.441V777.633H175.364V771.467H178.114V775.441H188.813ZM179.252 762.271C179.252 764.527 180.627 766.955 183.742 767.965L182.389 770.135C180.219 769.437 178.737 768.008 177.877 766.225C177.018 768.201 175.46 769.77 173.151 770.543L171.754 768.309C174.977 767.299 176.438 764.742 176.459 762.25V761.949H172.528V759.758H183.141V761.949H179.252V762.271ZM206.205 759.285V760.811C206.205 762.25 206.205 763.904 205.818 766.01H208.332V768.201H200.726V771.016H206.226V777.977H203.476V773.164H192.24V771.016H197.976V768.201H190.435V766.01H203.047C203.412 764.184 203.466 762.744 203.476 761.455H192.627V759.285H206.205Z" fill="#515E67" fill-opacity="0.6"/>
<path d="M258.965 762.852C258.965 766.525 260.448 770.092 263.713 771.51L262.038 773.701C259.868 772.638 258.418 770.693 257.612 768.287C256.753 770.844 255.249 772.938 253.014 774.045L251.295 771.811C254.647 770.307 256.172 766.525 256.194 762.852V759.93H258.965V762.852ZM268.075 758.426V778.02H265.368V766.783H261.522V764.57H265.368V758.426H268.075ZM279.064 758.598C283.555 758.598 286.154 759.779 286.176 761.949C286.154 764.098 283.555 765.279 279.064 765.279C274.553 765.279 271.932 764.098 271.932 761.949C271.932 759.779 274.553 758.598 279.064 758.598ZM279.064 760.617C276.186 760.617 274.789 761.047 274.811 761.949C274.789 762.895 276.186 763.281 279.064 763.281C281.965 763.281 283.34 762.895 283.34 761.949C283.34 761.047 281.965 760.617 279.064 760.617ZM287.98 766.16V768.309H280.418V769.619H285.811V774.604H274.918V775.785H286.326V777.848H272.232V772.691H283.104V771.617H272.211V769.619H277.668V768.309H270.148V766.16H287.98ZM296.328 762.852C296.328 766.439 297.96 770.049 301.269 771.445L299.658 773.637C297.423 772.627 295.876 770.683 294.996 768.266C294.104 770.897 292.503 773.024 290.119 774.109L288.464 771.832C291.88 770.393 293.535 766.654 293.556 762.852V759.93H296.328V762.852ZM305.093 758.426V778.02H302.322V758.426H305.093Z" fill="#515E67" fill-opacity="0.6"/>
<path d="M351.532 759.844V761.068C351.532 762.422 351.532 764.377 351.081 766.805L348.395 766.547C348.739 764.667 348.825 763.249 348.846 762.078H341.477V759.844H351.532ZM346.676 764.355V768.094C348.621 768.019 350.619 767.868 352.456 767.6L352.606 769.576C348.545 770.328 343.948 770.393 340.553 770.414L340.317 768.223C341.413 768.223 342.648 768.223 343.948 768.18V764.355H346.676ZM356.323 758.426V764.377H358.686V766.676H356.323V773.057H353.508V758.426H356.323ZM356.924 775.441V777.633H343.196V771.746H345.946V775.441H356.924ZM364.648 759.5C367.678 759.479 369.977 761.498 369.977 764.248C369.977 767.062 367.678 769.039 364.648 769.039C361.598 769.039 359.277 767.062 359.277 764.248C359.277 761.498 361.598 759.479 364.648 759.5ZM364.648 761.842C363.102 761.842 361.963 762.723 361.984 764.248C361.963 765.816 363.102 766.719 364.648 766.719C366.152 766.719 367.291 765.816 367.312 764.248C367.291 762.723 366.152 761.842 364.648 761.842ZM374.66 758.426V763.023H377.303V765.258H374.66V769.855H371.91V758.426H374.66ZM374.66 770.672V777.998H371.91V772.885H361.49V770.672H374.66ZM393.47 759.564V761.326C393.47 763.152 393.47 765.15 392.976 767.879H395.554V770.092H387.927V777.998H385.177V770.092H377.722V767.879H390.205C390.699 765.354 390.742 763.442 390.742 761.756H379.763V759.564H393.47Z" fill="#515E67" fill-opacity="0.6"/>
<path d="M418.897 768.652C418.918 764.592 420.014 761.262 421.776 758.34H424.654C423.387 760.488 422.033 764.785 422.033 768.652C422.033 772.52 423.387 776.795 424.654 778.943H421.776C420.014 776.043 418.918 772.67 418.897 768.652ZM442.026 769.104V771.574H434.506V778.062H431.434V771.574H424.043V769.104H442.026ZM440.436 759.328V761.713H434.915C435.215 763.432 437.063 765.247 441.252 765.709L440.114 768.137C436.569 767.696 434.216 766.278 433.045 764.355C431.853 766.278 429.511 767.696 425.999 768.137L424.86 765.709C428.974 765.247 430.843 763.432 431.198 761.713H425.655V759.328H440.436ZM447.173 768.652C447.151 772.67 446.056 776.043 444.294 778.943H441.415C442.682 776.795 444.036 772.52 444.036 768.652C444.036 764.785 442.682 760.488 441.415 758.34H444.294C446.056 761.262 447.151 764.592 447.173 768.652ZM462.718 758.984V760.768C462.718 762.314 462.718 763.904 462.374 765.816H464.694V768.266H446.819V765.816H459.28C459.366 765.322 459.431 764.86 459.474 764.42L448.71 764.828L448.366 762.486L459.624 762.293V761.391H448.925V758.984H462.718ZM462.782 769.189V774.561H451.804V775.484H463.47V777.848H448.732V772.369H459.71V771.531H448.71V769.189H462.782ZM480.992 758.361V772.885H477.919V758.361H480.992ZM481.486 775.27V777.74H467.628V771.639H470.722V775.27H481.486ZM474.632 759.629V766.074H468.531V767.965C471.99 767.943 474.117 767.847 476.501 767.363L476.824 769.834C474.095 770.371 471.56 770.457 467.263 770.457H465.501V763.818H471.582V762.057H465.48V759.629H474.632ZM498.836 758.361V772.885H495.763V766.074H492.541V763.604H495.763V758.361H498.836ZM499.287 775.27V777.74H485.601V771.617H488.717V775.27H499.287ZM492.111 759.865V762.314H486.117V763.861H491.467V766.268H486.117V767.879C488.781 767.857 490.618 767.782 492.713 767.449L492.949 769.855C490.457 770.307 488.222 770.414 484.613 770.393H483.066V759.865H492.111Z" fill="#515E67"/>
<path d="M344.075 668.169C344.075 663.751 347.657 660.169 352.075 660.169H388.661C393.079 660.169 396.661 663.751 396.661 668.169V734.188H344.075V668.169Z" fill="#A5ADBE"/>
<path d="M431.661 622.914C431.661 618.496 435.243 614.914 439.661 614.914H476.247C480.665 614.914 484.247 618.496 484.247 622.914V734.188H431.661V622.914Z" fill="#00B809"/>
<path d="M167.903 676.37C167.903 671.952 171.485 668.37 175.903 668.37H212.489C216.908 668.37 220.489 671.952 220.489 676.37V734.188H167.903V676.37Z" fill="#78849D"/>
<path d="M255.489 659.657C255.489 655.239 259.071 651.657 263.489 651.657H300.075C304.493 651.657 308.075 655.239 308.075 659.657V734.188H255.489V659.657Z" fill="#D7DCE7"/>
<path d="M148.075 734L503.523 734" stroke="#D2D6DF" stroke-width="3" stroke-linecap="round" stroke-linejoin="round"/>
</g>
</g>
<defs>
<filter id="filter0_d_691_2684" x="50.1885" y="144.113" width="256.52" height="190.27" filterUnits="userSpaceOnUse" color-interpolation-filters="sRGB">
<feFlood flood-opacity="0" result="BackgroundImageFix"/>
<feColorMatrix in="SourceAlpha" type="matrix" values="0 0 0 0 0 0 0 0 0 0 0 0 0 0 0 0 0 0 127 0" result="hardAlpha"/>
<feOffset dx="2.59795" dy="2.59795"/>
<feGaussianBlur stdDeviation="9.74232"/>
<feComposite in2="hardAlpha" operator="out"/>
<feColorMatrix type="matrix" values="0 0 0 0 0 0 0 0 0 0 0 0 0 0 0 0 0 0 0.2 0"/>
<feBlend mode="normal" in2="BackgroundImageFix" result="effect1_dropShadow_691_2684"/>
<feBlend mode="normal" in="SourceGraphic" in2="effect1_dropShadow_691_2684" result="shape"/>
</filter>
<filter id="filter1_d_691_2684" x="198.189" y="338.813" width="256.52" height="190.27" filterUnits="userSpaceOnUse" color-interpolation-filters="sRGB">
<feFlood flood-opacity="0" result="BackgroundImageFix"/>
<feColorMatrix in="SourceAlpha" type="matrix" values="0 0 0 0 0 0 0 0 0 0 0 0 0 0 0 0 0 0 127 0" result="hardAlpha"/>
<feOffset dx="2.59795" dy="2.59795"/>
<feGaussianBlur stdDeviation="9.74232"/>
<feComposite in2="hardAlpha" operator="out"/>
<feColorMatrix type="matrix" values="0 0 0 0 0 0 0 0 0 0 0 0 0 0 0 0 0 0 0.2 0"/>
<feBlend mode="normal" in2="BackgroundImageFix" result="effect1_dropShadow_691_2684"/>
<feBlend mode="normal" in="SourceGraphic" in2="effect1_dropShadow_691_2684" result="shape"/>
</filter>
<filter id="filter2_d_691_2684" x="374.149" y="217.525" width="256.52" height="190.27" filterUnits="userSpaceOnUse" color-interpolation-filters="sRGB">
<feFlood flood-opacity="0" result="BackgroundImageFix"/>
<feColorMatrix in="SourceAlpha" type="matrix" values="0 0 0 0 0 0 0 0 0 0 0 0 0 0 0 0 0 0 127 0" result="hardAlpha"/>
<feOffset dx="2.59795" dy="2.59795"/>
<feGaussianBlur stdDeviation="9.74232"/>
<feComposite in2="hardAlpha" operator="out"/>
<feColorMatrix type="matrix" values="0 0 0 0 0 0 0 0 0 0 0 0 0 0 0 0 0 0 0.2 0"/>
<feBlend mode="normal" in2="BackgroundImageFix" result="effect1_dropShadow_691_2684"/>
<feBlend mode="normal" in="SourceGraphic" in2="effect1_dropShadow_691_2684" result="shape"/>
</filter>
<filter id="filter3_d_691_2684" x="77.0752" y="536" width="506" height="308" filterUnits="userSpaceOnUse" color-interpolation-filters="sRGB">
<feFlood flood-opacity="0" result="BackgroundImageFix"/>
<feColorMatrix in="SourceAlpha" type="matrix" values="0 0 0 0 0 0 0 0 0 0 0 0 0 0 0 0 0 0 127 0" result="hardAlpha"/>
<feOffset dx="4" dy="4"/>
<feGaussianBlur stdDeviation="15"/>
<feComposite in2="hardAlpha" operator="out"/>
<feColorMatrix type="matrix" values="0 0 0 0 0 0 0 0 0 0 0 0 0 0 0 0 0 0 0.2 0"/>
<feBlend mode="normal" in2="BackgroundImageFix" result="effect1_dropShadow_691_2684"/>
<feBlend mode="normal" in="SourceGraphic" in2="effect1_dropShadow_691_2684" result="shape"/>
</filter>
<clipPath id="clip0_691_2684">
<rect width="652" height="867" fill="white"/>
</clipPath>
</defs>
</svg>
