<svg width="652" height="490" viewBox="0 0 652 490" fill="none" xmlns="http://www.w3.org/2000/svg">
<g clip-path="url(#clip0_691_2818)">
<rect width="652" height="490" fill="#C4D7FF" fill-opacity="0.7"/>
<rect width="652" height="490" fill="#A5ADBE"/>
<g filter="url(#filter0_d_691_2818)">
<rect x="135" y="71" width="381" height="460" rx="24" fill="#E1E3E5" shape-rendering="crispEdges"/>
<rect x="135" y="71" width="381" height="460" rx="24" fill="white" fill-opacity="0.8" shape-rendering="crispEdges"/>
<path d="M192.976 114.633V139.516H189.613V114.633H192.976ZM187.945 115.125V138.34H184.691V129.289H182.257V126.445H184.691V124.34H182.257V121.496H184.691V115.125H187.945ZM182.804 117.395V120.211H181.218V130.766C181.902 130.711 182.558 130.643 183.159 130.574L183.405 133.172C179.605 133.828 174.519 133.938 171.32 133.938L170.937 131.066L173.015 131.039V120.211H171.402V117.395H182.804ZM176.105 131.012L178.073 130.93V120.211H176.105V131.012ZM215.487 114.633V139.516H211.96V114.633H215.487ZM208.023 117.23C208.023 124.777 205.37 131.039 196.483 135.25L194.651 132.461C201.077 129.426 203.907 125.488 204.468 119.965H195.991V117.23H208.023ZM240.624 124.504V127.266H230.999V128.852H237.862V135.223H223.999V136.727H238.518V139.352H220.581V132.762H234.417V131.477H220.554V128.852H227.499V127.266H217.929V124.504H240.624ZM237.753 115.344V123.191H220.745V115.344H237.753ZM224.163 118.051V120.512H234.28V118.051H224.163ZM261.721 116.574C261.721 119.5 264.702 122.754 270.417 123.465L269.049 126.281C264.702 125.652 261.516 123.643 259.889 120.949C258.249 123.643 255.09 125.652 250.784 126.281L249.389 123.465C255.049 122.754 258.057 119.5 258.057 116.574V115.371H261.721V116.574ZM271.21 128.168V131.012H261.53V139.516H258.085V131.012H248.514V128.168H271.21ZM292.846 114.633V139.516H289.373V127.047H284.424V124.203H289.373V114.633H292.846ZM284.561 117.23C284.561 124.75 282.127 130.875 273.432 135.195L271.627 132.461C277.916 129.357 280.514 125.406 281.061 119.965H272.803V117.23H284.561ZM325.236 133.746V136.617H302.459V133.746H307.545V127.648C305.617 126.5 304.455 124.736 304.455 122.535C304.455 118.516 308.393 115.836 313.807 115.836C319.193 115.836 323.158 118.516 323.186 122.535C323.172 124.682 322.037 126.432 320.178 127.594V133.746H325.236ZM313.807 118.598C310.252 118.598 307.9 120.02 307.9 122.535C307.9 124.969 310.252 126.473 313.807 126.473C317.334 126.473 319.713 124.969 319.74 122.535C319.713 120.02 317.334 118.598 313.807 118.598ZM310.99 133.746H316.65V128.906C315.762 129.084 314.805 129.18 313.807 129.18C312.809 129.18 311.865 129.098 310.99 128.906V133.746ZM340.01 117.23V119.965H334.978C335.006 122.521 336.893 125.119 340.885 126.145L339.271 128.824C336.441 128.113 334.445 126.541 333.31 124.504C332.23 126.828 330.234 128.646 327.295 129.48L325.654 126.773C329.646 125.639 331.478 122.795 331.506 119.965H326.502V117.23H331.506V114.523H335.033V117.23H340.01ZM346.791 114.633V129.672H343.318V124.094H339.271V121.305H343.318V114.633H346.791ZM338.287 130.082C343.592 130.109 346.846 131.777 346.873 134.758C346.846 137.766 343.592 139.516 338.287 139.516C333.01 139.516 329.728 137.766 329.728 134.758C329.728 131.777 333.01 130.109 338.287 130.082ZM338.287 132.762C334.978 132.762 333.201 133.418 333.201 134.758C333.201 136.125 334.978 136.863 338.287 136.863C341.65 136.863 343.4 136.125 343.4 134.758C343.4 133.418 341.65 132.762 338.287 132.762ZM369.83 116.629V128.633H357.662V116.629H369.83ZM361.107 119.391V125.871H366.357V119.391H361.107ZM377.24 114.66V132.352H373.74V114.66H377.24ZM377.896 136.152V138.969H360.56V130.711H364.088V136.152H377.896ZM400.845 114.66V133.445H397.345V131.477H392.587V129.098H397.345V114.66H400.845ZM401.392 136.289V139.078H382.853V131.641H386.326V128.332C384.097 128.428 381.978 128.441 380.091 128.441L379.681 125.68C384.247 125.652 390.4 125.598 395.65 124.941L395.841 127.43C393.872 127.758 391.835 127.99 389.826 128.141V132.871H386.326V136.289H401.392ZM387.775 115.508C391.384 115.48 393.982 117.312 393.982 119.965C393.982 122.617 391.384 124.34 387.775 124.34C384.083 124.34 381.513 122.617 381.513 119.965C381.513 117.312 384.056 115.48 387.775 115.508ZM387.775 118.051C385.997 118.051 384.794 118.734 384.822 119.965C384.794 121.168 385.997 121.824 387.775 121.824C389.443 121.824 390.646 121.168 390.673 119.965C390.646 118.734 389.443 118.051 387.775 118.051ZM431.185 114.66V132.816H427.685V114.66H431.185ZM431.841 136.289V139.078H414.505V131.066H418.032V136.289H431.841ZM419.892 118.434C419.864 121.715 421.614 124.941 425.716 126.254L423.939 128.988C421.136 128.059 419.194 126.199 418.087 123.82C416.98 126.377 414.984 128.428 412.071 129.426L410.267 126.664C414.45 125.27 416.255 121.797 416.255 118.434V116.027H419.892V118.434ZM447.899 117.23V119.965H442.868C442.895 122.521 444.782 125.119 448.774 126.145L447.161 128.824C444.331 128.113 442.335 126.541 441.2 124.504C440.12 126.828 438.124 128.646 435.185 129.48L433.544 126.773C437.536 125.639 439.368 122.795 439.395 119.965H434.392V117.23H439.395V114.523H442.923V117.23H447.899ZM454.681 114.633V129.672H451.208V124.094H447.161V121.305H451.208V114.633H454.681ZM446.177 130.082C451.481 130.109 454.735 131.777 454.763 134.758C454.735 137.766 451.481 139.516 446.177 139.516C440.899 139.516 437.618 137.766 437.618 134.758C437.618 131.777 440.899 130.109 446.177 130.082ZM446.177 132.762C442.868 132.762 441.091 133.418 441.091 134.758C441.091 136.125 442.868 136.863 446.177 136.863C449.54 136.863 451.29 136.125 451.29 134.758C451.29 133.418 449.54 132.762 446.177 132.762ZM466.473 120.266C466.473 124.941 468.36 129.48 472.516 131.285L470.384 134.074C467.622 132.721 465.776 130.246 464.751 127.184C463.657 130.438 461.743 133.104 458.899 134.512L456.712 131.668C460.977 129.754 462.919 124.941 462.946 120.266V116.547H466.473V120.266ZM478.067 114.633V139.57H474.622V125.27H469.727V122.453H474.622V114.633H478.067Z" fill="#515E67"/>
<rect x="159" y="173" width="333" height="86" rx="10" fill="#808899" fill-opacity="0.1"/>
<path d="M198.004 195.201V196.801H204.42V195.201H206.653V201.74H202.329V203.094H208.516V204.887H193.926V203.094H200.079V201.74H195.79V195.201H198.004ZM198.004 199.947H204.42V198.523H198.004V199.947ZM206.864 208.543V210.336H195.684V205.801H197.934V208.543H206.864ZM214.186 209V196.273H222.571V198.453H216.823V201.547H222.026V203.727H216.823V209H214.186ZM224.299 209H221.451L225.863 196.273H229.256L233.65 209H230.82L229.871 206.064H225.265L224.299 209ZM225.933 204.008H229.203L227.603 199.139H227.515L225.933 204.008ZM236.995 196.273L239.596 200.65H239.684L242.303 196.273H245.292L241.407 202.637L245.38 209H242.321L239.684 204.623H239.596L236.96 209H233.919L237.909 202.637L233.989 196.273H236.995ZM259.03 195.904V203.621H251.208V195.904H259.03ZM253.423 197.68V201.846H256.798V197.68H253.423ZM263.794 194.639V206.012H261.544V194.639H263.794ZM264.216 208.455V210.266H253.071V204.957H255.339V208.455H264.216ZM278.969 194.639V206.715H276.719V205.449H273.66V203.92H276.719V194.639H278.969ZM279.32 208.543V210.336H267.402V205.555H269.635V203.428C268.202 203.489 266.84 203.498 265.627 203.498L265.363 201.723C268.299 201.705 272.254 201.67 275.629 201.248L275.752 202.848C274.486 203.059 273.177 203.208 271.885 203.305V206.346H269.635V208.543H279.32ZM270.566 195.184C272.887 195.166 274.556 196.344 274.556 198.049C274.556 199.754 272.887 200.861 270.566 200.861C268.193 200.861 266.541 199.754 266.541 198.049C266.541 196.344 268.176 195.166 270.566 195.184ZM270.566 196.818C269.424 196.818 268.65 197.258 268.668 198.049C268.65 198.822 269.424 199.244 270.566 199.244C271.639 199.244 272.412 198.822 272.43 198.049C272.412 197.258 271.639 196.818 270.566 196.818ZM295.022 202.795V204.588H280.433V202.795H295.022ZM293.37 208.543V210.336H282.19V205.66H284.44V208.543H293.37ZM287.727 195.113C291.225 195.096 293.528 196.344 293.546 198.383C293.528 200.422 291.225 201.688 287.727 201.688C284.194 201.688 281.891 200.422 281.891 198.383C281.891 196.344 284.194 195.096 287.727 195.113ZM287.727 196.871C285.513 196.889 284.212 197.416 284.229 198.383C284.212 199.385 285.513 199.877 287.727 199.877C289.942 199.877 291.225 199.385 291.225 198.383C291.225 197.416 289.942 196.889 287.727 196.871ZM301.431 202.83V194.393H306.282V196.66H303.927V202.83H301.431ZM319.471 195.201V196.59C319.471 197.847 319.471 199.183 319.154 200.809H321.123V202.584H306.604V200.809H316.922C317.01 200.325 317.071 199.877 317.133 199.455L308.168 199.807L307.922 198.084L317.238 197.891V196.959H308.361V195.201H319.471ZM319.541 203.533V207.734H310.436V208.719H320.104V210.441H308.203V206.117H317.309V205.238H308.186V203.533H319.541ZM334.962 194.639V206.416H332.73V194.639H334.962ZM335.384 208.543V210.336H324.204V205.432H326.437V208.543H335.384ZM329.829 195.676V200.773H324.626V202.549C327.482 202.54 329.311 202.461 331.376 202.057L331.622 203.85C329.302 204.289 327.228 204.377 323.835 204.377H322.429V199.121H327.597V197.469H322.411V195.676H329.829ZM351.191 203.111V204.869H336.566V203.111H342.754V201.934H338.395V194.973H349.486V196.713H340.645V197.609H349.117V199.262H340.645V200.229H349.627V201.934H345.004V203.111H351.191ZM349.399 205.854V210.617H347.131V207.611H338.219V205.854H349.399ZM356.347 202.83V211.268H351.495V209H353.851V202.83H356.347ZM368.784 198.242C368.784 201.248 369.997 204.166 372.669 205.326L371.298 207.119C369.523 206.249 368.336 204.658 367.677 202.689C366.974 204.781 365.743 206.495 363.915 207.4L362.509 205.572C365.251 204.342 366.499 201.248 366.517 198.242V195.852H368.784V198.242ZM376.238 194.621V210.652H374.023V201.459H370.876V199.648H374.023V194.621H376.238ZM391.149 194.621V210.652H388.881V194.621H391.149ZM380.795 195.887V199.789H384.24V195.887H386.455V206.908H378.545V195.887H380.795ZM380.795 205.098H384.24V201.529H380.795V205.098ZM401.191 196.73C401.191 199.068 403.265 201.582 406.886 202.197L405.902 204.061C403.116 203.507 401.041 201.942 400.013 199.877C398.949 201.925 396.875 203.498 394.107 204.061L393.14 202.197C396.691 201.564 398.783 199.051 398.8 196.73V195.57H401.191V196.73ZM407.413 206.803V208.648H392.771V206.803H407.413ZM422.412 201.793V203.463H407.77V201.793H422.412ZM420.655 204.254V208.033H411.69V208.947H421.129V210.477H409.457V206.609H418.44V205.801H409.44V204.254H420.655ZM420.637 194.902V198.664H411.83V199.525H420.918V201.037H409.598V197.24H418.387V196.432H409.563V194.902H420.637ZM442.039 202.865V204.623H427.414V202.865H433.602V201.881H429.243V195.008H440.334V196.73H431.493V197.627H439.965V199.244H431.493V200.158H440.475V201.881H435.852V202.865H442.039ZM434.727 205.361C438.26 205.344 440.282 206.293 440.299 207.98C440.282 209.703 438.26 210.617 434.727 210.617C431.141 210.617 429.12 209.703 429.12 207.98C429.12 206.293 431.141 205.344 434.727 205.361ZM434.727 207.014C432.424 207.014 431.352 207.312 431.37 207.98C431.352 208.666 432.424 208.965 434.727 208.965C436.977 208.965 438.032 208.666 438.049 207.98C438.032 207.312 436.977 207.014 434.727 207.014ZM450.183 197.064V198.84H442.449V197.064H445.226V195.061H447.441V197.064H450.183ZM446.351 199.561C448.39 199.561 449.849 201.143 449.867 203.357C449.849 205.59 448.39 207.172 446.351 207.172C444.312 207.172 442.818 205.59 442.818 203.357C442.818 201.143 444.312 199.561 446.351 199.561ZM446.351 201.424C445.419 201.424 444.787 202.145 444.787 203.357C444.787 204.57 445.419 205.273 446.351 205.273C447.247 205.273 447.88 204.57 447.898 203.357C447.88 202.145 447.247 201.424 446.351 201.424ZM456.3 194.621V210.617H454.173V202.918H452.872V209.932H450.781V194.938H452.872V201.125H454.173V194.621H456.3ZM264.914 221.621V230.375H262.681V227.035H260.15V225.207H262.681V221.621H264.914ZM256.459 230.99V232.502H262.681V230.99H264.914V237.441H254.244V230.99H256.459ZM256.459 235.648H262.681V234.225H256.459V235.648ZM260.66 222.342V224.17H257.496C257.584 225.954 258.726 227.809 261.152 228.6L260.045 230.322C258.269 229.733 257.048 228.591 256.353 227.141C255.65 228.749 254.376 230.041 252.486 230.656L251.344 228.898C253.857 228.063 255.061 226.121 255.193 224.17H251.976V222.342H260.66ZM274.938 222.869C274.938 224.75 276.854 226.842 280.528 227.299L279.649 229.109C276.854 228.705 274.806 227.413 273.761 225.682C272.706 227.413 270.676 228.705 267.907 229.109L267.011 227.299C270.649 226.842 272.583 224.75 272.583 222.869V222.096H274.938V222.869ZM281.038 230.322V232.15H274.815V237.617H272.6V232.15H266.448V230.322H281.038ZM290.799 226.525V228.318H287.933V229.936C289.199 229.874 290.456 229.795 291.642 229.672L291.801 231.271C288.408 231.746 284.787 231.834 281.834 231.834L281.535 230.059C282.818 230.05 284.233 230.041 285.683 230.006V228.318H282.889V222.588H290.658V224.381H285.139V226.525H290.799ZM294.912 221.604V233.662H292.627V221.604H294.912ZM295.334 235.543V237.336H284.014V232.748H286.281V235.543H295.334ZM309.758 222.904V230.621H301.935V222.904H309.758ZM304.15 224.68V228.846H307.525V224.68H304.15ZM314.521 221.639V233.012H312.271V221.639H314.521ZM314.943 235.455V237.266H303.799V231.957H306.066V235.455H314.943ZM329.696 221.639V233.715H327.446V232.449H324.388V230.92H327.446V221.639H329.696ZM330.048 235.543V237.336H318.13V232.555H320.362V230.428C318.93 230.489 317.567 230.498 316.354 230.498L316.091 228.723C319.026 228.705 322.981 228.67 326.356 228.248L326.479 229.848C325.214 230.059 323.904 230.208 322.612 230.305V233.346H320.362V235.543H330.048ZM321.294 222.184C323.614 222.166 325.284 223.344 325.284 225.049C325.284 226.754 323.614 227.861 321.294 227.861C318.921 227.861 317.269 226.754 317.269 225.049C317.269 223.344 318.903 222.166 321.294 222.184ZM321.294 223.818C320.151 223.818 319.378 224.258 319.395 225.049C319.378 225.822 320.151 226.244 321.294 226.244C322.366 226.244 323.14 225.822 323.157 225.049C323.14 224.258 322.366 223.818 321.294 223.818ZM349.288 221.639V233.328H347.056V228.107H344.19V226.262H347.056V221.639H349.288ZM344.331 222.816C344.331 227.105 341.606 230.27 336.931 231.729L336.017 229.953C339.33 228.916 341.466 227.009 341.888 224.645H336.843V222.816H344.331ZM349.692 235.543V237.336H338.741V232.15H341.026V235.543H349.692ZM364.217 221.621V230.217H361.967V221.621H364.217ZM355.727 230.92V232.414H361.984V230.92H364.217V237.441H353.512V230.92H355.727ZM355.727 235.631H361.984V234.154H355.727V235.631ZM355.445 222.289C357.941 222.271 359.822 223.836 359.822 226.086C359.822 228.266 357.941 229.83 355.445 229.83C352.949 229.83 351.068 228.266 351.068 226.086C351.068 223.836 352.949 222.271 355.445 222.289ZM355.445 224.152C354.162 224.152 353.248 224.873 353.266 226.086C353.248 227.281 354.162 227.984 355.445 227.984C356.693 227.984 357.607 227.281 357.607 226.086C357.607 224.873 356.693 224.152 355.445 224.152ZM379.286 221.621V237.617H377.054V221.621H379.286ZM368.915 223.15V231.746C371.077 231.72 373.398 231.518 375.753 231.061L376.034 232.906C373.222 233.486 370.585 233.68 368.107 233.662H366.7V223.15H368.915ZM393.477 221.621V227.562H395.832V229.391H393.477V237.652H391.227V221.621H393.477ZM388.994 223.098V224.908H383.721V231.922C386.041 231.896 387.957 231.79 390.084 231.412L390.33 233.293C387.852 233.715 385.672 233.785 382.842 233.768H381.488V223.098H388.994ZM397.999 236.158C397.173 236.158 396.505 235.49 396.523 234.682C396.505 233.873 397.173 233.223 397.999 233.223C398.773 233.223 399.458 233.873 399.458 234.682C399.458 235.49 398.773 236.158 397.999 236.158Z" fill="#515E67" fill-opacity="0.6"/>
<rect x="159" y="301" width="72" height="20" rx="6" fill="#F2F3F5"/>
<rect x="159" y="339" width="133" height="20" rx="6" fill="#F2F3F5"/>
<rect x="159" y="377" width="79" height="94" rx="6" fill="#F2F3F5"/>
<rect x="247" y="377" width="79" height="94" rx="6" fill="#F2F3F5"/>
<rect x="335" y="377" width="79" height="94" rx="6" fill="#F2F3F5"/>
</g>
<path d="M99 406C99 389.431 112.431 376 129 376H524C540.569 376 554 389.431 554 406V490H99V406Z" fill="#A5ADBE"/>
<path d="M99 406C99 389.431 112.431 376 129 376H524C540.569 376 554 389.431 554 406V490H99V406Z" fill="url(#paint0_linear_691_2818)" fill-opacity="0.2"/>
<rect x="247" y="384" width="158" height="43" rx="20" fill="url(#paint1_linear_691_2818)" fill-opacity="0.12"/>
<rect x="109" y="384" width="56" height="43" rx="21" fill="url(#paint2_linear_691_2818)" fill-opacity="0.12"/>
<rect x="496" y="384" width="50" height="50" rx="25" fill="url(#paint3_linear_691_2818)" fill-opacity="0.12"/>
<rect x="438" y="384" width="50" height="50" rx="25" fill="url(#paint4_linear_691_2818)" fill-opacity="0.12"/>
</g>
<defs>
<filter id="filter0_d_691_2818" x="75" y="9" width="501" height="580" filterUnits="userSpaceOnUse" color-interpolation-filters="sRGB">
<feFlood flood-opacity="0" result="BackgroundImageFix"/>
<feColorMatrix in="SourceAlpha" type="matrix" values="0 0 0 0 0 0 0 0 0 0 0 0 0 0 0 0 0 0 127 0" result="hardAlpha"/>
<feOffset dy="-2"/>
<feGaussianBlur stdDeviation="30"/>
<feComposite in2="hardAlpha" operator="out"/>
<feColorMatrix type="matrix" values="0 0 0 0 0 0 0 0 0 0 0 0 0 0 0 0 0 0 0.2 0"/>
<feBlend mode="normal" in2="BackgroundImageFix" result="effect1_dropShadow_691_2818"/>
<feBlend mode="normal" in="SourceGraphic" in2="effect1_dropShadow_691_2818" result="shape"/>
</filter>
<linearGradient id="paint0_linear_691_2818" x1="326.5" y1="490" x2="326.5" y2="376" gradientUnits="userSpaceOnUse">
<stop stop-opacity="0"/>
<stop offset="1"/>
</linearGradient>
<linearGradient id="paint1_linear_691_2818" x1="326" y1="384" x2="326" y2="427" gradientUnits="userSpaceOnUse">
<stop stop-color="white"/>
<stop offset="1" stop-color="white" stop-opacity="0"/>
</linearGradient>
<linearGradient id="paint2_linear_691_2818" x1="137" y1="384" x2="137" y2="427" gradientUnits="userSpaceOnUse">
<stop stop-color="white"/>
<stop offset="1" stop-color="white" stop-opacity="0"/>
</linearGradient>
<linearGradient id="paint3_linear_691_2818" x1="521" y1="384" x2="521" y2="434" gradientUnits="userSpaceOnUse">
<stop stop-color="white"/>
<stop offset="0.822115" stop-color="white" stop-opacity="0"/>
</linearGradient>
<linearGradient id="paint4_linear_691_2818" x1="463" y1="384" x2="463" y2="434" gradientUnits="userSpaceOnUse">
<stop stop-color="white"/>
<stop offset="0.822115" stop-color="white" stop-opacity="0"/>
</linearGradient>
<clipPath id="clip0_691_2818">
<rect width="652" height="490" fill="white"/>
</clipPath>
</defs>
</svg>
