<svg width="90" height="20" viewBox="0 0 90 20" fill="none" xmlns="http://www.w3.org/2000/svg">
<path d="M89.2916 19.955H88.2397C87.8966 19.955 87.6679 19.9321 87.3478 19.955C87.1877 19.955 87.0505 19.9779 86.8904 19.9779C86.799 19.9779 86.8218 19.9779 86.7303 19.955C86.5474 19.8864 86.2272 19.6577 86.09 19.4976C85.9528 19.3376 85.8614 19.1317 85.8614 19.086C85.8385 19.0403 85.8156 19.0174 85.7927 18.9717C85.7241 18.8802 85.6784 18.8116 85.6098 18.7201C85.5412 18.5829 85.4955 18.4686 85.3811 18.1941C85.3354 18.1484 85.3354 18.1027 85.3125 18.0341C85.2439 17.874 85.1982 17.7596 85.1296 17.6224C85.0381 17.3938 84.9009 17.1879 84.6265 16.7763C84.352 16.3647 84.192 16.0674 83.9404 16.0445C83.8947 16.0445 83.7346 16.0674 83.5974 16.1817C83.323 16.4104 83.323 16.822 83.323 17.0736C83.3001 17.2337 83.3001 17.3709 83.3001 17.531V17.8282C83.2772 17.9655 83.2544 18.0798 83.2544 18.2399C83.2544 18.56 83.3001 18.7887 83.3001 19.1089C83.3001 19.2003 83.3001 19.269 83.2544 19.3604C83.2086 19.5205 83.0028 19.8178 82.8427 19.8864C82.7513 19.955 82.6369 19.9321 82.6141 19.9321C82.454 19.9321 82.3396 19.955 82.1796 19.955H82.1109C81.9737 19.955 81.8594 19.9321 81.7222 19.955C81.6078 19.955 81.5392 19.9779 81.4249 19.9779C81.242 19.9779 81.1276 19.955 80.9675 19.955C80.6931 19.955 80.5102 20.0007 80.2357 20.0007C80.0757 20.0007 80.0071 19.9321 79.9385 19.8635C79.5954 19.5205 79.664 19.6348 79.6412 19.1317V18.743C79.6412 18.6058 79.664 18.5143 79.664 18.3771C79.664 18.2627 79.6412 18.1713 79.6412 18.0569C79.6412 17.9197 79.664 17.7825 79.664 17.6224V16.9135C79.664 16.7077 79.6412 16.5705 79.6412 16.3647C79.6412 15.9759 79.664 15.7015 79.6412 15.3356C79.6412 15.0383 79.6183 14.8096 79.6183 14.5123C79.6412 14.1007 79.6869 13.712 79.6869 13.3003C79.6869 12.7286 79.5954 12.3399 79.5954 11.7681C79.5954 11.0135 79.6412 10.4875 79.6412 9.73287C79.6412 9.09256 79.6183 8.65806 79.6183 8.01775V7.88054C79.6183 7.49177 79.5954 7.21735 79.5954 6.85146C79.5954 6.64565 79.6412 6.48557 79.6412 6.27975C79.6412 6.07394 79.6183 5.91386 79.6183 5.70805C79.6183 5.47936 79.5954 5.31929 79.5954 5.0906C79.5954 4.97626 79.6183 4.90766 79.6183 4.79331C79.6183 4.5189 79.5268 4.35882 79.6869 4.10727C79.7098 4.03866 79.7326 4.01579 79.8241 3.92432C80.0071 3.80998 80.1671 3.80998 80.2129 3.80998C80.4187 3.80998 80.5559 3.83285 80.7617 3.83285H81.4706C81.6536 3.83285 81.7679 3.83285 81.928 3.80998C82.0652 3.80998 82.1796 3.78711 82.3396 3.78711C82.7513 3.78711 83.2315 4.03866 83.2315 4.45029C83.2315 4.5875 83.2086 4.67897 83.2086 4.81618C83.2086 5.04487 83.2544 5.43363 83.2544 5.4565C83.2544 5.57084 83.2772 5.66231 83.2772 5.77665C83.2772 5.82239 83.2544 5.93673 83.2544 6.07394C83.2315 6.21115 83.2086 6.23402 83.2086 6.43983C83.2086 6.85146 83.2544 7.12588 83.2544 7.53751C83.2544 8.01775 83.2315 8.3379 83.2315 8.81814V9.68713C83.2315 9.98442 83.2315 10.1216 83.2544 10.2588C83.2772 10.3732 83.3916 11.6995 83.8032 11.6995C83.8718 11.6995 83.9633 11.6538 84.0319 11.6309C84.3063 11.5166 84.3063 11.448 84.535 11.0592C84.6265 10.922 84.6951 10.8305 84.7637 10.6933C84.8094 10.6476 84.8323 10.6019 84.8551 10.5561C84.9238 10.3732 84.9466 10.2588 84.9924 10.0759C85.1067 9.80147 85.1296 9.75574 85.1524 9.59566C85.1982 9.45845 85.1753 9.34411 85.221 9.18403C85.221 9.11542 85.2668 9.04682 85.2668 8.97821C85.2896 8.88674 85.3125 8.81814 85.3125 8.7724L85.4269 8.65806C85.6098 8.49798 85.8614 8.52085 86.273 8.52085C86.5017 8.52085 86.5474 8.52085 86.6846 8.54372C86.7761 8.56659 86.799 8.58945 86.9362 8.58945C87.1648 8.58945 87.3021 8.52085 87.5307 8.52085C87.6451 8.52085 87.7594 8.54372 87.8738 8.54372C88.011 8.54372 88.1253 8.52085 88.2397 8.52085C88.3997 8.52085 88.4455 8.54372 88.5369 8.58945C88.6742 8.65806 88.88 8.93248 88.88 9.2755C88.88 9.34411 88.88 9.45845 88.8342 9.6414C88.7656 10.0988 88.7199 10.053 88.5827 10.4875C88.5598 10.6019 88.4912 10.8992 88.4455 10.9906C88.354 11.1964 88.2625 11.3108 88.1939 11.5166C87.9881 11.9968 88.1253 11.8825 87.8509 12.3627C87.5765 12.8201 87.0276 13.529 87.0276 13.9864C87.0276 14.3065 87.3021 14.6038 87.3478 14.6953C87.3935 14.741 87.4164 14.7868 87.4393 14.8325C87.5536 15.0154 87.6222 15.1527 87.7366 15.3356C87.828 15.4957 87.8966 15.5872 87.9652 15.7472C88.0796 15.9302 88.1482 16.0674 88.2397 16.2503C88.3311 16.4104 88.4226 16.5019 88.5141 16.662C88.6055 16.7763 88.6284 16.8678 88.697 16.9821C88.7656 17.0736 88.8114 17.1422 88.88 17.2565C88.9714 17.3938 88.9943 17.5081 89.0858 17.6224C89.1544 17.7825 89.2459 17.8511 89.3373 18.0112C89.4288 18.1713 89.4745 18.2856 89.566 18.4457C89.6804 18.6058 89.7718 18.6744 89.8404 18.8345C89.9548 19.0403 90.0005 19.1775 90.0005 19.269C90.0005 19.3147 90.0005 19.3376 89.9776 19.429C89.9548 19.4976 89.9776 19.6348 89.8176 19.8407C89.7261 19.955 89.6575 19.9779 89.6118 19.9779C89.4745 19.9779 89.4059 19.955 89.2916 19.955Z" fill="#012E85"/>
<path d="M60.491 3.87133H60.6053C61.0169 3.87133 61.3142 3.82559 61.7259 3.82559C61.9088 3.82559 62.0689 3.84846 62.2747 3.84846C62.4348 3.84846 62.6177 3.82559 62.8007 3.82559H63.3038C63.5553 3.82559 63.7383 3.80273 63.967 3.82559C64.1499 3.82559 64.2871 3.87133 64.4701 3.84846C64.6073 3.84846 64.7445 3.82559 64.9046 3.82559C65.2247 3.82559 65.4763 3.91707 65.7964 3.91707C66.0708 3.91707 66.2309 3.84846 66.4825 3.84846C66.6883 3.84846 67.0084 3.9628 67.0313 3.98567C67.2143 4.10001 67.2829 4.37443 67.2829 4.69459V5.12909C67.2829 5.47211 67.3057 5.70079 67.3057 6.04382V6.36398C67.3057 6.50119 67.3286 6.61553 67.3286 6.75274C67.3286 6.82134 67.3286 7.00429 67.1228 7.2101C66.8712 7.50739 66.5282 7.53026 66.2309 7.53026H65.865C65.0646 7.53026 64.5615 7.50739 64.2185 7.78181C64.127 7.85042 64.1042 7.89615 63.9898 8.03336C63.8297 8.23918 63.8297 8.21631 63.8069 8.35352C63.7611 8.53647 63.8069 8.53647 63.7611 8.78802C63.7383 9.0167 63.7154 9.15391 63.6925 9.38259V9.97717C63.6697 10.2059 63.6697 10.3431 63.6697 10.5717C63.6697 10.8462 63.6925 11.052 63.6925 11.3264C63.6925 11.578 63.6697 11.7609 63.6697 11.9896C63.6697 12.4241 63.6925 12.7214 63.7154 13.1559C63.7154 13.3617 63.7383 13.4989 63.7383 13.6818C63.7383 13.9105 63.7154 14.0477 63.7383 14.2764C63.7611 14.4365 63.7611 14.5508 63.7611 14.7338C63.7611 15.1911 63.6925 15.5113 63.6925 15.9687C63.7154 16.2888 63.7611 16.5175 63.7611 16.8377C63.7611 17.0892 63.7383 17.2722 63.7611 17.5008V17.7981C63.7611 18.0268 63.7154 18.2098 63.7154 18.4613C63.7154 18.7129 63.7611 18.9187 63.7611 19.1931C63.7611 19.3532 63.7383 19.376 63.6925 19.4675C63.6239 19.6276 63.4181 19.8105 63.1208 19.8791C62.915 19.9249 62.7092 19.9249 62.6635 19.9249H62.046C61.8173 19.9249 61.6573 19.9477 61.4286 19.9249C61.2228 19.9249 61.0627 19.8791 60.8569 19.8791H60.834C60.6739 19.902 60.5367 19.9249 60.3995 19.9249C59.965 19.9249 59.8735 19.4675 59.8507 19.3989C59.8278 19.2846 59.7821 19.216 59.7821 19.1016C59.7821 18.9873 59.8049 18.9187 59.8049 18.8272C59.8049 18.6443 59.8049 18.5299 59.8278 18.347C59.8507 18.0954 59.8507 17.9125 59.8507 17.6838V15.0311C59.8278 14.8024 59.8049 14.6194 59.8049 14.3908C59.8049 14.0477 59.8735 13.819 59.8735 13.476C59.8964 13.1787 59.8507 12.9958 59.8507 12.6985C59.8735 12.4927 59.8964 12.3555 59.9193 12.1497C59.9193 11.8752 59.8735 11.5322 59.8507 11.4636V11.0291C59.8507 10.5717 59.8735 10.2516 59.8735 9.77135C59.8735 9.58841 59.8735 9.4512 59.8507 9.26825C59.8507 9.13104 59.8278 9.0167 59.8278 8.87949C59.8278 8.76515 59.8507 8.69654 59.8507 8.60507C59.8507 8.44499 59.8049 8.23918 59.7363 8.0791C59.4848 7.46166 58.753 7.41592 57.7696 7.41592C57.541 7.41592 57.358 7.43879 57.2665 7.43879C57.1522 7.46166 57.0607 7.48452 56.9235 7.48452C56.6262 7.48452 56.3976 7.27871 56.2832 7.18723C56.1689 7.07289 56.0774 6.93568 56.0545 6.88995C56.0545 6.84421 56.0088 6.707 56.0088 6.56979C56.0088 6.2039 56.0545 5.92948 56.0545 5.54072C56.0545 5.38064 56.0317 5.2663 56.0317 5.10622V4.60312C56.0317 4.51164 56.0317 4.44304 56.0545 4.3973C56.0545 4.30583 56.0545 4.26009 56.1003 4.19149C56.1917 4.05428 56.2832 4.00854 56.3289 3.9628C56.5119 3.87133 56.6262 3.82559 56.9693 3.82559C57.2208 3.82559 57.3809 3.84846 57.6324 3.87133H58.0669C58.57 3.87133 58.9131 3.84846 59.3933 3.84846C59.8049 3.84846 60.0793 3.87133 60.491 3.87133Z" fill="#012E85"/>
<path d="M24.1631 7.80908C24.303 7.80908 24.4667 7.83252 24.6299 7.83252H24.7227C25.4921 7.83252 25.6553 7.80922 26.4014 8.01904C26.7978 8.13563 27.078 8.25182 27.2412 8.32178C27.3811 8.39175 27.6376 8.55483 27.9639 8.83447C28.197 9.02101 28.4072 9.18452 28.7803 9.65088C28.9668 9.90739 29.316 10.3739 29.4326 10.6304C29.5026 10.7936 29.5258 10.9105 29.5957 11.0737C29.6656 11.2367 29.7356 11.3531 29.7822 11.5161C30.0385 12.2151 30.0625 13.3567 30.0625 13.4282C30.0625 13.6381 30.0859 13.8015 30.0859 14.0347C30.0859 14.2212 30.0389 14.3846 30.0156 14.4546C29.9456 14.6877 29.7356 15.0142 29.2461 15.0142H28.5C27.7539 15.0142 27.2177 15.061 26.4482 15.061C26.1685 15.061 25.9819 15.0609 25.7021 15.0376C25.4225 15.0143 25.3058 14.9909 25.166 15.0142C24.9563 15.0142 24.8161 15.0376 24.6064 15.0376C24.4199 15.0609 24.3028 15.061 24.1162 15.061C23.8132 15.061 23.603 15.0376 23.3232 15.0376C22.9271 15.0377 22.6943 15.1542 22.6943 15.4106C22.6943 15.4805 22.6942 15.5737 22.8105 15.7134C23.1135 16.1562 23.906 16.5057 24.2793 16.5991C24.5358 16.6691 24.6295 16.6694 24.7461 16.6694C24.9325 16.6694 25.0723 16.646 25.2354 16.646C25.4451 16.646 25.5853 16.6928 25.7949 16.6929H25.8184C25.9582 16.6929 26.0518 16.6695 26.2148 16.6694C26.5879 16.6694 26.5184 16.6224 26.8682 16.5991C27.1012 16.5758 27.2648 16.5765 27.4746 16.5532C27.6842 16.5299 27.7541 16.5058 27.9639 16.4126C28.6167 16.2028 29.1067 16.0171 29.3398 16.0171C29.4331 16.0171 29.5732 16.0396 29.5732 16.0396C29.7133 16.0629 29.9921 16.1102 29.9922 16.4829C29.9922 16.6461 29.9696 16.7866 29.9463 16.9731V18.1382C29.9696 18.2548 29.9922 18.3487 29.9922 18.4653C29.9921 18.7449 29.8529 18.8619 29.5732 19.0483C28.8738 19.5613 28.1272 19.7004 27.4277 19.8403C27.1246 19.887 26.9379 19.9575 26.6348 19.9575C26.2151 19.9575 25.9118 20.0044 25.4688 20.0044C25.1424 20.0044 24.9326 19.9574 24.583 19.9341C24.5131 19.9341 23.6269 19.9106 23.0439 19.7241C22.7175 19.6075 22.4838 19.491 22.1807 19.3511C21.6213 19.0948 21.4815 19.1642 20.5957 18.3716C20.0595 17.9053 19.8024 17.5326 19.5459 16.9731C19.4293 16.74 19.2664 16.343 19.2197 16.1099C19.1265 15.8768 19.1032 15.6903 19.0566 15.4106C18.9634 14.9909 18.8936 14.6174 18.8936 14.1743C18.8703 13.9415 18.8703 14.0578 18.8936 13.7319C18.9402 13.2423 18.9633 12.8916 19.0332 12.4253C19.0333 12.3319 19.057 12.1457 19.1035 11.9595C19.1735 11.6797 19.3829 11.1898 19.4062 11.1665C19.4296 11.1198 19.5233 10.8401 19.6865 10.6069C19.8031 10.3972 19.9197 10.2573 20.0596 10.0708C20.4559 9.55793 20.549 9.39456 21.1084 8.95166C21.7379 8.43872 21.9712 8.36837 22.6006 8.13525C23.3934 7.83213 23.7667 7.80908 24.1631 7.80908ZM36.5791 7.78467C37.0218 7.78468 37.5576 7.85391 37.6514 7.854C38.7939 7.99391 39.5172 8.29794 40.0068 8.60107C40.055 8.64847 40.4496 8.88133 40.6357 9.13721C40.729 9.25378 40.7762 9.32338 40.916 9.43994C41.0326 9.55653 41.0326 9.53332 41.1025 9.6499C41.4756 10.1862 41.4756 10.9795 41.4756 11.0728V12.3784C41.4523 12.6113 41.4521 12.7745 41.4521 13.0308C41.4521 13.3339 41.499 13.544 41.499 13.8472C41.499 14.0337 41.4521 14.2437 41.4521 14.4302C41.4522 14.6865 41.499 14.873 41.499 15.1294C41.499 15.5724 41.4522 15.8524 41.4521 16.2954C41.4521 16.7618 41.499 17.0654 41.499 17.5317C41.499 17.8812 41.4756 18.1147 41.4756 18.4644C41.4756 18.6973 41.499 18.8376 41.499 19.0474C41.4991 19.1176 41.5219 19.3037 41.3359 19.4897C41.0795 19.7695 40.6364 19.7936 40.3799 19.8169C40.1001 19.8169 39.8901 19.7935 39.6104 19.7935C39.4238 19.8168 39.3067 19.8169 39.1201 19.8169H38.7471C38.7006 19.8399 38.6539 19.8394 38.6074 19.8394C38.4443 19.8393 38.3043 19.6995 38.2344 19.4897C38.211 19.35 38.1646 19.2797 38.0947 19.2563C38.0715 19.2332 38.0475 19.2337 38.001 19.2104C37.8847 19.2106 37.8376 19.3031 37.6514 19.4429C37.4653 19.5824 37.233 19.6528 37.1855 19.6763C36.6026 19.8628 36.4619 19.9331 35.5059 19.9331H35.2031C34.9933 19.9098 34.7831 19.8628 34.5732 19.8628C34.4102 19.8395 34.2472 19.8167 34.1074 19.7935C33.8276 19.7468 33.5709 19.6532 33.3145 19.5366C33.0113 19.3967 32.7078 19.2797 32.4746 19.0698C32.2883 18.9067 32.1484 18.7201 31.9854 18.5337C31.8222 18.3472 31.6584 18.1839 31.5186 17.9741C31.4254 17.811 31.3794 17.6244 31.3096 17.438C31.2396 17.2748 31.1697 17.0883 31.123 16.9019C31.0531 16.5988 31.0995 16.2722 31.0762 15.9458C31.0529 15.7826 31.0293 15.6188 31.0293 15.4556C31.0294 15.246 31.076 15.129 31.2158 14.7329C31.309 14.4999 31.3557 14.3135 31.542 14.0806C31.6585 13.9174 31.7986 13.8238 31.9385 13.6606C32.1017 13.4742 32.1954 13.3111 32.3818 13.1479C32.6149 12.9615 33.2207 12.6351 33.4541 12.5649C33.5939 12.5183 33.6874 12.4943 33.8271 12.4478C33.967 12.4011 34.0838 12.3547 34.2236 12.3081C34.8765 12.1682 34.8068 12.2385 35.2266 12.1919C35.4829 12.1686 35.4597 12.1216 35.7158 12.1216C35.8324 12.1216 35.9264 12.145 36.043 12.145C36.2526 12.145 36.3928 12.0981 36.6025 12.0981C36.8122 12.0982 36.9289 12.1919 37.1387 12.1919H37.3486C37.4648 12.2384 37.4652 12.2612 37.6279 12.2612C37.8145 12.2612 38.1416 12.1447 38.1416 11.8882C38.1414 11.6085 37.7914 11.3057 37.5117 11.2124C37.162 11.0725 36.5321 11.0728 36.5088 11.0728C36.2758 11.0728 36.0893 11.0952 35.833 11.0952C35.6233 11.1185 35.4832 11.0954 35.2969 11.1187C34.9005 11.1886 34.6669 11.3057 34.2705 11.3989C34.0841 11.4455 33.9208 11.4219 33.7344 11.4917C33.5946 11.5616 33.501 11.6082 33.3613 11.6548C33.2447 11.7014 33.1742 11.7253 33.0576 11.772C33.0328 11.7727 32.8475 11.8415 32.7314 11.8647C32.6382 11.8881 32.6383 11.8882 32.5684 11.8882C32.5217 11.8882 31.915 11.8649 31.915 11.3286C31.9151 11.0489 31.9854 10.8387 31.9854 10.5356C31.9853 10.3028 31.9619 10.1397 31.9619 9.93018C31.9852 9.83695 31.9854 9.76654 31.9854 9.67334C31.9854 9.55675 31.9619 9.48634 31.9619 9.39307C31.9621 9.27598 32.079 8.83377 32.2188 8.71729C32.3123 8.64727 32.8716 8.43688 32.9648 8.41357C33.2211 8.34368 33.3842 8.29694 33.6172 8.22705C33.8037 8.1571 33.9209 8.11048 34.1074 8.04053C34.2241 8.01719 34.4342 7.97092 34.7139 7.92432C35.4131 7.80779 35.6931 7.83142 36.0195 7.80811C36.1826 7.80809 36.2763 7.78467 36.4395 7.78467H36.5791ZM16.9004 0.0102539C17.1023 -0.0230732 17.1853 0.0281163 17.2754 0.0522461C17.523 0.11864 17.7113 0.226929 17.9814 0.299316C18.2064 0.359583 18.3786 0.347526 18.6035 0.407715C18.7837 0.455995 19.3178 0.628437 19.4688 0.785645C19.5594 0.897529 19.6055 1.08545 19.6055 1.08545C19.6208 1.11943 19.6668 1.30673 19.6602 1.42139C19.6608 1.50848 19.6678 1.48148 19.6533 1.53564L19.6094 1.69971C19.5292 1.99894 19.4933 2.22268 19.4131 2.52197C19.2453 3.1483 19.0106 3.75697 18.8428 4.3833C18.7553 4.70994 18.7115 4.96084 18.6465 5.29346C18.6033 5.54458 18.5598 5.70853 18.4941 5.95361C18.4139 6.25312 18.3039 6.57403 18.2236 6.87354C18.0917 7.27578 18.0635 7.56001 17.9541 7.96826C17.8221 8.3707 17.6964 8.65842 17.5869 9.06689C17.4848 9.44813 17.4205 9.86926 17.3184 10.2505C17.2387 10.6375 17.0845 11.0336 16.9824 11.4146C16.8365 11.9592 16.7866 12.326 16.6406 12.8706C16.5671 13.055 16.5374 13.1637 16.4639 13.3481L16.2891 14.0015C16.238 14.192 16.2238 14.3345 16.1729 14.5249C16.1072 14.7699 16.0339 14.9549 15.9609 15.2271C15.9172 15.3904 15.91 15.506 15.8662 15.6694C15.7641 16.0505 15.6392 16.3381 15.5371 16.7192C15.435 17.1004 15.4142 17.3575 15.3193 17.7114C15.2537 17.9564 15.1873 18.1138 15.1289 18.3315C15.0632 18.5766 15.0647 18.7525 14.999 18.9976C14.9553 19.1608 14.9326 19.1547 14.8584 19.2515C14.6576 19.4603 14.2549 19.7023 14.0527 19.7358C13.9255 19.7601 13.835 19.736 13.8125 19.73C13.6326 19.6817 13.5047 19.6187 13.3545 19.5493C13.114 19.4557 12.9108 19.4009 12.6631 19.3345C12.3255 19.244 12.0702 19.2054 11.71 19.1089L11.665 19.0962C11.5075 19.054 11.4474 19.0086 11.3408 18.7759C11.2952 18.6761 11.1884 18.4436 11.1797 18.2954C11.1413 18.1684 11.1563 18.1135 11.1709 18.0591L11.1777 18.0317C11.2142 17.8957 11.2883 17.7986 11.332 17.6353L11.7041 16.2466C11.8354 15.7564 11.9761 15.4145 12.1074 14.9243C12.246 14.407 12.3702 14.0315 12.5088 13.5142C12.5817 13.242 12.6395 12.9366 12.7197 12.6372C12.8291 12.2289 12.9477 11.9685 13.0498 11.5874C13.1301 11.2879 13.1659 11.0637 13.2461 10.7642C13.3628 10.3285 13.4653 10.0348 13.582 9.59912C13.7133 9.10906 13.8311 8.76113 13.9551 8.29834C14.0426 7.97156 14.0785 7.74736 14.1436 7.41455C14.2086 7.08174 14.2674 6.86351 14.3477 6.56396C14.3987 6.37342 14.4637 6.12826 14.6035 5.78662C14.699 5.52039 14.8176 5.26031 14.876 5.04248C14.9271 4.85186 14.9409 4.70945 14.9834 4.37061C15.0272 4.20724 15.034 4.092 15.1143 3.79248C15.1872 3.52043 15.2611 3.33601 15.334 3.06396L15.4502 2.62744C15.531 2.41576 15.5979 2.25828 15.6562 2.04053L15.6631 2.01318C15.7141 1.82276 15.7434 1.71377 15.7646 1.54443C15.8005 1.32067 15.8077 1.29299 15.8369 1.18408L15.9688 0.694824C16.122 0.122959 16.8553 -0.00181625 16.9004 0.0102539ZM49.1475 7.85498C49.4038 7.85498 49.5904 7.87855 49.8467 7.90186C49.9633 7.90186 50.0572 7.87842 50.1738 7.87842C50.5697 7.85517 50.826 7.94796 50.9893 7.99463C51.0126 8.01794 51.2694 8.06438 51.4326 8.13428C51.4793 8.15759 51.6426 8.22815 51.6426 8.25146C51.8757 8.36804 52.0156 8.50819 52.2021 8.67139C52.5051 8.90437 52.5058 8.85718 52.6689 9.06689C52.7854 9.20667 52.8551 9.30025 52.9482 9.43994C53.2747 9.88298 53.2978 9.88373 53.4844 10.5366C53.6475 11.1425 53.6475 11.2126 53.6475 11.562C53.6475 11.8884 53.625 12.1917 53.625 12.5181C53.6017 12.9844 53.6475 13.3115 53.6475 13.7778C53.6475 14.314 53.625 14.6871 53.625 15.2466C53.625 15.7362 53.6709 16.086 53.6709 16.5757C53.6709 17.1119 53.625 17.5083 53.625 18.0444C53.625 18.3709 53.6475 18.5813 53.6475 18.9077C53.6474 19.2107 53.6009 19.3976 53.4844 19.5142C53.4149 19.5836 53.4378 19.5605 53.3447 19.6304C53.2286 19.7233 53.1124 19.7231 53.0654 19.7231C52.9256 19.7231 52.8086 19.7007 52.6455 19.7007H51.1064C50.7801 19.7007 50.3369 19.7005 50.29 19.6772C50.2201 19.6539 50.197 19.6301 50.1504 19.5835C49.9173 19.3504 49.9404 18.9309 49.9404 18.3481C49.9404 17.9286 50.0107 17.6485 50.0107 17.229C50.0107 16.7626 50.0332 16.459 50.0332 15.9927C50.0099 15.7595 50.0107 15.5958 50.0107 15.3394C50.0108 14.8964 50.1037 14.29 49.9639 13.311C49.8706 12.6818 49.7771 12.4254 49.5674 12.0991C49.5674 12.0758 49.4739 11.9121 49.334 11.8188C49.0541 11.6091 48.5176 11.6089 48.5176 11.6089H48.4717C48.3085 11.6089 48.3781 11.609 48.2383 11.6323C48.1217 11.6556 47.6548 11.8417 47.5615 11.9116C47.4218 12.0048 47.352 12.1683 47.2588 12.3081C47.2355 12.3314 47.0955 12.5188 47.0488 12.6587C46.979 12.8685 46.9559 13.1716 46.9326 13.3813C46.886 13.6844 46.8856 13.8946 46.8623 14.1743V14.6401C46.839 15.0132 46.793 15.27 46.793 15.6431C46.793 16.0859 46.8156 16.4122 46.8389 16.855C46.8389 17.2514 46.839 17.5553 46.8623 17.9517C46.8623 18.2313 46.8857 18.4416 46.8857 18.7446C46.8857 19.0242 46.8625 19.2344 46.5596 19.4907C46.3733 19.6304 46.2799 19.654 46.21 19.6772C46.1178 19.7003 45.9569 19.7007 45.9531 19.7007C45.6268 19.7007 45.3936 19.6773 45.0674 19.6772C44.8577 19.6772 44.7174 19.7231 44.5078 19.7231C44.368 19.7231 44.251 19.7007 44.0879 19.7007C43.9481 19.7007 43.8546 19.7005 43.7148 19.6772C43.6469 19.6772 43.5349 19.633 43.5283 19.6304C43.4355 19.584 43.3655 19.5144 43.3418 19.4907C43.1786 19.3276 43.1786 19.1174 43.1553 18.7446C43.132 18.395 43.2011 18.1381 43.2012 17.7886V17.019C43.2012 16.4827 43.2245 16.1092 43.2012 15.5962C43.1779 15.3398 43.1787 15.1533 43.1787 14.897V14.0571C43.1787 13.894 43.1553 13.7771 43.1553 13.6372C43.1553 13.2411 43.2012 12.9846 43.2012 12.5884C43.2012 11.9823 43.1787 11.5626 43.1787 10.9565C43.1787 10.4202 43.2245 10.0464 43.2012 9.48682V9.021C43.2012 9.021 43.132 8.41483 43.5518 8.08838C43.6683 7.99517 43.8312 7.99463 43.8545 7.99463H44.0645C44.2508 7.99462 44.2509 7.9715 44.5537 8.01807C44.7634 8.04137 44.8803 8.06491 45.0898 8.06494C45.323 8.04163 45.4866 8.01808 45.7197 8.01807H46.1865C46.4196 8.01803 46.6531 7.97138 46.793 8.18115C46.8396 8.25145 46.9091 8.62465 47.0723 8.64795C47.1422 8.64795 47.1658 8.60071 47.3057 8.53076C47.3987 8.461 47.3989 8.46113 47.4688 8.41455C47.5153 8.36797 47.562 8.32149 47.6318 8.2749C47.6552 8.25159 47.7023 8.25135 47.7256 8.22803C48.3316 7.94833 48.5647 7.85499 49.1475 7.85498ZM36.0195 14.8267C35.9263 14.85 35.856 14.8728 35.7627 14.9194C35.6695 14.9427 35.5991 14.9431 35.5059 14.9897C35.2264 15.0596 35.1563 15.0595 34.9932 15.1294C34.8066 15.246 34.5508 15.5026 34.5508 15.8989C34.5508 16.1787 34.6674 16.3652 34.7373 16.4585C34.9238 16.7149 35.1099 16.7854 35.5527 16.9253C35.8559 16.9952 35.8564 17.0415 36.043 17.0415C36.2293 17.0414 36.3694 16.972 36.5791 16.9487C36.7423 16.9254 36.8593 16.9485 37.0225 16.9019C37.2322 16.8551 37.4651 16.7152 37.5117 16.6919C37.7682 16.552 38.0479 16.3417 38.0479 15.8521C38.0477 15.5258 37.8609 15.293 37.2549 15.0366C37.1384 14.99 37.0453 14.9426 36.9287 14.896C36.8355 14.8727 36.8119 14.8501 36.6953 14.8501C36.5555 14.8501 36.4622 14.8735 36.3457 14.8735C36.2293 14.8735 36.1594 14.8268 36.0664 14.8267H36.0195ZM24.6758 10.7466C24.3728 10.7699 24.0932 10.7938 23.8135 10.8638C23.7668 10.8871 23.5331 10.9338 23.3232 11.0737C23.293 11.0797 22.6943 11.5653 22.6943 11.936C22.6943 11.9827 22.6937 12.0763 22.7637 12.1929C22.9036 12.4493 23.0908 12.4255 23.2773 12.4722C23.3474 12.4723 23.5102 12.519 23.6963 12.519C23.7662 12.519 23.8833 12.4956 23.9766 12.4956C24.1165 12.4956 24.2097 12.519 24.3496 12.519C24.4895 12.5424 24.6063 12.519 24.7695 12.519C24.9092 12.5191 25.0722 12.5424 25.2119 12.5425C25.3285 12.5425 26.2388 12.4025 26.332 12.3325C26.4484 12.2626 26.4482 12.1689 26.4482 12.0757C26.4482 11.936 26.4015 11.8196 26.4014 11.7729C26.3314 11.5631 26.2381 11.3527 25.8184 11.0962C25.6321 10.9798 25.5385 10.933 25.4453 10.9097C25.3524 10.8864 25.3056 10.8636 25.1895 10.8403C24.9564 10.7704 25.0258 10.7466 24.793 10.7466H24.6758Z" fill="#012E85"/>
<path d="M9.42035 6.10844V6.15508C9.42035 6.27167 9.42035 6.55148 9.3504 6.69138C9.28045 6.80797 9.16386 6.85461 9.14054 6.85461C9.00064 6.94788 8.90736 6.9712 8.76746 6.9712C8.62755 6.9712 8.58092 6.9712 8.37106 6.92456C8.25447 6.90124 8.02129 6.85461 7.74148 6.85461C7.01863 6.85461 6.3191 7.1111 6.08592 7.22769C5.82943 7.3676 5.6662 7.48419 5.54961 7.55414C5.29312 7.74068 5.1299 7.85727 4.92004 8.09045C4.71018 8.32362 4.61691 8.5568 4.45368 8.85993C4.38373 8.97652 4.15055 9.32629 4.05728 9.67605C3.96401 10.0258 3.98733 10.3289 3.96401 10.9818C3.94069 11.1217 3.94069 11.2383 3.94069 11.4016C3.94069 12.2643 4.40705 13.4302 4.50032 13.6167C4.64022 13.9432 4.80345 14.223 4.89672 14.3396C4.98999 14.5028 5.05994 14.5961 5.15321 14.736C5.36307 15.0158 5.71284 15.3889 5.99265 15.5754C6.15588 15.692 6.55228 15.8552 7.01863 15.9718C7.04195 15.9718 7.53162 16.0884 7.83475 16.0884C7.9047 16.0884 8.48765 16.0418 8.5576 16.0185C8.6975 15.9718 8.79078 15.9252 8.90736 15.9252C9.23381 15.9252 9.44367 16.1351 9.44367 16.648C9.44367 16.9045 9.39704 17.0678 9.42035 17.3243C9.46699 17.5808 9.46699 17.5808 9.46699 17.744C9.46699 18.1637 9.39704 18.4435 9.39704 18.8632V18.9565C9.39704 19.1664 9.37372 19.3529 9.14054 19.5628C8.81409 19.8426 8.37106 19.8193 8.3011 19.8193C8.04461 19.8193 7.83475 19.7959 7.55494 19.7959C6.97199 19.7726 6.83209 19.7726 6.22583 19.6793C5.78279 19.6094 5.5263 19.5628 5.31644 19.4928C5.17653 19.4462 4.85008 19.2829 4.68686 19.2363C4.50032 19.143 4.31378 19.0731 4.17387 18.9798C4.03396 18.8865 3.96401 18.8166 3.84742 18.7466C3.73083 18.6534 3.63756 18.6067 3.52097 18.5135C3.33443 18.3502 3.21784 18.2336 3.0313 18.0704C2.58827 17.6973 2.26182 17.5341 1.88873 17.0911C1.72551 16.9045 1.63224 16.7646 1.49233 16.5548C1.37574 16.3915 1.28247 16.275 1.1892 16.1117C1.07261 15.8786 0.979344 15.7153 0.886073 15.4822C0.536307 14.7593 0.443036 14.6427 0.256495 13.9432C0.0466354 13.1504 0.0699531 12.7307 0.0466354 12.3576C0.0233177 12.1477 0 12.0078 0 11.7746C0 11.5415 0.0466354 11.3782 0.0466354 11.1451C0.0466354 10.9119 0.0233177 10.772 0.0233177 10.5388C0.0466354 10.1657 0.116589 9.93254 0.163224 9.58278C0.163224 9.48951 0.256495 8.58012 0.443036 7.97386C0.60626 7.46087 0.839437 7.04115 0.956026 6.85461C1.0493 6.69138 1.25916 6.34162 1.37574 6.15508C1.65556 5.82863 1.86542 5.61877 2.16855 5.29232C2.37841 5.08246 2.58827 4.82597 2.86808 4.59279C3.59093 3.98653 4.96667 3.56681 4.96667 3.56681C6.03929 3.24036 6.62223 3.19373 7.1119 3.19373C7.3684 3.19373 7.55494 3.17041 7.81143 3.17041C7.99797 3.17041 8.11456 3.19373 8.3011 3.21705H8.67419C8.72082 3.21705 8.79078 3.21705 8.90736 3.26368C9.04727 3.287 9.21049 3.35695 9.30377 3.49686C9.3504 3.59013 9.42035 3.89326 9.42035 4.17307C9.42035 4.59279 9.3504 4.8726 9.37372 5.29232C9.39704 5.59545 9.42035 5.80531 9.42035 6.10844Z" fill="#012E85"/>
<path d="M73.2002 5.63721C73.5734 5.63721 73.9471 5.72568 74.3203 5.83545C74.9791 5.98916 75.0458 6.12026 75.4629 6.31787C75.6823 6.42758 75.8138 6.45042 76.0332 6.604C76.2527 6.75764 76.6923 7.15233 76.8682 7.3501C77.0657 7.61353 77.1984 7.79022 77.418 8.03174C77.7688 8.42648 77.8354 8.60217 78.0986 9.3042C78.1865 9.58968 78.4711 10.3154 78.4492 11.106C78.4273 11.3472 78.4057 11.5229 78.3838 11.7642C78.3179 12.9281 78.3177 12.6874 77.9883 13.522C77.978 13.5476 77.9686 13.5743 77.959 13.6021L77.9561 13.6616C77.9526 13.7243 77.9373 13.7851 77.9092 13.8413L77.8818 13.894L77.8555 13.9468C77.8404 13.9769 77.8273 14.0079 77.8154 14.0386L77.7939 14.0923L77.7734 14.147C77.7603 14.181 77.7481 14.2159 77.7363 14.2505L77.6982 14.3599C77.6862 14.3952 77.6743 14.4313 77.6631 14.4673L77.6465 14.5239L77.6279 14.5796C77.611 14.6337 77.5862 14.6845 77.5537 14.731L77.5205 14.7798L77.4863 14.8276C77.4736 14.8459 77.4633 14.8663 77.4561 14.8882L77.418 15.0005C77.3996 15.0557 77.373 15.1075 77.3379 15.1538L77.3018 15.2007L77.2666 15.2476C77.2398 15.2829 77.2116 15.3174 77.1816 15.3501L77.1016 15.436C77.0852 15.4539 77.072 15.474 77.0605 15.4956L77.0332 15.5483L77.0049 15.6011C76.9797 15.6487 76.9486 15.6923 76.9121 15.7319L76.873 15.7759L76.833 15.8188C76.8107 15.843 76.7893 15.8685 76.7695 15.895L76.7002 15.9888C76.6694 16.03 76.6336 16.0674 76.5947 16.1011L76.5498 16.1401L76.5059 16.1782C76.4824 16.1985 76.4605 16.2205 76.4404 16.2437L76.3643 16.3315C76.3356 16.3647 76.3048 16.3968 76.2734 16.4272L76.1895 16.5083C76.1583 16.5386 76.1264 16.5685 76.0928 16.5962L76.0469 16.6333L76.002 16.6704C75.9765 16.6914 75.9517 16.7135 75.9287 16.7368L75.8477 16.8208C75.8247 16.8441 75.8019 16.8682 75.7812 16.894L75.7451 16.9399L75.708 16.9858C75.6745 17.0278 75.6358 17.0659 75.5928 17.0981L75.499 17.1685C75.4802 17.1825 75.4635 17.1988 75.4492 17.2173L75.377 17.311C75.3461 17.3512 75.3108 17.3873 75.2725 17.4204L75.1846 17.4976C75.1517 17.5259 75.1173 17.5528 75.082 17.5786L75.0332 17.6138L74.9863 17.6489C74.9688 17.6618 74.9533 17.6765 74.9404 17.6938L74.8701 17.7896C74.8397 17.8307 74.8048 17.868 74.7666 17.9019L74.7236 17.9409L74.6797 17.979C74.6527 18.0029 74.6262 18.0281 74.6006 18.0532L74.5176 18.1343C74.4954 18.156 74.4744 18.1797 74.4551 18.2046L74.3828 18.2974C74.3477 18.3426 74.3061 18.3823 74.2588 18.4146L74.21 18.4478L74.1602 18.481C74.148 18.4893 74.1381 18.4997 74.1299 18.5132L74.0986 18.564L74.0674 18.6157C74.037 18.6655 73.9989 18.7093 73.9541 18.7466L73.8643 18.8218C73.8337 18.8472 73.8025 18.8729 73.7715 18.8979L73.7256 18.9351L73.6807 18.9712C73.6631 18.9853 73.6471 19.0019 73.6338 19.021L73.6006 19.0698L73.5664 19.1187C73.5348 19.1642 73.4972 19.2049 73.4541 19.2397L73.3623 19.314C73.3416 19.3308 73.3234 19.3498 73.3066 19.3706L73.2324 19.4614C73.1956 19.5071 73.1515 19.5457 73.1016 19.5767L72.999 19.6401C72.9781 19.6532 72.96 19.6683 72.9443 19.6851L72.9043 19.728L72.8652 19.771C72.8368 19.8015 72.8074 19.8308 72.7783 19.8589L72.6982 19.937C72.6641 19.97 72.6088 20.0051 72.5361 20.0044C72.4648 20.0036 72.4107 19.9686 72.3779 19.938L72.3359 19.8979L72.293 19.8589C72.2573 19.8255 72.2248 19.7887 72.1953 19.7495L72.1602 19.7026L72.124 19.6548C72.1099 19.636 72.0938 19.6192 72.0752 19.605L72.0283 19.5698L71.9814 19.5337C71.9435 19.5047 71.908 19.4723 71.875 19.438L71.7939 19.354C71.793 19.353 71.792 19.3521 71.791 19.3511C71.7882 19.3481 71.663 19.2139 71.6621 19.1216C71.6614 19.0172 71.7919 18.9055 71.835 18.7632C71.88 18.6142 71.8916 18.6518 71.9414 18.5044C72.0387 18.2161 72.0794 18.0494 72.168 17.7583C72.2361 17.5346 72.3035 17.3078 72.3037 17.2378C72.3045 17.203 72.2877 17.1968 72.2705 17.1968C72.0019 17.1968 71.5046 17.1211 71.4951 17.1196C71.2303 17.0975 70.5973 17.0248 70.2959 16.9126L69.6406 16.6099L69.0518 16.2583C68.6316 16.0437 68.6817 16.0578 68.3652 15.8335C68.3489 15.8136 68.3231 15.7868 68.3037 15.769L68.2529 15.731L68.207 15.688C68.1667 15.651 68.1332 15.6174 68.1045 15.5708L68.0742 15.52L68.0439 15.4702C68.0272 15.443 68.0082 15.417 67.9883 15.3921L67.9521 15.3462L67.915 15.3003C67.8811 15.2577 67.8534 15.2108 67.832 15.1606L67.8086 15.1069L67.7861 15.0522C67.775 15.026 67.7617 15.0013 67.7461 14.978L67.7129 14.9302L67.6807 14.8804C67.654 14.8405 67.6303 14.799 67.6104 14.7554L67.5859 14.7017L67.5625 14.6489C67.5486 14.6184 67.5324 14.5885 67.5156 14.5591L67.4863 14.5083L67.458 14.4575C67.4299 14.4085 67.4097 14.3555 67.3975 14.3003L67.3721 14.1851C67.3676 14.1648 67.3596 14.1459 67.3486 14.1274L67.3184 14.0757L67.2871 14.0249C67.2563 13.9731 67.2359 13.9164 67.2256 13.8569L67.2158 13.7993L67.2051 13.7417C67.1993 13.7084 67.1924 13.6752 67.1836 13.6431L67.1523 13.5308C67.1425 13.4947 67.1329 13.4575 67.1221 13.4214L67.1045 13.3657L67.0879 13.3101C67.0838 13.2963 67.0803 13.2821 67.0771 13.2681C66.9733 12.9422 66.866 12.5879 66.8535 12.4897C66.7877 12.2484 66.7881 12.1161 66.7881 12.0063C66.7661 11.7209 66.8105 11.5227 66.8105 11.2593C66.8105 11.0839 66.7657 10.9518 66.7656 10.7983C66.7657 10.6004 66.8321 9.98576 66.876 9.81006C66.9199 9.65633 66.9854 9.54582 67.0293 9.39209C67.0513 9.39198 67.1392 9.10738 67.2051 8.95361C67.3587 8.71217 67.4689 8.58025 67.6445 8.31689C67.908 7.94361 67.9299 7.87724 68.1494 7.65771C68.3031 7.50404 68.4352 7.4383 68.5889 7.28467C68.6987 7.17486 68.8747 6.95448 69.1602 6.73486C69.4015 6.55941 69.5999 6.49397 69.8633 6.34033C70.0387 6.25258 70.1702 6.16441 70.3457 6.07666C70.6093 5.94489 71.2904 5.68115 72.0371 5.68115H72.542C72.7832 5.65921 72.959 5.63724 73.2002 5.63721ZM72.6084 9.33252C71.43 9.33252 70.4746 10.288 70.4746 11.4663C70.4747 12.6446 71.4301 13.6001 72.6084 13.6001C73.7866 13.6 74.7421 12.6445 74.7422 11.4663C74.7422 10.288 73.7867 9.33258 72.6084 9.33252Z" fill="#02AD8A"/>
<path d="M8.3584 7.20361C8.35856 9.41035 10.1424 11.1999 12.3467 11.2104C10.1424 11.221 8.35854 13.0115 8.3584 15.2183V15.2192H8.35742V15.2183C8.35728 13.011 6.57311 11.2203 4.36816 11.2104C6.57309 11.2006 8.35726 9.41081 8.35742 7.20361H8.3584Z" fill="#02AD8A"/>
</svg>
