<svg width="86" height="20" viewBox="0 0 86 20" fill="none" xmlns="http://www.w3.org/2000/svg">
<path d="M24.6284 7.80664C24.7682 7.80665 24.9312 7.83004 25.0942 7.83008H25.188C25.9571 7.83008 26.1208 7.80681 26.8667 8.0166C27.2628 8.13312 27.5424 8.24943 27.7056 8.31934C27.8454 8.38927 28.1019 8.55235 28.4282 8.83203C28.6613 9.01852 28.8707 9.18223 29.2437 9.64844C29.4301 9.9048 29.7803 10.3705 29.897 10.627C29.9669 10.7901 29.9901 10.9071 30.0601 11.0703C30.1299 11.2333 30.2 11.3497 30.2466 11.5127C30.503 12.212 30.5259 13.3549 30.5259 13.4248C30.5259 13.6344 30.5493 13.7975 30.5493 14.0303C30.5493 14.2165 30.5033 14.3801 30.48 14.4502C30.4101 14.6833 30.1999 15.0097 29.7104 15.0098H28.9644C28.2184 15.0098 27.6819 15.0566 26.9126 15.0566C26.633 15.0566 26.4461 15.0565 26.1665 15.0332C25.8871 15.0099 25.7702 14.9865 25.6304 15.0098C25.4208 15.0098 25.2805 15.0332 25.0708 15.0332C24.8846 15.0565 24.7679 15.0566 24.5815 15.0566C24.2787 15.0566 24.069 15.0332 23.7896 15.0332C23.3933 15.0332 23.1597 15.1498 23.1597 15.4062C23.1597 15.4761 23.1596 15.5694 23.2759 15.709C23.5788 16.1518 24.3715 16.5014 24.7446 16.5947C25.0011 16.6647 25.0949 16.665 25.2114 16.665C25.3978 16.665 25.5376 16.6416 25.7007 16.6416C25.9105 16.6416 26.0504 16.6885 26.2603 16.6885H26.2837C26.4234 16.6885 26.5171 16.665 26.6802 16.665C27.0527 16.665 26.983 16.618 27.3325 16.5947C27.5656 16.5714 27.7292 16.5721 27.939 16.5488C28.1485 16.5255 28.2185 16.5014 28.4282 16.4082C29.0806 16.1985 29.57 16.0129 29.8032 16.0127C29.895 16.0127 30.0324 16.0345 30.0366 16.0352C30.1765 16.0585 30.4565 16.1055 30.4565 16.4785C30.4565 16.6416 30.433 16.7814 30.4097 16.9678V18.1338C30.433 18.2503 30.4565 18.3435 30.4565 18.46C30.4565 18.7397 30.3164 18.8565 30.0366 19.043C29.3374 19.5557 28.5913 19.6951 27.8921 19.835C27.589 19.8816 27.4022 19.9521 27.0991 19.9521C26.6797 19.9522 26.3768 19.999 25.9341 19.999C25.6078 19.999 25.3978 19.952 25.0483 19.9287C24.9784 19.9287 24.0921 19.9052 23.5093 19.7188C23.183 19.6022 22.95 19.4855 22.647 19.3457C22.0876 19.0893 21.9475 19.1594 21.062 18.3672C20.5258 17.901 20.2686 17.5273 20.0122 16.9678C19.8957 16.7346 19.7326 16.3385 19.686 16.1055C19.5928 15.8724 19.5696 15.6859 19.5229 15.4062C19.4297 14.9867 19.3599 14.6137 19.3599 14.1709C19.3366 13.9378 19.3366 14.0539 19.3599 13.7275C19.4065 13.2381 19.4296 12.8881 19.4995 12.4219C19.4996 12.3285 19.5233 12.1423 19.5698 11.9561C19.6398 11.6763 19.8492 11.1864 19.8726 11.1631C19.896 11.1159 19.9899 10.8363 20.1528 10.6035C20.2693 10.394 20.3861 10.2537 20.5259 10.0674C20.9219 9.55489 21.0155 9.39196 21.5747 8.94922C22.2041 8.43636 22.4375 8.36593 23.0669 8.13281C23.8592 7.8299 24.2322 7.80664 24.6284 7.80664ZM37.0425 7.78223C37.4853 7.78226 38.0215 7.85254 38.1147 7.85254C39.2568 7.99243 39.9797 8.29463 40.4692 8.59766C40.5159 8.64428 40.9117 8.87834 41.0981 9.13477C41.1913 9.25121 41.2386 9.321 41.3784 9.4375C41.4947 9.55379 41.4951 9.53098 41.5649 9.64746C41.9377 10.1836 41.938 10.9761 41.938 11.0693V12.375C41.9147 12.6079 41.9146 12.771 41.9146 13.0273C41.9146 13.3302 41.9604 13.54 41.9604 13.8428C41.9604 14.0292 41.9146 14.2394 41.9146 14.4258C41.9146 14.6821 41.9604 14.8688 41.9604 15.125C41.9604 15.5679 41.9146 15.8481 41.9146 16.291C41.9146 16.7572 41.9604 17.0602 41.9604 17.5264C41.9604 17.876 41.938 18.1093 41.938 18.459C41.938 18.6921 41.9604 18.8322 41.9604 19.042C41.9605 19.1121 41.9836 19.2981 41.7974 19.4844C41.5411 19.764 41.0988 19.7872 40.8423 19.8105C40.5626 19.8105 40.3524 19.7881 40.0728 19.7881C39.8864 19.8114 39.7698 19.8105 39.5835 19.8105H39.2104C39.1638 19.8339 39.1164 19.834 39.0698 19.834C38.9068 19.8337 38.7667 19.694 38.6968 19.4844C38.6734 19.3447 38.627 19.2752 38.5571 19.252C38.5339 19.2287 38.5108 19.2283 38.4644 19.2051C38.3478 19.2051 38.3012 19.2986 38.1147 19.4385C37.9283 19.5783 37.6946 19.6476 37.6479 19.6709C37.0654 19.8573 36.9255 19.9277 35.9702 19.9277H35.6665C35.4569 19.9044 35.2472 19.8575 35.0376 19.8574C34.8744 19.8341 34.7107 19.8114 34.5708 19.7881C34.2912 19.7415 34.0351 19.6477 33.7788 19.5312C33.4758 19.3914 33.1721 19.2752 32.939 19.0654C32.7525 18.9023 32.6128 18.7157 32.4497 18.5293C32.2866 18.3429 32.1237 18.1793 31.9839 17.9697C31.8907 17.8067 31.8438 17.62 31.7739 17.4336C31.704 17.2705 31.634 17.0838 31.5874 16.8975C31.5175 16.5944 31.5638 16.2677 31.5405 15.9414C31.5172 15.7784 31.4937 15.6152 31.4937 15.4521C31.4937 15.2424 31.5404 15.1254 31.6802 14.7295C31.7734 14.4964 31.8199 14.3092 32.0063 14.0762C32.1228 13.9131 32.2631 13.8201 32.4028 13.6572C32.566 13.4707 32.6597 13.3067 32.8462 13.1436C33.0795 12.957 33.6854 12.6315 33.9185 12.5615C34.0583 12.5149 34.1516 12.491 34.2915 12.4443C34.4313 12.3977 34.5482 12.3513 34.688 12.3047C35.3403 12.1649 35.2706 12.2351 35.6899 12.1885C35.9462 12.1652 35.9232 12.1182 36.1792 12.1182C36.2958 12.1182 36.3898 12.1416 36.5063 12.1416C36.7159 12.1415 36.8562 12.0947 37.0659 12.0947C37.2754 12.0949 37.3924 12.1885 37.6021 12.1885H37.811C37.9276 12.2351 37.9281 12.2578 38.0913 12.2578C38.2778 12.2577 38.604 12.1411 38.604 11.8848C38.6038 11.6051 38.2538 11.3022 37.9741 11.209C37.6244 11.0693 36.9955 11.0693 36.9722 11.0693C36.7391 11.0693 36.5527 11.0928 36.2964 11.0928C36.0867 11.1161 35.9466 11.0929 35.7603 11.1162C35.364 11.1861 35.1302 11.3023 34.7339 11.3955C34.5475 11.442 34.3841 11.4184 34.1978 11.4883C34.0579 11.5582 33.9645 11.6057 33.8247 11.6523C33.7084 11.6988 33.6384 11.722 33.522 11.7686C33.4982 11.7688 33.3122 11.838 33.1958 11.8613C33.1026 11.8846 33.1025 11.8848 33.0327 11.8848C32.9861 11.8848 32.3794 11.8614 32.3794 11.3252C32.3795 11.0457 32.4497 10.836 32.4497 10.5332C32.4497 10.3001 32.4263 10.1366 32.4263 9.92676C32.4495 9.8337 32.4497 9.7639 32.4497 9.6709C32.4497 9.55434 32.4263 9.48387 32.4263 9.39062C32.4263 9.27392 32.5433 8.83137 32.6831 8.71484C32.7766 8.64485 33.336 8.43541 33.4292 8.41211C33.6854 8.34222 33.8486 8.29548 34.0815 8.22559C34.2679 8.1557 34.3845 8.10892 34.5708 8.03906C34.6874 8.01575 34.8975 7.9685 35.1772 7.92188C35.8765 7.80533 36.1566 7.82897 36.4829 7.80566C36.6458 7.80564 36.739 7.78227 36.9019 7.78223H37.0425ZM17.3677 0.00976562C17.5697 -0.0236361 17.6526 0.0276197 17.7427 0.0517578C17.9903 0.118121 18.1786 0.226426 18.4487 0.298828C18.6738 0.359137 18.8458 0.347956 19.0708 0.408203C19.2509 0.456447 19.7838 0.628053 19.9351 0.785156C20.0258 0.896998 20.0728 1.08496 20.0728 1.08496C20.0882 1.1194 20.134 1.30548 20.1274 1.41992C20.1281 1.50763 20.1352 1.48071 20.1206 1.53516L20.0767 1.69824C19.9964 1.99771 19.9606 2.22201 19.8804 2.52148C19.7126 3.14756 19.4778 3.75575 19.3101 4.38184C19.2225 4.70847 19.1788 4.95934 19.1138 5.29199C19.0707 5.54292 19.027 5.70636 18.9614 5.95117C18.8812 6.25061 18.7712 6.57165 18.6909 6.87109C18.559 7.27333 18.5307 7.55761 18.4214 7.96582C18.2894 8.36816 18.1646 8.65608 18.0552 9.06445C17.9531 9.44556 17.8887 9.86597 17.7866 10.2471C17.707 10.6342 17.5518 11.031 17.4497 11.4121C17.304 11.9561 17.2546 12.3222 17.1089 12.8662C17.0353 13.0507 17.0057 13.1602 16.9321 13.3447L16.7573 13.998C16.7063 14.1886 16.6922 14.3309 16.6411 14.5215C16.5755 14.7663 16.5021 14.9507 16.4292 15.2227C16.3854 15.386 16.3782 15.5017 16.3345 15.665C16.2324 16.046 16.1075 16.3338 16.0054 16.7148C15.9034 17.0956 15.8823 17.3525 15.7876 17.7061C15.7219 17.9511 15.6555 18.1094 15.5972 18.3271C15.5316 18.5719 15.5329 18.7473 15.4673 18.9922C15.4235 19.1554 15.4008 19.1494 15.3267 19.2461C15.1259 19.4549 14.723 19.6971 14.521 19.7305C14.3944 19.7546 14.3047 19.7308 14.2817 19.7246C14.1016 19.6763 13.9731 19.6134 13.8228 19.5439C13.5825 19.4504 13.3799 19.3955 13.1323 19.3291C12.7946 19.2386 12.5394 19.2 12.1792 19.1035L12.1343 19.0908C11.9767 19.0486 11.9166 19.0033 11.8101 18.7705C11.7643 18.6706 11.6575 18.4381 11.6489 18.29C11.6106 18.1631 11.6255 18.1082 11.6401 18.0537L11.647 18.0273C11.6834 17.8913 11.7575 17.794 11.8013 17.6309L12.1733 16.2422C12.3046 15.7521 12.4444 15.41 12.5757 14.9199C12.7143 14.4028 12.8395 14.0279 12.978 13.5107C13.0509 13.2386 13.1088 12.9331 13.189 12.6338C13.2983 12.2256 13.416 11.9649 13.5181 11.584C13.5983 11.2845 13.6341 11.0602 13.7144 10.7607C13.831 10.3253 13.9346 10.0321 14.0513 9.59668C14.1825 9.10678 14.2994 8.75851 14.4233 8.2959C14.5109 7.9692 14.5468 7.74484 14.6118 7.41211C14.6768 7.0795 14.7357 6.86186 14.8159 6.5625C14.867 6.37201 14.932 6.12678 15.0718 5.78516C15.1672 5.51906 15.2859 5.25875 15.3442 5.04102C15.3953 4.85044 15.4092 4.7079 15.4517 4.36914C15.4954 4.20582 15.5023 4.09046 15.5825 3.79102C15.6554 3.51909 15.7284 3.33448 15.8013 3.0625L15.9185 2.62695C15.9993 2.41526 16.0652 2.25772 16.1235 2.04004L16.1313 2.0127C16.1824 1.82217 16.2117 1.71328 16.2329 1.54395C16.2688 1.32012 16.276 1.29249 16.3052 1.18359L16.436 0.694336C16.5891 0.123203 17.3213 -0.00201052 17.3677 0.00976562ZM49.6069 7.85156C49.8634 7.85156 50.0507 7.87513 50.3071 7.89844C50.4235 7.89838 50.5169 7.875 50.6333 7.875C51.0292 7.85176 51.2856 7.94457 51.4487 7.99121C51.472 8.01452 51.7289 8.06092 51.8921 8.13086C51.9387 8.15417 52.1021 8.22474 52.1021 8.24805C52.3349 8.36457 52.4752 8.5039 52.6616 8.66699C52.9645 8.89999 52.9644 8.85386 53.1274 9.06348C53.2439 9.20323 53.3136 9.29684 53.4067 9.43652C53.7331 9.87938 53.7565 9.87977 53.9429 10.5322C54.1061 11.1383 54.1069 11.2089 54.1069 11.5586C54.1069 11.8847 54.0835 12.1876 54.0835 12.5137C54.0602 12.9798 54.1069 13.3064 54.1069 13.7725C54.1069 14.3086 54.0835 14.6818 54.0835 15.2412C54.0835 15.7308 54.1294 16.0808 54.1294 16.5703C54.1294 17.1064 54.0835 17.503 54.0835 18.0391C54.0835 18.3652 54.1069 18.5751 54.1069 18.9014C54.1069 19.2044 54.0594 19.3913 53.9429 19.5078C53.8735 19.5772 53.8963 19.5542 53.8032 19.624C53.6869 19.717 53.5707 19.7168 53.5239 19.7168C53.3841 19.7168 53.2672 19.6943 53.104 19.6943H51.5659C51.2397 19.6943 50.7965 19.6942 50.7495 19.6709C50.6796 19.6476 50.6565 19.6238 50.6099 19.5771C50.3768 19.344 50.3999 18.9246 50.3999 18.3418C50.3999 17.9222 50.4702 17.6423 50.4702 17.2227C50.4702 16.7565 50.4927 16.4535 50.4927 15.9873C50.4694 15.7543 50.4702 15.5912 50.4702 15.335C50.4702 14.8921 50.5632 14.2856 50.4233 13.3066C50.3301 12.6774 50.2365 12.421 50.0269 12.0947C50.0269 12.0714 49.9333 11.9077 49.7935 11.8145C49.5161 11.6067 48.9872 11.6045 48.978 11.6045H48.9312C48.7681 11.6045 48.8376 11.6046 48.6978 11.6279C48.5806 11.6516 48.1151 11.8383 48.022 11.9082C47.8824 12.0014 47.8123 12.164 47.7192 12.3037C47.6959 12.327 47.556 12.5135 47.5093 12.6533C47.4394 12.863 47.4164 13.1662 47.3931 13.376C47.3464 13.679 47.3461 13.8892 47.3228 14.1689V14.6348C47.2994 15.0078 47.2524 15.2647 47.2524 15.6377C47.2524 16.0805 47.276 16.4068 47.2993 16.8496C47.2993 17.2458 47.2995 17.5491 47.3228 17.9453C47.3228 18.2251 47.3462 18.4352 47.3462 18.7383C47.3462 19.0179 47.323 19.228 47.02 19.4844C46.8337 19.6241 46.7403 19.6476 46.6704 19.6709C46.5772 19.6942 46.4136 19.6943 46.4136 19.6943C46.0873 19.6943 45.8542 19.6709 45.5278 19.6709C45.318 19.6709 45.1781 19.7168 44.9683 19.7168C44.8284 19.7168 44.7115 19.6943 44.5483 19.6943C44.4087 19.6943 44.315 19.6942 44.1753 19.6709C44.1053 19.6707 43.9888 19.624 43.9888 19.624C43.8957 19.5774 43.8255 19.5077 43.8022 19.4844C43.6392 19.3212 43.64 19.1111 43.6167 18.7383C43.5934 18.3886 43.6626 18.1319 43.6626 17.7822V17.0127C43.6626 16.4767 43.6859 16.1036 43.6626 15.5908C43.6393 15.3345 43.6392 15.148 43.6392 14.8916V14.0527C43.6392 13.8896 43.6167 13.7727 43.6167 13.6328C43.6167 13.2366 43.6626 12.9802 43.6626 12.584C43.6626 11.9779 43.6392 11.5582 43.6392 10.9521C43.6392 10.416 43.6859 10.0429 43.6626 9.4834V9.01758C43.6626 9.01758 43.593 8.41139 44.0122 8.08496C44.1288 7.99171 44.2926 7.99121 44.3159 7.99121H44.5249C44.7114 7.99121 44.7121 7.96803 45.0151 8.01465C45.2248 8.03795 45.3415 8.06152 45.5513 8.06152C45.7842 8.03823 45.9473 8.01467 46.1802 8.01465H46.647C46.8799 8.01462 47.1126 7.96837 47.2524 8.17773C47.2991 8.24767 47.3695 8.62122 47.5327 8.64453C47.6026 8.64447 47.6263 8.59724 47.7661 8.52734C47.859 8.4577 47.8594 8.45769 47.9292 8.41113C47.9758 8.36455 48.0224 8.31807 48.0923 8.27148C48.1155 8.24823 48.1617 8.24777 48.1851 8.22461C48.791 7.94493 49.0244 7.8516 49.6069 7.85156ZM36.4829 14.8223C36.3897 14.8456 36.3193 14.8694 36.2261 14.916C36.1331 14.9392 36.0632 14.939 35.9702 14.9854C35.6905 15.0553 35.6197 15.0551 35.4565 15.125C35.2701 15.2416 35.0142 15.4984 35.0142 15.8945C35.0142 16.1743 35.1307 16.3609 35.2007 16.4541C35.3871 16.7104 35.5735 16.7801 36.0161 16.9199C36.3192 16.9899 36.3199 17.0371 36.5063 17.0371C36.6926 17.037 36.8328 16.9667 37.0425 16.9434C37.2054 16.9202 37.322 16.9439 37.4849 16.8975C37.694 16.851 37.9264 16.7115 37.9741 16.6875C38.2305 16.5476 38.5112 16.3372 38.5112 15.8477C38.5111 15.5215 38.324 15.2885 37.7183 15.0322C37.6018 14.9857 37.5085 14.9392 37.3921 14.8926C37.2988 14.8693 37.2752 14.8457 37.1587 14.8457C37.0188 14.8457 36.9256 14.8691 36.8091 14.8691C36.6925 14.8691 36.6221 14.8223 36.5288 14.8223H36.4829ZM25.1411 10.7441C24.8382 10.7674 24.5585 10.7905 24.2788 10.8604C24.2322 10.8837 23.9993 10.9306 23.7896 11.0703C23.7662 11.0703 23.1598 11.5596 23.1597 11.9326C23.1597 11.9792 23.16 12.0729 23.23 12.1895C23.3698 12.4455 23.5563 12.4221 23.7427 12.4688C23.8127 12.4688 23.9762 12.5156 24.1626 12.5156C24.2326 12.5155 24.3489 12.4922 24.4419 12.4922C24.5817 12.4922 24.6751 12.5156 24.8149 12.5156C24.9548 12.5389 25.0717 12.5156 25.2349 12.5156C25.3746 12.5157 25.5375 12.539 25.6772 12.5391C25.7938 12.5391 26.7031 12.399 26.7964 12.3291C26.9129 12.2592 26.9126 12.1655 26.9126 12.0723C26.9125 11.9325 26.8667 11.8161 26.8667 11.7695C26.7968 11.5598 26.7031 11.3501 26.2837 11.0938C26.0973 10.9773 26.0038 10.9306 25.9106 10.9072C25.8174 10.8839 25.7704 10.8602 25.6538 10.8369C25.421 10.767 25.4903 10.7441 25.2573 10.7441H25.1411Z" fill="#00B809"/>
<path d="M9.89007 6.10572V6.15235C9.89007 6.2689 9.89007 6.54865 9.82013 6.68851C9.7502 6.80507 9.63364 6.8517 9.61033 6.8517C9.47046 6.94494 9.37721 6.96825 9.23734 6.96825C9.09747 6.96825 9.05085 6.96825 8.84105 6.92163C8.72449 6.89832 8.49137 6.8517 8.21163 6.8517C7.48897 6.8517 6.78962 7.10812 6.55651 7.22468C6.30008 7.36455 6.1369 7.48111 6.02034 7.55104C5.76391 7.73754 5.60073 7.8541 5.39092 8.08721C5.18112 8.32033 5.08787 8.55344 4.92469 8.8565C4.85476 8.97305 4.62164 9.32273 4.52839 9.6724C4.43515 10.0221 4.45846 10.3251 4.43515 10.9779C4.41183 11.1177 4.41183 11.2343 4.41183 11.3975C4.41183 12.26 4.87807 13.4256 4.97131 13.6121C5.11118 13.9384 5.27437 14.2182 5.36761 14.3347C5.46086 14.4979 5.53079 14.5912 5.62404 14.731C5.83384 15.0108 6.18352 15.3838 6.46326 15.5702C6.62644 15.6868 7.02274 15.85 7.48897 15.9665C7.51228 15.9665 8.00183 16.0831 8.30488 16.0831C8.37481 16.0831 8.9576 16.0365 9.02754 16.0132C9.16741 15.9665 9.26066 15.9199 9.37721 15.9199C9.70358 15.9199 9.91338 16.1297 9.91338 16.6426C9.91338 16.899 9.86676 17.0622 9.89007 17.3186C9.93669 17.575 9.93669 17.575 9.93669 17.7382C9.93669 18.1578 9.86676 18.4376 9.86676 18.8572V18.9504C9.86676 19.1602 9.84345 19.3467 9.61033 19.5565C9.28397 19.8363 8.84105 19.813 8.77111 19.813C8.51468 19.813 8.30488 19.7897 8.02514 19.7897C7.44235 19.7663 7.30248 19.7663 6.69638 19.6731C6.25345 19.6032 5.99703 19.5565 5.78722 19.4866C5.64735 19.44 5.32099 19.2768 5.15781 19.2302C4.97131 19.1369 4.78482 19.067 4.64495 18.9737C4.50508 18.8805 4.43515 18.8106 4.31859 18.7406C4.20203 18.6474 4.10878 18.6008 3.99223 18.5075C3.80573 18.3443 3.68917 18.2278 3.50268 18.0646C3.05976 17.6916 2.7334 17.5284 2.36041 17.0855C2.19723 16.899 2.10398 16.7591 1.96411 16.5493C1.84755 16.3862 1.75431 16.2696 1.66106 16.1064C1.5445 15.8733 1.45126 15.7101 1.35801 15.477C1.00834 14.7543 0.915089 14.6378 0.728596 13.9384C0.518791 13.1458 0.542103 12.7262 0.518791 12.3532C0.49548 12.1434 0.472168 12.0036 0.472168 11.7705C0.472168 11.5373 0.518791 11.3742 0.518791 11.141C0.518791 10.9079 0.49548 10.768 0.49548 10.5349C0.518791 10.1619 0.588726 9.92883 0.635349 9.57916C0.635349 9.48591 0.728596 8.57676 0.915089 7.97065C1.07827 7.4578 1.31139 7.03819 1.42795 6.8517C1.52119 6.68851 1.731 6.33884 1.84755 6.15235C2.12729 5.82598 2.3371 5.61618 2.64015 5.28982C2.84996 5.08001 3.05976 4.82358 3.3395 4.59047C4.06216 3.98436 5.43755 3.56476 5.43755 3.56476C6.50988 3.23839 7.09267 3.19177 7.58222 3.19177C7.83865 3.19177 8.02514 3.16846 8.28157 3.16846C8.46806 3.16846 8.58462 3.19177 8.77111 3.21508H9.1441C9.19072 3.21508 9.26066 3.21508 9.37721 3.2617C9.51708 3.28502 9.68027 3.35495 9.77351 3.49482C9.82013 3.58807 9.89007 3.89112 9.89007 4.17086C9.89007 4.59047 9.82013 4.87021 9.84345 5.28982C9.86676 5.59287 9.89007 5.80267 9.89007 6.10572Z" fill="#00B809"/>
<path d="M9.19043 7.20312C9.19043 9.34683 10.8732 11.0978 12.9902 11.2051L13.1963 11.21C10.984 11.2102 9.19111 13.0037 9.19043 15.2158C9.18975 13.0038 7.39664 11.2104 5.18457 11.21H5.18262V11.209L5.18457 11.21C7.39705 11.2096 9.19043 9.4157 9.19043 7.20312Z" fill="#012E85"/>
<path d="M80.2951 11.6052H80.2485C80.0853 11.6052 80.1553 11.6052 80.0154 11.6285C79.8988 11.6518 79.4326 11.8383 79.3394 11.9083C79.1995 12.0015 79.1296 12.1647 79.0363 12.3046C79.013 12.3279 78.8731 12.5144 78.8265 12.6542C78.7566 12.8641 78.7333 13.1671 78.71 13.3769C78.6633 13.68 78.6633 13.8898 78.64 14.1695V14.6357C78.6167 15.0087 78.5701 15.2652 78.5701 15.6381C78.5701 16.0811 78.5934 16.4074 78.6167 16.8503C78.6167 17.2466 78.6167 17.5497 78.64 17.946C78.64 18.2257 78.6633 18.4355 78.6633 18.7386C78.6633 19.0183 78.64 19.2281 78.337 19.4846C78.1505 19.6244 78.0572 19.6477 77.9873 19.6711C77.894 19.6944 77.7309 19.6944 77.7309 19.6944C77.4045 19.6944 77.1714 19.6711 76.845 19.6711C76.6352 19.6711 76.4954 19.7177 76.2855 19.7177C76.1457 19.7177 76.0291 19.6944 75.8659 19.6944C75.7261 19.6944 75.6328 19.6944 75.4929 19.6711C75.423 19.6711 75.3065 19.6244 75.3065 19.6244C75.2132 19.5778 75.1433 19.5079 75.12 19.4846C74.9568 19.3214 74.9568 19.1116 74.9335 18.7386C74.9102 18.3889 74.9801 18.1325 74.9801 17.7828V17.0135C74.9801 16.4774 75.0034 16.1044 74.9801 15.5915C74.9568 15.3351 74.9568 15.1486 74.9568 14.8922V14.0529C74.9568 13.8898 74.9335 13.7732 74.9335 13.6333C74.9335 13.237 74.9801 12.9806 74.9801 12.5843C74.9801 11.9782 74.9568 11.5586 74.9568 10.9525C74.9568 10.4163 75.0034 10.0433 74.9801 9.48387V9.01763C74.9801 9.01763 74.9102 8.41153 75.3298 8.08517C75.4463 7.99192 75.6095 7.99192 75.6328 7.99192H75.8426C76.0291 7.99192 76.0291 7.96861 76.3322 8.01523C76.542 8.03854 76.6585 8.06186 76.8683 8.06186C77.1015 8.03854 77.2646 8.01523 77.4977 8.01523H77.964C78.1971 8.01523 78.4302 7.96861 78.5701 8.17841C78.6167 8.24835 78.6866 8.62133 78.8498 8.64465C78.9198 8.64465 78.9431 8.59802 79.0829 8.52809C79.1762 8.45815 79.1762 8.45815 79.2461 8.41153C79.2927 8.36491 79.3394 8.31828 79.4093 8.27166C79.4326 8.24835 79.4792 8.24835 79.5025 8.22504C80.1087 7.9453 80.3418 7.85205 80.9246 7.85205C81.181 7.85205 81.3675 7.87536 81.6239 7.89867C81.7405 7.89867 81.8337 7.87536 81.9503 7.87536C82.3466 7.85205 82.603 7.9453 82.7662 7.99192C82.7895 8.01523 83.0459 8.06186 83.2091 8.13179C83.2557 8.1551 83.4189 8.22504 83.4189 8.24835C83.652 8.36491 83.7919 8.50478 83.9784 8.66796C84.2814 8.90107 84.2814 8.85445 84.4446 9.06426C84.5612 9.20412 84.6311 9.29737 84.7244 9.43724C85.0507 9.88016 85.074 9.88016 85.2605 10.5329C85.4237 11.139 85.4237 11.2089 85.4237 11.5586C85.4237 11.885 85.4004 12.188 85.4004 12.5144C85.3771 12.9806 85.4237 13.307 85.4237 13.7732C85.4237 14.3094 85.4004 14.6824 85.4004 15.2418C85.4004 15.7314 85.447 16.0811 85.447 16.5706C85.447 17.1068 85.4004 17.5031 85.4004 18.0392C85.4004 18.3656 85.4237 18.5754 85.4237 18.9018C85.4237 19.2048 85.3771 19.3913 85.2605 19.5079C85.1906 19.5778 85.2139 19.5545 85.1207 19.6244C85.0041 19.7177 84.8875 19.7177 84.8409 19.7177C84.701 19.7177 84.5845 19.6944 84.4213 19.6944H82.8827C82.5564 19.6944 82.1135 19.6944 82.0668 19.6711C81.9969 19.6477 81.9736 19.6244 81.927 19.5778C81.6938 19.3447 81.7172 18.9251 81.7172 18.3423C81.7172 17.9227 81.7871 17.6429 81.7871 17.2233C81.7871 16.7571 81.8104 16.454 81.8104 15.9878C81.7871 15.7547 81.7871 15.5915 81.7871 15.3351C81.7871 14.8922 81.8803 14.2861 81.7405 13.307C81.6472 12.6776 81.554 12.4211 81.3442 12.0948C81.3442 12.0715 81.2509 11.9083 81.1111 11.815C80.8313 11.6052 80.2951 11.6052 80.2951 11.6052Z" fill="#00B809"/>
<path d="M67.6854 4.14402V3.97754C67.6854 3.92204 67.6854 3.94979 67.6624 3.86655C67.6395 3.75557 67.5477 3.58909 67.5247 3.56134C67.5247 3.56134 67.4329 3.39487 67.3182 3.31163C67.1346 3.20064 66.5838 3.1729 66.4002 3.1729C66.1707 3.1729 66.0101 3.22839 65.7806 3.22839C65.5052 3.22839 65.2987 3.1729 65.0462 3.1729C64.9544 3.1729 64.8627 3.14515 64.6791 3.22839C64.6332 3.22839 63.9677 3.5336 63.9677 4.11627V4.6157V4.6157C63.9677 4.72669 63.9677 4.75444 63.9906 4.9764C64.0135 5.14288 64.0135 5.25386 64.0135 5.44809C64.0135 5.94752 63.9629 7.23635 63.9629 7.73578V9.15084C63.9629 9.31732 63.917 9.4283 63.917 9.56703V9.59478C63.917 9.65027 63.917 9.70576 63.9858 9.81674C64.0317 9.95548 64.1924 10.1497 64.2612 10.2329C64.4219 10.4272 64.4907 10.4549 64.6514 10.4549H64.6973C65.0644 10.4549 65.3169 10.4272 65.6611 10.4272H65.6612C65.9136 10.4272 66.1201 10.4272 66.3725 10.4549C66.5332 10.4827 66.6708 10.5104 66.8544 10.5104C66.8774 10.5104 66.9692 10.5104 67.0839 10.4549C67.2675 10.3717 67.5888 10.0387 67.7265 9.789C67.7724 9.67802 67.7953 9.67802 67.7953 9.51154C67.7953 9.26182 67.7494 9.09535 67.7494 8.84563C67.7494 8.62366 67.7724 8.45718 67.7724 8.20746C67.7724 7.24331 67.7083 5.36485 67.7083 4.9764C67.7083 4.67119 67.6854 4.44922 67.6854 4.14402Z" fill="#012E85"/>
<path d="M62.1301 5.59074C62.4338 5.59075 62.634 5.53117 62.9014 5.75358C63.0531 5.96461 63.0153 6.00661 63.0405 6.0857C63.065 6.18848 63.0659 6.3662 63.066 6.37591C63.066 6.74554 63.0405 7.01003 63.0405 7.37955C63.0405 7.61719 63.0914 7.77641 63.0915 8.01398C63.0914 8.1723 63.066 8.30493 63.066 8.4896C63.066 8.6478 63.0657 8.75382 63.0405 8.91202C63.0404 8.98869 63.0093 9.17973 63.008 9.18771C62.9574 9.29331 62.8294 9.37085 62.804 9.39731C62.7704 9.43234 62.735 9.45598 62.6989 9.47551C62.6945 9.47973 62.6901 9.48397 62.6857 9.4884C62.5263 9.64999 62.5099 9.69905 62.3186 9.9737C62.1913 10.1674 62.1117 10.2646 62.0002 10.4421C61.9526 10.5547 61.889 10.7636 61.8727 10.7653C61.8408 10.8784 61.7925 10.9594 61.7607 11.0725C61.7288 11.2017 61.6811 11.6538 61.6811 11.7996C61.6811 11.9126 61.7135 12.0098 61.7135 12.139C61.7135 12.3329 61.6814 12.4788 61.6973 12.6888C61.6973 12.7695 61.6974 12.8667 61.7452 13.0443C61.7613 13.1739 62.0002 13.9166 62.0481 14.0463C62.2394 14.5309 62.4469 14.7085 62.654 14.9508C62.7975 15.1123 62.8607 15.2423 63.0041 15.4038C63.1795 15.5816 63.4985 15.7591 63.658 15.8399C64.4709 16.3086 64.5827 16.2606 65.0769 16.3252C65.3318 16.3737 65.4912 16.422 65.7461 16.422C65.8896 16.422 66.0014 16.4059 66.1449 16.3897C66.2883 16.3897 66.4003 16.3898 66.5437 16.3736C66.6871 16.3736 66.8941 16.3568 67.2284 16.2438C67.3081 16.2277 67.3722 16.2116 67.4518 16.1793C67.5633 16.1309 67.6436 16.0827 67.7393 16.0342C67.8348 15.9858 67.9142 15.969 68.0098 15.9367C68.0121 15.9359 68.1065 15.904 68.1535 15.8722C68.2491 15.8237 68.3292 15.7595 68.4248 15.6787C68.4573 15.6622 68.6318 15.565 68.7749 15.4361C68.9023 15.323 68.9827 15.1932 69.1899 14.9347C69.3013 14.7895 69.381 14.6922 69.4766 14.5469C69.7315 14.1754 69.7637 13.9652 69.8275 13.8036C70.0665 13.1899 70.0664 13.367 70.1142 12.5106C70.1301 12.3331 70.1462 12.2037 70.1621 12.0261C70.178 11.4445 69.9708 10.911 69.9071 10.7008C69.7158 10.1838 69.6675 10.0542 69.4124 9.7633C69.3557 9.70002 69.3089 9.64126 69.2633 9.58514C69.1111 9.47727 68.9898 9.33453 68.9163 9.25785C68.8834 9.21205 68.771 9.13933 68.7339 8.98779C68.6968 8.83624 68.6566 8.56888 68.6566 8.384L68.6783 7.66573L68.7215 7.00474C68.7215 6.75544 68.6534 6.19167 68.6783 6.13649C68.7036 6.05726 68.6744 6.00991 68.8235 5.83419C69.0152 5.60849 69.3965 5.6004 70.0292 5.60041C70.0919 5.61482 70.147 5.64218 70.1976 5.67619C70.3019 5.70754 70.4088 5.74985 70.5083 5.7963C70.6363 5.88275 71.2615 6.28338 71.4914 6.55649C71.7496 6.92045 71.9223 7.16359 72.2093 7.49725C72.6684 8.04315 72.7545 8.28665 73.0988 9.25704C73.2138 9.65174 73.5873 10.6536 73.5587 11.7456C73.53 12.079 73.5008 12.3223 73.4721 12.6557C73.386 14.2635 73.3864 13.931 72.9559 15.0838C72.8411 15.3872 72.7828 15.7817 72.3237 16.4792C72.1515 16.7521 72.0083 16.9351 71.8074 17.208C71.4344 17.6932 71.2904 17.9364 71.0609 18.1487C70.8026 18.3913 70.4864 18.5729 70.4287 18.6034C70.2566 18.7549 70.1131 18.8768 69.9411 18.9677C69.8559 19.0277 69.686 19.0881 69.6822 19.0895C69.5101 19.1501 69.3666 19.1807 69.1945 19.2717C69.0223 19.3626 68.8783 19.4532 68.6775 19.5441C68.534 19.6048 68.4191 19.6355 68.2756 19.6659C67.6727 19.8782 67.299 19.9085 67.0406 19.9085C66.7825 19.9388 66.5816 19.9391 66.3234 19.9391C66.0651 19.9695 65.8638 19.9996 65.6055 19.9996C65.1461 19.9996 64.8585 19.9084 64.3991 19.8174C63.5093 19.6961 63.308 19.787 61.8441 18.9073C61.557 18.7556 60.9829 18.4212 60.6671 18.0875C60.4089 17.7842 60.2932 17.5411 60.0349 17.2378C59.6618 16.7829 59.2881 16.4483 58.9437 15.5385C58.8571 15.294 58.4283 13.9023 58.3988 13.6577C58.3128 13.3243 58.3123 13.1411 58.3123 12.9894C58.2837 12.5955 58.3408 12.322 58.3409 11.9584C58.3408 11.7159 58.2838 11.5329 58.2837 11.3207C58.2838 11.0474 58.37 10.1983 58.4274 9.95516C58.4848 9.74306 58.571 9.59087 58.6284 9.37877C58.6573 9.37746 58.7719 8.98389 58.8579 8.77175C59.0588 8.43816 59.2026 8.25534 59.4321 7.89145C59.7764 7.37601 59.806 7.28455 60.0929 6.98132C60.2937 6.76922 60.4663 6.67756 60.6671 6.46539C60.8004 6.32451 61.0549 6.09779 61.3402 5.87772C61.5146 5.68781 61.8057 5.59075 62.1301 5.59074Z" fill="#012E85"/>
</svg>
