<svg width="175" height="40" viewBox="0 0 175 40" fill="none" xmlns="http://www.w3.org/2000/svg">
<g clip-path="url(#clip0_325_1785)">
<path fill-rule="evenodd" clip-rule="evenodd" d="M2.79956 6H25.1996C26.6224 6 27.8069 7.07628 27.9779 8.45462C27.9779 8.46082 27.9796 12.0741 27.9805 12.0803C2.95371 12.2025 4.9701 31.9059 5.26777 33.9947C5.26955 34.0062 5.74884 33.9947 5.73643 33.9947H2.95105L2.79956 33.9956C1.2598 33.9956 0 32.7359 0 31.1964V8.7992C0 7.25964 1.2598 6 2.79956 6ZM28 14.6864C14.2848 15.0983 16.598 27.8364 17.4937 33.9965H25.2004C26.7402 33.9965 28 32.7368 28 31.1973V14.6864Z" fill="#0DA380"/>
</g>
<path d="M47.7617 17.0332C47.5078 16.1615 47.0381 15.4801 46.3525 14.9893C45.6755 14.4899 44.8418 14.2402 43.8516 14.2402C42.9036 14.2402 42.07 14.4772 41.3506 14.9512C40.6312 15.4251 40.0726 16.1191 39.6748 17.0332C39.277 17.9388 39.0781 19.0221 39.0781 20.2832C39.0781 21.5612 39.2728 22.6572 39.6621 23.5713C40.0599 24.4854 40.6185 25.1836 41.3379 25.666C42.0573 26.14 42.9036 26.377 43.877 26.377C44.7402 26.377 45.485 26.2246 46.1113 25.9199C46.7461 25.6068 47.2327 25.1624 47.5713 24.5869C47.9183 24.0114 48.1003 23.3385 48.1172 22.5684H44.1309V19.6992H51.7988V21.9844C51.7988 23.5671 51.4603 24.9466 50.7832 26.123C50.1146 27.291 49.1794 28.1882 47.9775 28.8145C46.7757 29.4408 45.4004 29.7539 43.8516 29.7539C42.1419 29.7539 40.6312 29.373 39.3193 28.6113C38.016 27.8411 37.0003 26.7493 36.2725 25.3359C35.5531 23.9141 35.1934 22.2467 35.1934 20.334C35.1934 18.3958 35.5658 16.7116 36.3105 15.2812C37.0553 13.8509 38.0794 12.7591 39.3828 12.0059C40.6862 11.2441 42.1504 10.8633 43.7754 10.8633C45.138 10.8633 46.3822 11.1257 47.5078 11.6504C48.6419 12.1667 49.5687 12.8945 50.2881 13.834C51.0075 14.765 51.4518 15.8314 51.6211 17.0332H47.7617ZM54.5156 15.7129H58.1465V18.0996H58.2988C58.5443 17.2617 58.9632 16.6227 59.5557 16.1826C60.1481 15.734 60.8379 15.5098 61.625 15.5098C62.0566 15.5098 62.4544 15.5521 62.8184 15.6367V18.9883C62.6322 18.9375 62.3825 18.891 62.0693 18.8486C61.7562 18.8063 61.4727 18.7852 61.2188 18.7852C60.6602 18.7852 60.1566 18.9079 59.708 19.1533C59.2594 19.3988 58.9082 19.7415 58.6543 20.1816C58.4004 20.6133 58.2734 21.1042 58.2734 21.6543V29.5H54.5156V15.7129ZM70.4609 29.7793C69.0645 29.7793 67.8542 29.4915 66.8301 28.916C65.8145 28.3405 65.0316 27.5195 64.4814 26.4531C63.9313 25.3783 63.6562 24.1172 63.6562 22.6699C63.6562 21.2565 63.9271 20.0124 64.4688 18.9375C65.0189 17.8542 65.7975 17.0163 66.8047 16.4238C67.8118 15.8314 68.9798 15.5352 70.3086 15.5352C71.5443 15.5352 72.6488 15.7975 73.6221 16.3223C74.6038 16.8385 75.374 17.6214 75.9326 18.6709C76.4997 19.7204 76.7832 21.0026 76.7832 22.5176V23.584H67.3633C67.3633 24.2695 67.4902 24.8662 67.7441 25.374C68.0065 25.8818 68.3747 26.2754 68.8486 26.5547C69.3311 26.8255 69.8939 26.9609 70.5371 26.9609C71.1549 26.9609 71.6882 26.8382 72.1367 26.5928C72.5853 26.3389 72.9069 25.9961 73.1016 25.5645H76.6816C76.5039 26.4108 76.14 27.1514 75.5898 27.7861C75.0397 28.4209 74.3245 28.9118 73.4443 29.2588C72.5726 29.6058 71.5781 29.7793 70.4609 29.7793ZM73.2285 21.2227C73.2285 20.6725 73.1058 20.1816 72.8604 19.75C72.6234 19.3099 72.2891 18.9671 71.8574 18.7217C71.4258 18.4762 70.9349 18.3535 70.3848 18.3535C69.8262 18.3535 69.3184 18.4805 68.8613 18.7344C68.4128 18.9883 68.0531 19.3353 67.7822 19.7754C67.5199 20.2155 67.3802 20.6979 67.3633 21.2227H73.2285ZM85.3906 29.7793C83.9941 29.7793 82.7839 29.4915 81.7598 28.916C80.7441 28.3405 79.9613 27.5195 79.4111 26.4531C78.861 25.3783 78.5859 24.1172 78.5859 22.6699C78.5859 21.2565 78.8568 20.0124 79.3984 18.9375C79.9486 17.8542 80.7272 17.0163 81.7344 16.4238C82.7415 15.8314 83.9095 15.5352 85.2383 15.5352C86.474 15.5352 87.5785 15.7975 88.5518 16.3223C89.5335 16.8385 90.3037 17.6214 90.8623 18.6709C91.4294 19.7204 91.7129 21.0026 91.7129 22.5176V23.584H82.293C82.293 24.2695 82.4199 24.8662 82.6738 25.374C82.9362 25.8818 83.3044 26.2754 83.7783 26.5547C84.2607 26.8255 84.8236 26.9609 85.4668 26.9609C86.0846 26.9609 86.6178 26.8382 87.0664 26.5928C87.515 26.3389 87.8366 25.9961 88.0312 25.5645H91.6113C91.4336 26.4108 91.0697 27.1514 90.5195 27.7861C89.9694 28.4209 89.2542 28.9118 88.374 29.2588C87.5023 29.6058 86.5078 29.7793 85.3906 29.7793ZM88.1582 21.2227C88.1582 20.6725 88.0355 20.1816 87.79 19.75C87.5531 19.3099 87.2188 18.9671 86.7871 18.7217C86.3555 18.4762 85.8646 18.3535 85.3145 18.3535C84.7559 18.3535 84.248 18.4805 83.791 18.7344C83.3424 18.9883 82.9827 19.3353 82.7119 19.7754C82.4495 20.2155 82.3099 20.6979 82.293 21.2227H88.1582ZM97.832 29.5H94.0742V15.7129H97.6543V18.125H97.8066C98.1283 17.3125 98.6488 16.6777 99.3682 16.2207C100.088 15.7637 100.947 15.5352 101.945 15.5352C102.902 15.5352 103.74 15.7425 104.459 16.1572C105.178 16.5719 105.733 17.1729 106.122 17.96C106.511 18.7386 106.702 19.6569 106.693 20.7148V29.5H102.961V21.375C102.961 20.5286 102.741 19.8643 102.301 19.3818C101.861 18.8994 101.251 18.6582 100.473 18.6582C99.6686 18.6582 99.0254 18.9121 98.543 19.4199C98.069 19.9277 97.832 20.6302 97.832 21.5273V29.5ZM109.689 11.1172H116.9C118.271 11.1172 119.452 11.3796 120.442 11.9043C121.433 12.4206 122.186 13.1484 122.702 14.0879C123.218 15.0189 123.477 16.0938 123.477 17.3125C123.477 18.5397 123.21 19.623 122.677 20.5625C122.152 21.4935 121.386 22.2171 120.379 22.7334C119.38 23.2497 118.187 23.5078 116.799 23.5078H113.498V29.5H109.689V11.1172ZM116.189 20.4355C117.29 20.4355 118.123 20.1562 118.69 19.5977C119.257 19.0306 119.541 18.2689 119.541 17.3125C119.541 16.3646 119.257 15.6156 118.69 15.0654C118.123 14.5153 117.29 14.2402 116.189 14.2402H113.498V20.4355H116.189ZM122.715 29.5L129.088 11.1172H133.988L140.336 29.5H136.248L134.864 25.2598H128.212L126.828 29.5H122.715ZM133.899 22.2891L131.602 15.2559H131.475L129.177 22.2891H133.899ZM139.447 11.1172H154.504V14.2656H148.867V29.5H145.084V14.2656H139.447V11.1172ZM156.865 11.1172H160.674V18.7344H168.646V11.1172H172.48V29.5H168.646V21.8828H160.674V29.5H156.865V11.1172Z" fill="black"/>
<defs>
<clipPath id="clip0_325_1785">
<rect width="28" height="28" fill="white" transform="translate(0 6)"/>
</clipPath>
</defs>
</svg>
