<svg width="1237" height="57" viewBox="0 0 1237 57" fill="none" xmlns="http://www.w3.org/2000/svg">
<g clip-path="url(#clip0_1031_3621)">
<path d="M55.5264 26.4424H53.25V56.1592H4.21973V26.4424H1.94336V23.9834H55.5264V26.4424ZM17.3916 13.5039L18.6777 12.6973L20.5234 11.54L23.6357 9.58691H33.834L36.9473 11.54L38.792 12.6973L41.9043 14.6504L43.75 15.8086L46.8623 17.7617L48.708 18.9189L51.8203 20.8721H17.3916V20.873H51.8203L53.6631 22.0293H53.665L55.5264 23.1973V23.9824H1.94336V23.1973L3.80469 22.0293H3.80664L5.64941 20.873H9.24902V20.8721H5.64941L8.7627 18.9189L9.24902 18.6133V9.24414H17.3916V13.5039ZM31.9893 8.42871L33.834 9.58594H23.6357L25.4805 8.42871L28.7354 6.38672L31.9893 8.42871Z" fill="#A7C4FF"/>
<path d="M34.6179 56.1591V42.7699C34.6179 39.5207 31.984 36.8867 28.7348 36.8867C25.4856 36.8867 22.8516 39.5207 22.8516 42.7699V56.1591H34.6179Z" fill="#E3A982"/>
<path d="M34.6179 56.1591V42.7699C34.6179 39.5207 31.984 36.8867 28.7348 36.8867C25.4856 36.8867 22.8516 39.5207 22.8516 42.7699V56.1591H34.6179Z" fill="#98B6F2"/>
<path d="M13.5594 29.125C15.7079 29.125 17.4518 30.8689 17.4518 33.0174V38.4985H9.66699V33.0174C9.66699 30.8689 11.4109 29.125 13.5594 29.125Z" fill="#FFFFF6"/>
<path d="M13.5594 29.125C15.7079 29.125 17.4518 30.8689 17.4518 33.0174V38.4985H9.66699V33.0174C9.66699 30.8689 11.4109 29.125 13.5594 29.125Z" fill="#98B6F2"/>
<path d="M43.3455 29.125C45.494 29.125 47.2379 30.8689 47.2379 33.0174V38.4985H39.4531V33.0174C39.4531 30.8689 41.197 29.125 43.3455 29.125Z" fill="#FFFFF6"/>
<path d="M43.3455 29.125C45.494 29.125 47.2379 30.8689 47.2379 33.0174V38.4985H39.4531V33.0174C39.4531 30.8689 41.197 29.125 43.3455 29.125Z" fill="#98B6F2"/>
</g>
<g clip-path="url(#clip1_1031_3621)">
<path d="M79.4047 35.9414H70.9395V56.0527H79.4047V35.9414Z" fill="#98B6F2"/>
<path d="M59 31.7157C59 23.7968 66.2408 18.8125 75.1715 18.8125C84.1033 18.8125 91.3431 23.7958 91.3431 31.7157C91.3431 39.6355 84.1023 44.6189 75.1715 44.6189C66.2408 44.6189 59 39.6346 59 31.7157Z" fill="#A7C4FF"/>
<path d="M59 12.9032C59 4.98333 66.2408 0 75.1715 0C84.1033 0 91.3431 4.98333 91.3431 12.9032C91.3431 20.823 84.1023 25.8064 75.1715 25.8064C66.2408 25.8064 59 20.8221 59 12.9032Z" fill="#A7C4FF"/>
<path d="M68.9487 11.6503C70.2379 11.6503 71.2831 10.6051 71.2831 9.31585C71.2831 8.02659 70.2379 6.98145 68.9487 6.98145C67.6594 6.98145 66.6143 8.02659 66.6143 9.31585C66.6143 10.6051 67.6594 11.6503 68.9487 11.6503Z" fill="#98B6F2"/>
<path d="M82.2817 15.2372C83.5709 15.2372 84.6161 14.192 84.6161 12.9028C84.6161 11.6135 83.5709 10.5684 82.2817 10.5684C80.9924 10.5684 79.9473 11.6135 79.9473 12.9028C79.9473 14.192 80.9924 15.2372 82.2817 15.2372Z" fill="#98B6F2"/>
<path d="M68.9487 34.0506C70.2379 34.0506 71.2831 33.0055 71.2831 31.7162C71.2831 30.427 70.2379 29.3818 68.9487 29.3818C67.6594 29.3818 66.6143 30.427 66.6143 31.7162C66.6143 33.0055 67.6594 34.0506 68.9487 34.0506Z" fill="#98B6F2"/>
<path d="M76.4946 23.4813C77.7838 23.4813 78.829 22.4362 78.829 21.1469C78.829 19.8576 77.7838 18.8125 76.4946 18.8125C75.2053 18.8125 74.1602 19.8576 74.1602 21.1469C74.1602 22.4362 75.2053 23.4813 76.4946 23.4813Z" fill="#98B6F2"/>
<path d="M79.9467 40.6102C81.236 40.6102 82.2811 39.5651 82.2811 38.2758C82.2811 36.9866 81.236 35.9414 79.9467 35.9414C78.6575 35.9414 77.6123 36.9866 77.6123 38.2758C77.6123 39.5651 78.6575 40.6102 79.9467 40.6102Z" fill="#98B6F2"/>
</g>
<g clip-path="url(#clip2_1031_3621)">
<path d="M115.422 33.3496H105.866V56.0526H115.422V33.3496Z" fill="#98B6F2"/>
<path d="M110.644 43.5809C100.025 43.5809 93.3428 33.8717 93.3428 21.8964C93.3428 9.92113 100.025 0.211914 110.644 0.211914C121.263 0.211914 127.945 9.92005 127.945 21.8964C127.945 33.8728 121.263 43.5809 110.644 43.5809Z" fill="#A7C4FF"/>
</g>
<g clip-path="url(#clip3_1031_3621)">
<path d="M177.522 32.751L182.789 30.5273L183.391 31.7295L184.158 33.2646H180.517V56.0088H133.586V33.2646H129.945L130.713 31.7305L131.314 30.5283L136.571 32.751L143.395 29.8662L150.218 32.751L157.039 29.8662L163.86 32.751L170.688 29.8662L177.522 32.751ZM179.862 24.6738L179.863 24.6748L181.024 26.998L177.522 28.4775L181.024 26.999L181.626 28.2021L182.789 30.5264L177.522 32.75L170.688 29.8652L163.86 32.75L157.039 29.8652L150.218 32.75L143.395 29.8652L136.571 32.75L131.314 30.5273L132.477 28.2041L133.078 27L134.239 24.6758L134.841 23.4736L135.446 22.2617H178.656L179.862 24.6738Z" fill="#A7C4FF"/>
<path d="M161.287 42.4531H152.816V56.0535H161.287V42.4531Z" fill="#98B6F2"/>
<path d="M141.809 38.4639H137.145V43.1282H141.809V38.4639Z" fill="#98B6F2"/>
<path d="M149.449 38.4639H144.785V43.1282H149.449V38.4639Z" fill="#98B6F2"/>
<path d="M169.317 38.4639H164.652V43.1282H169.317V38.4639Z" fill="#98B6F2"/>
<path d="M176.957 38.4639H172.293V43.1282H176.957V38.4639Z" fill="#98B6F2"/>
</g>
<g clip-path="url(#clip4_1031_3621)">
<path d="M220.911 12.2344L218.292 14.0654L216.868 15.0615L214.249 16.8926L212.824 17.8877L210.205 19.7188L208.781 20.7139L206.162 22.5449L204.737 23.541L202.118 25.3711L200.694 26.3672L198.678 27.7764L200.694 31.1777L201.039 31.7598L202.118 31.0059L204.737 29.1748L206.162 28.1787L208.781 26.3477L210.205 25.3525L212.824 23.5215L214.249 22.5254L216.868 20.6953L218.292 19.7002L220.911 17.8691L221.502 17.4561L221.554 17.4912L205.689 28.5811V56.0518H237.521V28.6523L238.509 29.3438L241.128 31.1748L241.966 31.7598L242.552 30.8994L244.568 27.9453L242.552 26.5361L241.128 25.541L238.509 23.71L237.085 22.7139L234.465 20.8828L233.042 19.8877L230.422 18.0576L228.998 17.0615L226.379 15.2305L224.955 14.2354L222.336 12.4043L221.502 11.8223L220.911 12.2344Z" fill="#A7C4FF"/>
<path d="M211.699 30.2158H217.148V35.6649H211.699V30.2158Z" fill="#98B6F2"/>
<path d="M226.532 30.2158H231.981V35.6649H226.532V30.2158Z" fill="#98B6F2"/>
<path d="M221.605 38.7812C218.649 38.7812 216.248 41.1817 216.248 44.138V56.0526H226.962V44.138C226.962 41.1817 224.561 38.7812 221.605 38.7812Z" fill="#98B6F2"/>
<path d="M186.158 37.2285H205.689V56.0528H186.158V37.2285Z" fill="#A7C4FF"/>
<path d="M189.143 45.2754H202.703V56.0525H189.143V45.2754Z" fill="#98B6F2"/>
</g>
<g clip-path="url(#clip5_1031_3621)">
<path d="M268.648 33.3496H259.092V56.0526H268.648V33.3496Z" fill="#98B6F2"/>
<path d="M263.869 43.5809C253.25 43.5809 246.568 33.8717 246.568 21.8964C246.568 9.92113 253.25 0.211914 263.869 0.211914C274.489 0.211914 281.171 9.92005 281.171 21.8964C281.171 33.8728 274.489 43.5809 263.869 43.5809Z" fill="#A7C4FF"/>
</g>
<g clip-path="url(#clip6_1031_3621)">
<path d="M302.966 56.1048H330.633V17.7151L302.966 11.6934V56.1048Z" fill="#A7C4FF"/>
<path d="M284.773 33.8994H317.116V56.1051H284.773V33.8994Z" fill="#A7C4FF"/>
<path d="M300.088 28.6992H301.055V33.9957H300.088V28.6992Z" fill="#98B6F2"/>
<path d="M296.258 28.6992H297.225V33.9957H296.258V28.6992Z" fill="#98B6F2"/>
<path d="M292.43 28.6992H293.396V33.9957H292.43V28.6992Z" fill="#98B6F2"/>
<path d="M288.602 28.6992H289.568V33.9957H288.602V28.6992Z" fill="#98B6F2"/>
<path d="M284.775 28.6992H285.741V33.9957H284.775V28.6992Z" fill="#98B6F2"/>
<path d="M284.773 29.6675V28.6992H302.966V29.6675H284.773Z" fill="#98B6F2"/>
<path d="M317.116 55.1395V42.5884C317.116 40.4556 318.845 38.7266 320.978 38.7266C323.111 38.7266 324.84 40.4556 324.84 42.5884V55.1395H317.116Z" fill="#98B6F2"/>
<path d="M307.487 19.166H310.598C310.865 19.166 311.081 19.3821 311.081 19.6487V22.7692C311.081 23.0358 310.865 23.2519 310.598 23.2519H307.487C307.22 23.2519 307.004 23.0358 307.004 22.7692V19.6487C307.004 19.3821 307.22 19.166 307.487 19.166Z" fill="#98B6F2"/>
<path d="M307.487 28.6992H310.598C310.865 28.6992 311.081 28.9153 311.081 29.182V32.3024C311.081 32.569 310.865 32.7851 310.598 32.7851H307.487C307.22 32.7851 307.004 32.569 307.004 32.3024V29.182C307.004 28.9153 307.22 28.6992 307.487 28.6992Z" fill="#98B6F2"/>
<path d="M317.714 28.6992H320.826C321.092 28.6992 321.309 28.9153 321.309 29.182V32.3024C321.309 32.569 321.092 32.7851 320.826 32.7851H317.714C317.448 32.7851 317.231 32.569 317.231 32.3024V29.182C317.231 28.9153 317.448 28.6992 317.714 28.6992Z" fill="#98B6F2"/>
<path d="M317.714 19.166H320.826C321.092 19.166 321.309 19.3821 321.309 19.6487V22.7692C321.309 23.0358 321.092 23.2519 320.826 23.2519H317.714C317.448 23.2519 317.231 23.0358 317.231 22.7692V19.6487C317.231 19.3821 317.448 19.166 317.714 19.166Z" fill="#98B6F2"/>
<path d="M307.487 38.2334H310.598C310.865 38.2334 311.081 38.4495 311.081 38.7161V41.8365C311.081 42.1032 310.865 42.3193 310.598 42.3193H307.487C307.22 42.3193 307.004 42.1032 307.004 41.8365V38.7161C307.004 38.4495 307.22 38.2334 307.487 38.2334Z" fill="#98B6F2"/>
<path d="M297.707 38.2334H300.819C301.086 38.2334 301.302 38.4495 301.302 38.7161V41.8365C301.302 42.1032 301.086 42.3193 300.819 42.3193H297.707C297.441 42.3193 297.225 42.1032 297.225 41.8365V38.7161C297.225 38.4495 297.441 38.2334 297.707 38.2334Z" fill="#98B6F2"/>
<path d="M287.928 38.2334H291.04C291.306 38.2334 291.522 38.4495 291.522 38.7161V41.8365C291.522 42.1032 291.306 42.3193 291.04 42.3193H287.928C287.661 42.3193 287.445 42.1032 287.445 41.8365V38.7161C287.445 38.4495 287.661 38.2334 287.928 38.2334Z" fill="#98B6F2"/>
</g>
<g clip-path="url(#clip7_1031_3621)">
<path d="M338.898 26.3278L353.336 16.2578L367.774 26.3278V56.021H338.898V26.3278Z" fill="#A7C4FF"/>
<path d="M348.09 28.6123H345.559C345.343 28.6123 345.167 28.788 345.167 29.0048V31.542C345.167 31.7587 345.343 31.9345 345.559 31.9345H348.09C348.306 31.9345 348.482 31.7587 348.482 31.542V29.0048C348.482 28.788 348.306 28.6123 348.09 28.6123Z" fill="#98B6F2"/>
<path d="M361.544 28.6123H359.014C358.797 28.6123 358.621 28.788 358.621 29.0048V31.542C358.621 31.7587 358.797 31.9345 359.014 31.9345H361.544C361.76 31.9345 361.936 31.7587 361.936 31.542V29.0048C361.936 28.788 361.76 28.6123 361.544 28.6123Z" fill="#98B6F2"/>
<path d="M353.338 35.5596C350.656 35.5596 348.478 37.7324 348.478 40.4082V51.1927H358.197V40.4082C358.197 37.7324 356.02 35.5596 353.338 35.5596Z" fill="#98B6F2"/>
<path d="M337.078 25.8768L352.728 15.1891C352.995 15.0067 353.346 15.0067 353.613 15.1891L369.263 25.8768" stroke="#A7C4FF" stroke-width="3.92502" stroke-linecap="round"/>
</g>
<g clip-path="url(#clip8_1031_3621)">
<path d="M396.574 35.9414H388.108V56.0527H396.574V35.9414Z" fill="#98B6F2"/>
<path d="M376.169 31.7157C376.169 23.7968 383.41 18.8125 392.34 18.8125C401.272 18.8125 408.512 23.7958 408.512 31.7157C408.512 39.6355 401.271 44.6189 392.34 44.6189C383.41 44.6189 376.169 39.6346 376.169 31.7157Z" fill="#A7C4FF"/>
<path d="M376.169 12.9032C376.169 4.98333 383.41 0 392.34 0C401.272 0 408.512 4.98333 408.512 12.9032C408.512 20.823 401.271 25.8064 392.34 25.8064C383.41 25.8064 376.169 20.8221 376.169 12.9032Z" fill="#A7C4FF"/>
<path d="M386.118 11.6503C387.407 11.6503 388.452 10.6051 388.452 9.31585C388.452 8.02659 387.407 6.98145 386.118 6.98145C384.828 6.98145 383.783 8.02659 383.783 9.31585C383.783 10.6051 384.828 11.6503 386.118 11.6503Z" fill="#98B6F2"/>
<path d="M399.451 15.2372C400.74 15.2372 401.785 14.192 401.785 12.9028C401.785 11.6135 400.74 10.5684 399.451 10.5684C398.161 10.5684 397.116 11.6135 397.116 12.9028C397.116 14.192 398.161 15.2372 399.451 15.2372Z" fill="#98B6F2"/>
<path d="M386.118 34.0506C387.407 34.0506 388.452 33.0055 388.452 31.7162C388.452 30.427 387.407 29.3818 386.118 29.3818C384.828 29.3818 383.783 30.427 383.783 31.7162C383.783 33.0055 384.828 34.0506 386.118 34.0506Z" fill="#98B6F2"/>
<path d="M393.664 23.4813C394.953 23.4813 395.998 22.4362 395.998 21.1469C395.998 19.8576 394.953 18.8125 393.664 18.8125C392.374 18.8125 391.329 19.8576 391.329 21.1469C391.329 22.4362 392.374 23.4813 393.664 23.4813Z" fill="#98B6F2"/>
<path d="M397.116 40.6102C398.405 40.6102 399.45 39.5651 399.45 38.2758C399.45 36.9866 398.405 35.9414 397.116 35.9414C395.826 35.9414 394.781 36.9866 394.781 38.2758C394.781 39.5651 395.826 40.6102 397.116 40.6102Z" fill="#98B6F2"/>
</g>
<g clip-path="url(#clip9_1031_3621)">
<path d="M466.038 26.3896H463.762V56.1064H414.731V26.3896H412.455V23.9307H466.038V26.3896ZM427.903 13.4512L429.189 12.6445L431.035 11.4873L434.147 9.53418H444.346L447.459 11.4873L449.304 12.6445L452.416 14.5977L454.262 15.7559L457.374 17.709L459.22 18.8662L462.332 20.8193H427.903V20.8203H462.332L464.175 21.9766H464.177L466.038 23.1445V23.9297H412.455V23.1445L414.316 21.9766H414.318L416.161 20.8203H419.761V20.8193H416.161L419.274 18.8662L419.761 18.5605V9.19141H427.903V13.4512ZM442.501 8.37598L444.346 9.5332H434.147L435.992 8.37598L439.247 6.33398L442.501 8.37598Z" fill="#A7C4FF"/>
<path d="M445.13 56.1063V42.7172C445.13 39.468 442.496 36.834 439.246 36.834C435.997 36.834 433.363 39.468 433.363 42.7172V56.1063H445.13Z" fill="#E3A982"/>
<path d="M445.13 56.1063V42.7172C445.13 39.468 442.496 36.834 439.246 36.834C435.997 36.834 433.363 39.468 433.363 42.7172V56.1063H445.13Z" fill="#98B6F2"/>
<path d="M424.071 29.0723C426.22 29.0723 427.964 30.8162 427.964 32.9647V38.4458H420.179V32.9647C420.179 30.8162 421.923 29.0723 424.071 29.0723Z" fill="#FFFFF6"/>
<path d="M424.071 29.0723C426.22 29.0723 427.964 30.8162 427.964 32.9647V38.4458H420.179V32.9647C420.179 30.8162 421.923 29.0723 424.071 29.0723Z" fill="#98B6F2"/>
<path d="M453.857 29.0723C456.006 29.0723 457.75 30.8162 457.75 32.9647V38.4458H449.965V32.9647C449.965 30.8162 451.709 29.0723 453.857 29.0723Z" fill="#FFFFF6"/>
<path d="M453.857 29.0723C456.006 29.0723 457.75 30.8162 457.75 32.9647V38.4458H449.965V32.9647C449.965 30.8162 451.709 29.0723 453.857 29.0723Z" fill="#98B6F2"/>
</g>
<g clip-path="url(#clip10_1031_3621)">
<path d="M492.169 12.2344L494.788 14.0654L496.212 15.0615L498.831 16.8926L500.256 17.8877L502.875 19.7188L504.299 20.7139L506.918 22.5449L508.343 23.541L510.962 25.3711L512.386 26.3672L514.402 27.7764L512.386 31.1777L512.041 31.7598L510.962 31.0059L508.343 29.1748L506.918 28.1787L504.299 26.3477L502.875 25.3525L500.256 23.5215L498.831 22.5254L496.212 20.6953L494.788 19.7002L492.169 17.8691L491.578 17.4561L491.526 17.4912L507.391 28.5811V56.0518H475.559V28.6523L474.571 29.3438L471.952 31.1748L471.114 31.7598L470.528 30.8994L468.512 27.9453L470.528 26.5361L471.952 25.541L474.571 23.71L475.995 22.7139L478.615 20.8828L480.038 19.8877L482.658 18.0576L484.082 17.0615L486.701 15.2305L488.125 14.2354L490.744 12.4043L491.578 11.8223L492.169 12.2344Z" fill="#A7C4FF"/>
<path d="M501.381 30.2158H495.932V35.6649H501.381V30.2158Z" fill="#98B6F2"/>
<path d="M486.548 30.2158H481.099V35.6649H486.548V30.2158Z" fill="#98B6F2"/>
<path d="M491.475 38.7812C494.431 38.7812 496.832 41.1817 496.832 44.138V56.0526H486.118V44.138C486.118 41.1817 488.519 38.7812 491.475 38.7812Z" fill="#98B6F2"/>
<path d="M526.922 37.2285H507.391V56.0528H526.922V37.2285Z" fill="#A7C4FF"/>
<path d="M523.937 45.2754H510.377V56.0525H523.937V45.2754Z" fill="#98B6F2"/>
</g>
<g clip-path="url(#clip11_1031_3621)">
<path d="M576.499 32.751L581.766 30.5273L582.367 31.7295L583.135 33.2646H579.493V56.0088H532.562V33.2646H528.922L529.689 31.7305L530.291 30.5283L535.548 32.751L542.371 29.8662L549.194 32.751L556.016 29.8662L562.837 32.751L569.665 29.8662L576.499 32.751ZM578.839 24.6738L578.84 24.6748L580.001 26.998L576.499 28.4775L580.001 26.999L580.603 28.2021L581.766 30.5264L576.499 32.75L569.665 29.8652L562.837 32.75L556.016 29.8652L549.194 32.75L542.371 29.8652L535.548 32.75L530.291 30.5273L531.453 28.2041L532.055 27L533.216 24.6758L533.817 23.4736L534.423 22.2617H577.633L578.839 24.6738Z" fill="#A7C4FF"/>
<path d="M560.264 42.4531H551.793V56.0535H560.264V42.4531Z" fill="#98B6F2"/>
<path d="M540.785 38.4639H536.121V43.1282H540.785V38.4639Z" fill="#98B6F2"/>
<path d="M548.426 38.4639H543.762V43.1282H548.426V38.4639Z" fill="#98B6F2"/>
<path d="M568.293 38.4639H563.629V43.1282H568.293V38.4639Z" fill="#98B6F2"/>
<path d="M575.934 38.4639H571.27V43.1282H575.934V38.4639Z" fill="#98B6F2"/>
</g>
<g clip-path="url(#clip12_1031_3621)">
<path d="M605.539 35.9414H597.074V56.0527H605.539V35.9414Z" fill="#98B6F2"/>
<path d="M585.135 31.7157C585.135 23.7968 592.376 18.8125 601.306 18.8125C610.238 18.8125 617.478 23.7958 617.478 31.7157C617.478 39.6355 610.237 44.6189 601.306 44.6189C592.376 44.6189 585.135 39.6346 585.135 31.7157Z" fill="#A7C4FF"/>
<path d="M585.135 12.9032C585.135 4.98333 592.376 0 601.306 0C610.238 0 617.478 4.98333 617.478 12.9032C617.478 20.823 610.237 25.8064 601.306 25.8064C592.376 25.8064 585.135 20.8221 585.135 12.9032Z" fill="#A7C4FF"/>
<path d="M595.083 11.6503C596.373 11.6503 597.418 10.6051 597.418 9.31585C597.418 8.02659 596.373 6.98145 595.083 6.98145C593.794 6.98145 592.749 8.02659 592.749 9.31585C592.749 10.6051 593.794 11.6503 595.083 11.6503Z" fill="#98B6F2"/>
<path d="M608.416 15.2372C609.706 15.2372 610.751 14.192 610.751 12.9028C610.751 11.6135 609.706 10.5684 608.416 10.5684C607.127 10.5684 606.082 11.6135 606.082 12.9028C606.082 14.192 607.127 15.2372 608.416 15.2372Z" fill="#98B6F2"/>
<path d="M595.083 34.0506C596.373 34.0506 597.418 33.0055 597.418 31.7162C597.418 30.427 596.373 29.3818 595.083 29.3818C593.794 29.3818 592.749 30.427 592.749 31.7162C592.749 33.0055 593.794 34.0506 595.083 34.0506Z" fill="#98B6F2"/>
<path d="M602.629 23.4813C603.919 23.4813 604.964 22.4362 604.964 21.1469C604.964 19.8576 603.919 18.8125 602.629 18.8125C601.34 18.8125 600.295 19.8576 600.295 21.1469C600.295 22.4362 601.34 23.4813 602.629 23.4813Z" fill="#98B6F2"/>
<path d="M606.081 40.6102C607.371 40.6102 608.416 39.5651 608.416 38.2758C608.416 36.9866 607.371 35.9414 606.081 35.9414C604.792 35.9414 603.747 36.9866 603.747 38.2758C603.747 39.5651 604.792 40.6102 606.081 40.6102Z" fill="#98B6F2"/>
</g>
<g clip-path="url(#clip13_1031_3621)">
<path d="M675.005 26.4424H672.729V56.1592H623.698V26.4424H621.422V23.9834H675.005V26.4424ZM636.87 13.5039L638.156 12.6973L640.002 11.54L643.114 9.58691H653.312L656.426 11.54L658.271 12.6973L661.383 14.6504L663.229 15.8086L666.341 17.7617L668.187 18.9189L671.299 20.8721H636.87V20.873H671.299L673.142 22.0293H673.144L675.005 23.1973V23.9824H621.422V23.1973L623.283 22.0293H623.285L625.128 20.873H628.728V20.8721H625.128L628.241 18.9189L628.728 18.6133V9.24414H636.87V13.5039ZM651.468 8.42871L653.312 9.58594H643.114L644.959 8.42871L648.214 6.38672L651.468 8.42871Z" fill="#A7C4FF"/>
<path d="M654.096 56.1591V42.7699C654.096 39.5207 651.462 36.8867 648.213 36.8867C644.964 36.8867 642.33 39.5207 642.33 42.7699V56.1591H654.096Z" fill="#E3A982"/>
<path d="M654.096 56.1591V42.7699C654.096 39.5207 651.462 36.8867 648.213 36.8867C644.964 36.8867 642.33 39.5207 642.33 42.7699V56.1591H654.096Z" fill="#98B6F2"/>
<path d="M633.038 29.125C635.186 29.125 636.93 30.8689 636.93 33.0174V38.4985H629.146V33.0174C629.146 30.8689 630.889 29.125 633.038 29.125Z" fill="#FFFFF6"/>
<path d="M633.038 29.125C635.186 29.125 636.93 30.8689 636.93 33.0174V38.4985H629.146V33.0174C629.146 30.8689 630.889 29.125 633.038 29.125Z" fill="#98B6F2"/>
<path d="M662.824 29.125C664.973 29.125 666.716 30.8689 666.716 33.0174V38.4985H658.932V33.0174C658.932 30.8689 660.676 29.125 662.824 29.125Z" fill="#FFFFF6"/>
<path d="M662.824 29.125C664.973 29.125 666.716 30.8689 666.716 33.0174V38.4985H658.932V33.0174C658.932 30.8689 660.676 29.125 662.824 29.125Z" fill="#98B6F2"/>
</g>
<g clip-path="url(#clip14_1031_3621)">
<path d="M698.883 35.9414H690.418V56.0527H698.883V35.9414Z" fill="#98B6F2"/>
<path d="M678.479 31.7157C678.479 23.7968 685.719 18.8125 694.65 18.8125C703.582 18.8125 710.822 23.7958 710.822 31.7157C710.822 39.6355 703.581 44.6189 694.65 44.6189C685.719 44.6189 678.479 39.6346 678.479 31.7157Z" fill="#A7C4FF"/>
<path d="M678.479 12.9032C678.479 4.98333 685.719 0 694.65 0C703.582 0 710.822 4.98333 710.822 12.9032C710.822 20.823 703.581 25.8064 694.65 25.8064C685.719 25.8064 678.479 20.8221 678.479 12.9032Z" fill="#A7C4FF"/>
<path d="M688.427 11.6503C689.716 11.6503 690.762 10.6051 690.762 9.31585C690.762 8.02659 689.716 6.98145 688.427 6.98145C687.138 6.98145 686.093 8.02659 686.093 9.31585C686.093 10.6051 687.138 11.6503 688.427 11.6503Z" fill="#98B6F2"/>
<path d="M701.76 15.2372C703.049 15.2372 704.095 14.192 704.095 12.9028C704.095 11.6135 703.049 10.5684 701.76 10.5684C700.471 10.5684 699.426 11.6135 699.426 12.9028C699.426 14.192 700.471 15.2372 701.76 15.2372Z" fill="#98B6F2"/>
<path d="M688.427 34.0506C689.716 34.0506 690.762 33.0055 690.762 31.7162C690.762 30.427 689.716 29.3818 688.427 29.3818C687.138 29.3818 686.093 30.427 686.093 31.7162C686.093 33.0055 687.138 34.0506 688.427 34.0506Z" fill="#98B6F2"/>
<path d="M695.973 23.4813C697.262 23.4813 698.307 22.4362 698.307 21.1469C698.307 19.8576 697.262 18.8125 695.973 18.8125C694.684 18.8125 693.639 19.8576 693.639 21.1469C693.639 22.4362 694.684 23.4813 695.973 23.4813Z" fill="#98B6F2"/>
<path d="M699.425 40.6102C700.714 40.6102 701.76 39.5651 701.76 38.2758C701.76 36.9866 700.714 35.9414 699.425 35.9414C698.136 35.9414 697.091 36.9866 697.091 38.2758C697.091 39.5651 698.136 40.6102 699.425 40.6102Z" fill="#98B6F2"/>
</g>
<g clip-path="url(#clip15_1031_3621)">
<path d="M734.901 33.3496H725.345V56.0526H734.901V33.3496Z" fill="#98B6F2"/>
<path d="M730.122 43.5809C719.503 43.5809 712.821 33.8717 712.821 21.8964C712.821 9.92113 719.503 0.211914 730.122 0.211914C740.742 0.211914 747.424 9.92005 747.424 21.8964C747.424 33.8728 740.742 43.5809 730.122 43.5809Z" fill="#A7C4FF"/>
</g>
<g clip-path="url(#clip16_1031_3621)">
<path d="M797.001 32.751L802.268 30.5273L802.869 31.7295L803.637 33.2646H799.995V56.0088H753.064V33.2646H749.424L750.191 31.7305L750.793 30.5283L756.05 32.751L762.873 29.8662L769.696 32.751L776.518 29.8662L783.339 32.751L790.167 29.8662L797.001 32.751ZM799.341 24.6738L799.342 24.6748L800.503 26.998L797.001 28.4775L800.503 26.999L801.104 28.2021L802.268 30.5264L797.001 32.75L790.167 29.8652L783.339 32.75L776.518 29.8652L769.696 32.75L762.873 29.8652L756.05 32.75L750.793 30.5273L751.955 28.2041L752.557 27L753.718 24.6758L754.319 23.4736L754.925 22.2617H798.135L799.341 24.6738Z" fill="#A7C4FF"/>
<path d="M780.766 42.4531H772.295V56.0535H780.766V42.4531Z" fill="#98B6F2"/>
<path d="M761.287 38.4639H756.623V43.1282H761.287V38.4639Z" fill="#98B6F2"/>
<path d="M768.928 38.4639H764.264V43.1282H768.928V38.4639Z" fill="#98B6F2"/>
<path d="M788.795 38.4639H784.131V43.1282H788.795V38.4639Z" fill="#98B6F2"/>
<path d="M796.436 38.4639H791.771V43.1282H796.436V38.4639Z" fill="#98B6F2"/>
</g>
<g clip-path="url(#clip17_1031_3621)">
<path d="M840.39 12.2344L837.771 14.0654L836.347 15.0615L833.728 16.8926L832.303 17.8877L829.684 19.7188L828.26 20.7139L825.641 22.5449L824.216 23.541L821.597 25.3711L820.173 26.3672L818.156 27.7764L820.173 31.1777L820.518 31.7598L821.597 31.0059L824.216 29.1748L825.641 28.1787L828.26 26.3477L829.684 25.3525L832.303 23.5215L833.728 22.5254L836.347 20.6953L837.771 19.7002L840.39 17.8691L840.98 17.4561L841.032 17.4912L825.168 28.5811V56.0518H857V28.6523L857.987 29.3438L860.606 31.1748L861.444 31.7598L862.03 30.8994L864.047 27.9453L862.03 26.5361L860.606 25.541L857.987 23.71L856.563 22.7139L853.943 20.8828L852.521 19.8877L849.9 18.0576L848.477 17.0615L845.857 15.2305L844.434 14.2354L841.814 12.4043L840.98 11.8223L840.39 12.2344Z" fill="#A7C4FF"/>
<path d="M831.178 30.2158H836.627V35.6649H831.178V30.2158Z" fill="#98B6F2"/>
<path d="M846.011 30.2158H851.46V35.6649H846.011V30.2158Z" fill="#98B6F2"/>
<path d="M841.084 38.7812C838.127 38.7812 835.727 41.1817 835.727 44.138V56.0526H846.44V44.138C846.44 41.1817 844.04 38.7812 841.084 38.7812Z" fill="#98B6F2"/>
<path d="M805.637 37.2285H825.168V56.0528H805.637V37.2285Z" fill="#A7C4FF"/>
<path d="M808.622 45.2754H822.182V56.0525H808.622V45.2754Z" fill="#98B6F2"/>
</g>
<g clip-path="url(#clip18_1031_3621)">
<path d="M888.126 33.3496H878.57V56.0526H888.126V33.3496Z" fill="#98B6F2"/>
<path d="M883.348 43.5809C872.729 43.5809 866.047 33.8717 866.047 21.8964C866.047 9.92113 872.729 0.211914 883.348 0.211914C893.967 0.211914 900.649 9.92005 900.649 21.8964C900.649 33.8728 893.967 43.5809 883.348 43.5809Z" fill="#A7C4FF"/>
</g>
<g clip-path="url(#clip19_1031_3621)">
<path d="M922.445 56.1048H950.111V17.7151L922.445 11.6934V56.1048Z" fill="#A7C4FF"/>
<path d="M904.252 33.8994H936.595V56.1051H904.252V33.8994Z" fill="#A7C4FF"/>
<path d="M919.566 28.6992H920.532V33.9957H919.566V28.6992Z" fill="#98B6F2"/>
<path d="M915.736 28.6992H916.702V33.9957H915.736V28.6992Z" fill="#98B6F2"/>
<path d="M911.909 28.6992H912.875V33.9957H911.909V28.6992Z" fill="#98B6F2"/>
<path d="M908.081 28.6992H909.047V33.9957H908.081V28.6992Z" fill="#98B6F2"/>
<path d="M904.253 28.6992H905.219V33.9957H904.253V28.6992Z" fill="#98B6F2"/>
<path d="M904.251 29.6675V28.6992H922.444V29.6675H904.251Z" fill="#98B6F2"/>
<path d="M936.595 55.1395V42.5884C936.595 40.4556 938.324 38.7266 940.456 38.7266C942.589 38.7266 944.318 40.4556 944.318 42.5884V55.1395H936.595Z" fill="#98B6F2"/>
<path d="M926.965 19.166H930.077C930.343 19.166 930.56 19.3821 930.56 19.6487V22.7692C930.56 23.0358 930.343 23.2519 930.077 23.2519H926.965C926.699 23.2519 926.482 23.0358 926.482 22.7692V19.6487C926.482 19.3821 926.699 19.166 926.965 19.166Z" fill="#98B6F2"/>
<path d="M926.965 28.6992H930.077C930.343 28.6992 930.56 28.9153 930.56 29.182V32.3024C930.56 32.569 930.343 32.7851 930.077 32.7851H926.965C926.699 32.7851 926.482 32.569 926.482 32.3024V29.182C926.482 28.9153 926.699 28.6992 926.965 28.6992Z" fill="#98B6F2"/>
<path d="M937.193 28.6992H940.304C940.571 28.6992 940.787 28.9153 940.787 29.182V32.3024C940.787 32.569 940.571 32.7851 940.304 32.7851H937.193C936.926 32.7851 936.71 32.569 936.71 32.3024V29.182C936.71 28.9153 936.926 28.6992 937.193 28.6992Z" fill="#98B6F2"/>
<path d="M937.193 19.166H940.304C940.571 19.166 940.787 19.3821 940.787 19.6487V22.7692C940.787 23.0358 940.571 23.2519 940.304 23.2519H937.193C936.926 23.2519 936.71 23.0358 936.71 22.7692V19.6487C936.71 19.3821 936.926 19.166 937.193 19.166Z" fill="#98B6F2"/>
<path d="M926.965 38.2334H930.077C930.343 38.2334 930.56 38.4495 930.56 38.7161V41.8365C930.56 42.1032 930.343 42.3193 930.077 42.3193H926.965C926.699 42.3193 926.482 42.1032 926.482 41.8365V38.7161C926.482 38.4495 926.699 38.2334 926.965 38.2334Z" fill="#98B6F2"/>
<path d="M917.186 38.2334H920.298C920.564 38.2334 920.78 38.4495 920.78 38.7161V41.8365C920.78 42.1032 920.564 42.3193 920.298 42.3193H917.186C916.919 42.3193 916.703 42.1032 916.703 41.8365V38.7161C916.703 38.4495 916.919 38.2334 917.186 38.2334Z" fill="#98B6F2"/>
<path d="M907.407 38.2334H910.518C910.785 38.2334 911.001 38.4495 911.001 38.7161V41.8365C911.001 42.1032 910.785 42.3193 910.518 42.3193H907.407C907.14 42.3193 906.924 42.1032 906.924 41.8365V38.7161C906.924 38.4495 907.14 38.2334 907.407 38.2334Z" fill="#98B6F2"/>
</g>
<g clip-path="url(#clip20_1031_3621)">
<path d="M958.376 26.3278L972.815 16.2578L987.253 26.3278V56.021H958.376V26.3278Z" fill="#A7C4FF"/>
<path d="M967.568 28.6123H965.038C964.821 28.6123 964.646 28.788 964.646 29.0048V31.542C964.646 31.7587 964.821 31.9345 965.038 31.9345H967.568C967.785 31.9345 967.961 31.7587 967.961 31.542V29.0048C967.961 28.788 967.785 28.6123 967.568 28.6123Z" fill="#98B6F2"/>
<path d="M981.023 28.6123H978.493C978.276 28.6123 978.101 28.788 978.101 29.0048V31.542C978.101 31.7587 978.276 31.9345 978.493 31.9345H981.023C981.24 31.9345 981.416 31.7587 981.416 31.542V29.0048C981.416 28.788 981.24 28.6123 981.023 28.6123Z" fill="#98B6F2"/>
<path d="M972.816 35.5596C970.135 35.5596 967.957 37.7324 967.957 40.4082V51.1927H977.676V40.4082C977.676 37.7324 975.498 35.5596 972.816 35.5596Z" fill="#98B6F2"/>
<path d="M956.557 25.8768L972.207 15.1891C972.473 15.0067 972.825 15.0067 973.092 15.1891L988.742 25.8768" stroke="#A7C4FF" stroke-width="3.92502" stroke-linecap="round"/>
</g>
<g clip-path="url(#clip21_1031_3621)">
<path d="M1016.05 35.9414H1007.59V56.0527H1016.05V35.9414Z" fill="#98B6F2"/>
<path d="M995.647 31.7157C995.647 23.7968 1002.89 18.8125 1011.82 18.8125C1020.75 18.8125 1027.99 23.7958 1027.99 31.7157C1027.99 39.6355 1020.75 44.6189 1011.82 44.6189C1002.89 44.6189 995.647 39.6346 995.647 31.7157Z" fill="#A7C4FF"/>
<path d="M995.647 12.9032C995.647 4.98333 1002.89 0 1011.82 0C1020.75 0 1027.99 4.98333 1027.99 12.9032C1027.99 20.823 1020.75 25.8064 1011.82 25.8064C1002.89 25.8064 995.647 20.8221 995.647 12.9032Z" fill="#A7C4FF"/>
<path d="M1005.6 11.6503C1006.89 11.6503 1007.93 10.6051 1007.93 9.31585C1007.93 8.02659 1006.89 6.98145 1005.6 6.98145C1004.31 6.98145 1003.26 8.02659 1003.26 9.31585C1003.26 10.6051 1004.31 11.6503 1005.6 11.6503Z" fill="#98B6F2"/>
<path d="M1018.93 15.2372C1020.22 15.2372 1021.26 14.192 1021.26 12.9028C1021.26 11.6135 1020.22 10.5684 1018.93 10.5684C1017.64 10.5684 1016.59 11.6135 1016.59 12.9028C1016.59 14.192 1017.64 15.2372 1018.93 15.2372Z" fill="#98B6F2"/>
<path d="M1005.6 34.0506C1006.89 34.0506 1007.93 33.0055 1007.93 31.7162C1007.93 30.427 1006.89 29.3818 1005.6 29.3818C1004.31 29.3818 1003.26 30.427 1003.26 31.7162C1003.26 33.0055 1004.31 34.0506 1005.6 34.0506Z" fill="#98B6F2"/>
<path d="M1013.14 23.4813C1014.43 23.4813 1015.48 22.4362 1015.48 21.1469C1015.48 19.8576 1014.43 18.8125 1013.14 18.8125C1011.85 18.8125 1010.81 19.8576 1010.81 21.1469C1010.81 22.4362 1011.85 23.4813 1013.14 23.4813Z" fill="#98B6F2"/>
<path d="M1016.59 40.6102C1017.88 40.6102 1018.93 39.5651 1018.93 38.2758C1018.93 36.9866 1017.88 35.9414 1016.59 35.9414C1015.3 35.9414 1014.26 36.9866 1014.26 38.2758C1014.26 39.5651 1015.3 40.6102 1016.59 40.6102Z" fill="#98B6F2"/>
</g>
<g clip-path="url(#clip22_1031_3621)">
<path d="M1085.52 26.3896H1083.24V56.1064H1034.21V26.3896H1031.93V23.9307H1085.52V26.3896ZM1047.38 13.4512L1048.67 12.6445L1050.51 11.4873L1053.63 9.53418H1063.82L1066.94 11.4873L1068.78 12.6445L1071.89 14.5977L1073.74 15.7559L1076.85 17.709L1078.7 18.8662L1081.81 20.8193H1047.38V20.8203H1081.81L1083.65 21.9766H1083.66L1085.52 23.1445V23.9297H1031.93V23.1445L1033.79 21.9766H1033.8L1035.64 20.8203H1039.24V20.8193H1035.64L1038.75 18.8662L1039.24 18.5605V9.19141H1047.38V13.4512ZM1061.98 8.37598L1063.82 9.5332H1053.63L1055.47 8.37598L1058.73 6.33398L1061.98 8.37598Z" fill="#A7C4FF"/>
<path d="M1064.61 56.1063V42.7172C1064.61 39.468 1061.97 36.834 1058.72 36.834C1055.48 36.834 1052.84 39.468 1052.84 42.7172V56.1063H1064.61Z" fill="#E3A982"/>
<path d="M1064.61 56.1063V42.7172C1064.61 39.468 1061.97 36.834 1058.72 36.834C1055.48 36.834 1052.84 39.468 1052.84 42.7172V56.1063H1064.61Z" fill="#98B6F2"/>
<path d="M1043.55 29.0723C1045.7 29.0723 1047.44 30.8162 1047.44 32.9647V38.4458H1039.66V32.9647C1039.66 30.8162 1041.4 29.0723 1043.55 29.0723Z" fill="#FFFFF6"/>
<path d="M1043.55 29.0723C1045.7 29.0723 1047.44 30.8162 1047.44 32.9647V38.4458H1039.66V32.9647C1039.66 30.8162 1041.4 29.0723 1043.55 29.0723Z" fill="#98B6F2"/>
<path d="M1073.34 29.0723C1075.48 29.0723 1077.23 30.8162 1077.23 32.9647V38.4458H1069.44V32.9647C1069.44 30.8162 1071.19 29.0723 1073.34 29.0723Z" fill="#FFFFF6"/>
<path d="M1073.34 29.0723C1075.48 29.0723 1077.23 30.8162 1077.23 32.9647V38.4458H1069.44V32.9647C1069.44 30.8162 1071.19 29.0723 1073.34 29.0723Z" fill="#98B6F2"/>
</g>
<g clip-path="url(#clip23_1031_3621)">
<path d="M1111.65 12.2344L1114.27 14.0654L1115.69 15.0615L1118.31 16.8926L1119.73 17.8877L1122.35 19.7188L1123.78 20.7139L1126.4 22.5449L1127.82 23.541L1130.44 25.3711L1131.86 26.3672L1133.88 27.7764L1131.86 31.1777L1131.52 31.7598L1130.44 31.0059L1127.82 29.1748L1126.4 28.1787L1123.78 26.3477L1122.35 25.3525L1119.73 23.5215L1118.31 22.5254L1115.69 20.6953L1114.27 19.7002L1111.65 17.8691L1111.06 17.4561L1111 17.4912L1126.87 28.5811V56.0518H1095.04V28.6523L1094.05 29.3438L1091.43 31.1748L1090.59 31.7598L1090.01 30.8994L1087.99 27.9453L1090.01 26.5361L1091.43 25.541L1094.05 23.71L1095.47 22.7139L1098.09 20.8828L1099.52 19.8877L1102.14 18.0576L1103.56 17.0615L1106.18 15.2305L1107.6 14.2354L1110.22 12.4043L1111.06 11.8223L1111.65 12.2344Z" fill="#A7C4FF"/>
<path d="M1120.86 30.2158H1115.41V35.6649H1120.86V30.2158Z" fill="#98B6F2"/>
<path d="M1106.03 30.2158H1100.58V35.6649H1106.03V30.2158Z" fill="#98B6F2"/>
<path d="M1110.95 38.7812C1113.91 38.7812 1116.31 41.1817 1116.31 44.138V56.0526H1105.6V44.138C1105.6 41.1817 1108 38.7812 1110.95 38.7812Z" fill="#98B6F2"/>
<path d="M1146.4 37.2285H1126.87V56.0528H1146.4V37.2285Z" fill="#A7C4FF"/>
<path d="M1143.42 45.2754H1129.86V56.0525H1143.42V45.2754Z" fill="#98B6F2"/>
</g>
<g clip-path="url(#clip24_1031_3621)">
<path d="M1195.98 32.751L1201.24 30.5273L1201.85 31.7295L1202.61 33.2646H1198.97V56.0088H1152.04V33.2646H1148.4L1149.17 31.7305L1149.77 30.5283L1155.03 32.751L1161.85 29.8662L1168.67 32.751L1175.49 29.8662L1182.32 32.751L1189.14 29.8662L1195.98 32.751ZM1198.32 24.6738L1198.32 24.6748L1199.48 26.998L1195.98 28.4775L1199.48 26.999L1200.08 28.2021L1201.24 30.5264L1195.98 32.75L1189.14 29.8652L1182.32 32.75L1175.49 29.8652L1168.67 32.75L1161.85 29.8652L1155.03 32.75L1149.77 30.5273L1150.93 28.2041L1151.53 27L1152.69 24.6758L1153.3 23.4736L1153.9 22.2617H1197.11L1198.32 24.6738Z" fill="#A7C4FF"/>
<path d="M1179.74 42.4531H1171.27V56.0535H1179.74V42.4531Z" fill="#98B6F2"/>
<path d="M1160.26 38.4639H1155.6V43.1282H1160.26V38.4639Z" fill="#98B6F2"/>
<path d="M1167.9 38.4639H1163.24V43.1282H1167.9V38.4639Z" fill="#98B6F2"/>
<path d="M1187.77 38.4639H1183.11V43.1282H1187.77V38.4639Z" fill="#98B6F2"/>
<path d="M1195.41 38.4639H1190.75V43.1282H1195.41V38.4639Z" fill="#98B6F2"/>
</g>
<g clip-path="url(#clip25_1031_3621)">
<path d="M1225.02 35.9414H1216.55V56.0527H1225.02V35.9414Z" fill="#98B6F2"/>
<path d="M1204.61 31.7157C1204.61 23.7968 1211.85 18.8125 1220.78 18.8125C1229.72 18.8125 1236.96 23.7958 1236.96 31.7157C1236.96 39.6355 1229.72 44.6189 1220.78 44.6189C1211.85 44.6189 1204.61 39.6346 1204.61 31.7157Z" fill="#A7C4FF"/>
<path d="M1204.61 12.9032C1204.61 4.98333 1211.85 0 1220.78 0C1229.72 0 1236.96 4.98333 1236.96 12.9032C1236.96 20.823 1229.72 25.8064 1220.78 25.8064C1211.85 25.8064 1204.61 20.8221 1204.61 12.9032Z" fill="#A7C4FF"/>
<path d="M1214.56 11.6503C1215.85 11.6503 1216.9 10.6051 1216.9 9.31585C1216.9 8.02659 1215.85 6.98145 1214.56 6.98145C1213.27 6.98145 1212.23 8.02659 1212.23 9.31585C1212.23 10.6051 1213.27 11.6503 1214.56 11.6503Z" fill="#98B6F2"/>
<path d="M1227.89 15.2372C1229.18 15.2372 1230.23 14.192 1230.23 12.9028C1230.23 11.6135 1229.18 10.5684 1227.89 10.5684C1226.61 10.5684 1225.56 11.6135 1225.56 12.9028C1225.56 14.192 1226.61 15.2372 1227.89 15.2372Z" fill="#98B6F2"/>
<path d="M1214.56 34.0506C1215.85 34.0506 1216.9 33.0055 1216.9 31.7162C1216.9 30.427 1215.85 29.3818 1214.56 29.3818C1213.27 29.3818 1212.23 30.427 1212.23 31.7162C1212.23 33.0055 1213.27 34.0506 1214.56 34.0506Z" fill="#98B6F2"/>
<path d="M1222.11 23.4813C1223.4 23.4813 1224.44 22.4362 1224.44 21.1469C1224.44 19.8576 1223.4 18.8125 1222.11 18.8125C1220.82 18.8125 1219.77 19.8576 1219.77 21.1469C1219.77 22.4362 1220.82 23.4813 1222.11 23.4813Z" fill="#98B6F2"/>
<path d="M1225.56 40.6102C1226.85 40.6102 1227.89 39.5651 1227.89 38.2758C1227.89 36.9866 1226.85 35.9414 1225.56 35.9414C1224.27 35.9414 1223.23 36.9866 1223.23 38.2758C1223.23 39.5651 1224.27 40.6102 1225.56 40.6102Z" fill="#98B6F2"/>
</g>
<defs>
<clipPath id="clip0_1031_3621">
<rect width="57" height="50" fill="white" transform="translate(0 6.05273)"/>
</clipPath>
<clipPath id="clip1_1031_3621">
<rect width="32.3431" height="56.0526" fill="white" transform="translate(59)"/>
</clipPath>
<clipPath id="clip2_1031_3621">
<rect width="34.6023" height="55.8405" fill="white" transform="translate(93.3428 0.211914)"/>
</clipPath>
<clipPath id="clip3_1031_3621">
<rect width="54.2126" height="33.7913" fill="white" transform="translate(129.945 22.2617)"/>
</clipPath>
<clipPath id="clip4_1031_3621">
<rect width="58.4106" height="44.2304" fill="white" transform="matrix(-1 0 0 1 244.568 11.8223)"/>
</clipPath>
<clipPath id="clip5_1031_3621">
<rect width="34.6023" height="55.8405" fill="white" transform="translate(246.568 0.211914)"/>
</clipPath>
<clipPath id="clip6_1031_3621">
<rect width="47" height="44" fill="white" transform="matrix(-1 0 0 1 330.171 12.0527)"/>
</clipPath>
<clipPath id="clip7_1031_3621">
<rect width="41.9977" height="44.8941" fill="white" transform="matrix(-1 0 0 1 374.169 11.1582)"/>
</clipPath>
<clipPath id="clip8_1031_3621">
<rect width="32.3431" height="56.0526" fill="white" transform="translate(376.169)"/>
</clipPath>
<clipPath id="clip9_1031_3621">
<rect width="56" height="50" fill="white" transform="translate(410.512 6.05273)"/>
</clipPath>
<clipPath id="clip10_1031_3621">
<rect width="58.4106" height="44.2304" fill="white" transform="translate(468.512 11.8223)"/>
</clipPath>
<clipPath id="clip11_1031_3621">
<rect width="54.2126" height="33.7913" fill="white" transform="translate(528.922 22.2617)"/>
</clipPath>
<clipPath id="clip12_1031_3621">
<rect width="32.3431" height="56.0526" fill="white" transform="translate(585.135)"/>
</clipPath>
<clipPath id="clip13_1031_3621">
<rect width="57" height="50" fill="white" transform="translate(619.479 6.05273)"/>
</clipPath>
<clipPath id="clip14_1031_3621">
<rect width="32.3431" height="56.0526" fill="white" transform="translate(678.479)"/>
</clipPath>
<clipPath id="clip15_1031_3621">
<rect width="34.6023" height="55.8405" fill="white" transform="translate(712.821 0.211914)"/>
</clipPath>
<clipPath id="clip16_1031_3621">
<rect width="54.2126" height="33.7913" fill="white" transform="translate(749.424 22.2617)"/>
</clipPath>
<clipPath id="clip17_1031_3621">
<rect width="58.4106" height="44.2304" fill="white" transform="matrix(-1 0 0 1 864.047 11.8223)"/>
</clipPath>
<clipPath id="clip18_1031_3621">
<rect width="34.6023" height="55.8405" fill="white" transform="translate(866.047 0.211914)"/>
</clipPath>
<clipPath id="clip19_1031_3621">
<rect width="47" height="44" fill="white" transform="matrix(-1 0 0 1 949.649 12.0527)"/>
</clipPath>
<clipPath id="clip20_1031_3621">
<rect width="41.9977" height="44.8941" fill="white" transform="matrix(-1 0 0 1 993.647 11.1582)"/>
</clipPath>
<clipPath id="clip21_1031_3621">
<rect width="32.3431" height="56.0526" fill="white" transform="translate(995.647)"/>
</clipPath>
<clipPath id="clip22_1031_3621">
<rect width="56" height="50" fill="white" transform="translate(1029.99 6.05273)"/>
</clipPath>
<clipPath id="clip23_1031_3621">
<rect width="58.4106" height="44.2304" fill="white" transform="translate(1087.99 11.8223)"/>
</clipPath>
<clipPath id="clip24_1031_3621">
<rect width="54.2126" height="33.7913" fill="white" transform="translate(1148.4 22.2617)"/>
</clipPath>
<clipPath id="clip25_1031_3621">
<rect width="32.3431" height="56.0526" fill="white" transform="translate(1204.61)"/>
</clipPath>
</defs>
</svg>
