<svg xmlns="http://www.w3.org/2000/svg" version="1.1" xmlns:xlink="http://www.w3.org/1999/xlink" width="32" height="32"><svg width="32" height="32" viewBox="0 0 32 32" fill="none" xmlns="http://www.w3.org/2000/svg">
<g clip-path="url(#clip0_637_2295)">
<path fill-rule="evenodd" clip-rule="evenodd" d="M3.19949 0H28.7995C30.4256 0 31.7793 1.23003 31.9747 2.80528C31.9747 2.81236 31.9767 6.94182 31.9777 6.94891C3.37567 7.08861 5.68011 29.6068 6.02031 31.9939C6.02234 32.0071 6.5701 31.9939 6.55592 31.9939H3.37263L3.19949 31.9949C1.43977 31.9949 0 30.5553 0 28.7958V3.19909C0 1.43959 1.43977 0 3.19949 0ZM32 9.9273C16.3255 10.3981 18.9692 24.9559 19.9928 31.9959H28.8005C30.5602 31.9959 32 30.5564 32 28.7969V9.9273Z" fill="#0DA380"></path>
</g>
<defs>
<clipPath id="SvgjsClipPath1011">
<rect width="32" height="32" fill="white"></rect>
</clipPath>
</defs>
</svg><style>@media (prefers-color-scheme: light) { :root { filter: none; } }
@media (prefers-color-scheme: dark) { :root { filter: none; } }
</style></svg>