<svg width="446" height="264" viewBox="0 0 446 264" fill="none" xmlns="http://www.w3.org/2000/svg">
<rect y="0.5" width="446" height="263" rx="20" fill="white"/>
<path d="M27.5938 25.2187C30.8516 25.1953 33.2188 27.0469 33.2188 29.7422C33.2188 32.4141 30.8516 34.2891 27.5938 34.2656C24.3359 34.2891 21.9688 32.4141 21.9922 29.7422C21.9688 27.0469 24.3359 25.1953 27.5938 25.2187ZM27.5938 27.6094C26 27.6094 24.875 28.3828 24.875 29.7422C24.875 31.0781 26 31.8516 27.5938 31.8281C29.2344 31.8516 30.3828 31.0781 30.3828 29.7422C30.3828 28.3828 29.2344 27.6094 27.5938 27.6094ZM38.6094 24.3516V45.6563H35.6563V24.3516H38.6094ZM20.6797 35.5781C24.4531 35.5781 29.8203 35.4844 34.3672 34.8047L34.5547 37.0078C32.7969 37.3594 30.9922 37.582 29.2109 37.7109V45.0234H26.2344V37.8984C24.3594 37.9805 22.5898 37.9922 21.0547 38.0156L20.6797 35.5781ZM58.8716 24.3281V37.2187H55.895V33.0234H53.1294V30.5859H55.895V24.3281H58.8716ZM58.8716 38.1328V45.4219H44.5278V38.1328H58.8716ZM47.5278 40.4766V43.0312H55.9419V40.4766H47.5278ZM53.5044 26.1797V28.5703H40.9419V26.1797H45.77V24.1406H48.7231V26.1797H53.5044ZM47.2466 29.2734C50.2466 29.2734 52.3559 30.8672 52.3559 33.0937C52.3559 35.4141 50.2466 36.9609 47.2466 36.9609C44.27 36.9609 42.1138 35.4141 42.1138 33.0937C42.1138 30.8672 44.27 29.2734 47.2466 29.2734ZM47.2466 31.5234C45.8638 31.5234 44.9731 32.0859 44.9966 33.0937C44.9731 34.1719 45.8638 34.7578 47.2466 34.7578C48.6059 34.7578 49.4966 34.1719 49.4966 33.0937C49.4966 32.0859 48.6059 31.5234 47.2466 31.5234ZM69.2197 27.2344C69.1963 30.0937 70.6728 32.7187 74.0947 33.7734L72.5244 36.1172C70.2275 35.3203 68.6689 33.8437 67.79 31.9219C66.8291 34.1484 65.1064 35.9062 62.54 36.7734L60.9697 34.3828C64.6259 33.2109 66.1728 30.3516 66.1963 27.375V25.4297H69.2197V27.2344ZM79.1338 24.3281V36.8203H76.1572V30.6797H72.1494V28.2422H76.1572V24.3281H79.1338ZM71.8447 37.3828C76.3916 37.3828 79.1806 38.9062 79.2041 41.5312C79.1806 44.1563 76.3916 45.6563 71.8447 45.6563C67.2978 45.6563 64.5088 44.1563 64.5088 41.5312C64.5088 38.9062 67.2978 37.3828 71.8447 37.3828ZM71.8447 39.7031C69.0088 39.7031 67.4853 40.3125 67.4853 41.5312C67.4853 42.7031 69.0088 43.3359 71.8447 43.3359C74.6806 43.3359 76.2275 42.7031 76.2275 41.5312C76.2275 40.3125 74.6806 39.7031 71.8447 39.7031ZM93.3256 25.7344V28.125H91.5678V33.8203C92.2827 33.7617 92.9858 33.6914 93.6538 33.6094L93.7709 35.8125C89.7631 36.4922 85.0991 36.5625 81.7241 36.5625L81.4194 34.1484L83.6928 34.125V28.125H81.9584V25.7344H93.3256ZM99.3959 24.3281V37.3594H96.4194V34.1719H93.7944V31.7812H96.4194V30.1406H93.7944V27.7969H96.4194V24.3281H99.3959ZM92.1069 37.6875C96.7006 37.7109 99.4428 39.1406 99.4663 41.6953C99.4428 44.1797 96.7006 45.6563 92.1069 45.6563C87.5366 45.6563 84.7709 44.1797 84.7709 41.6953C84.7709 39.1406 87.5366 37.7109 92.1069 37.6875ZM92.1069 39.9844C89.2475 39.9844 87.7475 40.5234 87.7475 41.6953C87.7475 42.8203 89.2475 43.3828 92.1069 43.3828C94.9663 43.3828 96.4897 42.8203 96.4897 41.6953C96.4897 40.5234 94.9663 39.9844 92.1069 39.9844ZM86.5756 34.0547L88.7084 33.9844V28.125H86.5756V34.0547ZM118.51 24.3281V32.5078H121.533V34.9687H118.51V45.6094H115.51V24.3281H118.51ZM112.814 26.5078C112.791 32.8828 110.307 38.4141 103.135 41.9297L101.447 39.6328C106.498 37.1016 109.205 33.7031 109.768 28.9453H102.666V26.5078H112.814ZM147.901 40.7578V43.1719H128.378V40.7578H136.628V36H139.628V40.7578H147.901ZM146.19 25.9453V28.3594H139.698C139.944 31.1719 142.593 33.7852 147.175 34.4531L146.003 36.8203C142.265 36.1641 139.499 34.3359 138.128 31.8047C136.768 34.3828 134.026 36.2578 130.347 36.9375L129.175 34.5703C133.604 33.8555 136.265 31.1836 136.511 28.3594H129.995V25.9453H146.19ZM166.476 24.3281V45.6563H163.476V24.3281H166.476ZM156.984 31.0078C156.984 34.1016 158.742 37.5937 162.281 39.0469L160.663 41.3437C158.238 40.3477 156.503 38.3086 155.531 35.8594C154.581 38.4609 152.835 40.6406 150.351 41.6719L148.757 39.375C152.273 37.8516 154.007 34.2656 154.007 31.0078V30.1875H149.46V27.7969H153.984V24.7969H156.96V27.7969H161.413V30.1875H156.984V31.0078ZM174.785 25.8281C176.695 25.8281 178.289 26.8828 179.262 28.7109H183.949V24.3281H186.902V45.7031H183.949V37.7109H179.496C178.535 39.8203 176.848 41.0391 174.785 41.0391C171.551 41.0391 169.23 38.1094 169.254 33.4219C169.23 28.7812 171.551 25.8281 174.785 25.8281ZM174.785 28.5234C173.191 28.5234 172.09 30.2578 172.113 33.4219C172.09 36.6094 173.191 38.3203 174.785 38.3203C176.402 38.3203 177.457 36.6094 177.457 33.4219C177.457 30.2578 176.402 28.5234 174.785 28.5234ZM180.105 31.125C180.234 31.8281 180.316 32.6016 180.316 33.4219C180.316 34.0898 180.258 34.7227 180.176 35.3203H183.949V31.125H180.105ZM208.664 36.6328V38.9766H200.321V45.6563H197.368V38.9766H189.141V36.6328H208.664ZM194.391 25.1484V27.6094H203.344V25.1484H206.344V34.5703H191.438V25.1484H194.391ZM194.391 32.1797H203.344V29.9531H194.391V32.1797Z" fill="#515E67"/>
<path d="M30 68H416C421.247 68 425.5 72.2533 425.5 77.5V173H20.5V77.5L20.5127 77.0107C20.7591 72.1535 24.6535 68.2591 29.5107 68.0127L30 68Z" stroke="#E6E6E6"/>
<path d="M51.3652 96.2676V97.2559C51.3438 98.7598 51.3438 101.295 50.8066 104.84L49.1094 104.689C49.625 101.488 49.668 99.168 49.668 97.6426H41.6543V96.2676H51.3652ZM46.3594 101.725V107.525C48.4756 107.45 50.6455 107.311 52.6328 107.074L52.7188 108.342C48.7012 108.965 44.2109 109.051 40.7949 109.029L40.5801 107.633C41.8369 107.622 43.2334 107.611 44.7051 107.568V101.725H46.3594ZM55.5117 94.1406V102.133H58.6055V103.594H55.5117V113.24H53.8359V94.1406H55.5117ZM73.8929 103.1V104.475H67.9847V109.416H75.9554V110.834H58.4671V109.416H66.3304V104.475H60.7015V95.709H73.6995V97.084H62.3988V103.1H73.8929ZM91.0924 94.1621V100.457H93.9713V101.875H91.0924V108.471H89.4166V94.1621H91.0924ZM87.5905 96.5039V97.8789H76.2038V96.5039H81.0592V94.1621H82.735V96.5039H87.5905ZM81.8971 98.9316C84.6256 98.9316 86.4733 100.328 86.4948 102.498C86.4733 104.646 84.6256 106.021 81.8971 106.021C79.1471 106.021 77.278 104.646 77.2995 102.498C77.278 100.328 79.1471 98.9316 81.8971 98.9316ZM81.8971 100.264C80.0924 100.264 78.8893 101.145 78.9108 102.498C78.8893 103.852 80.0924 104.711 81.8971 104.689C83.6803 104.711 84.8834 103.852 84.9049 102.498C84.8834 101.145 83.6803 100.264 81.8971 100.264ZM91.9733 111.414V112.832H79.1471V107.332H80.8014V111.414H91.9733ZM114.642 94.1406V105.721H112.966V94.1406H114.642ZM114.642 106.752V112.982H102.224V106.752H114.642ZM103.878 108.105V111.607H112.988V108.105H103.878ZM110.861 96.2031V97.5781H99.1516V96.2031H104.158V93.9902H105.855V96.2031H110.861ZM105.017 98.5234C107.831 98.5234 109.7 99.8555 109.7 101.918C109.7 104.002 107.831 105.334 105.017 105.334C102.181 105.334 100.312 104.002 100.333 101.918C100.312 99.8555 102.181 98.5234 105.017 98.5234ZM105.017 99.8125C103.148 99.8125 101.923 100.65 101.945 101.918C101.923 103.229 103.148 104.023 105.017 104.045C106.865 104.023 108.089 103.229 108.089 101.918C108.089 100.65 106.865 99.8125 105.017 99.8125ZM122.818 95.5371C125.826 95.5371 127.953 97.3633 127.953 100.027C127.953 102.691 125.826 104.518 122.818 104.518C119.81 104.518 117.64 102.691 117.662 100.027C117.64 97.3633 119.81 95.5371 122.818 95.5371ZM122.818 97.0195C120.777 97.0195 119.295 98.2441 119.316 100.027C119.295 101.811 120.777 103.035 122.818 103.035C124.838 103.035 126.298 101.811 126.298 100.027C126.298 98.2441 124.838 97.0195 122.818 97.0195ZM132.228 94.1406V113.283H130.552V94.1406H132.228ZM116.673 107.633C120.197 107.633 125.052 107.611 129.285 106.988L129.414 108.234C125.052 109.051 120.347 109.072 116.91 109.072L116.673 107.633ZM145.68 99.2754C145.68 102.648 147.914 106.107 150.621 107.439L149.59 108.793C147.485 107.687 145.723 105.431 144.885 102.777C144.026 105.603 142.221 108.009 140.073 109.158L138.998 107.805C141.791 106.43 144.004 102.756 144.026 99.2754V95.7949H145.68V99.2754ZM154.059 94.1406V101.896H157.26V103.357H154.059V113.24H152.383V94.1406H154.059ZM174.374 103.594V104.99H156.971V103.594H161.29V100.908C159.764 100.317 158.905 99.3398 158.905 98.0508C158.905 95.7949 161.483 94.5059 165.672 94.5059C169.819 94.5059 172.419 95.7949 172.419 98.0508C172.419 99.3291 171.57 100.307 170.055 100.887V103.594H174.374ZM165.672 106.451C169.776 106.451 172.225 107.633 172.247 109.824C172.225 111.994 169.776 113.197 165.672 113.197C161.526 113.197 159.077 111.994 159.077 109.824C159.077 107.633 161.526 106.451 165.672 106.451ZM165.672 107.74C162.6 107.762 160.774 108.514 160.795 109.824C160.774 111.113 162.6 111.887 165.672 111.887C168.702 111.887 170.549 111.113 170.549 109.824C170.549 108.514 168.702 107.762 165.672 107.74ZM165.672 95.8379C162.557 95.8379 160.624 96.6758 160.645 98.0508C160.624 99.4473 162.557 100.264 165.672 100.264C168.766 100.264 170.7 99.4473 170.7 98.0508C170.7 96.6758 168.766 95.8379 165.672 95.8379ZM162.965 103.594H168.379V101.359C167.574 101.499 166.671 101.574 165.672 101.574C164.673 101.574 163.771 101.499 162.965 101.359V103.594ZM183.366 95.3867C187.362 95.3867 190.349 97.4707 190.349 100.629C190.349 103.809 187.362 105.893 183.366 105.871C179.37 105.893 176.384 103.809 176.384 100.629C176.384 97.4707 179.37 95.3867 183.366 95.3867ZM183.366 96.7617C180.294 96.7402 177.974 98.3516 177.995 100.629C177.974 102.949 180.294 104.496 183.366 104.496C186.417 104.496 188.716 102.949 188.716 100.629C188.716 98.3516 186.417 96.7402 183.366 96.7617ZM192.153 109.287V110.705H174.665V109.287H192.153ZM209.847 109.459V110.877H192.359V109.459H200.222V105.85H194.55V99.9629H205.98V96.9551H194.507V95.5586H207.634V101.338H196.226V104.453H208.085V105.85H201.876V109.459H209.847ZM225.822 94.1621V108.127H224.146V94.1621H225.822ZM226.423 111.414V112.832H213.49V106.709H215.166V111.414H226.423ZM215.509 95.4941C218.367 95.4941 220.515 97.4277 220.515 100.178C220.515 102.971 218.367 104.883 215.509 104.883C212.652 104.883 210.503 102.971 210.503 100.178C210.503 97.4277 212.652 95.4941 215.509 95.4941ZM215.509 96.9766C213.576 96.9766 212.136 98.3086 212.158 100.178C212.136 102.09 213.576 103.4 215.509 103.4C217.4 103.4 218.861 102.09 218.861 100.178C218.861 98.3086 217.4 96.9766 215.509 96.9766ZM242.678 94.1621V100.457H245.556V101.875H242.678V108.471H241.002V94.1621H242.678ZM239.176 96.5039V97.8789H227.789V96.5039H232.644V94.1621H234.32V96.5039H239.176ZM233.482 98.9316C236.211 98.9316 238.058 100.328 238.08 102.498C238.058 104.646 236.211 106.021 233.482 106.021C230.732 106.021 228.863 104.646 228.885 102.498C228.863 100.328 230.732 98.9316 233.482 98.9316ZM233.482 100.264C231.678 100.264 230.474 101.145 230.496 102.498C230.474 103.852 231.678 104.711 233.482 104.689C235.265 104.711 236.469 103.852 236.49 102.498C236.469 101.145 235.265 100.264 233.482 100.264ZM243.558 111.414V112.832H230.732V107.332H232.387V111.414H243.558ZM265.647 95.3008V96.7832C265.647 98.3838 265.647 100.328 265.153 102.928H267.946V104.346H250.458V102.928H263.456C263.971 100.285 263.971 98.416 263.971 96.7832V96.6758H252.67V95.3008H265.647ZM266.227 111.393V112.811H252.778V106.494H254.454V111.393H266.227ZM283.341 94.9355V96.1602C283.341 97.4062 283.341 98.8672 282.975 100.715L281.3 100.543C281.654 98.792 281.665 97.4922 281.665 96.3105H270.235V94.9355H283.341ZM285.554 101.768V103.143H268.173V101.768H275.37V98.459H277.024V101.768H285.554ZM283.405 104.926V109.459H271.954V111.65H283.899V113.025H270.257V108.256H281.729V106.301H270.235V104.926H283.405ZM295.921 95.4512C295.921 96.1924 295.835 96.9014 295.685 97.5781H299.982V94.1621H301.679V105.549H299.982V103.014H294.911V101.617H299.982V98.9746H295.234C293.934 101.982 290.947 104.152 286.812 105.291L286.146 103.938C290.808 102.648 293.762 100.081 294.116 96.8262H287.112V95.4512H295.921ZM301.679 106.387V113.219H299.982V107.74H288.831V106.387H301.679ZM319.888 94.1406V113.24H318.277V94.1406H319.888ZM316.021 94.6562V112.273H314.41V105.656H310.865V104.26H314.41V100.865H311.187C310.252 104.099 308.158 106.956 304.548 109.115L303.517 107.891C307.674 105.431 309.758 101.982 310.091 97.9863H304.376V96.5898H311.767C311.767 97.5674 311.681 98.5342 311.509 99.4688H314.41V94.6562H316.021ZM336.98 94.1406V104.066H335.326V94.1406H336.98ZM337.002 104.99V109.545H326.281V111.672H337.689V113.025H324.627V108.277H335.326V106.322H324.584V104.99H337.002ZM328.107 96.8477C328.107 99.3398 330.148 101.51 333.027 102.369L332.189 103.68C329.933 102.971 328.139 101.456 327.291 99.4902C326.464 101.639 324.637 103.314 322.306 104.088L321.511 102.756C324.369 101.811 326.41 99.4688 326.41 96.8477V96.6328H321.941V95.2363H332.511V96.6328H328.107V96.8477ZM353.836 94.1406V100.844H356.693V102.262H353.836V109.094H352.139V94.1406H353.836ZM354.524 111.414V112.832H341.697V108.084H343.395V111.414H354.524ZM338.84 105.506C340.355 105.506 342.149 105.495 344.018 105.42V103.959C341.794 103.755 340.365 102.691 340.365 101.08C340.365 99.2324 342.149 98.1367 344.834 98.1367C347.541 98.1367 349.303 99.2324 349.324 101.08C349.303 102.681 347.906 103.744 345.693 103.959V105.334C347.487 105.248 349.292 105.076 350.957 104.818L351.108 106.021C347.004 106.795 342.385 106.859 339.033 106.881L338.84 105.506ZM350.377 96.0312V97.2988H339.313V96.0312H344.018V94.0977H345.693V96.0312H350.377ZM344.834 99.3398C343.072 99.3398 341.977 100.006 341.977 101.08C341.977 102.133 343.072 102.799 344.834 102.799C346.596 102.799 347.713 102.133 347.713 101.08C347.713 100.006 346.596 99.3398 344.834 99.3398ZM379.104 105.484V106.859H371.134V113.24H369.479V106.859H361.616V105.484H379.104ZM365.526 94.9355V97.5781H375.151V94.9355H376.848V103.164H363.85V94.9355H365.526ZM365.526 101.789H375.151V98.9531H365.526V101.789ZM394.263 94.1406V98.8242H397.142V100.242H394.263V104.99H392.587V94.1406H394.263ZM388.698 95.4512V96.8262H381.909V102.455C385.744 102.477 387.925 102.337 390.481 101.832L390.696 103.207C388.011 103.744 385.733 103.852 381.716 103.852H380.233V95.4512H388.698ZM394.263 105.979V112.982H382.21V105.979H394.263ZM383.864 107.354V111.607H392.587V107.354H383.864ZM58.2402 138.248V139.645H50.2695V146.24H48.6152V139.645H40.752V138.248H58.2402ZM55.9629 128.215V135.648H43.0078V128.215H55.9629ZM44.6621 129.59V134.316H54.2871V129.59H44.6621ZM74.2796 127.141V146.24H72.6038V136.229H68.0491V134.832H72.6038V127.141H74.2796ZM68.0921 129.225C68.0921 134.639 65.7933 139.451 59.4124 142.609L58.4886 141.256C63.6663 138.753 66.0618 135.079 66.3948 130.6H59.3265V129.225H68.0921ZM93.6276 136.852V138.248H85.8717V142.158H84.1745V138.248H76.1393V136.852H93.6276ZM91.6725 144.393V145.832H78.3952V140.246H80.0924V144.393H91.6725ZM84.862 127.635C88.944 127.656 91.5866 129.117 91.5866 131.48C91.5866 133.844 88.944 135.283 84.862 135.283C80.7799 135.283 78.1159 133.844 78.1159 131.48C78.1159 129.117 80.7799 127.656 84.862 127.635ZM84.862 129.01C81.8971 129.01 79.8991 129.955 79.9205 131.48C79.8991 132.963 81.8971 133.908 84.862 133.908C87.8268 133.908 89.8034 132.963 89.8034 131.48C89.8034 129.955 87.8268 129.01 84.862 129.01ZM108.39 133.93V136.658H116.275V138.055H98.8723V136.658H106.736V133.93H108.39ZM107.574 139.623C111.677 139.623 114.126 140.783 114.148 142.91C114.126 145.037 111.677 146.197 107.574 146.197C103.427 146.197 100.978 145.037 100.978 142.91C100.978 140.783 103.427 139.623 107.574 139.623ZM107.574 140.955C104.48 140.955 102.675 141.664 102.697 142.91C102.675 144.156 104.48 144.887 107.574 144.887C110.624 144.887 112.45 144.156 112.45 142.91C112.45 141.664 110.624 140.955 107.574 140.955ZM114.728 128.043V129.418H108.669C108.777 131.545 111.978 133.188 115.308 133.543L114.685 134.875C111.559 134.499 108.626 133.135 107.574 131.008C106.532 133.135 103.61 134.499 100.462 134.875L99.8391 133.543C103.169 133.188 106.349 131.566 106.478 129.418H100.462V128.043H114.728ZM134.398 130.148V131.566H131.498V134.166H134.398V135.605H131.498V138.721H129.822V127.162H131.498V130.148H134.398ZM126.041 128.344V133.5H119.08V136.164C122.474 136.164 124.934 136.046 127.91 135.541L128.082 136.959C125.009 137.475 122.453 137.582 118.908 137.582H117.425V132.168H124.386V129.74H117.382V128.344H126.041ZM125.375 139.279C129.263 139.279 131.67 140.568 131.67 142.76C131.67 144.951 129.263 146.197 125.375 146.197C121.421 146.197 119.037 144.951 119.037 142.76C119.037 140.568 121.421 139.279 125.375 139.279ZM125.375 140.611C122.453 140.611 120.67 141.406 120.691 142.76C120.67 144.092 122.453 144.887 125.375 144.887C128.275 144.887 130.037 144.092 130.037 142.76C130.037 141.406 128.275 140.611 125.375 140.611ZM150.588 127.141V146.24H148.976V127.141H150.588ZM146.721 127.613V145.252H145.131V135.412H141.908V134.037H145.131V127.613H146.721ZM139.867 132.598C139.867 135.906 141.35 139.193 143.992 140.719L142.961 141.965C141.081 140.837 139.749 138.774 139.094 136.336C138.395 138.968 137.01 141.213 135.098 142.416L134.023 141.148C136.687 139.559 138.234 136.078 138.234 132.598V130.793H134.56V129.396H143.369V130.793H139.867V132.598ZM174.374 136.723V138.119H156.971V136.723H164.835V134.66H159.292V127.656H160.967V129.805H170.42V127.656H172.096V134.66H166.51V136.723H174.374ZM165.672 139.537C169.776 139.537 172.225 140.74 172.247 142.867C172.225 145.016 169.776 146.197 165.672 146.197C161.526 146.197 159.077 145.016 159.077 142.867C159.077 140.74 161.526 139.537 165.672 139.537ZM165.672 140.848C162.6 140.848 160.795 141.578 160.795 142.867C160.795 144.156 162.6 144.887 165.672 144.887C168.702 144.887 170.528 144.156 170.528 142.867C170.528 141.578 168.702 140.848 165.672 140.848ZM160.967 133.328H170.42V131.137H160.967V133.328ZM192.132 138.721V140.117H184.182V146.24H182.528V140.117H174.643V138.721H192.132ZM190.155 135.369V136.744H176.985V128.043H189.94V129.418H178.661V131.652H189.489V133.006H178.661V135.369H190.155ZM207.806 132.941V134.295H194.722V127.85H196.398V132.941H207.806ZM209.825 136.895V138.27H192.337V136.895H209.825ZM207.913 144.371V145.768H194.614V140.225H196.29V144.371H207.913ZM215.951 144.5V143.104L221.021 137.496C222.74 135.584 223.578 134.51 223.599 133.049C223.578 131.438 222.332 130.406 220.699 130.406C218.959 130.406 217.863 131.566 217.863 133.328H216.015C216.015 130.6 218.056 128.73 220.764 128.73C223.471 128.73 225.383 130.643 225.404 133.049C225.383 134.768 224.631 136.121 221.988 138.979L218.594 142.652V142.781H225.662V144.5H215.951ZM242.195 127.162V141.127H240.52V127.162H242.195ZM242.797 144.414V145.832H229.863V139.709H231.539V144.414H242.797ZM231.883 128.494C234.74 128.494 236.889 130.428 236.889 133.178C236.889 135.971 234.74 137.883 231.883 137.883C229.026 137.883 226.877 135.971 226.877 133.178C226.877 130.428 229.026 128.494 231.883 128.494ZM231.883 129.977C229.949 129.977 228.51 131.309 228.531 133.178C228.51 135.09 229.949 136.4 231.883 136.4C233.774 136.4 235.235 135.09 235.235 133.178C235.235 131.309 233.774 129.977 231.883 129.977ZM250.78 128.945V142.932H254.153V144.5H245.301V142.932H248.846V130.965H248.76L245.301 133.264V131.287L248.846 128.945H250.78ZM272.964 142.373V143.791H255.475V142.373H263.36V137.732H265.057V142.373H272.964ZM265.057 130.771C265.057 133.822 268.839 136.443 272.126 136.98L271.438 138.312C268.516 137.743 265.433 135.885 264.22 133.221C262.984 135.896 259.912 137.797 257.044 138.398L256.335 137.045C259.557 136.486 263.317 133.822 263.317 130.771V130.299H256.915V128.881H271.46V130.299H265.057V130.771ZM284.654 130.686C284.654 133.221 286.523 135.541 289.359 136.529L288.499 137.84C286.319 137.066 284.654 135.498 283.837 133.521C283.021 135.691 281.27 137.378 279.025 138.205L278.122 136.895C280.98 135.885 282.978 133.414 282.999 130.686V129.869H278.638V128.494H288.951V129.869H284.654V130.686ZM293.119 127.141V132.189H295.997V133.629H293.119V138.656H291.443V127.141H293.119ZM293.119 139.666V146.24H291.443V141.041H280.615V139.666H293.119ZM301.144 128.043C303.712 128.021 305.656 129.515 306.021 131.717H310.017V127.141H311.715V137.389H310.017V133.113H306.043C305.699 135.369 303.733 136.873 301.144 136.873C298.244 136.873 296.181 135.068 296.181 132.447C296.181 129.848 298.244 128.021 301.144 128.043ZM301.144 129.482C299.189 129.461 297.793 130.686 297.793 132.447C297.793 134.188 299.189 135.455 301.144 135.455C303.078 135.455 304.453 134.188 304.453 132.447C304.453 130.686 303.078 129.461 301.144 129.482ZM301.101 138.355V140.783H310.017V138.355H311.715V145.982H299.404V138.355H301.101ZM301.101 144.607H310.017V142.137H301.101V144.607Z" fill="#515E67" fill-opacity="0.7"/>
<path d="M20 173.5H426V233.5C426 239.023 421.523 243.5 416 243.5H30C24.4772 243.5 20 239.023 20 233.5V173.5Z" fill="#DFE2ED"/>
<path d="M46 207.389L53.1468 215.168L65.3984 201.832" stroke="white" stroke-width="5" stroke-linecap="round" stroke-linejoin="round"/>
<path d="M103.35 198.352V204.445H106.069V206.906H103.35V212.836H100.35V198.352H103.35ZM86.0533 210.094C87.6119 210.094 89.3931 210.094 91.233 210.047V208.852C88.9127 208.523 87.4595 207.398 87.483 205.758C87.4595 203.789 89.5455 202.57 92.7095 202.57C95.8502 202.57 97.9127 203.789 97.9361 205.758C97.9127 207.398 96.4947 208.512 94.2095 208.828V209.93C95.9673 209.859 97.7134 209.719 99.3658 209.508L99.5767 211.57C95.0767 212.367 90.1314 212.414 86.358 212.414L86.0533 210.094ZM103.35 213.703V219.656H100.35V216H88.772V213.703H103.35ZM98.8267 199.898V202.078H86.6158V199.898H91.233V198.164H94.2095V199.898H98.8267ZM92.7095 204.562C91.1861 204.562 90.3189 204.937 90.3423 205.758C90.3189 206.531 91.1861 206.977 92.7095 206.977C94.2095 206.977 95.0533 206.531 95.0767 205.758C95.0533 204.937 94.2095 204.562 92.7095 204.562ZM124.409 198.352V213.68H121.409V198.352H124.409ZM124.972 216.891V219.281H110.112V212.133H113.136V216.891H124.972ZM112.714 199.711C115.995 199.711 118.55 201.961 118.55 205.078C118.55 208.266 115.995 210.492 112.714 210.492C109.433 210.492 106.878 208.266 106.878 205.078C106.878 201.961 109.433 199.711 112.714 199.711ZM112.714 202.312C111.05 202.289 109.784 203.344 109.808 205.078C109.784 206.859 111.05 207.891 112.714 207.891C114.331 207.891 115.597 206.859 115.597 205.078C115.597 203.344 114.331 202.289 112.714 202.312ZM145.14 198.352V211.477H142.304V206.227H140.64V211.242H137.851V198.633H140.64V203.812H142.304V198.352H145.14ZM137.171 200.367V202.734H126.695V200.367H130.468V198.445H133.445V200.367H137.171ZM131.968 203.414C134.687 203.414 136.609 204.914 136.632 207.141C136.609 209.32 134.687 210.867 131.968 210.867C129.296 210.867 127.351 209.32 127.351 207.141C127.351 204.914 129.296 203.414 131.968 203.414ZM131.968 205.547C130.796 205.547 130.023 206.086 130.023 207.141C130.023 208.148 130.796 208.711 131.968 208.711C133.14 208.711 133.914 208.148 133.937 207.141C133.914 206.086 133.14 205.547 131.968 205.547ZM134.992 212.578C134.968 214.137 135.66 215.742 137.359 216.797C139.046 215.684 139.796 213.996 139.82 212.578V212.133H142.796V212.578C142.773 214.57 143.968 216.445 146.804 217.172L145.421 219.398C143.359 218.777 142 217.535 141.273 215.953C140.57 217.523 139.339 218.906 137.406 219.609C135.414 218.918 134.16 217.617 133.492 216.047C132.707 217.547 131.371 218.766 129.414 219.398L128.007 217.172C130.773 216.375 132.015 214.453 132.015 212.578V212.133H134.992V212.578ZM152.301 211.125V212.93H161.09V211.125H164.066V219.422H149.348V211.125H152.301ZM152.301 217.078H161.09V215.203H152.301V217.078ZM166.527 207.633V210.047H147.074V207.633H166.527ZM158.348 199.266C158.348 201.398 160.809 203.812 165.566 204.352L164.512 206.695C160.832 206.227 158.172 204.703 156.801 202.641C155.43 204.703 152.758 206.227 149.113 206.695L148.035 204.352C152.793 203.789 155.254 201.445 155.277 199.266V198.539H158.348V199.266ZM185.266 198.328V219.656H182.29V198.328H185.266ZM171.438 200.367V211.828C174.321 211.793 177.415 211.523 180.555 210.914L180.93 213.375C177.18 214.148 173.665 214.406 170.36 214.383H168.485V200.367H171.438ZM204.427 198.328V206.25H207.567V208.687H204.427V219.703H201.427V198.328H204.427ZM198.45 200.297V202.711H191.419V212.062C194.513 212.027 197.067 211.887 199.903 211.383L200.231 213.891C196.927 214.453 194.02 214.547 190.247 214.523H188.442V200.297H198.45ZM210.697 217.711C209.595 217.711 208.705 216.82 208.728 215.742C208.705 214.664 209.595 213.797 210.697 213.797C211.728 213.797 212.642 214.664 212.642 215.742C212.642 216.82 211.728 217.711 210.697 217.711Z" fill="white"/>
</svg>
