<svg width="446" height="264" viewBox="0 0 446 264" fill="none" xmlns="http://www.w3.org/2000/svg">
<rect y="0.5" width="446" height="263" rx="20" fill="white"/>
<path d="M37.5547 24.3281V30.4453H40.4375V32.9297H37.5547V39.8672H34.5547V24.3281H37.5547ZM38.3281 42.8906V45.2813H23.7266V38.2266H26.7031V42.8906H38.3281ZM26.6328 25.7109C29.8906 25.7109 32.4453 27.9609 32.4453 31.125C32.4453 34.2422 29.8906 36.5391 26.6328 36.5391C23.3516 36.5391 20.7734 34.2422 20.7734 31.125C20.7734 27.9609 23.3516 25.7109 26.6328 25.7109ZM26.6328 28.3125C25.0156 28.2891 23.7031 29.3437 23.7266 31.125C23.7031 32.8594 25.0156 33.9375 26.6328 33.9375C28.2734 33.9375 29.5156 32.8594 29.5391 31.125C29.5156 29.3437 28.2734 28.2891 26.6328 28.3125ZM58.8716 24.3516V39.9141H55.895V32.2734H52.4028V29.8594H55.895V24.3516H58.8716ZM59.3872 42.8906V45.2813H44.7153V38.5547H47.7153V42.8906H59.3872ZM48.9575 28.5234C48.9575 30.9844 50.4575 33.6328 53.8559 34.7344L52.3794 37.1016C50.0122 36.3398 48.395 34.7812 47.4575 32.8359C46.52 34.9922 44.8208 36.7031 42.3013 37.5469L40.7778 35.1094C44.2934 34.0078 45.8872 31.2187 45.9106 28.5V28.1719H41.6216V25.7812H53.1997V28.1719H48.9575V28.5234ZM80.6806 40.7344V43.1719H61.1572V40.7344H69.3838V36.7969H63.2197V25.6875H66.2197V28.9922H75.5244V25.6875H78.5009V36.7969H72.3603V40.7344H80.6806ZM66.2197 34.4062H75.5244V31.3828H66.2197V34.4062ZM99.3959 24.3516V39.9375H96.4194V32.9766H92.5991V30.5156H96.4194V24.3516H99.3959ZM92.7866 25.9219C92.7866 31.6406 89.1538 35.8594 82.9194 37.8047L81.7006 35.4375C86.1186 34.0547 88.9663 31.5117 89.5288 28.3594H82.8022V25.9219H92.7866ZM99.935 42.8906V45.2813H85.3334V38.3672H88.3803V42.8906H99.935ZM113.635 25.875V27.2109C113.635 28.6875 113.635 30.8203 113.143 33.4687L110.213 33.1875C110.588 31.1367 110.682 29.5898 110.705 28.3125H102.666V25.875H113.635ZM108.338 30.7969V34.875C110.459 34.793 112.639 34.6289 114.643 34.3359L114.807 36.4922C110.377 37.3125 105.361 37.3828 101.658 37.4062L101.4 35.0156C102.596 35.0156 103.943 35.0156 105.361 34.9687V30.7969H108.338ZM118.861 24.3281V30.8203H121.439V33.3281H118.861V40.2891H115.791V24.3281H118.861ZM119.518 42.8906V45.2813H104.541V38.8594H107.541V42.8906H119.518ZM139.827 24.3281V45.7031H136.85V24.3281H139.827ZM133.217 26.1094V34.3359H126.186V38.25C129.432 38.2383 132.198 38.0508 135.327 37.5469L135.584 39.9609C132.069 40.5703 128.905 40.7109 125.014 40.7109H123.092V31.9687H130.17V28.5234H123.069V26.1094H133.217ZM160.183 24.3281V36.6562H157.206V31.6875H153.831V29.25H157.206V24.3281H160.183ZM160.183 37.5469V45.4219H145.839V37.5469H160.183ZM148.839 39.8906V43.0312H157.253V39.8906H148.839ZM154.511 25.4062V27.8203H150.268C150.315 30.2461 151.827 32.8359 155.167 33.9375L153.69 36.3047C151.323 35.5195 149.694 33.9727 148.768 32.0391C147.819 34.1719 146.12 35.8711 143.612 36.6797L142.089 34.3359C145.534 33.2344 147.14 30.5156 147.222 27.8203H142.933V25.4062H154.511ZM173.531 25.5703C173.531 31.1484 170.015 35.0156 163.757 36.75L162.585 34.4297C167.179 33.1875 169.828 30.8437 170.343 27.9609H163.734V25.5703H173.531ZM180.445 24.3516V36.2812H177.468V31.8516H173.671V29.4141H177.468V24.3516H180.445ZM180.445 37.125V45.3984H166.312V37.125H180.445ZM169.242 39.4687V43.0547H177.492V39.4687H169.242ZM206.086 24.3281V29.7891H208.969V32.2734H206.086V37.875H203.086V24.3281H206.086ZM199.125 38.0625C203.508 38.0625 206.321 39.4922 206.321 41.8828C206.321 44.2266 203.508 45.6563 199.125 45.6563C194.649 45.6563 191.883 44.2266 191.907 41.8828C191.883 39.4922 194.649 38.0625 199.125 38.0625ZM199.125 40.3359C196.336 40.3359 194.836 40.8281 194.86 41.8828C194.836 42.8906 196.336 43.4297 199.125 43.4297C201.844 43.4297 203.321 42.8906 203.321 41.8828C203.321 40.8281 201.844 40.3359 199.125 40.3359ZM201.821 26.3672V28.6875H189.164V26.3672H194.016V24.2109H196.993V26.3672H201.821ZM195.493 29.4141C198.586 29.4141 200.743 30.9844 200.743 33.2578C200.743 35.5547 198.586 37.0781 195.493 37.0781C192.352 37.0781 190.196 35.5547 190.196 33.2578C190.196 30.9844 192.352 29.4141 195.493 29.4141ZM195.493 31.5937C194.063 31.5937 193.102 32.1797 193.125 33.2578C193.102 34.3125 194.063 34.875 195.493 34.8516C196.922 34.875 197.907 34.3125 197.907 33.2578C197.907 32.1797 196.922 31.5937 195.493 31.5937ZM226.419 25.1719V32.6719H220.63V34.7109H228.88V37.125H209.427V34.7109H217.63V32.6719H211.841V25.1719H226.419ZM214.77 27.4922V30.3281H223.489V27.4922H214.77ZM226.513 38.6953V45.6563H223.536V41.0391H211.583V38.6953H226.513Z" fill="#515E67"/>
<path d="M30 68H416C421.247 68 425.5 72.2533 425.5 77.5V173H20.5V77.5L20.5127 77.0107C20.7591 72.1535 24.6535 68.2591 29.5107 68.0127L30 68Z" stroke="#E6E6E6"/>
<path d="M56.543 94.1406V113.283H54.8672V94.1406H56.543ZM50.7422 95.9238V102.713H43.6094V107.225C46.7783 107.225 49.6035 107.085 53.0195 106.537L53.1914 107.955C49.668 108.514 46.7676 108.643 43.4805 108.643H41.8906V101.338H49.0449V97.3203H41.8477V95.9238H50.7422ZM75.9554 109.352V110.791H58.4671V109.352H75.9554ZM74.2796 96.0742V97.4707H71.2503V104.152H74.2366V105.527H60.057V104.152H63.0433V97.4707H60.014V96.0742H74.2796ZM64.7191 104.152H69.596V97.4707H64.7191V104.152ZM86.4303 95.5586V96.9336H78.9752V99.3398H85.8932V100.715H78.9752V103.229C83.0465 103.229 85.3024 103.153 87.9987 102.713L88.1705 104.088C85.3776 104.539 83.0358 104.625 78.8248 104.625H77.278V95.5586H86.4303ZM91.9303 94.1621V106H90.2545V94.1621H91.9303ZM85.5924 106.279C89.567 106.258 92.0163 107.525 92.0163 109.717C92.0163 111.951 89.567 113.197 85.5924 113.197C81.5319 113.197 79.1256 111.951 79.1256 109.717C79.1256 107.525 81.5319 106.258 85.5924 106.279ZM85.5924 107.611C82.5846 107.611 80.8014 108.406 80.8014 109.717C80.8014 111.07 82.5846 111.865 85.5924 111.865C88.5143 111.865 90.362 111.07 90.362 109.717C90.362 108.406 88.5143 107.611 85.5924 107.611ZM105.339 97.6855C105.339 100.221 107.208 102.541 110.044 103.529L109.185 104.84C107.004 104.066 105.339 102.498 104.523 100.521C103.706 102.691 101.955 104.378 99.7102 105.205L98.8079 103.895C101.665 102.885 103.663 100.414 103.685 97.6855V96.8691H99.3235V95.4941H109.636V96.8691H105.339V97.6855ZM113.804 94.1406V99.1895H116.683V100.629H113.804V105.656H112.128V94.1406H113.804ZM113.804 106.666V113.24H112.128V108.041H101.3V106.666H113.804ZM133.99 103.594V104.947H116.566V103.594H124.451V101.359H118.779V95.043H131.82V96.3965H120.433V99.9844H131.949V101.359H126.084V103.594H133.99ZM125.267 106.344C129.371 106.344 131.82 107.59 131.841 109.781C131.82 111.994 129.371 113.219 125.267 113.24C121.142 113.219 118.671 111.994 118.671 109.781C118.671 107.59 121.142 106.344 125.267 106.344ZM125.267 107.676C122.195 107.676 120.369 108.471 120.39 109.781C120.369 111.113 122.195 111.887 125.267 111.887C128.296 111.887 130.144 111.113 130.144 109.781C130.144 108.471 128.296 107.676 125.267 107.676ZM146.067 99.2754C146.045 102.756 148.43 106.279 151.244 107.547L150.213 108.879C148.043 107.815 146.163 105.57 145.25 102.842C144.359 105.731 142.479 108.138 140.244 109.266L139.17 107.848C142.006 106.537 144.369 102.906 144.391 99.2754V95.7949H146.067V99.2754ZM155.026 94.1406V113.283H153.328V94.1406H155.026ZM177.458 111.414V112.832H164.245V107.332H165.942V111.414H177.458ZM179.456 104.389V105.807H161.989V104.389H169.852V101.145H171.507V104.389H179.456ZM171.528 95.5156C171.528 98.2227 174.88 100.521 178.231 101.059L177.565 102.391C174.697 101.832 171.872 100.21 170.69 97.9004C169.509 100.221 166.705 101.854 163.815 102.391L163.128 101.059C166.479 100.5 169.831 98.2012 169.831 95.5156V94.6562H171.528V95.5156ZM200.47 94.1406V113.24H198.794V94.1406H200.47ZM190.652 96.2246C190.63 100.736 189.492 105.27 186.033 108.879L184.701 107.912C187.558 105.001 188.826 101.445 189.062 97.6426H185.41V96.2246H190.652ZM196.001 96.2246C196.001 100.715 195.271 106.021 191.791 110.168L190.33 109.244C193.284 105.871 194.229 101.628 194.412 97.6426H191.275V96.2246H196.001ZM218.164 94.1621V105.076H216.488V94.1621H218.164ZM218.164 106.107V112.982H205.746V106.107H218.164ZM207.4 107.482V111.607H216.51V107.482H207.4ZM207.851 95.1719C210.752 95.1719 212.857 96.9766 212.857 99.6406C212.857 102.262 210.752 104.088 207.851 104.088C204.951 104.088 202.846 102.262 202.846 99.6406C202.846 96.9766 204.951 95.1719 207.851 95.1719ZM207.851 96.6113C205.896 96.5898 204.478 97.8574 204.5 99.6406C204.478 101.402 205.896 102.648 207.851 102.648C209.785 102.648 211.203 101.402 211.203 99.6406C211.203 97.8574 209.785 96.5898 207.851 96.6113ZM231.508 99.2754C231.508 102.648 233.743 106.107 236.45 107.439L235.418 108.793C233.313 107.687 231.551 105.431 230.713 102.777C229.854 105.603 228.049 108.009 225.901 109.158L224.827 107.805C227.62 106.43 229.833 102.756 229.854 99.2754V95.7949H231.508V99.2754ZM239.887 94.1406V101.896H243.088V103.357H239.887V113.24H238.211V94.1406H239.887ZM258.118 96.0742V97.9863C258.096 100.328 258.096 102.949 257.409 106.795L255.69 106.602C256.421 102.949 256.421 100.264 256.421 97.9863V97.4707H244.647V96.0742H258.118ZM260.202 109.137V110.533H242.8V109.137H249.632V102.305H251.286V109.137H260.202ZM275.275 94.1406V101.918H278.368V103.336H275.275V113.24H273.599V94.1406H275.275ZM270.333 96.2031C270.333 101.617 267.798 106.537 261.568 109.609L260.622 108.277C265.564 105.817 268.249 102.144 268.636 97.6211H261.503V96.2031H270.333ZM285.676 94.957V97.707H291.24V94.957H292.916V103.271H284.021V94.957H285.676ZM285.676 101.896H291.24V99.0176H285.676V101.896ZM298.136 94.1406V98.2871H301.015V99.7051H298.136V104.023H296.461V94.1406H298.136ZM298.136 104.926V109.545H287.652V111.65H298.845V113.025H285.998V108.256H296.461V106.279H285.955V104.926H298.136ZM306.592 97.9434C306.592 100.049 308.074 102.197 310.524 103.121L309.643 104.41C307.806 103.701 306.484 102.337 305.797 100.693C305.088 102.52 303.724 104.142 301.844 104.947L300.92 103.637C303.434 102.541 304.981 100.07 304.981 97.9434V95.3438H306.592V97.9434ZM317.119 94.1621V105.957H315.508V100.693H312.973V105.355H311.383V94.5273H312.973V99.2969H315.508V94.1621H317.119ZM310.803 106.387C314.756 106.387 317.227 107.633 317.227 109.803C317.227 111.951 314.756 113.197 310.803 113.197C306.828 113.197 304.379 111.951 304.4 109.803C304.379 107.633 306.828 106.387 310.803 106.387ZM310.803 107.676C307.881 107.676 306.055 108.471 306.076 109.803C306.055 111.113 307.881 111.887 310.803 111.887C313.703 111.887 315.529 111.113 315.551 109.803C315.529 108.471 313.703 107.676 310.803 107.676ZM333.373 94.1406V102.025H336.575V103.422H333.373V113.24H331.698V94.1406H333.373ZM329.85 97.2129V98.6094H318.485V97.2129H323.405V94.377H325.08V97.2129H329.85ZM324.264 100.199C326.971 100.199 328.926 102.004 328.948 104.582C328.926 107.16 326.971 108.965 324.264 108.965C321.536 108.965 319.559 107.16 319.58 104.582C319.559 102.004 321.536 100.199 324.264 100.199ZM324.264 101.617C322.481 101.617 321.17 102.863 321.192 104.582C321.17 106.322 322.481 107.547 324.264 107.525C326.026 107.547 327.315 106.322 327.336 104.582C327.315 102.863 326.026 101.617 324.264 101.617ZM343.118 100.006C343.118 103.25 345.481 106.537 348.296 107.762L347.35 109.094C345.116 108.073 343.182 105.871 342.301 103.229C341.399 106.032 339.476 108.471 337.296 109.566L336.286 108.234C339.014 106.924 341.399 103.314 341.421 100.006V97.5137H336.909V96.1172H347.673V97.5137H343.118V100.006ZM352.034 94.1406V113.24H350.337V94.1406H352.034ZM46.1016 128.236C48.959 128.236 51.0645 130.062 51.0645 132.641C51.0645 135.24 48.959 137.045 46.1016 137.066C43.2441 137.045 41.1172 135.24 41.1387 132.641C41.1172 130.062 43.2441 128.236 46.1016 128.236ZM46.1016 129.654C44.2324 129.654 42.7715 130.922 42.793 132.641C42.7715 134.402 44.2324 135.67 46.1016 135.67C47.9922 135.67 49.4102 134.402 49.4102 132.641C49.4102 130.922 47.9922 129.654 46.1016 129.654ZM55.7051 127.141V131.459H58.584V132.855H55.7051V136.701H54.0293V127.141H55.7051ZM44.4473 138.764V144.328C45.5537 144.296 47.0254 144.135 48.3789 143.684L48.6367 145.037C46.7676 145.66 44.9629 145.725 43.7168 145.725H42.8145V138.764H44.4473ZM57.6172 138.85V140.16H47.9707V138.85H51.9883V137.152H53.6426V138.85H57.6172ZM52.7832 140.805C54.8672 140.805 56.3496 141.857 56.3711 143.512C56.3496 145.166 54.8672 146.197 52.7832 146.197C50.6777 146.197 49.2168 145.166 49.2383 143.512C49.2168 141.857 50.6777 140.805 52.7832 140.805ZM52.7832 142.029C51.6016 142.029 50.7422 142.631 50.7422 143.512C50.7422 144.414 51.6016 144.994 52.7832 144.994C53.9863 144.994 54.8242 144.414 54.8242 143.512C54.8242 142.631 53.9863 142.029 52.7832 142.029ZM73.8929 136.1V137.475H67.9847V142.416H75.9554V143.834H58.4671V142.416H66.3304V137.475H60.7015V128.709H73.6995V130.084H62.3988V136.1H73.8929ZM93.6276 137.668V139.064H76.1393V137.668H84.0455V135.648H78.4166V130.986H89.6745V129.01H78.3522V127.635H91.3717V132.254H80.0924V134.295H91.7799V135.648H85.6998V137.668H93.6276ZM91.4791 140.525V146.068H89.7819V141.9H78.0944V140.525H91.4791ZM108.519 129.848C108.497 132.404 111.913 134.574 115.243 135.068L114.62 136.4C111.634 135.896 108.734 134.306 107.574 131.996C106.413 134.306 103.502 135.896 100.57 136.4L99.9036 135.068C103.212 134.574 106.628 132.404 106.628 129.848V129.719H100.505V128.344H114.62V129.719H108.519V129.848ZM116.275 138.033V139.43H108.368V146.24H106.714V139.43H98.8723V138.033H116.275ZM122.818 128.537C125.826 128.537 127.953 130.363 127.953 133.027C127.953 135.691 125.826 137.518 122.818 137.518C119.81 137.518 117.64 135.691 117.662 133.027C117.64 130.363 119.81 128.537 122.818 128.537ZM122.818 130.02C120.777 130.02 119.295 131.244 119.316 133.027C119.295 134.811 120.777 136.035 122.818 136.035C124.838 136.035 126.298 134.811 126.298 133.027C126.298 131.244 124.838 130.02 122.818 130.02ZM132.228 127.141V146.283H130.552V127.141H132.228ZM116.673 140.633C120.197 140.633 125.052 140.611 129.285 139.988L129.414 141.234C125.052 142.051 120.347 142.072 116.91 142.072L116.673 140.633ZM149.191 127.141V132.039H152.07V133.479H149.191V138.248H147.516V127.141H149.191ZM138.793 139.086V141.127H147.516V139.086H149.191V145.982H137.117V139.086H138.793ZM138.793 144.629H147.516V142.459H138.793V144.629ZM145.689 129.117V130.514H134.303V129.117H139.158V126.969H140.834V129.117H145.689ZM139.996 131.395C142.746 131.395 144.572 132.705 144.594 134.746C144.572 136.787 142.746 138.098 139.996 138.098C137.225 138.098 135.377 136.787 135.398 134.746C135.377 132.705 137.225 131.395 139.996 131.395ZM139.996 132.705C138.191 132.684 136.988 133.521 137.01 134.746C136.988 135.992 138.191 136.809 139.996 136.809C141.779 136.809 142.982 135.992 143.004 134.746C142.982 133.521 141.779 132.684 139.996 132.705ZM158.742 132.275C158.721 135.756 161.106 139.279 163.92 140.547L162.889 141.879C160.719 140.815 158.839 138.57 157.926 135.842C157.034 138.731 155.155 141.138 152.92 142.266L151.846 140.848C154.682 139.537 157.045 135.906 157.067 132.275V128.795H158.742V132.275ZM167.701 127.141V146.283H166.004V127.141H167.701ZM184.428 127.141V134.703H187.629V136.121H184.428V146.283H182.753V127.141H184.428ZM179.401 129.01V130.406H172.161V140.074C175.62 140.074 178.069 139.913 180.905 139.387L181.12 140.848C178.133 141.385 175.62 141.492 171.989 141.492H170.485V129.01H179.401ZM189.725 144.629C188.974 144.629 188.329 144.006 188.35 143.232C188.329 142.48 188.974 141.857 189.725 141.857C190.477 141.857 191.1 142.48 191.1 143.232C191.1 144.006 190.477 144.629 189.725 144.629Z" fill="#515E67" fill-opacity="0.7"/>
<path d="M20 173.5H426V233.5C426 239.023 421.523 243.5 416 243.5H30C24.4772 243.5 20 239.023 20 233.5V173.5Z" fill="#DFE2ED"/>
<path d="M46 207.389L53.1468 215.168L65.3984 201.832" stroke="white" stroke-width="5" stroke-linecap="round" stroke-linejoin="round"/>
<path d="M103.35 198.352V204.445H106.069V206.906H103.35V212.836H100.35V198.352H103.35ZM86.0533 210.094C87.6119 210.094 89.3931 210.094 91.233 210.047V208.852C88.9127 208.523 87.4595 207.398 87.483 205.758C87.4595 203.789 89.5455 202.57 92.7095 202.57C95.8502 202.57 97.9127 203.789 97.9361 205.758C97.9127 207.398 96.4947 208.512 94.2095 208.828V209.93C95.9673 209.859 97.7134 209.719 99.3658 209.508L99.5767 211.57C95.0767 212.367 90.1314 212.414 86.358 212.414L86.0533 210.094ZM103.35 213.703V219.656H100.35V216H88.772V213.703H103.35ZM98.8267 199.898V202.078H86.6158V199.898H91.233V198.164H94.2095V199.898H98.8267ZM92.7095 204.562C91.1861 204.562 90.3189 204.937 90.3423 205.758C90.3189 206.531 91.1861 206.977 92.7095 206.977C94.2095 206.977 95.0533 206.531 95.0767 205.758C95.0533 204.937 94.2095 204.562 92.7095 204.562ZM124.409 198.352V213.68H121.409V198.352H124.409ZM124.972 216.891V219.281H110.112V212.133H113.136V216.891H124.972ZM112.714 199.711C115.995 199.711 118.55 201.961 118.55 205.078C118.55 208.266 115.995 210.492 112.714 210.492C109.433 210.492 106.878 208.266 106.878 205.078C106.878 201.961 109.433 199.711 112.714 199.711ZM112.714 202.312C111.05 202.289 109.784 203.344 109.808 205.078C109.784 206.859 111.05 207.891 112.714 207.891C114.331 207.891 115.597 206.859 115.597 205.078C115.597 203.344 114.331 202.289 112.714 202.312ZM145.14 198.352V211.477H142.304V206.227H140.64V211.242H137.851V198.633H140.64V203.812H142.304V198.352H145.14ZM137.171 200.367V202.734H126.695V200.367H130.468V198.445H133.445V200.367H137.171ZM131.968 203.414C134.687 203.414 136.609 204.914 136.632 207.141C136.609 209.32 134.687 210.867 131.968 210.867C129.296 210.867 127.351 209.32 127.351 207.141C127.351 204.914 129.296 203.414 131.968 203.414ZM131.968 205.547C130.796 205.547 130.023 206.086 130.023 207.141C130.023 208.148 130.796 208.711 131.968 208.711C133.14 208.711 133.914 208.148 133.937 207.141C133.914 206.086 133.14 205.547 131.968 205.547ZM134.992 212.578C134.968 214.137 135.66 215.742 137.359 216.797C139.046 215.684 139.796 213.996 139.82 212.578V212.133H142.796V212.578C142.773 214.57 143.968 216.445 146.804 217.172L145.421 219.398C143.359 218.777 142 217.535 141.273 215.953C140.57 217.523 139.339 218.906 137.406 219.609C135.414 218.918 134.16 217.617 133.492 216.047C132.707 217.547 131.371 218.766 129.414 219.398L128.007 217.172C130.773 216.375 132.015 214.453 132.015 212.578V212.133H134.992V212.578ZM152.301 211.125V212.93H161.09V211.125H164.066V219.422H149.348V211.125H152.301ZM152.301 217.078H161.09V215.203H152.301V217.078ZM166.527 207.633V210.047H147.074V207.633H166.527ZM158.348 199.266C158.348 201.398 160.809 203.812 165.566 204.352L164.512 206.695C160.832 206.227 158.172 204.703 156.801 202.641C155.43 204.703 152.758 206.227 149.113 206.695L148.035 204.352C152.793 203.789 155.254 201.445 155.277 199.266V198.539H158.348V199.266ZM185.266 198.328V219.656H182.29V198.328H185.266ZM171.438 200.367V211.828C174.321 211.793 177.415 211.523 180.555 210.914L180.93 213.375C177.18 214.148 173.665 214.406 170.36 214.383H168.485V200.367H171.438ZM204.427 198.328V206.25H207.567V208.687H204.427V219.703H201.427V198.328H204.427ZM198.45 200.297V202.711H191.419V212.062C194.513 212.027 197.067 211.887 199.903 211.383L200.231 213.891C196.927 214.453 194.02 214.547 190.247 214.523H188.442V200.297H198.45ZM210.697 217.711C209.595 217.711 208.705 216.82 208.728 215.742C208.705 214.664 209.595 213.797 210.697 213.797C211.728 213.797 212.642 214.664 212.642 215.742C212.642 216.82 211.728 217.711 210.697 217.711Z" fill="white"/>
</svg>
