<svg width="446" height="296" viewBox="0 0 446 296" fill="none" xmlns="http://www.w3.org/2000/svg">
<rect width="446" height="296" rx="20" fill="white"/>
<path d="M38.5625 23.8281V45.1562H35.5859V23.8281H38.5625ZM20.7266 39.1328C22.3555 39.1211 24.2188 39.1211 26.1641 39.0625V37.2578C23.8203 36.8477 22.2969 35.3945 22.3203 33.3906C22.2969 31 24.4766 29.3828 27.6172 29.3828C30.7812 29.3828 32.9844 31 32.9844 33.3906C32.9844 35.3828 31.4609 36.8359 29.1172 37.2578V38.9688C30.8984 38.8867 32.7031 38.7461 34.4141 38.5234L34.625 40.7266C29.9609 41.5234 24.9219 41.5703 21.125 41.5703L20.7266 39.1328ZM34.1094 26.1953V28.5391H21.1484V26.1953H26.1641V23.9219H29.1406V26.1953H34.1094ZM27.6172 31.6562C26.1641 31.6562 25.1328 32.2891 25.1562 33.3906C25.1328 34.5156 26.1641 35.125 27.6172 35.125C29.1172 35.125 30.125 34.5156 30.125 33.3906C30.125 32.2891 29.1172 31.6562 27.6172 31.6562ZM47.8091 25.2578C51.1841 25.2344 53.7153 27.4375 53.7153 30.4844C53.7153 33.5547 51.1841 35.7344 47.8091 35.7344C44.4341 35.7344 41.8794 33.5547 41.8794 30.4844C41.8794 27.4375 44.4341 25.2344 47.8091 25.2578ZM47.8091 27.8359C46.1216 27.8359 44.8325 28.8203 44.8559 30.4844C44.8325 32.1719 46.1216 33.1328 47.8091 33.1328C49.4966 33.1328 50.7856 32.1719 50.8091 30.4844C50.7856 28.8203 49.52 27.8359 47.8091 27.8359ZM58.8247 23.8281V45.2031H55.8481V23.8281H58.8247ZM40.9888 38.4062C44.7856 38.4297 50.0591 38.3594 54.6294 37.7266L54.8638 39.8828C50.1294 40.7969 45.0669 40.8438 41.3403 40.8438L40.9888 38.4062ZM85.9897 23.8281V45.1562H83.1069V34.4922H81.1147V44.125H78.3022V24.1797H81.1147V32.0781H83.1069V23.8281H85.9897ZM71.4584 26.1953V37.3281C73.1694 37.293 75.0444 37.1406 77.1069 36.7422L77.4116 39.3203C74.5522 39.8125 72.1147 39.9531 69.9116 39.9531H68.4584V26.1953H71.4584ZM107.307 33.9297V36.3203H87.8534V33.9297H92.2363V31.375C90.6777 30.6836 89.7988 29.6289 89.7988 28.2578C89.7988 25.6797 92.8222 24.1328 97.58 24.1328C102.291 24.1328 105.314 25.6797 105.338 28.2578C105.326 29.6406 104.412 30.7188 102.83 31.3984V33.9297H107.307ZM97.5566 37.4453C102.174 37.4453 104.963 38.8047 104.986 41.2656C104.963 43.7734 102.174 45.1328 97.5566 45.1328C92.8691 45.1328 90.08 43.7734 90.08 41.2656C90.08 38.8047 92.8691 37.4453 97.5566 37.4453ZM97.5566 39.6953C94.6034 39.6953 93.1034 40.2109 93.1269 41.2656C93.1034 42.3672 94.6034 42.9062 97.5566 42.9062C100.439 42.9062 101.963 42.3672 101.986 41.2656C101.963 40.2109 100.439 39.6953 97.5566 39.6953ZM97.58 26.4297C94.5566 26.4297 92.8925 27.0625 92.9159 28.2578C92.8925 29.4297 94.5566 30.0156 97.58 30.0156C100.557 30.0156 102.244 29.4297 102.244 28.2578C102.244 27.0625 100.557 26.4297 97.58 26.4297ZM95.2597 33.9297H99.8534V32.1484C99.1503 32.2305 98.3886 32.2656 97.58 32.2656C96.748 32.2656 95.9745 32.2305 95.2597 32.125V33.9297Z" fill="#515E67"/>
<path d="M30 67.5H416C421.247 67.5 425.5 71.7533 425.5 77V205.5H20.5V77C20.5 71.7533 24.7533 67.5 30 67.5Z" stroke="#E6E6E6"/>
<path d="M47.3047 99.7637C47.3047 102.729 49.1094 105.865 51.9883 107.24L50.8281 108.787C48.7334 107.799 47.1543 105.79 46.3379 103.438C45.4893 105.983 43.8135 108.11 41.6113 109.131L40.4727 107.562C43.3945 106.23 45.3066 102.943 45.3066 99.7637V98.4961H41.0527V96.8633H45.2852V93.9629H47.3477V96.8633H51.5371V98.4961H47.3047V99.7637ZM55.7051 93.5762V101.332H58.7988V103.051H55.7051V112.826H53.6641V93.5762H55.7051ZM76.3421 96.4551V98.1523H73.5277V100.516H76.3421V102.213H73.5277V105.221H71.4866V93.5977H73.5277V96.4551H76.3421ZM67.9417 94.7578V100.15H61.2386V102.492C64.5794 102.481 66.9427 102.363 69.7464 101.891L69.9613 103.545C66.9749 104.082 64.4398 104.189 60.7445 104.168H59.1976V98.582H65.9437V96.4121H59.1761V94.7578H67.9417ZM67.2972 105.693C71.2503 105.693 73.6995 107.025 73.6995 109.26C73.6995 111.494 71.2503 112.783 67.2972 112.783C63.2796 112.783 60.8304 111.494 60.8304 109.26C60.8304 107.025 63.2796 105.693 67.2972 105.693ZM67.2972 107.305C64.4827 107.305 62.8284 108.014 62.8284 109.26C62.8284 110.506 64.4827 111.236 67.2972 111.215C70.0902 111.236 71.7015 110.506 71.7015 109.26C71.7015 108.014 70.0902 107.305 67.2972 107.305ZM82.735 96.6484C82.735 99.1836 84.4967 101.525 87.3756 102.471L86.2799 104.082C84.1745 103.341 82.5954 101.837 81.7682 99.9355C80.9196 102.095 79.2868 103.781 77.0416 104.619L75.9459 102.986C78.9538 101.912 80.694 99.3555 80.7155 96.4766V94.5859H82.735V96.6484ZM91.2213 93.5762V98.4102H94.0143V100.129H91.2213V105.199H89.1803V93.5762H91.2213ZM85.0123 105.65C88.9655 105.65 91.3932 106.961 91.3932 109.217C91.3932 111.494 88.9655 112.805 85.0123 112.783C81.0163 112.805 78.5455 111.494 78.5455 109.217C78.5455 106.961 81.0163 105.65 85.0123 105.65ZM85.0123 107.262C82.2194 107.262 80.5651 107.992 80.5866 109.217C80.5651 110.484 82.2194 111.172 85.0123 111.193C87.7838 111.172 89.3952 110.484 89.3952 109.217C89.3952 107.992 87.7838 107.262 85.0123 107.262ZM102.233 95.7246V97.3574H96.4755V100.795H101.911V102.406H96.4755V106.467C99.0752 106.456 100.794 106.349 102.835 106.016L103.007 107.691C100.751 108.1 98.8818 108.186 95.8095 108.186H94.5205V95.7246H102.233ZM110.354 93.5762V112.826H108.399V102.879H106.079V111.881H104.124V93.9414H106.079V101.225H108.399V93.5762H110.354ZM132.55 93.5762V104.791H130.509V99.957H126.9V98.2598H130.509V93.5762H132.55ZM132.55 105.693V112.59H119.853V105.693H132.55ZM121.873 107.305V110.936H130.552V107.305H121.873ZM123.398 96.8633C123.398 99.2695 125.138 101.654 128.039 102.664L126.986 104.275C124.827 103.513 123.226 101.966 122.388 100.064C121.55 102.181 119.864 103.878 117.576 104.684L116.523 103.072C119.488 102.062 121.314 99.5059 121.314 96.8633V96.4121H117.146V94.7363H127.523V96.4121H123.398V96.8633ZM144.143 94.7793C144.143 99.6777 140.791 103.158 135.205 104.727L134.367 103.137C138.804 101.891 141.564 99.4844 141.973 96.4551H135.377V94.7793H144.143ZM150.244 93.5977V104.49H148.203V100.107H144.228V98.4102H148.203V93.5977H150.244ZM150.244 105.285V112.568H137.654V105.285H150.244ZM139.652 106.918V110.936H148.225V106.918H139.652ZM167.069 94.8008V102.707H157.917V94.8008H167.069ZM159.915 96.4336V101.117H165.049V96.4336H159.915ZM172.848 93.5762V104.576H170.829V93.5762H172.848ZM173.299 105.822V107.369H167.67C167.81 109.045 170.485 110.796 173.987 111.193L173.299 112.762C170.281 112.407 167.799 111.107 166.639 109.41C165.458 111.129 162.922 112.386 159.893 112.762L159.184 111.193C162.686 110.86 165.425 109.088 165.565 107.369H159.958V105.822H165.608V104.018H167.628V105.822H173.299ZM194.743 93.5547V99.3125H197.536V101.031H194.743V107.713H192.702V93.5547H194.743ZM195.56 110.764V112.418H182.54V106.23H184.581V110.764H195.56ZM185.032 94.8867C187.933 94.8867 190.146 96.8633 190.167 99.6777C190.146 102.471 187.933 104.469 185.032 104.469C182.132 104.469 179.898 102.471 179.919 99.6777C179.898 96.8633 182.132 94.8867 185.032 94.8867ZM185.032 96.6699C183.271 96.6699 181.896 97.8945 181.917 99.6777C181.896 101.461 183.271 102.686 185.032 102.686C186.816 102.686 188.169 101.461 188.169 99.6777C188.169 97.8945 186.816 96.6699 185.032 96.6699ZM213.361 93.5977V107.691H211.32V100.451H207.646V98.7969H211.32V93.5977H213.361ZM213.876 110.764V112.418H200.857V106.424H202.898V110.764H213.876ZM204.209 97.4863C204.209 99.8926 205.949 102.299 208.849 103.266L207.796 104.898C205.637 104.136 204.037 102.589 203.199 100.688C202.361 102.804 200.674 104.512 198.386 105.328L197.334 103.674C200.298 102.664 202.125 100.129 202.125 97.4863V96.7344H197.957V95.0586H208.334V96.7344H204.209V97.4863ZM232.601 103.223V104.877H224.974V108.615H222.912V104.877H214.984V103.223H232.601ZM230.646 110.742V112.418H217.197V106.768H219.238V110.742H230.646ZM223.771 94.0273C227.918 94.0273 230.603 95.5312 230.603 97.9375C230.603 100.344 227.918 101.826 223.771 101.826C219.646 101.826 216.918 100.344 216.918 97.9375C216.918 95.5312 219.646 94.0273 223.771 94.0273ZM223.771 95.6602C220.957 95.6602 219.088 96.5195 219.109 97.9375C219.088 99.334 220.957 100.172 223.771 100.172C226.607 100.172 228.455 99.334 228.455 97.9375C228.455 96.5195 226.607 95.6602 223.771 95.6602ZM249.113 93.5762V105.715H247.18V100.344H244.945V105.049H243.033V93.9414H244.945V98.668H247.18V93.5762H249.113ZM242.324 95.7676V97.3789H232.592V95.7676H236.481V93.7266H238.5V95.7676H242.324ZM237.469 98.2812C239.918 98.2812 241.637 99.5918 241.637 101.59C241.637 103.588 239.918 104.898 237.469 104.898C235.063 104.898 233.344 103.588 233.344 101.59C233.344 99.5918 235.063 98.2812 237.469 98.2812ZM237.469 99.7852C236.115 99.7852 235.17 100.494 235.17 101.59C235.17 102.686 236.115 103.416 237.469 103.416C238.865 103.416 239.789 102.686 239.789 101.59C239.789 100.494 238.865 99.7852 237.469 99.7852ZM242.668 105.994C246.75 105.994 249.199 107.219 249.221 109.41C249.199 111.559 246.75 112.805 242.668 112.783C238.586 112.805 236.137 111.559 236.158 109.41C236.137 107.219 238.586 105.994 242.668 105.994ZM242.668 107.562C239.811 107.562 238.156 108.207 238.178 109.41C238.156 110.57 239.811 111.236 242.668 111.215C245.547 111.236 247.158 110.57 247.18 109.41C247.158 108.207 245.547 107.562 242.668 107.562ZM47.6484 128.445V142.088H50.8711V144H41.8906V142.088H45.2852V130.809L41.8906 133.107V130.787L45.3711 128.445H47.6484ZM56.6624 136.652C56.6409 140.691 55.5452 144.064 53.6331 146.943H51.678C53.096 144.816 54.4495 140.477 54.4495 136.652C54.4495 132.807 53.096 128.488 51.678 126.34H53.6331C55.5452 129.219 56.6409 132.592 56.6624 136.652ZM68.8252 130.035C68.8252 132.484 70.5224 134.826 73.4658 135.814L72.4345 137.404C70.2539 136.652 68.6533 135.148 67.8154 133.258C66.9775 135.342 65.3125 136.975 63.0459 137.77L61.9502 136.18C64.958 135.148 66.7627 132.678 66.7841 130.014V129.498H62.5517V127.844H72.9716V129.498H68.8252V130.035ZM77.2255 126.576V131.518H80.0185V133.236H77.2255V138.178H75.1845V126.576H77.2255ZM77.2255 139.123V145.826H75.1845V140.777H64.5068V139.123H77.2255ZM85.1223 127.457C87.6575 127.436 89.6126 128.907 90.0423 131.066H93.802V126.576H95.843V136.91H93.802V132.742H90.0638C89.6448 134.955 87.679 136.438 85.1223 136.438C82.179 136.438 80.0735 134.59 80.0735 131.926C80.0735 129.305 82.179 127.436 85.1223 127.457ZM85.1223 129.154C83.2962 129.154 82.0286 130.271 82.0286 131.926C82.0286 133.58 83.2962 134.719 85.1223 134.719C86.9055 134.719 88.1731 133.58 88.1731 131.926C88.1731 130.271 86.9055 129.154 85.1223 129.154ZM85.3157 137.834V140.068H93.802V137.834H95.843V145.59H83.2962V137.834H85.3157ZM85.3157 143.914H93.802V141.68H85.3157V143.914ZM118.555 126.598V140.691H116.514V133.451H112.84V131.797H116.514V126.598H118.555ZM119.07 143.764V145.418H106.051V139.424H108.092V143.764H119.07ZM109.402 130.486C109.402 132.893 111.142 135.299 114.043 136.266L112.99 137.898C110.831 137.136 109.23 135.589 108.392 133.688C107.555 135.804 105.868 137.512 103.58 138.328L102.527 136.674C105.492 135.664 107.318 133.129 107.318 130.486V129.734H103.15V128.059H113.527V129.734H109.402V130.486ZM131.813 132.764C131.813 135.729 133.618 138.865 136.497 140.24L135.336 141.787C133.242 140.799 131.663 138.79 130.846 136.438C129.998 138.983 128.322 141.11 126.12 142.131L124.981 140.562C127.903 139.23 129.815 135.943 129.815 132.764V131.496H125.561V129.863H129.794V126.963H131.856V129.863H136.045V131.496H131.813V132.764ZM140.213 126.576V134.332H143.307V136.051H140.213V145.826H138.172V126.576H140.213ZM160.85 129.455V131.152H158.036V133.516H160.85V135.213H158.036V138.221H155.995V126.598H158.036V129.455H160.85ZM152.45 127.758V133.15H145.747V135.492C149.088 135.481 151.451 135.363 154.255 134.891L154.47 136.545C151.483 137.082 148.948 137.189 145.253 137.168H143.706V131.582H150.452V129.412H143.684V127.758H152.45ZM151.806 138.693C155.759 138.693 158.208 140.025 158.208 142.26C158.208 144.494 155.759 145.783 151.806 145.783C147.788 145.783 145.339 144.494 145.339 142.26C145.339 140.025 147.788 138.693 151.806 138.693ZM151.806 140.305C148.991 140.305 147.337 141.014 147.337 142.26C147.337 143.506 148.991 144.236 151.806 144.215C154.599 144.236 156.21 143.506 156.21 142.26C156.21 141.014 154.599 140.305 151.806 140.305ZM167.243 129.648C167.243 132.184 169.005 134.525 171.884 135.471L170.788 137.082C168.683 136.341 167.104 134.837 166.277 132.936C165.428 135.095 163.795 136.781 161.55 137.619L160.454 135.986C163.462 134.912 165.202 132.355 165.224 129.477V127.586H167.243V129.648ZM175.73 126.576V131.41H178.523V133.129H175.73V138.199H173.689V126.576H175.73ZM169.521 138.65C173.474 138.65 175.902 139.961 175.902 142.217C175.902 144.494 173.474 145.805 169.521 145.783C165.525 145.805 163.054 144.494 163.054 142.217C163.054 139.961 165.525 138.65 169.521 138.65ZM169.521 140.262C166.728 140.262 165.073 140.992 165.095 142.217C165.073 143.484 166.728 144.172 169.521 144.193C172.292 144.172 173.904 143.484 173.904 142.217C173.904 140.992 172.292 140.262 169.521 140.262ZM186.742 128.725V130.357H180.984V133.795H186.419V135.406H180.984V139.467C183.584 139.456 185.302 139.349 187.343 139.016L187.515 140.691C185.259 141.1 183.39 141.186 180.318 141.186H179.029V128.725H186.742ZM194.863 126.576V145.826H192.908V135.879H190.587V144.881H188.632V126.941H190.587V134.225H192.908V126.576H194.863ZM217.059 126.576V137.791H215.018V132.957H211.408V131.26H215.018V126.576H217.059ZM217.059 138.693V145.59H204.361V138.693H217.059ZM206.381 140.305V143.936H215.061V140.305H206.381ZM207.906 129.863C207.906 132.27 209.647 134.654 212.547 135.664L211.494 137.275C209.335 136.513 207.735 134.966 206.897 133.064C206.059 135.181 204.372 136.878 202.084 137.684L201.031 136.072C203.996 135.062 205.822 132.506 205.822 129.863V129.412H201.654V127.736H212.031V129.412H207.906V129.863ZM228.651 127.779C228.651 132.678 225.299 136.158 219.713 137.727L218.875 136.137C223.312 134.891 226.073 132.484 226.481 129.455H219.885V127.779H228.651ZM234.752 126.598V137.49H232.711V133.107H228.737V131.41H232.711V126.598H234.752ZM234.752 138.285V145.568H222.163V138.285H234.752ZM224.161 139.918V143.936H232.733V139.918H224.161ZM41.5469 177L41.5254 175.303L46.5742 169.846C48.1641 168.105 49.002 167.117 49.0234 165.721C49.002 164.152 47.8418 163.207 46.3379 163.207C44.7695 163.207 43.7383 164.26 43.7383 165.957H41.5469C41.5254 163.121 43.5879 161.23 46.4023 161.23C49.2168 161.23 51.1934 163.121 51.2148 165.656C51.1934 167.375 50.4414 168.75 47.7129 171.65L44.7266 174.852V174.98H51.4512V177H41.5469ZM56.6624 169.652C56.6409 173.691 55.5452 177.064 53.6331 179.943H51.678C53.096 177.816 54.4495 173.477 54.4495 169.652C54.4495 165.807 53.096 161.488 51.678 159.34H53.6331C55.5452 162.219 56.6409 165.592 56.6624 169.652ZM72.8212 161.639V162.82C72.8212 164.432 72.8212 166.924 72.2627 170.361L70.2431 170.211C70.7265 167.128 70.7802 164.904 70.8017 163.293H62.9814V161.639H72.8212ZM67.8798 167.139V172.896C69.9316 172.832 72.0156 172.692 73.9384 172.445L74.0459 173.971C70.0283 174.615 65.5595 174.701 62.1435 174.68L61.9072 173.025C63.1103 173.015 64.4531 173.004 65.8603 172.961V167.139H67.8798ZM77.0966 159.576V167.525H80.04V169.266H77.0966V178.826H75.0341V159.576H77.0966ZM97.3899 169.137V170.812H79.7942V169.137H87.5501V166.322H89.5696V169.137H97.3899ZM89.5911 160.693C89.5911 163.143 92.5989 165.291 96.3157 165.764L95.5208 167.375C92.4593 166.892 89.763 165.398 88.5598 163.271C87.3245 165.398 84.6282 166.892 81.5559 167.375L80.804 165.764C84.4993 165.291 87.5071 163.121 87.5286 160.693V159.877H89.5911V160.693ZM95.1985 172.51V178.826H93.136V174.121H81.7493V172.51H95.1985ZM101.183 175.518L99.4645 181.447H97.6383L98.777 175.518H101.183ZM123.487 159.598V173.691H121.446V159.598H123.487ZM124.067 176.764V178.418H110.897V172.359H112.959V176.764H124.067ZM114.528 162.562C114.506 165.377 116.311 167.955 119.276 168.986L118.223 170.619C115.999 169.792 114.356 168.159 113.496 166.064C112.648 168.299 110.983 170.093 108.727 170.963L107.631 169.352C110.66 168.234 112.444 165.463 112.444 162.562V160.65H114.528V162.562ZM141.889 162.283V163.938H126.055V162.283H132.973V159.855H134.993V162.283H141.889ZM142.835 175.002V176.656H125.217V175.002H132.973V172.445C129.6 172.241 127.559 170.909 127.559 168.771C127.559 166.451 130.008 165.098 133.983 165.098C137.915 165.098 140.385 166.451 140.385 168.771C140.385 170.909 138.334 172.241 134.993 172.445V175.002H142.835ZM133.983 166.709C131.233 166.709 129.622 167.439 129.643 168.771C129.622 170.104 131.233 170.834 133.983 170.855C136.69 170.834 138.301 170.104 138.301 168.771C138.301 167.439 136.69 166.709 133.983 166.709ZM149.227 160.457C152.128 160.457 154.233 162.068 154.233 164.453C154.233 166.816 152.128 168.449 149.227 168.428C146.327 168.449 144.265 166.816 144.265 164.453C144.265 162.068 146.327 160.457 149.227 160.457ZM149.227 162.111C147.487 162.111 146.22 163.035 146.241 164.453C146.22 165.85 147.487 166.773 149.227 166.752C151.011 166.773 152.278 165.85 152.278 164.453C152.278 163.035 151.011 162.111 149.227 162.111ZM158.917 159.598V178.826H156.897V159.598H158.917ZM142.89 169.932C146.434 169.932 151.354 169.846 155.565 169.223L155.716 170.748C153.965 171.081 152.139 171.285 150.366 171.414V178.225H148.325V171.521C146.456 171.607 144.694 171.618 143.169 171.629L142.89 169.932ZM175.73 159.598V165.27H178.523V166.988H175.73V173.734H173.689V159.598H175.73ZM176.546 176.764V178.418H163.527V172.338H165.568V176.764H176.546ZM163.355 160.973V164.045H168.404V160.973H170.423V170.555H161.357V160.973H163.355ZM163.355 168.922H168.404V165.656H163.355V168.922ZM193.478 160.801V168.707H184.326V160.801H193.478ZM186.324 162.434V167.117H191.459V162.434H186.324ZM199.258 159.576V170.576H197.238V159.576H199.258ZM199.709 171.822V173.369H194.08C194.22 175.045 196.894 176.796 200.396 177.193L199.709 178.762C196.69 178.407 194.209 177.107 193.049 175.41C191.867 177.129 189.332 178.386 186.303 178.762L185.594 177.193C189.096 176.86 191.835 175.088 191.974 173.369H186.367V171.822H192.017V170.018H194.037V171.822H199.709ZM210.282 170.555V172.961H219.37V170.555H221.368V178.59H208.262V170.555H210.282ZM210.282 176.914H219.37V174.551H210.282V176.914ZM221.411 160.414V161.875C221.411 163.347 221.411 165.001 220.916 167.332H223.645V168.986H206.028V167.332H218.918C219.37 165.119 219.391 163.497 219.391 162.09H208.241V160.414H221.411ZM233.927 160.844C233.927 161.574 233.851 162.262 233.712 162.928H237.729V159.598H239.77V171.049H237.729V168.643H232.874V166.988H237.729V164.561H233.196C231.896 167.579 228.942 169.738 224.774 170.855L224.001 169.244C228.577 168.009 231.359 165.56 231.735 162.498H225.011V160.844H233.927ZM239.77 171.887V178.783H237.729V173.498H226.729V171.887H239.77ZM256.54 159.598V165.785H259.333V167.482H256.54V173.992H254.499V159.598H256.54ZM252.909 161.832V163.486H241.437V161.832H246.163V159.576H248.204V161.832H252.909ZM247.173 164.41C249.944 164.41 251.835 165.85 251.835 168.041C251.835 170.232 249.944 171.65 247.173 171.65C244.38 171.65 242.489 170.232 242.489 168.041C242.489 165.85 244.38 164.41 247.173 164.41ZM247.173 165.979C245.54 165.979 244.444 166.773 244.466 168.041C244.444 169.287 245.54 170.061 247.173 170.061C248.806 170.061 249.901 169.287 249.923 168.041C249.901 166.773 248.806 165.979 247.173 165.979ZM257.357 176.764V178.418H244.337V172.854H246.378V176.764H257.357ZM270.722 165.764C270.722 168.729 272.527 171.865 275.406 173.24L274.246 174.787C272.151 173.799 270.572 171.79 269.756 169.438C268.907 171.983 267.231 174.11 265.029 175.131L263.89 173.562C266.812 172.23 268.724 168.943 268.724 165.764V164.496H264.47V162.863H268.703V159.963H270.765V162.863H274.955V164.496H270.722V165.764ZM279.123 159.576V167.332H282.217V169.051H279.123V178.826H277.082V159.576H279.123ZM288.609 163.1C288.609 165.699 290.35 168.234 293.25 169.244L292.133 170.834C290.027 170.028 288.459 168.438 287.643 166.43C286.805 168.664 285.161 170.426 282.895 171.285L281.799 169.674C284.785 168.6 286.568 165.936 286.59 163.035V160.758H288.609V163.1ZM297.869 159.598V173.949H295.828V165.656H291.768V163.98H295.828V159.598H297.869ZM298.299 176.764V178.418H285.301V172.338H287.363V176.764H298.299ZM315.563 159.598V173.82H313.522V168.814H309.311V170.619H300.438V160.865H302.479V164.131H307.291V160.865H309.311V163.014H313.522V159.598H315.563ZM315.993 176.764V178.418H302.995V172.424H305.057V176.764H315.993ZM302.479 168.965H307.291V165.699H302.479V168.965ZM309.311 167.16H313.522V164.689H309.311V167.16ZM333.257 159.598V170.984H331.216V168.643H326.36V166.967H331.216V164.625H326.553C325.318 167.719 322.428 169.899 318.26 171.092L317.444 169.502C321.999 168.191 324.663 165.753 325.028 162.648H318.432V160.973H327.241C327.241 161.682 327.166 162.369 327.048 163.014H331.216V159.598H333.257ZM326.919 171.199C330.807 171.199 333.364 172.617 333.385 174.959C333.364 177.301 330.807 178.74 326.919 178.74C322.966 178.74 320.43 177.301 320.43 174.959C320.43 172.617 322.966 171.199 326.919 171.199ZM326.919 172.811C324.169 172.811 322.45 173.584 322.45 174.959C322.45 176.312 324.169 177.107 326.919 177.107C329.626 177.107 331.323 176.312 331.344 174.959C331.323 173.584 329.626 172.811 326.919 172.811ZM355.302 160.543V162.004C355.302 163.519 355.302 165.237 354.808 167.568H357.536V169.244H339.919V167.568H352.745C353.261 165.323 353.283 163.68 353.283 162.219H342.132V160.543H355.302ZM355.324 171.693V178.59H342.068V171.693H355.324ZM344.066 173.305V176.936H353.304V173.305H344.066ZM364.703 165.248C364.703 168.471 366.808 171.801 369.773 173.068L368.656 174.658C366.389 173.659 364.585 171.543 363.693 168.965C362.801 171.715 360.986 174.057 358.752 175.152L357.57 173.541C360.47 172.188 362.619 168.557 362.64 165.248V163.207H358.236V161.51H369.086V163.207H364.703V165.248ZM373.554 159.576V178.826H371.513V159.576H373.554Z" fill="#5E657B" fill-opacity="0.6"/>
<path d="M20 206H426V266C426 271.523 421.523 276 416 276H30C24.4772 276 20 271.523 20 266V206Z" fill="#00B809"/>
<path d="M46 239.889L53.1468 247.668L65.3984 234.332" stroke="white" stroke-width="5" stroke-linecap="round" stroke-linejoin="round"/>
<path d="M103.35 230.852V236.945H106.069V239.406H103.35V245.336H100.35V230.852H103.35ZM86.0533 242.594C87.6119 242.594 89.3931 242.594 91.233 242.547V241.352C88.9127 241.023 87.4595 239.898 87.483 238.258C87.4595 236.289 89.5455 235.07 92.7095 235.07C95.8502 235.07 97.9127 236.289 97.9361 238.258C97.9127 239.898 96.4947 241.012 94.2095 241.328V242.43C95.9673 242.359 97.7134 242.219 99.3658 242.008L99.5767 244.07C95.0767 244.867 90.1314 244.914 86.358 244.914L86.0533 242.594ZM103.35 246.203V252.156H100.35V248.5H88.772V246.203H103.35ZM98.8267 232.398V234.578H86.6158V232.398H91.233V230.664H94.2095V232.398H98.8267ZM92.7095 237.062C91.1861 237.062 90.3189 237.438 90.3423 238.258C90.3189 239.031 91.1861 239.477 92.7095 239.477C94.2095 239.477 95.0533 239.031 95.0767 238.258C95.0533 237.438 94.2095 237.062 92.7095 237.062ZM124.409 230.852V246.18H121.409V230.852H124.409ZM124.972 249.391V251.781H110.112V244.633H113.136V249.391H124.972ZM112.714 232.211C115.995 232.211 118.55 234.461 118.55 237.578C118.55 240.766 115.995 242.992 112.714 242.992C109.433 242.992 106.878 240.766 106.878 237.578C106.878 234.461 109.433 232.211 112.714 232.211ZM112.714 234.812C111.05 234.789 109.784 235.844 109.808 237.578C109.784 239.359 111.05 240.391 112.714 240.391C114.331 240.391 115.597 239.359 115.597 237.578C115.597 235.844 114.331 234.789 112.714 234.812ZM145.14 230.852V243.977H142.304V238.727H140.64V243.742H137.851V231.133H140.64V236.312H142.304V230.852H145.14ZM137.171 232.867V235.234H126.695V232.867H130.468V230.945H133.445V232.867H137.171ZM131.968 235.914C134.687 235.914 136.609 237.414 136.632 239.641C136.609 241.82 134.687 243.367 131.968 243.367C129.296 243.367 127.351 241.82 127.351 239.641C127.351 237.414 129.296 235.914 131.968 235.914ZM131.968 238.047C130.796 238.047 130.023 238.586 130.023 239.641C130.023 240.648 130.796 241.211 131.968 241.211C133.14 241.211 133.914 240.648 133.937 239.641C133.914 238.586 133.14 238.047 131.968 238.047ZM134.992 245.078C134.968 246.637 135.66 248.242 137.359 249.297C139.046 248.184 139.796 246.496 139.82 245.078V244.633H142.796V245.078C142.773 247.07 143.968 248.945 146.804 249.672L145.421 251.898C143.359 251.277 142 250.035 141.273 248.453C140.57 250.023 139.339 251.406 137.406 252.109C135.414 251.418 134.16 250.117 133.492 248.547C132.707 250.047 131.371 251.266 129.414 251.898L128.007 249.672C130.773 248.875 132.015 246.953 132.015 245.078V244.633H134.992V245.078ZM152.301 243.625V245.43H161.09V243.625H164.066V251.922H149.348V243.625H152.301ZM152.301 249.578H161.09V247.703H152.301V249.578ZM166.527 240.133V242.547H147.074V240.133H166.527ZM158.348 231.766C158.348 233.898 160.809 236.312 165.566 236.852L164.512 239.195C160.832 238.727 158.172 237.203 156.801 235.141C155.43 237.203 152.758 238.727 149.113 239.195L148.035 236.852C152.793 236.289 155.254 233.945 155.277 231.766V231.039H158.348V231.766ZM185.266 230.828V252.156H182.29V230.828H185.266ZM171.438 232.867V244.328C174.321 244.293 177.415 244.023 180.555 243.414L180.93 245.875C177.18 246.648 173.665 246.906 170.36 246.883H168.485V232.867H171.438ZM204.427 230.828V238.75H207.567V241.188H204.427V252.203H201.427V230.828H204.427ZM198.45 232.797V235.211H191.419V244.562C194.513 244.527 197.067 244.387 199.903 243.883L200.231 246.391C196.927 246.953 194.02 247.047 190.247 247.023H188.442V232.797H198.45ZM210.697 250.211C209.595 250.211 208.705 249.32 208.728 248.242C208.705 247.164 209.595 246.297 210.697 246.297C211.728 246.297 212.642 247.164 212.642 248.242C212.642 249.32 211.728 250.211 210.697 250.211Z" fill="white"/>
</svg>
