<svg width="455" height="114" viewBox="0 0 455 114" fill="none" xmlns="http://www.w3.org/2000/svg">
<path d="M0 30C0 13.4315 13.4315 0 30 0H425C441.569 0 455 13.4315 455 30V114H0V30Z" fill="#A5ADBE"/>
<path d="M0 30C0 13.4315 13.4315 0 30 0H425C441.569 0 455 13.4315 455 30V114H0V30Z" fill="url(#paint0_linear_325_6602)" fill-opacity="0.2"/>
<rect x="148" y="8" width="158" height="43" rx="20" fill="url(#paint1_linear_325_6602)" fill-opacity="0.12"/>
<rect x="10" y="8" width="56" height="43" rx="21" fill="url(#paint2_linear_325_6602)" fill-opacity="0.12"/>
<rect x="397" y="8" width="50" height="50" rx="25" fill="url(#paint3_linear_325_6602)" fill-opacity="0.12"/>
<rect x="339" y="8" width="50" height="50" rx="25" fill="url(#paint4_linear_325_6602)" fill-opacity="0.12"/>
<defs>
<linearGradient id="paint0_linear_325_6602" x1="227.5" y1="114" x2="227.5" y2="0" gradientUnits="userSpaceOnUse">
<stop stop-opacity="0"/>
<stop offset="1"/>
</linearGradient>
<linearGradient id="paint1_linear_325_6602" x1="227" y1="8" x2="227" y2="51" gradientUnits="userSpaceOnUse">
<stop stop-color="white"/>
<stop offset="1" stop-color="white" stop-opacity="0"/>
</linearGradient>
<linearGradient id="paint2_linear_325_6602" x1="38" y1="8" x2="38" y2="51" gradientUnits="userSpaceOnUse">
<stop stop-color="white"/>
<stop offset="1" stop-color="white" stop-opacity="0"/>
</linearGradient>
<linearGradient id="paint3_linear_325_6602" x1="422" y1="8" x2="422" y2="58" gradientUnits="userSpaceOnUse">
<stop stop-color="white"/>
<stop offset="0.822115" stop-color="white" stop-opacity="0"/>
</linearGradient>
<linearGradient id="paint4_linear_325_6602" x1="364" y1="8" x2="364" y2="58" gradientUnits="userSpaceOnUse">
<stop stop-color="white"/>
<stop offset="0.822115" stop-color="white" stop-opacity="0"/>
</linearGradient>
</defs>
</svg>
