<svg width="382" height="460" viewBox="0 0 382 460" fill="none" xmlns="http://www.w3.org/2000/svg">
<rect x="0.5" width="381" height="460" rx="24" fill="#E1E3E5"/>
<rect x="0.5" width="381" height="460" rx="24" fill="white" fill-opacity="0.8"/>
<path d="M58.4758 43.6328V68.5156H55.1125V43.6328H58.4758ZM53.4445 44.125V67.3398H50.1906V58.2891H47.757V55.4453H50.1906V53.3398H47.757V50.4961H50.1906V44.125H53.4445ZM48.3039 46.3945V49.2109H46.718V59.7656C47.4016 59.7109 48.0578 59.6426 48.6594 59.5742L48.9055 62.1719C45.1047 62.8281 40.0188 62.9375 36.8195 62.9375L36.4367 60.0664L38.5148 60.0391V49.2109H36.9016V46.3945H48.3039ZM41.6047 60.0117L43.5734 59.9297V49.2109H41.6047V60.0117ZM80.9873 43.6328V68.5156H77.46V43.6328H80.9873ZM73.5225 46.2305C73.5225 53.7773 70.8702 60.0391 61.9834 64.25L60.1514 61.4609C66.5772 58.4258 69.4073 54.4883 69.9678 48.9648H61.4913V46.2305H73.5225ZM106.124 53.5039V56.2656H96.4989V57.8516H103.362V64.2227H89.4989V65.7266H104.018V68.3516H86.0809V61.7617H99.9169V60.4766H86.0536V57.8516H92.9989V56.2656H83.4286V53.5039H106.124ZM103.253 44.3438V52.1914H86.245V44.3438H103.253ZM89.663 47.0508V49.5117H99.7802V47.0508H89.663ZM127.221 45.5742C127.221 48.5 130.202 51.7539 135.917 52.4648L134.549 55.2812C130.202 54.6523 127.016 52.6426 125.389 49.9492C123.749 52.6426 120.59 54.6523 116.284 55.2812L114.889 52.4648C120.549 51.7539 123.557 48.5 123.557 45.5742V44.3711H127.221V45.5742ZM136.71 57.168V60.0117H127.03V68.5156H123.585V60.0117H114.014V57.168H136.71ZM158.346 43.6328V68.5156H154.873V56.0469H149.924V53.2031H154.873V43.6328H158.346ZM150.061 46.2305C150.061 53.75 147.627 59.875 138.932 64.1953L137.127 61.4609C143.416 58.3574 146.014 54.4062 146.561 48.9648H138.303V46.2305H150.061ZM190.736 62.7461V65.6172H167.959V62.7461H173.045V56.6484C171.117 55.5 169.955 53.7363 169.955 51.5352C169.955 47.5156 173.893 44.8359 179.307 44.8359C184.693 44.8359 188.658 47.5156 188.686 51.5352C188.672 53.6816 187.537 55.4316 185.678 56.5938V62.7461H190.736ZM179.307 47.5977C175.752 47.5977 173.4 49.0195 173.4 51.5352C173.4 53.9688 175.752 55.4727 179.307 55.4727C182.834 55.4727 185.213 53.9688 185.24 51.5352C185.213 49.0195 182.834 47.5977 179.307 47.5977ZM176.49 62.7461H182.15V57.9062C181.262 58.084 180.305 58.1797 179.307 58.1797C178.309 58.1797 177.365 58.0977 176.49 57.9062V62.7461ZM205.51 46.2305V48.9648H200.478C200.506 51.5215 202.393 54.1191 206.385 55.1445L204.771 57.8242C201.941 57.1133 199.945 55.541 198.81 53.5039C197.73 55.8281 195.734 57.6465 192.795 58.4805L191.154 55.7734C195.146 54.6387 196.978 51.7949 197.006 48.9648H192.002V46.2305H197.006V43.5234H200.533V46.2305H205.51ZM212.291 43.6328V58.6719H208.818V53.0938H204.771V50.3047H208.818V43.6328H212.291ZM203.787 59.082C209.092 59.1094 212.346 60.7773 212.373 63.7578C212.346 66.7656 209.092 68.5156 203.787 68.5156C198.51 68.5156 195.228 66.7656 195.228 63.7578C195.228 60.7773 198.51 59.1094 203.787 59.082ZM203.787 61.7617C200.478 61.7617 198.701 62.418 198.701 63.7578C198.701 65.125 200.478 65.8633 203.787 65.8633C207.15 65.8633 208.9 65.125 208.9 63.7578C208.9 62.418 207.15 61.7617 203.787 61.7617ZM235.33 45.6289V57.6328H223.162V45.6289H235.33ZM226.607 48.3906V54.8711H231.857V48.3906H226.607ZM242.74 43.6602V61.3516H239.24V43.6602H242.74ZM243.396 65.1523V67.9688H226.06V59.7109H229.588V65.1523H243.396ZM266.345 43.6602V62.4453H262.845V60.4766H258.087V58.0977H262.845V43.6602H266.345ZM266.892 65.2891V68.0781H248.353V60.6406H251.826V57.332C249.597 57.4277 247.478 57.4414 245.591 57.4414L245.181 54.6797C249.747 54.6523 255.9 54.5977 261.15 53.9414L261.341 56.4297C259.372 56.7578 257.335 56.9902 255.326 57.1406V61.8711H251.826V65.2891H266.892ZM253.275 44.5078C256.884 44.4805 259.482 46.3125 259.482 48.9648C259.482 51.6172 256.884 53.3398 253.275 53.3398C249.583 53.3398 247.013 51.6172 247.013 48.9648C247.013 46.3125 249.556 44.4805 253.275 44.5078ZM253.275 47.0508C251.497 47.0508 250.294 47.7344 250.322 48.9648C250.294 50.168 251.497 50.8242 253.275 50.8242C254.943 50.8242 256.146 50.168 256.173 48.9648C256.146 47.7344 254.943 47.0508 253.275 47.0508ZM296.685 43.6602V61.8164H293.185V43.6602H296.685ZM297.341 65.2891V68.0781H280.005V60.0664H283.532V65.2891H297.341ZM285.392 47.4336C285.364 50.7148 287.114 53.9414 291.216 55.2539L289.439 57.9883C286.636 57.0586 284.694 55.1992 283.587 52.8203C282.48 55.377 280.484 57.4277 277.571 58.4258L275.767 55.6641C279.95 54.2695 281.755 50.7969 281.755 47.4336V45.0273H285.392V47.4336ZM313.399 46.2305V48.9648H308.368C308.395 51.5215 310.282 54.1191 314.274 55.1445L312.661 57.8242C309.831 57.1133 307.835 55.541 306.7 53.5039C305.62 55.8281 303.624 57.6465 300.685 58.4805L299.044 55.7734C303.036 54.6387 304.868 51.7949 304.895 48.9648H299.892V46.2305H304.895V43.5234H308.423V46.2305H313.399ZM320.181 43.6328V58.6719H316.708V53.0938H312.661V50.3047H316.708V43.6328H320.181ZM311.677 59.082C316.981 59.1094 320.235 60.7773 320.263 63.7578C320.235 66.7656 316.981 68.5156 311.677 68.5156C306.399 68.5156 303.118 66.7656 303.118 63.7578C303.118 60.7773 306.399 59.1094 311.677 59.082ZM311.677 61.7617C308.368 61.7617 306.591 62.418 306.591 63.7578C306.591 65.125 308.368 65.8633 311.677 65.8633C315.04 65.8633 316.79 65.125 316.79 63.7578C316.79 62.418 315.04 61.7617 311.677 61.7617ZM331.973 49.2656C331.973 53.9414 333.86 58.4805 338.016 60.2852L335.884 63.0742C333.122 61.7207 331.276 59.2461 330.251 56.1836C329.157 59.4375 327.243 62.1035 324.399 63.5117L322.212 60.668C326.477 58.7539 328.419 53.9414 328.446 49.2656V45.5469H331.973V49.2656ZM343.567 43.6328V68.5703H340.122V54.2695H335.227V51.4531H340.122V43.6328H343.567Z" fill="#515E67"/>
<rect x="24.5" y="102" width="333" height="86" rx="10" fill="#808899" fill-opacity="0.1"/>
<path d="M63.5045 124.201V125.801H69.9205V124.201H72.1529V130.74H67.8287V132.094H74.0162V133.887H59.4263V132.094H65.5787V130.74H61.2896V124.201H63.5045ZM63.5045 128.947H69.9205V127.523H63.5045V128.947ZM72.3638 137.543V139.336H61.1841V134.801H63.4341V137.543H72.3638ZM79.6862 138V125.273H88.0709V127.453H82.3229V130.547H87.526V132.727H82.3229V138H79.6862ZM89.7985 138H86.9509L91.363 125.273H94.7555L99.1501 138H96.32L95.3708 135.064H90.7653L89.7985 138ZM91.4333 133.008H94.7028L93.1032 128.139H93.0153L91.4333 133.008ZM102.495 125.273L105.096 129.65H105.184L107.803 125.273H110.792L106.907 131.637L110.88 138H107.821L105.184 133.623H105.096L102.46 138H99.4187L103.409 131.637L99.489 125.273H102.495ZM124.53 124.904V132.621H116.708V124.904H124.53ZM118.923 126.68V130.846H122.298V126.68H118.923ZM129.294 123.639V135.012H127.044V123.639H129.294ZM129.716 137.455V139.266H118.571V133.957H120.839V137.455H129.716ZM144.469 123.639V135.715H142.219V134.449H139.16V132.92H142.219V123.639H144.469ZM144.82 137.543V139.336H132.902V134.555H135.135V132.428C133.702 132.489 132.34 132.498 131.127 132.498L130.863 130.723C133.799 130.705 137.754 130.67 141.129 130.248L141.252 131.848C139.986 132.059 138.677 132.208 137.385 132.305V135.346H135.135V137.543H144.82ZM136.066 124.184C138.387 124.166 140.056 125.344 140.056 127.049C140.056 128.754 138.387 129.861 136.066 129.861C133.693 129.861 132.041 128.754 132.041 127.049C132.041 125.344 133.676 124.166 136.066 124.184ZM136.066 125.818C134.924 125.818 134.15 126.258 134.168 127.049C134.15 127.822 134.924 128.244 136.066 128.244C137.139 128.244 137.912 127.822 137.93 127.049C137.912 126.258 137.139 125.818 136.066 125.818ZM160.522 131.795V133.588H145.933V131.795H160.522ZM158.87 137.543V139.336H147.69V134.66H149.94V137.543H158.87ZM153.227 124.113C156.725 124.096 159.028 125.344 159.046 127.383C159.028 129.422 156.725 130.688 153.227 130.688C149.694 130.688 147.391 129.422 147.391 127.383C147.391 125.344 149.694 124.096 153.227 124.113ZM153.227 125.871C151.013 125.889 149.712 126.416 149.729 127.383C149.712 128.385 151.013 128.877 153.227 128.877C155.442 128.877 156.725 128.385 156.725 127.383C156.725 126.416 155.442 125.889 153.227 125.871ZM166.931 131.83V123.393H171.782V125.66H169.427V131.83H166.931ZM184.971 124.201V125.59C184.971 126.847 184.971 128.183 184.654 129.809H186.623V131.584H172.104V129.809H182.422C182.51 129.325 182.571 128.877 182.633 128.455L173.668 128.807L173.422 127.084L182.738 126.891V125.959H173.861V124.201H184.971ZM185.041 132.533V136.734H175.936V137.719H185.604V139.441H173.703V135.117H182.809V134.238H173.686V132.533H185.041ZM200.462 123.639V135.416H198.23V123.639H200.462ZM200.884 137.543V139.336H189.704V134.432H191.937V137.543H200.884ZM195.329 124.676V129.773H190.126V131.549C192.982 131.54 194.811 131.461 196.876 131.057L197.122 132.85C194.802 133.289 192.728 133.377 189.335 133.377H187.929V128.121H193.097V126.469H187.911V124.676H195.329ZM216.691 132.111V133.869H202.066V132.111H208.254V130.934H203.895V123.973H214.986V125.713H206.145V126.609H214.617V128.262H206.145V129.229H215.127V130.934H210.504V132.111H216.691ZM214.899 134.854V139.617H212.631V136.611H203.719V134.854H214.899ZM221.847 131.83V140.268H216.995V138H219.351V131.83H221.847ZM234.284 127.242C234.284 130.248 235.497 133.166 238.169 134.326L236.798 136.119C235.023 135.249 233.836 133.658 233.177 131.689C232.474 133.781 231.243 135.495 229.415 136.4L228.009 134.572C230.751 133.342 231.999 130.248 232.017 127.242V124.852H234.284V127.242ZM241.738 123.621V139.652H239.523V130.459H236.376V128.648H239.523V123.621H241.738ZM256.649 123.621V139.652H254.381V123.621H256.649ZM246.295 124.887V128.789H249.74V124.887H251.955V135.908H244.045V124.887H246.295ZM246.295 134.098H249.74V130.529H246.295V134.098ZM266.691 125.73C266.691 128.068 268.765 130.582 272.386 131.197L271.402 133.061C268.616 132.507 266.541 130.942 265.513 128.877C264.449 130.925 262.375 132.498 259.607 133.061L258.64 131.197C262.191 130.564 264.283 128.051 264.3 125.73V124.57H266.691V125.73ZM272.913 135.803V137.648H258.271V135.803H272.913ZM287.912 130.793V132.463H273.27V130.793H287.912ZM286.155 133.254V137.033H277.19V137.947H286.629V139.477H274.957V135.609H283.94V134.801H274.94V133.254H286.155ZM286.137 123.902V127.664H277.33V128.525H286.418V130.037H275.098V126.24H283.887V125.432H275.063V123.902H286.137ZM307.539 131.865V133.623H292.914V131.865H299.102V130.881H294.743V124.008H305.834V125.73H296.993V126.627H305.465V128.244H296.993V129.158H305.975V130.881H301.352V131.865H307.539ZM300.227 134.361C303.76 134.344 305.782 135.293 305.799 136.98C305.782 138.703 303.76 139.617 300.227 139.617C296.641 139.617 294.62 138.703 294.62 136.98C294.62 135.293 296.641 134.344 300.227 134.361ZM300.227 136.014C297.924 136.014 296.852 136.312 296.87 136.98C296.852 137.666 297.924 137.965 300.227 137.965C302.477 137.965 303.532 137.666 303.549 136.98C303.532 136.312 302.477 136.014 300.227 136.014ZM315.683 126.064V127.84H307.949V126.064H310.726V124.061H312.941V126.064H315.683ZM311.851 128.561C313.89 128.561 315.349 130.143 315.367 132.357C315.349 134.59 313.89 136.172 311.851 136.172C309.812 136.172 308.318 134.59 308.318 132.357C308.318 130.143 309.812 128.561 311.851 128.561ZM311.851 130.424C310.919 130.424 310.287 131.145 310.287 132.357C310.287 133.57 310.919 134.273 311.851 134.273C312.747 134.273 313.38 133.57 313.398 132.357C313.38 131.145 312.747 130.424 311.851 130.424ZM321.8 123.621V139.617H319.673V131.918H318.372V138.932H316.281V123.938H318.372V130.125H319.673V123.621H321.8ZM130.414 150.621V159.375H128.181V156.035H125.65V154.207H128.181V150.621H130.414ZM121.959 159.99V161.502H128.181V159.99H130.414V166.441H119.744V159.99H121.959ZM121.959 164.648H128.181V163.225H121.959V164.648ZM126.16 151.342V153.17H122.996C123.084 154.954 124.226 156.809 126.652 157.6L125.545 159.322C123.769 158.733 122.548 157.591 121.853 156.141C121.15 157.749 119.876 159.041 117.986 159.656L116.844 157.898C119.357 157.063 120.561 155.121 120.693 153.17H117.476V151.342H126.16ZM140.438 151.869C140.438 153.75 142.354 155.842 146.028 156.299L145.149 158.109C142.354 157.705 140.306 156.413 139.261 154.682C138.206 156.413 136.176 157.705 133.407 158.109L132.511 156.299C136.149 155.842 138.083 153.75 138.083 151.869V151.096H140.438V151.869ZM146.538 159.322V161.15H140.315V166.617H138.1V161.15H131.948V159.322H146.538ZM156.299 155.525V157.318H153.433V158.936C154.699 158.874 155.956 158.795 157.142 158.672L157.301 160.271C153.908 160.746 150.287 160.834 147.334 160.834L147.035 159.059C148.318 159.05 149.733 159.041 151.183 159.006V157.318H148.389V151.588H156.158V153.381H150.639V155.525H156.299ZM160.412 150.604V162.662H158.127V150.604H160.412ZM160.834 164.543V166.336H149.514V161.748H151.781V164.543H160.834ZM175.258 151.904V159.621H167.435V151.904H175.258ZM169.65 153.68V157.846H173.025V153.68H169.65ZM180.021 150.639V162.012H177.771V150.639H180.021ZM180.443 164.455V166.266H169.299V160.957H171.566V164.455H180.443ZM195.196 150.639V162.715H192.946V161.449H189.888V159.92H192.946V150.639H195.196ZM195.548 164.543V166.336H183.63V161.555H185.862V159.428C184.43 159.489 183.067 159.498 181.854 159.498L181.591 157.723C184.526 157.705 188.481 157.67 191.856 157.248L191.979 158.848C190.714 159.059 189.404 159.208 188.112 159.305V162.346H185.862V164.543H195.548ZM186.794 151.184C189.114 151.166 190.784 152.344 190.784 154.049C190.784 155.754 189.114 156.861 186.794 156.861C184.421 156.861 182.769 155.754 182.769 154.049C182.769 152.344 184.403 151.166 186.794 151.184ZM186.794 152.818C185.651 152.818 184.878 153.258 184.895 154.049C184.878 154.822 185.651 155.244 186.794 155.244C187.866 155.244 188.64 154.822 188.657 154.049C188.64 153.258 187.866 152.818 186.794 152.818ZM214.788 150.639V162.328H212.556V157.107H209.69V155.262H212.556V150.639H214.788ZM209.831 151.816C209.831 156.105 207.106 159.27 202.431 160.729L201.517 158.953C204.83 157.916 206.966 156.009 207.388 153.645H202.343V151.816H209.831ZM215.192 164.543V166.336H204.241V161.15H206.526V164.543H215.192ZM229.717 150.621V159.217H227.467V150.621H229.717ZM221.227 159.92V161.414H227.484V159.92H229.717V166.441H219.012V159.92H221.227ZM221.227 164.631H227.484V163.154H221.227V164.631ZM220.945 151.289C223.441 151.271 225.322 152.836 225.322 155.086C225.322 157.266 223.441 158.83 220.945 158.83C218.449 158.83 216.568 157.266 216.568 155.086C216.568 152.836 218.449 151.271 220.945 151.289ZM220.945 153.152C219.662 153.152 218.748 153.873 218.766 155.086C218.748 156.281 219.662 156.984 220.945 156.984C222.193 156.984 223.107 156.281 223.107 155.086C223.107 153.873 222.193 153.152 220.945 153.152ZM244.786 150.621V166.617H242.554V150.621H244.786ZM234.415 152.15V160.746C236.577 160.72 238.898 160.518 241.253 160.061L241.534 161.906C238.722 162.486 236.085 162.68 233.607 162.662H232.2V152.15H234.415ZM258.977 150.621V156.562H261.332V158.391H258.977V166.652H256.727V150.621H258.977ZM254.494 152.098V153.908H249.221V160.922C251.541 160.896 253.457 160.79 255.584 160.412L255.83 162.293C253.352 162.715 251.172 162.785 248.342 162.768H246.988V152.098H254.494ZM263.499 165.158C262.673 165.158 262.005 164.49 262.023 163.682C262.005 162.873 262.673 162.223 263.499 162.223C264.273 162.223 264.958 162.873 264.958 163.682C264.958 164.49 264.273 165.158 263.499 165.158Z" fill="#515E67" fill-opacity="0.6"/>
<rect x="24.5" y="230" width="72" height="20" rx="6" fill="#F2F3F5"/>
<rect x="24.5" y="268" width="133" height="20" rx="6" fill="#F2F3F5"/>
<rect x="24.5" y="306" width="79" height="94" rx="6" fill="#F2F3F5"/>
<rect x="112.5" y="306" width="79" height="94" rx="6" fill="#F2F3F5"/>
<rect x="200.5" y="306" width="79" height="94" rx="6" fill="#F2F3F5"/>
</svg>
