<svg width="25" height="24" viewBox="0 0 25 24" fill="none" xmlns="http://www.w3.org/2000/svg">
<mask id="mask0_325_1502" style="mask-type:alpha" maskUnits="userSpaceOnUse" x="5" y="2" width="18" height="20">
<path d="M21.4197 10.861C22.3231 11.3581 22.3231 12.6416 21.4197 13.1387L6.97217 21.0889C6.09234 21.573 5.00977 20.9448 5.00977 19.95L5.00977 4.04972C5.00977 3.05497 6.09234 2.4267 6.97217 2.91085L21.4197 10.861Z" fill="#C4C4C4"/>
</mask>
<g mask="url(#mask0_325_1502)">
<path d="M5.46168 20.9329L14.4736 11.8704L5.6101 2.95703C5.25649 3.18372 5.00977 3.57508 5.00977 4.04997V19.9503C5.00977 20.3554 5.18935 20.6998 5.46168 20.9329Z" fill="url(#paint0_linear_325_1502)"/>
<path d="M21.4187 10.861C22.3221 11.3581 22.3221 12.6416 21.4187 13.1387L17.7739 15.1444L14.4727 11.8701L17.6056 8.7627L21.4187 10.861Z" fill="url(#paint1_linear_325_1502)"/>
<path d="M17.7761 15.1445L14.4749 11.8701L5.46289 20.9327C5.85919 21.2721 6.45192 21.3759 6.97342 21.089L17.7761 15.1445Z" fill="url(#paint2_linear_325_1502)"/>
<path d="M5.60938 2.95677L14.4729 11.8701L17.6058 8.7627L6.97143 2.91085C6.51163 2.65784 5.99647 2.70863 5.60938 2.95677Z" fill="url(#paint3_linear_325_1502)"/>
</g>
<defs>
<linearGradient id="paint0_linear_325_1502" x1="11.1876" y1="8.35038" x2="5.06036" y2="14.528" gradientUnits="userSpaceOnUse">
<stop stop-color="#00C3FF"/>
<stop offset="1" stop-color="#1BE2FA"/>
</linearGradient>
<linearGradient id="paint1_linear_325_1502" x1="14.4727" y1="11.8701" x2="22.6221" y2="11.8701" gradientUnits="userSpaceOnUse">
<stop stop-color="#FFCE00"/>
<stop offset="1" stop-color="#FFEA00"/>
</linearGradient>
<linearGradient id="paint2_linear_325_1502" x1="5.2739" y1="22.039" x2="16.1143" y2="13.3481" gradientUnits="userSpaceOnUse">
<stop stop-color="#DE2453"/>
<stop offset="1" stop-color="#FE3944"/>
</linearGradient>
<linearGradient id="paint3_linear_325_1502" x1="5.79768" y1="1.96194" x2="16.1141" y2="10.3883" gradientUnits="userSpaceOnUse">
<stop stop-color="#11D574"/>
<stop offset="1" stop-color="#01F176"/>
</linearGradient>
</defs>
</svg>
