<svg width="32" height="32" viewBox="0 0 32 32" fill="none" xmlns="http://www.w3.org/2000/svg">
<g clip-path="url(#clip0_723_2399)">
<path d="M16 3C11.0243 3 7 7.019 7 11.9882C7 17.3426 12.6829 24.7257 15.0229 27.5378C15.5371 28.1541 16.4757 28.1541 16.99 27.5378C19.3171 24.7257 25 17.3426 25 11.9882C25 7.019 20.9757 3 16 3ZM16 15.1983C14.2257 15.1983 12.7857 13.7601 12.7857 11.9882C12.7857 10.2162 14.2257 8.77812 16 8.77812C17.7743 8.77812 19.2143 10.2162 19.2143 11.9882C19.2143 13.7601 17.7743 15.1983 16 15.1983Z" fill="#C4C9D4"/>
</g>
<defs>
<clipPath id="clip0_723_2399">
<rect width="32" height="32" rx="16" fill="white"/>
</clipPath>
</defs>
</svg>
