<svg width="32" height="32" viewBox="0 0 32 32" fill="none" xmlns="http://www.w3.org/2000/svg">
<g clip-path="url(#clip0_723_2402)">
<path d="M24.7998 7C26.0098 7 27 8.0125 27 9.25V22.75C27 23.9875 26.0098 25 24.7998 25H7.2002C5.9902 25 5 23.9875 5 22.75L5.01074 9.25C5.01074 8.0125 5.9902 7 7.2002 7H24.7998ZM24.7988 10.5371C24.4445 9.97736 23.7035 9.81092 23.1436 10.165L16.002 14.6816L8.86035 10.165C8.30039 9.81108 7.55937 9.97735 7.20508 10.5371C6.85116 11.097 7.01765 11.838 7.57715 12.1924L15.3604 17.1162C15.7519 17.3637 16.252 17.3637 16.6436 17.1162L24.4268 12.1924C24.9862 11.838 25.1526 11.097 24.7988 10.5371Z" fill="#C4C9D4"/>
</g>
<defs>
<clipPath id="clip0_723_2402">
<rect width="32" height="32" rx="16" fill="white"/>
</clipPath>
</defs>
</svg>
