<svg width="30" height="30" viewBox="0 0 30 30" fill="none" xmlns="http://www.w3.org/2000/svg">
<path d="M26.25 9.375V25.625C26.25 27 25.125 28.125 23.75 28.125H6.23828C4.86328 28.125 3.75 27 3.75 25.625L3.7627 4.375C3.7627 3 4.875 1.875 6.25 1.875H18.75L26.25 9.375ZM7.16309 17.8252C6.88694 17.8252 6.66309 18.0491 6.66309 18.3252V23.875C6.66309 24.1511 6.88694 24.375 7.16309 24.375H7.88184C8.15789 24.3749 8.38184 24.1511 8.38184 23.875V22.9023C8.38207 22.6264 8.60584 22.4023 8.88184 22.4023H9.39453C10.8873 22.4023 11.8739 21.5253 11.874 20.123C11.874 18.7478 10.9149 17.8252 9.44922 17.8252H7.16309ZM12.8672 17.8252C12.5911 17.8252 12.3672 18.0491 12.3672 18.3252V23.875C12.3672 24.1511 12.5911 24.375 12.8672 24.375H14.8555C16.8549 24.375 18.1123 23.1443 18.1123 21.0996C18.1122 19.055 16.8544 17.8252 14.8369 17.8252H12.8672ZM19.2686 17.8252C18.9924 17.8252 18.7686 18.0491 18.7686 18.3252V23.875C18.7686 24.1511 18.9924 24.375 19.2686 24.375H19.9873C20.2634 24.375 20.4873 24.1511 20.4873 23.875V22.2969C20.4873 22.0208 20.7113 21.7971 20.9873 21.7969H22.5479C22.8239 21.7969 23.0477 21.5729 23.0479 21.2969V20.9033C23.0479 20.6272 22.824 20.4033 22.5479 20.4033H20.9873C20.7113 20.4031 20.4873 20.1793 20.4873 19.9033V19.7178C20.4874 19.4419 20.7114 19.218 20.9873 19.2178H22.8379C23.1139 19.2176 23.3379 18.9938 23.3379 18.7178V18.3242C23.3376 18.0484 23.1137 17.8253 22.8379 17.8252H19.2686ZM14.7471 19.29C15.8054 19.2901 16.3749 19.7157 16.375 21.0996C16.375 22.4839 15.8053 22.9092 14.792 22.9092H14.5859C14.31 22.909 14.0859 22.6852 14.0859 22.4092V19.79C14.0861 19.5142 14.3101 19.2902 14.5859 19.29H14.7471ZM9.05078 19.2002C9.70221 19.2002 10.0732 19.5531 10.0732 20.123C10.0731 20.7019 9.70211 21.0635 9.05078 21.0635H8.88184C8.60569 21.0635 8.38184 20.8396 8.38184 20.5635V19.7002C8.38184 19.4241 8.60569 19.2002 8.88184 19.2002H9.05078ZM17.5 9.375C17.5 10.0625 18.0625 10.625 18.75 10.625H24.375L17.5 3.75V9.375Z" fill="#868D9B"/>
</svg>
